<?xml version="1.0" encoding="UTF-8"?>
<svg width="230px" height="120px" viewBox="0 0 230 120" version="1.1" xmlns="http://www.w3.org/2000/svg" xmlns:xlink="http://www.w3.org/1999/xlink">
    <!-- Generator: Sketch 55.1 (78136) - https://sketchapp.com -->
    <title>report_tile_image_donut</title>
    <desc>Created with Sketch.</desc>
    <defs>
        <rect id="path-1" x="0" y="0" width="230" height="120"></rect>
        <ellipse id="path-3" cx="63.113193" cy="62.4474299" rx="51.0235667" ry="50.4145219"></ellipse>
    </defs>
    <g id="report_tile_image_donut" stroke="none" stroke-width="1" fill="none" fill-rule="evenodd">
        <g id="img-donut">
            <mask id="mask-2" fill="white">
                <use xlink:href="#path-1"></use>
            </mask>
            <use id="Mask" fill="#F0F0F0" xlink:href="#path-1"></use>
            <g id="report" mask="url(#mask-2)">
                <g transform="translate(117.191341, 78.754329) rotate(-5.000000) translate(-117.191341, -78.754329) translate(16.191341, 24.254329)">
                    <rect id="Rectangle-Copy-36" fill="#CCCCCC" fill-rule="evenodd" x="189.984779" y="2.34862297" width="12" height="106"></rect>
                    <rect id="Rectangle-Copy-38" fill="#FFFFFF" fill-rule="evenodd" x="-5.91171556e-12" y="2" width="198" height="106"></rect>
                    <rect id="Rectangle-Copy-51" fill="#969696" fill-rule="evenodd" x="7.34862297" y="25.0152212" width="72" height="2"></rect>
                    <rect id="Rectangle-Copy-52" fill="#969696" fill-rule="evenodd" x="7.34862297" y="45.0152212" width="72" height="2"></rect>
                    <rect id="Rectangle-Copy-53" fill="#969696" fill-rule="evenodd" x="7.34862297" y="65.0152212" width="72" height="2"></rect>
                    <rect id="Rectangle-Copy-54" fill="#969696" fill-rule="evenodd" x="7.34862297" y="85.0152212" width="72" height="2"></rect>
                    <rect id="Rectangle-Copy-48" fill="#969696" fill-rule="evenodd" x="6.82568851" y="9.9923894" width="72" height="8"></rect>
                    <path d="M10.4357787,32.0190265 L18.4357787,32.0190265 L18.4357787,40.0190265 L10.4357787,40.0190265 L10.4357787,32.0190265 Z M12.4357787,34.0190265 L12.4357787,38.0190265 L16.4357787,38.0190265 L16.4357787,34.0190265 L12.4357787,34.0190265 Z" id="Rectangle-Copy-55" fill="#969696" fill-rule="nonzero"></path>
                    <path d="M10.4357787,52.0190265 L18.4357787,52.0190265 L18.4357787,60.0190265 L10.4357787,60.0190265 L10.4357787,52.0190265 Z M12.4357787,54.0190265 L12.4357787,58.0190265 L16.4357787,58.0190265 L16.4357787,54.0190265 L12.4357787,54.0190265 Z" id="Rectangle-Copy-56" fill="#969696" fill-rule="nonzero"></path>
                    <path d="M10.4357787,72.0190265 L18.4357787,72.0190265 L18.4357787,80.0190265 L10.4357787,80.0190265 L10.4357787,72.0190265 Z M12.4357787,74.0190265 L12.4357787,78.0190265 L16.4357787,78.0190265 L16.4357787,74.0190265 L12.4357787,74.0190265 Z" id="Rectangle-Copy-57" fill="#969696" fill-rule="nonzero"></path>
                    <polygon id="Line-2" fill="#FFFFFF" fill-rule="nonzero" points="197.71582 1.93615815 0.0981204331 0.704098699 0.0918859941 1.70407926 197.709586 2.93613871"></polygon>
                </g>
            </g>
            <path d="M132.117697,35.541466 C139.62499,31.3752562 148.282417,29 157.5,29 C186.218807,29 209.5,52.0573354 209.5,80.5 C209.5,101.394372 196.936134,119.382511 178.882303,127.458534 C194.765145,118.644273 205.5,101.813712 205.5,82.5 C205.5,54.0573354 182.218807,31 153.5,31 C145.878423,31 138.639816,32.6239252 132.117697,35.541466 Z" id="shadow" fill="#CCCCCC" mask="url(#mask-2)"></path>
            <g id="pie" mask="url(#mask-2)">
                <g transform="translate(152.958449, 82.994281) scale(-1, 1) rotate(-165.000000) translate(-152.958449, -82.994281) translate(89.958449, 20.494281)">
                    <mask id="mask-4" fill="white">
                        <use xlink:href="#path-3"></use>
                    </mask>
                    <g id="Mask" stroke="none" fill="none" fill-rule="nonzero" transform="translate(63.113193, 62.447430) rotate(-15.000000) translate(-63.113193, -62.447430) "></g>
                    <polygon id="Rectangle-5" stroke="none" fill="#3869B1" fill-rule="nonzero" mask="url(#mask-4)" points="65.1223164 62.0130765 86.1305581 10.4623283 115.506485 35.4608284 121.090585 91.1813492 79.0357027 113.638971"></polygon>
                    <polygon id="Rectangle-5-Copy" stroke="none" fill="#DA7E31" fill-rule="nonzero" mask="url(#mask-4)" points="49.2129248 9.98108614 83.2544601 10.2906919 63.7705836 60.4975058 16.6032413 28.9846371"></polygon>
                    <polygon id="Rectangle-5-Copy-3" stroke="none" fill="#CC2428" fill-rule="nonzero" mask="url(#mask-4)" points="63.8337714 64.2320261 77.2060005 113.849946 39.886244 111.876618"></polygon>
                    <polygon id="Path" stroke="none" fill="#3F9852" fill-rule="nonzero" mask="url(#mask-4)" points="16.430609 31.8441422 62.2453671 62.4240699 34.0246036 118.12737 6.26555554 71.1278448"></polygon>
                </g>
            </g>
            <circle id="hole" fill="#FFFFFF" mask="url(#mask-2)" cx="152.5" cy="84.5" r="35.5"></circle>
            <path d="M130.477021,56.4770211 C125.190949,62.675511 122,70.7151125 122,79.5 C122,99.1061086 137.893891,115 157.5,115 C166.284887,115 174.324489,111.809051 180.522979,106.522979 C174.011597,114.158277 164.321221,119 153.5,119 C133.893891,119 118,103.106109 118,83.5 C118,72.6787789 122.841723,62.9884028 130.477021,56.4770211 Z" id="inner-shadow" fill="#CCCCCC" mask="url(#mask-2)"></path>
        </g>
    </g>
</svg>