<?xml version="1.0" encoding="UTF-8"?>
<svg width="230px" height="120px" viewBox="0 0 230 120" version="1.1" xmlns="http://www.w3.org/2000/svg" xmlns:xlink="http://www.w3.org/1999/xlink">
    <!-- Generator: Sketch 55.1 (78136) - https://sketchapp.com -->
    <title>report_tile_image_bars</title>
    <desc>Created with Sketch.</desc>
    <defs>
        <rect id="path-1" x="0" y="0" width="230" height="120"></rect>
    </defs>
    <g id="report_tile_image_bars" stroke="none" stroke-width="1" fill="none" fill-rule="evenodd">
        <g id="img-columns">
            <mask id="mask-2" fill="white">
                <use xlink:href="#path-1"></use>
            </mask>
            <use id="Mask" fill="#F0F0F0" xlink:href="#path-1"></use>
            <g id="report" mask="url(#mask-2)">
                <g transform="translate(117.191341, 78.754329) rotate(-5.000000) translate(-117.191341, -78.754329) translate(16.191341, 24.254329)">
                    <rect id="Rectangle-Copy-36" fill="#CCCCCC" fill-rule="evenodd" x="189.984779" y="2.34862297" width="12" height="106"></rect>
                    <rect id="Rectangle-Copy-38" fill="#FFFFFF" fill-rule="evenodd" x="-5.68434189e-12" y="2" width="198" height="106"></rect>
                    <rect id="Rectangle-Copy-51" fill="#969696" fill-rule="evenodd" x="7.34862297" y="25.0152212" width="72" height="2"></rect>
                    <rect id="Rectangle-Copy-52" fill="#969696" fill-rule="evenodd" x="7.34862297" y="45.0152212" width="72" height="2"></rect>
                    <rect id="Rectangle-Copy-53" fill="#969696" fill-rule="evenodd" x="7.34862297" y="65.0152212" width="72" height="2"></rect>
                    <rect id="Rectangle-Copy-54" fill="#969696" fill-rule="evenodd" x="7.34862297" y="85.0152212" width="72" height="2"></rect>
                    <rect id="Rectangle-Copy-48" fill="#969696" fill-rule="evenodd" x="6.82568851" y="9.9923894" width="72" height="8"></rect>
                    <path d="M10.4357787,32.0190265 L18.4357787,32.0190265 L18.4357787,40.0190265 L10.4357787,40.0190265 L10.4357787,32.0190265 Z M12.4357787,34.0190265 L12.4357787,38.0190265 L16.4357787,38.0190265 L16.4357787,34.0190265 L12.4357787,34.0190265 Z" id="Rectangle-Copy-55" fill="#969696" fill-rule="nonzero"></path>
                    <path d="M10.4357787,52.0190265 L18.4357787,52.0190265 L18.4357787,60.0190265 L10.4357787,60.0190265 L10.4357787,52.0190265 Z M12.4357787,54.0190265 L12.4357787,58.0190265 L16.4357787,58.0190265 L16.4357787,54.0190265 L12.4357787,54.0190265 Z" id="Rectangle-Copy-56" fill="#969696" fill-rule="nonzero"></path>
                    <path d="M10.4357787,72.0190265 L18.4357787,72.0190265 L18.4357787,80.0190265 L10.4357787,80.0190265 L10.4357787,72.0190265 Z M12.4357787,74.0190265 L12.4357787,78.0190265 L16.4357787,78.0190265 L16.4357787,74.0190265 L12.4357787,74.0190265 Z" id="Rectangle-Copy-57" fill="#969696" fill-rule="nonzero"></path>
                    <polygon id="Line-2" fill="#FFFFFF" fill-rule="nonzero" points="197.71582 1.93615815 0.0981204331 0.704098699 0.0918859941 1.70407926 197.709586 2.93613871"></polygon>
                </g>
            </g>
            <path d="M112.40168,30 L112.40168,108.335498 L201,108.335498 L201,112 L109,112 L109,30 L112.40168,30 Z" id="Combined-Shape" fill="#677C9B" opacity="0.5" mask="url(#mask-2)" transform="translate(155.000000, 71.000000) rotate(-6.000000) translate(-155.000000, -71.000000) "></path>
            <g id="columns" mask="url(#mask-2)">
                <g transform="translate(157.290025, 60.346690) rotate(-6.000000) translate(-157.290025, -60.346690) translate(115.790025, 15.346690)">
                    <g id="Group-15-Copy" transform="translate(43.000000, 47.500000) rotate(270.000000) translate(-43.000000, -47.500000) translate(3.500000, 7.500000)">
                        <polygon id="Rectangle-3-Copy" fill="#CCCCCC" fill-rule="nonzero" points="70 30 70 50 -1.13686838e-13 50 -1.13686838e-13 30"></polygon>
                        <polygon id="Rectangle-3-Copy-13" fill="#CCCCCC" fill-rule="nonzero" points="45 60 45 80 -1.13686838e-13 80 -1.13686838e-13 60"></polygon>
                        <polygon id="Rectangle-3-Copy-5" fill="#CCCCCC" fill-rule="nonzero" points="79 2.25597319e-13 79 20 3.41060513e-13 20 3.41060513e-13 2.37439698e-13"></polygon>
                    </g>
                    <g id="Group-15-Copy-2" transform="translate(40.000000, 45.000000) rotate(270.000000) translate(-40.000000, -45.000000) translate(-5.000000, 5.000000)">
                        <polygon id="Rectangle-3-Copy" fill="#3869B1" fill-rule="nonzero" points="70 30 70 50 -1.13686838e-13 50 -1.13686838e-13 30"></polygon>
                        <polygon id="Rectangle-3-Copy-13" fill="#3869B1" fill-rule="nonzero" points="45 60 45 80 -1.13686838e-13 80 -1.13686838e-13 60"></polygon>
                        <polygon id="Rectangle-3-Copy-5" fill="#3869B1" fill-rule="nonzero" points="90 0 90 20 0 20 0 1.18423789e-14"></polygon>
                    </g>
                </g>
            </g>
        </g>
    </g>
</svg>