<?xml version="1.0" encoding="UTF-8"?>
<svg width="230px" height="120px" viewBox="0 0 230 120" version="1.1" xmlns="http://www.w3.org/2000/svg" xmlns:xlink="http://www.w3.org/1999/xlink">
    <!-- Generator: Sketch 55.1 (78136) - https://sketchapp.com -->
    <title>report_tile_image_lines</title>
    <desc>Created with Sketch.</desc>
    <defs>
        <rect id="path-1" x="0" y="0" width="230" height="120"></rect>
    </defs>
    <g id="report_tile_image_lines" stroke="none" stroke-width="1" fill="none" fill-rule="evenodd">
        <g id="img-lines">
            <mask id="mask-2" fill="white">
                <use xlink:href="#path-1"></use>
            </mask>
            <use id="Mask" fill="#F0F0F0" xlink:href="#path-1"></use>
            <g id="report" mask="url(#mask-2)">
                <g transform="translate(117.191341, 78.754329) rotate(-5.000000) translate(-117.191341, -78.754329) translate(16.191341, 24.254329)">
                    <rect id="Rectangle-Copy-36" fill="#CCCCCC" fill-rule="evenodd" x="189.984779" y="2.34862297" width="12" height="106"></rect>
                    <rect id="Rectangle-Copy-38" fill="#FFFFFF" fill-rule="evenodd" x="-5.68434189e-12" y="2" width="198" height="106"></rect>
                    <rect id="Rectangle-Copy-51" fill="#969696" fill-rule="evenodd" x="7.34862297" y="25.0152212" width="72" height="2"></rect>
                    <rect id="Rectangle-Copy-52" fill="#969696" fill-rule="evenodd" x="7.34862297" y="45.0152212" width="72" height="2"></rect>
                    <rect id="Rectangle-Copy-53" fill="#969696" fill-rule="evenodd" x="7.34862297" y="65.0152212" width="72" height="2"></rect>
                    <rect id="Rectangle-Copy-54" fill="#969696" fill-rule="evenodd" x="7.34862297" y="85.0152212" width="72" height="2"></rect>
                    <rect id="Rectangle-Copy-48" fill="#969696" fill-rule="evenodd" x="6.82568851" y="9.9923894" width="72" height="8"></rect>
                    <path d="M10.4357787,32.0190265 L18.4357787,32.0190265 L18.4357787,40.0190265 L10.4357787,40.0190265 L10.4357787,32.0190265 Z M12.4357787,34.0190265 L12.4357787,38.0190265 L16.4357787,38.0190265 L16.4357787,34.0190265 L12.4357787,34.0190265 Z" id="Rectangle-Copy-55" fill="#969696" fill-rule="nonzero"></path>
                    <path d="M10.4357787,52.0190265 L18.4357787,52.0190265 L18.4357787,60.0190265 L10.4357787,60.0190265 L10.4357787,52.0190265 Z M12.4357787,54.0190265 L12.4357787,58.0190265 L16.4357787,58.0190265 L16.4357787,54.0190265 L12.4357787,54.0190265 Z" id="Rectangle-Copy-56" fill="#969696" fill-rule="nonzero"></path>
                    <path d="M10.4357787,72.0190265 L18.4357787,72.0190265 L18.4357787,80.0190265 L10.4357787,80.0190265 L10.4357787,72.0190265 Z M12.4357787,74.0190265 L12.4357787,78.0190265 L16.4357787,78.0190265 L16.4357787,74.0190265 L12.4357787,74.0190265 Z" id="Rectangle-Copy-57" fill="#969696" fill-rule="nonzero"></path>
                    <polygon id="Line-2" fill="#FFFFFF" fill-rule="nonzero" points="197.71582 1.93615815 0.0981204331 0.704098699 0.0918859941 1.70407926 197.709586 2.93613871"></polygon>
                </g>
            </g>
            <path d="M112.40168,30 L112.40168,108.335498 L201,108.335498 L201,112 L109,112 L109,30 L112.40168,30 Z" id="Combined-Shape" fill="#677C9B" opacity="0.5" mask="url(#mask-2)" transform="translate(155.000000, 71.000000) rotate(-6.000000) translate(-155.000000, -71.000000) "></path>
            <g id="shadows" mask="url(#mask-2)" fill="#CCCCCC" fill-rule="nonzero">
                <g transform="translate(114.834143, 50.672985)">
                    <path d="M85.8984744,37.1115093 C74.3993468,40.3477178 66.424352,39.7121483 60.3350139,35.9037651 C55.4804738,32.8676471 52.1036627,28.4893572 46.535987,18.9746053 C46.5523913,19.0026392 44.5936593,15.6421549 44.0216017,14.6722223 C41.5751569,10.5242373 39.6888347,7.57785129 37.5882848,4.76115052 C26.9921318,-9.44760084 12.6141946,-6.18952304 -3.01900538,12.3564457 C-4.4428188,14.0455432 -4.22776355,16.5690561 -2.53866603,17.9928695 C-0.849568511,19.416683 1.67394442,19.2016277 3.09775784,17.5125302 C15.8658482,2.36549663 24.3828287,0.435526781 31.1752208,9.5436824 C33.0692626,12.083469 34.818181,14.815234 37.1308178,18.7363456 C37.6904766,19.6852556 39.6384114,23.0272158 39.6312591,23.014993 C45.8299197,33.608052 49.7928033,38.7462291 56.0929826,42.6864762 C64.2680338,47.7993025 74.5427155,48.6181461 88.0657291,44.8123539 C90.1922586,44.213883 91.4309949,42.0048337 90.832524,39.8783042 C90.2340531,37.7517747 88.0250039,36.5130384 85.8984744,37.1115093 Z" id="Line"></path>
                    <path d="M74.1301633,22.3114645 C66.8349934,26.478857 60.0153485,28.1472291 52.9789032,27.8934061 C47.5155493,27.6963286 42.8748651,26.5968168 34.4602759,23.8865051 C23.7967372,20.4518141 20.3452142,19.5686604 14.8126592,19.4740431 C9.14918906,19.3771869 3.90230774,20.7918459 -1.19176787,24.0108967 C-3.05928235,25.1910173 -3.61652513,27.6616138 -2.43640446,29.5291283 C-1.25628379,31.3966427 1.21431264,31.9538855 3.08182712,30.7737648 C6.83369948,28.4028798 10.5450518,27.4022287 14.6758639,27.4728735 C19.1036551,27.5485972 22.1790618,28.3355126 32.0075915,31.50125 C41.0829903,34.4244063 46.2861474,35.6571841 52.6905099,35.8882062 C61.211486,36.1955801 69.5058665,34.1664256 78.0983588,29.2579329 C80.0165731,28.162146 80.6832822,25.7188152 79.5874953,23.8006009 C78.4917083,21.8823866 76.0483776,21.2156775 74.1301633,22.3114645 Z" id="Line-Copy"></path>
                    <path d="M67.1393593,40.2965876 C52.8130915,47.167089 24.3763818,33.6872495 3.17566421,6.90507555 C1.80451815,5.17295153 -0.711179298,4.88032107 -2.44330332,6.25146713 C-4.17542733,7.62261318 -4.46805779,10.1383106 -3.09691174,11.8704347 C20.1483299,41.235389 52.1000441,56.3814443 70.5987085,47.5099712 C72.5906294,46.5546983 73.4309986,44.1655257 72.4757257,42.1736048 C71.5204528,40.1816839 69.1312802,39.3413147 67.1393593,40.2965876 Z" id="Line-Copy-4" transform="translate(34.454587, 27.710372) scale(1, -1) translate(-34.454587, -27.710372) "></path>
                </g>
            </g>
            <g id="lines" mask="url(#mask-2)" fill-rule="nonzero">
                <g transform="translate(114.834143, 51.672985)">
                    <path d="M85.1932534,37.9694469 C73.4324844,41.2771104 65.1634661,40.6185424 58.8084321,36.6466047 C53.7695843,33.497292 50.3172449,29.0240209 44.6669186,19.374382 C44.6821771,19.4004404 42.7235046,16.0422706 42.1526203,15.0749646 C39.7212968,10.9553318 37.8509142,8.03576624 35.7748109,5.25367959 C25.6485006,-8.31610401 11.9967731,-5.22462375 -3.28768047,12.8956834 C-4.35595162,14.16216 -4.19527443,16.0548469 -2.92879792,17.123118 C-1.66232142,18.1913892 0.230365526,18.030712 1.29863668,16.7642355 C14.4341831,1.19154041 23.6924556,-0.905026979 30.9661453,8.84209641 C32.8872652,11.4164972 34.6545179,14.1750826 36.9854111,18.1245464 C37.5469887,19.0760831 39.4975567,22.4203577 39.4892429,22.4061594 C45.6130042,32.8643315 49.5051946,37.9075273 55.6284146,41.7345797 C63.5471668,46.6838514 73.539847,47.4796966 86.8177028,43.7453593 C88.412677,43.29678 89.3420136,41.6401526 88.8934343,40.0451784 C88.444855,38.4502042 86.7882276,37.5208676 85.1932534,37.9694469 Z" id="blue" fill="#3869B1"></path>
                    <path d="M72.7368936,23.0748227 C65.2741521,27.3351345 58.2648855,29.0487672 51.0374144,28.7882251 C45.4523028,28.5868881 40.7379518,27.4706579 32.2348609,24.7336431 C21.6691331,21.3326971 18.2625428,20.4616143 12.865065,20.3693678 C7.39028712,20.2758003 2.33269687,21.6385251 -2.59636584,24.7512503 C-3.99726482,25.6359243 -4.41574786,27.4887473 -3.53107388,28.8896462 C-2.6463999,30.2905452 -0.793576927,30.7090283 0.607322051,29.8243543 C4.53003467,27.3471437 8.43657937,26.2945583 12.762536,26.3684918 C17.3319658,26.4465863 20.4566047,27.2455727 30.3964448,30.4450551 C39.3948637,33.3415083 44.5308388,34.5575677 50.8212616,34.7843303 C59.1614605,35.084985 67.2761758,33.1010911 75.7115626,28.2855178 C77.1504564,27.4640856 77.6510079,25.6317294 76.8295757,24.1928357 C76.0081435,22.753942 74.1757873,22.2533905 72.7368936,23.0748227 Z" id="orange" fill="#E0974D"></path>
                    <path d="M66.5839166,41.0933991 C51.7244972,48.2148946 22.828029,34.5261337 1.35709718,7.42046317 C0.328321327,6.12169982 -1.55852201,5.90283171 -2.85728536,6.93160756 C-4.15604871,7.96038342 -4.37491682,9.84722675 -3.34614097,11.1459901 C19.6581657,40.1874479 51.189903,55.1245817 69.1770396,46.5041027 C70.6711641,45.7880316 71.301901,43.996314 70.5858299,42.5021894 C69.8697588,41.0080649 68.0780412,40.377328 66.5839166,41.0933991 Z" id="green" fill="#3F9852" transform="translate(33.443265, 27.607218) scale(1, -1) translate(-33.443265, -27.607218) "></path>
                </g>
            </g>
        </g>
    </g>
</svg>