<?xml version="1.0" encoding="UTF-8"?>
<svg width="230px" height="120px" viewBox="0 0 230 120" version="1.1" xmlns="http://www.w3.org/2000/svg" xmlns:xlink="http://www.w3.org/1999/xlink">
    <!-- Generator: Sketch 55.1 (78136) - https://sketchapp.com -->
    <title>report_tile_image_progress</title>
    <desc>Created with Sketch.</desc>
    <defs>
        <rect id="path-1" x="0" y="0" width="230" height="120"></rect>
        <path d="M38.3333333,97 C67.9726149,97 92,75.2858104 92,48.5 C92,21.7141896 67.9726149,-1.42108547e-14 38.3333333,-1.42108547e-14 C38.3333333,-1.42108547e-14 38.3333333,16.1666667 38.3333333,48.5 L18.9411765,31.2372881 C16.9623543,33.7108028 15.4590863,36.1769045 14.4313725,38.6355932 C13.4036588,41.0942819 12.501698,44.3824175 11.7254902,48.5 C4.50980392,48.5 0.901960784,48.5 0.901960784,48.5 C0.901960784,56.1188486 4.50980392,64.0651763 11.7254902,72.3389831 C3.90849673,79.4632768 0.0839937489,82.9082161 0.251981247,82.6738009 C9.97408289,91.5215824 23.4457767,97 38.3333333,97 Z" id="path-3"></path>
    </defs>
    <g id="report_tile_image_progress" stroke="none" stroke-width="1" fill="none" fill-rule="evenodd">
        <g id="img-progress-donut">
            <mask id="mask-2" fill="white">
                <use xlink:href="#path-1"></use>
            </mask>
            <use id="Mask" fill="#F0F0F0" xlink:href="#path-1"></use>
            <g id="report" mask="url(#mask-2)">
                <g transform="translate(117.191341, 78.754329) rotate(-5.000000) translate(-117.191341, -78.754329) translate(16.191341, 24.254329)">
                    <rect id="Rectangle-Copy-36" fill="#CCCCCC" fill-rule="evenodd" x="189.984779" y="2.34862297" width="12" height="106"></rect>
                    <rect id="Rectangle-Copy-38" fill="#FFFFFF" fill-rule="evenodd" x="-5.45696821e-12" y="2" width="198" height="106"></rect>
                    <rect id="Rectangle-Copy-51" fill="#969696" fill-rule="evenodd" x="7.34862297" y="25.0152212" width="72" height="2"></rect>
                    <rect id="Rectangle-Copy-52" fill="#969696" fill-rule="evenodd" x="7.34862297" y="45.0152212" width="72" height="2"></rect>
                    <rect id="Rectangle-Copy-53" fill="#969696" fill-rule="evenodd" x="7.34862297" y="65.0152212" width="72" height="2"></rect>
                    <rect id="Rectangle-Copy-54" fill="#969696" fill-rule="evenodd" x="7.34862297" y="85.0152212" width="72" height="2"></rect>
                    <rect id="Rectangle-Copy-48" fill="#969696" fill-rule="evenodd" x="6.82568851" y="9.9923894" width="72" height="8"></rect>
                    <path d="M10.4357787,32.0190265 L18.4357787,32.0190265 L18.4357787,40.0190265 L10.4357787,40.0190265 L10.4357787,32.0190265 Z M12.4357787,34.0190265 L12.4357787,38.0190265 L16.4357787,38.0190265 L16.4357787,34.0190265 L12.4357787,34.0190265 Z" id="Rectangle-Copy-55" fill="#969696" fill-rule="nonzero"></path>
                    <path d="M10.4357787,52.0190265 L18.4357787,52.0190265 L18.4357787,60.0190265 L10.4357787,60.0190265 L10.4357787,52.0190265 Z M12.4357787,54.0190265 L12.4357787,58.0190265 L16.4357787,58.0190265 L16.4357787,54.0190265 L12.4357787,54.0190265 Z" id="Rectangle-Copy-56" fill="#969696" fill-rule="nonzero"></path>
                    <path d="M10.4357787,72.0190265 L18.4357787,72.0190265 L18.4357787,80.0190265 L10.4357787,80.0190265 L10.4357787,72.0190265 Z M12.4357787,74.0190265 L12.4357787,78.0190265 L16.4357787,78.0190265 L16.4357787,74.0190265 L12.4357787,74.0190265 Z" id="Rectangle-Copy-57" fill="#969696" fill-rule="nonzero"></path>
                    <polygon id="Line-2" fill="#FFFFFF" fill-rule="nonzero" points="197.71582 1.93615815 0.0981204331 0.704098699 0.0918859941 1.70407926 197.709586 2.93613871"></polygon>
                </g>
            </g>
            <g id="progress-donut" mask="url(#mask-2)">
                <g transform="translate(112.000000, 29.000000)">
                    <g id="Group-25" stroke-width="1" fill="none" transform="translate(0.000000, 2.000000)">
                        <mask id="mask-4" fill="white">
                            <use xlink:href="#path-3"></use>
                        </mask>
                        <g id="Mask"></g>
                        <g mask="url(#mask-4)">
                            <g transform="translate(-9.921569, 2.288136)">
                                <ellipse id="blue" fill="#3869B1" fill-rule="nonzero" cx="49.6078431" cy="45.2118644" rx="49.6078431" ry="45.2118644"></ellipse>
                                <ellipse id="border" fill="#FFFFFF" fill-rule="nonzero" cx="48.8162319" cy="45.4017869" rx="38.9927025" ry="35.5373801"></ellipse>
                                <ellipse id="orange" fill="#DA7E31" fill-rule="nonzero" cx="48.3162319" cy="45.0347088" rx="37.4927025" ry="34.170302"></ellipse>
                                <path d="M48.5671531,69.666678 C63.3155904,69.666678 75.2715611,58.616709 75.2715611,44.9858814 C75.2715611,31.3550538 63.3155904,20.3050847 48.5671531,20.3050847 C33.8187158,20.3050847 21.8627451,31.3550538 21.8627451,44.9858814 C21.8627451,58.616709 33.8187158,69.666678 48.5671531,69.666678 Z" id="border" fill="#FFFFFF" fill-rule="nonzero"></path>
                                <ellipse id="green" fill="#3F9852" fill-rule="nonzero" cx="48.6470588" cy="44.7288136" rx="25" ry="23"></ellipse>
                                <path d="M48.7529801,57.3952453 C57.0027337,57.3952453 63.6904804,51.4505816 63.6904804,44.1174673 C63.6904804,36.784353 57.0027337,30.8396893 48.7529801,30.8396893 C40.5032265,30.8396893 33.8154799,36.784353 33.8154799,44.1174673 C33.8154799,51.4505816 40.5032265,57.3952453 48.7529801,57.3952453 Z" id="core" fill="#FFFFFF" fill-rule="nonzero"></path>
                                <g id="bars-1-copy-8" stroke-width="1" fill="none" fill-rule="evenodd" transform="translate(33.372549, 31.415254)"></g>
                                <path d="M40.2670199,33.1040648 C38.7877209,35.109923 37.9215686,37.5413805 37.9215686,40.1619395 C37.9215686,47.0379261 43.8847278,52.6120146 51.2406575,52.6120146 C54.4824459,52.6120146 57.4537303,51.5294145 59.7633146,49.7298865 C57.3611363,52.9871245 53.342133,55.1220869 48.7896771,55.1220869 C41.4337474,55.1220869 35.4705882,49.5479984 35.4705882,42.6720118 C35.4705882,38.8263007 37.3359353,35.3878389 40.2670199,33.1040648 Z" id="Combined-Shape" fill="#CCCCCC" fill-rule="evenodd" opacity="0.599753534"></path>
                            </g>
                        </g>
                    </g>
                    <path d="M41.2682298,1.00491593 C42.2829293,0.526048208 43.0900711,0.19107623 43.6896552,5.68434189e-14 C71.5365968,5.68434189e-14 94.1110033,21.0426168 94.1110033,47 C94.1110033,64.7298721 83.5791276,80.1668063 68.0288733,88.1714248 C81.65477,79.9128618 90.6896552,65.4346066 90.6896552,48.9538046 C90.6896552,23.2725638 68.7516079,2.45380464 41.6896552,2.45380464 C41.2260165,2.45380464 40.7638818,2.45991541 40.3033357,2.4720567 L41.2682298,1.00491593 Z" id="Combined-Shape" fill="#CCCCCC"></path>
                </g>
            </g>
        </g>
    </g>
</svg>