<?xml version="1.0" standalone="no"?>
<!DOCTYPE svg PUBLIC "-//W3C//DTD SVG 1.1//EN" "http://www.w3.org/Graphics/SVG/1.1/DTD/svg11.dtd" >
<svg xmlns="http://www.w3.org/2000/svg">
<metadata>Generated by IcoMoon</metadata>
<defs>
<font id="totara" horiz-adv-x="1024">
<font-face units-per-em="1024" ascent="960" descent="-64" />
<missing-glyph horiz-adv-x="1024" />
<glyph unicode="&#x20;" horiz-adv-x="512" d="" />
<glyph unicode="&#xe900;" glyph-name="columns" horiz-adv-x="1036" d="M453.988 101.384v692.594c0 37.767 26.245 37.767 64.009 37.767s64.009 0 64.009-37.767v-691.955c0-37.767-26.245-37.767-64.009-37.767s-64.009 0-64.009 37.767v-0.64zM710.032 101.384v692.594c0 37.767 26.245 37.767 64.009 37.767s64.009 0 64.009-37.767v-691.955c0-37.767-26.245-37.767-64.009-37.767s-64.009 0-64.009 37.767v-0.64zM325.968 793.978v-691.955c0-37.767-26.245-37.767-64.009-37.767s-64.009 0-64.009 37.767v691.955c0 37.767 26.245 37.767 64.009 37.767s64.009 0 64.009-37.767v0z" />
<glyph unicode="&#xe901;" glyph-name="blended" horiz-adv-x="1028" d="M376.34 316.204c0-46.3-35.696-83.816-79.74-83.816s-79.74 37.52-79.74 83.816c0 46.3 35.696 83.816 79.74 83.816s79.74-37.52 79.74-83.816zM170.657 64.176c-41.98 0-41.98 21.063-41.98 42.124s0 84.248 21.015 105.312c42.748 42.892 65.058 45.244 65.058 45.244s18.904-45.244 81.852-45.244c62.996 0 81.852 45.244 81.852 45.244s22.453-2.448 65.058-45.244c21.015-21.063 21.015-84.248 21.015-105.312s0-42.124-41.98-42.124zM807.516 318.028c0-46.588-35.936-84.392-80.316-84.392s-80.316 37.808-80.316 84.392c0 46.588 35.936 84.392 80.316 84.392s80.316-37.808 80.316-84.392zM600.348 64.176c-42.268 0-42.268 21.207-42.268 42.412s0 84.872 21.159 106.080c43.036 43.18 65.538 45.58 65.538 45.58s19.048-45.58 82.427-45.58c63.428 0 82.427 45.58 82.427 45.58s22.596-2.496 65.538-45.58c21.159-21.207 21.159-84.872 21.159-106.080s0-42.412-42.268-42.412zM282.735 830.768v-326.251h459.532v326.251h-459.532zM321.020 788.788h382.96v-242.624h-382.96v242.624zM571.321 246.492h13.194v26.388h-143.982v-26.388h13.194zM444.228 457.020l9.308 9.308-18.664 18.664-81.804-81.804 18.664-18.664 9.308 9.308zM597.037 475.684l-9.308 9.308-18.664-18.664 81.804-81.804 18.664 18.664-9.308 9.308z" />
<glyph unicode="&#xe902;" glyph-name="slash" horiz-adv-x="1020" d="M135.719 1.472l665.867 950.956 82.692-57.901-665.867-950.956-82.692 57.901z" />
<glyph unicode="&#xe903;" glyph-name="seminar" d="M591.636 721.66c0.768-4.368 1.2-8.88 1.2-13.44 0-43.537-36.48-78.772-81.46-78.772s-81.46 35.28-81.46 78.772c0 4.176 0.336 8.304 1.008 12.336 8.16-4.704 18.864-8.448 32.16-11.28 14.544-3.12 30.288-4.656 47.234-4.656s32.736 1.536 47.234 4.656c14.352 3.072 25.728 7.2 34.080 12.432zM561.586 770.236c-13.824 10.512-31.248 16.752-50.21 16.752-19.2 0-36.864-6.432-50.786-17.184l42.721-12.432c2.16-0.624 4.464-0.96 7.008-0.96s4.896 0.336 7.008 0.96l44.257 12.864zM420.508 644.232c-9.888-3.552-29.856-13.44-59.236-40.561-21.456-19.824-21.456-94.9-21.456-94.9h340.814c0 0 2.208 75.124-19.2 94.9-29.712 27.456-49.826 37.248-59.62 40.705-20.832-25.2-53.715-41.425-90.724-41.425-36.912 0-69.748 16.176-90.628 41.329zM584.58 787.038l2.16-34.848c0.336-5.088-2.928-9.792-9.792-14.112s-16.224-7.776-28.080-10.32c-11.856-2.544-24.72-3.792-38.592-3.792s-26.688 1.248-38.592 3.792c-11.856 2.544-21.216 5.952-28.080 10.32s-10.128 9.024-9.792 14.112l2.16 34.848 68.548-19.968c1.728-0.528 3.648-0.768 5.712-0.768s3.984 0.24 5.712 0.768l68.548 19.968zM660.374 785.837c0-1.824-0.96-3.072-2.88-3.744l-145.926-42.337c-0.336-0.096-0.768-0.096-1.296-0.096s-0.96 0.048-1.296 0.096l-84.916 24.768c-3.744-2.736-6.816-7.2-9.264-13.392s-3.888-13.392-4.416-21.456c5.472-2.88 8.208-7.248 8.208-13.104 0-5.52-2.496-9.84-7.536-12.864l7.536-52.083c0.192-1.104-0.192-2.112-1.056-3.024-0.768-0.864-1.824-1.344-3.12-1.344h-25.008c-1.296 0-2.352 0.432-3.12 1.344-0.864 0.864-1.2 1.872-1.056 3.024l7.536 52.083c-5.040 3.024-7.536 7.344-7.536 12.864 0 5.856 2.832 10.32 8.448 13.344 0.96 16.608 5.232 29.808 12.768 39.697l-43.393 12.528c-1.92 0.624-2.88 1.872-2.88 3.744s0.96 3.072 2.88 3.744l145.926 42.337c0.336 0.096 0.768 0.144 1.296 0.144s0.96-0.048 1.296-0.144l145.926-42.337c1.92-0.624 2.88-1.872 2.88-3.744v0zM377.308 317.724c0-46.61-35.952-84.388-80.308-84.388s-80.308 37.776-80.308 84.388c0 46.61 35.952 84.388 80.308 84.388s80.308-37.776 80.308-84.388zM170.226 63.984c-42.241 0-42.241 21.216-42.241 42.385s0 84.82 21.12 106.036c43.009 43.153 65.524 45.553 65.524 45.553s19.008-45.553 82.42-45.553c63.412 0 82.42 45.553 82.42 45.553s22.608-2.448 65.524-45.553c21.12-21.216 21.12-84.82 21.12-106.036s0-42.385-42.241-42.385zM807.212 320.172c0-46.61-35.952-84.388-80.308-84.388s-80.308 37.776-80.308 84.388c0 46.61 35.952 84.388 80.308 84.388s80.308-37.776 80.308-84.388zM600.18 66.384c-42.241 0-42.241 21.216-42.241 42.385s0 84.82 21.12 106.036c43.009 43.153 65.524 45.553 65.524 45.553s19.008-45.553 82.42-45.553c63.412 0 82.42 45.553 82.42 45.553s22.608-2.448 65.524-45.553c21.12-21.216 21.12-84.82 21.12-106.036s0-42.385-42.241-42.385zM569.795 249.368h13.248v26.496h-144.486v-26.496h13.248zM442.252 460.624l9.36 9.36-18.72 18.72-82.084-82.084 18.72-18.72 9.36 9.36zM595.668 479.392l-9.36 9.36-18.72-18.72 82.084-82.084 18.72 18.72-9.36 9.36z" />
<glyph unicode="&#xe904;" glyph-name="totara" horiz-adv-x="1023" d="M421.281 611.394c0-76.619 36.534-144.692 93.111-187.822 56.563 43.129 93.099 111.2 93.099 187.822 0 76.627-36.534 144.679-93.098 187.828-56.574-43.149-93.112-111.2-93.112-187.828zM654.285 465.544c-47.459-27.378-84.87-70.316-105.394-121.104-9.772-24.168-15.152-49.535-17.929-75.302-3.289-30.187-4.506-60.274-4.341-90.411l0.070-81.95h11.434c-0.075 2.157 1.495 48.891 2.251 57.595 0.982 11.541 2.76 23.257 5.288 34.504 3.902 17.691 10.904 36.402 24.295 49.053 15.060 14.26 36.075 20.081 55.993 23.571 22.125 3.879 44.139 4.894 65.928 10.786 20.903 5.636 41.107 13.67 59.871 24.525 69.394 40.103 112.002 108.795 121.496 182.678-30.221 12.614-62.785 19.189-95.693 19.189-41.907 0-84.354-10.66-123.266-33.139zM149.755 479.494c9.505-73.883 52.069-142.574 121.515-182.678 69.427-40.113 150.27-42.627 218.971-13.911-9.493 73.845-52.074 142.598-121.546 182.639-38.9 22.479-81.362 33.139-123.241 33.139-32.922 0-65.48-6.575-95.7-19.189z" />
<glyph unicode="&#xe905;" glyph-name="mahara" horiz-adv-x="1013" d="M610.831 636.936c0-103.229-44.11-125.278-44.11-125.278s107.015-113.406 107.015-250.69c0-112.896-54.012-196.685-158.104-196.685-104.094 0-173.884 80.097-174.948 196.685-1.421 154.014 109.345 251.44 109.345 251.44l22.885-49.189c0 0-27.392-124.625 24.096-119.918 43.465 3.972-13.148 105.796-13.148 105.796-20.804 44.694-67.303 102.087-67.303 187.88 0 101.475 86.651 194.741 96.715 194.741s97.554-75.078 97.554-194.778v0zM539.508 552.89c0 0 20.838 90.829-17.263 78.451-21.177-6.876 0-48.103 0-48.103l17.263-30.344z" />
<glyph unicode="&#xe906;" glyph-name="stamp" d="M848 64h-672v48h672v-48zM800 352h-230.4c-4.8 38.4-9.6 76.8-9.6 100.8 0 86.4 96 168 96 235.2 0 81.6-62.4 144-144 144s-144-62.4-144-144c0-67.2 91.2-153.6 96-235.2 0-24 0-57.6-4.8-100.8h-235.2c-52.8 0-96-43.2-96-96v-96c0 0 0 0 0 0h768c0 0 0 0 0 0v96c0 52.8-43.2 96-96 96z" />
<glyph unicode="&#xe907;" glyph-name="sigma" d="M660.8 236.8c-33.6-14.4-67.2-24-100.8-28.8h-211.2l249.6 283.2-120 244.8h76.8c52.8 0 96-4.8 124.8-14.4 24-9.6 48-24 62.4-48 9.6-19.2 14.4-33.6 14.4-81.6h19.2l62.4 240h-523.2v-96l134.4-268.8-230.4-259.2v-144h499.2l120 288h-24c-48-48-96-86.4-153.6-115.2z" />
<glyph unicode="&#xe908;" glyph-name="mean" d="M281.124 601.918l211.636 38.48c38.48-57.72 67.34-125.060 81.768-197.208 38.48 52.908 67.34 96.2 91.388 120.248 28.86 33.668 48.1 52.908 67.34 62.528s38.48 14.429 57.72 14.429c24.049 0 38.48-4.81 52.908-19.24 9.62-14.429 19.24-28.86 19.24-48.1s-4.81-33.668-19.24-48.1c-9.62-14.429-28.86-19.24-43.288-19.24s-28.86 0-43.288 4.81c-14.429 4.81-28.86 4.81-33.668 4.81-19.24 0-33.668-4.81-48.1-19.24-28.86-14.429-57.72-48.1-86.58-101.008 33.668-120.248 62.528-192.396 81.768-221.256 14.429-14.429 24.049-24.049 38.48-24.049 9.62 0 19.24 4.81 28.86 9.62 9.62 9.62 28.86 28.86 52.908 62.528l24.049-14.429c-33.668-57.72-72.148-96.2-105.82-120.248-24.049-19.24-52.908-28.86-76.96-28.86s-48.1 4.81-62.528 19.24c-19.24 9.62-33.668 28.86-43.288 57.72-14.429 24.049-28.86 67.34-48.1 125.060-48.1-57.72-81.768-105.82-110.628-129.868-28.86-28.86-48.1-43.288-67.34-52.908s-43.288-14.429-62.528-14.429c-19.24 0-38.48 4.81-48.1 19.24s-19.24 24.049-19.24 43.288c0 19.24 4.81 38.48 19.24 52.908s28.86 19.24 52.908 19.24c9.62 0 24.049-4.81 38.48-9.62 19.24-9.62 33.668-14.429 43.288-14.429s24.049 4.81 33.668 9.62c14.429 4.81 28.86 19.24 48.1 38.48 4.81 9.62 24.049 33.668 52.908 76.96-38.48 144.299-67.34 230.876-91.388 254.928-9.62 19.24-28.86 28.86-48.1 28.86-9.62 0-24.049 0-38.48-4.81v24.049zM483.14 832.796h351.125l-38.48-125.060h-351.125l38.48 125.060z" />
<glyph unicode="&#xe909;" glyph-name="mnethost" d="M827.152 547.391c-58.181 58.181-150.304 58.181-203.636 0-19.394-14.544-29.092-33.94-33.94-53.332h-111.516l-63.031 101.818c43.636 58.181 43.636 140.606-9.696 193.94-53.332 58.181-150.304 58.181-203.636 0-58.181-58.181-58.181-150.304 0-203.636 33.94-33.94 87.272-48.484 135.756-38.788l53.332-101.818-58.181-96.968c-48.484 9.696-96.968 0-135.756-38.788-58.181-58.181-58.181-150.304 0-203.636 58.181-58.181 150.304-58.181 203.636 0 53.332 53.332 58.181 135.756 9.696 193.94l67.88 96.968h111.516c4.848 0 14.544-38.788 33.94-53.332 58.181-58.181 150.304-58.181 203.636 0 58.181 58.181 58.181 150.304 0 203.636z" />
<glyph unicode="&#xe90a;" glyph-name="highlight" d="M190.4 553.6l201.6 278.4h120l-182.4-249.6 312-182.4 192 432h62.4v-91.2l-206.4-475.2-19.2 9.6c-52.8-4.8-172.8-33.6-225.6-120l-230.4 134.4c52.8 86.4 14.4 206.4-4.8 254.4l-19.2 9.6zM348.8 64l38.4 72-168 96-96-163.2v-4.8h225.6z" />
<glyph unicode="&#xe90b;" glyph-name="grades" d="M848 832h-672c-24 0-48-24-48-48v-672c0-24 24-48 48-48h672c24 0 48 24 48 48v672c0 24-24 48-48 48zM512 160h-288v96h288v-96zM512 304h-288v96h288v-96zM512 448h-288v96h288v-96zM656 160h-96v96h96v-96zM656 304h-96v96h96v-96zM656 448h-96v96h96v-96zM800 160h-96v96h96v-96zM800 304h-96v96h96v-96zM800 448h-96v96h96v-96z" />
<glyph unicode="&#xe90c;" glyph-name="book-open" d="M192 640h256v-64h-256v64zM192 448h256v64h-256v-64zM192 320h256v64h-256v-64zM896 640h-256v-64h256v64zM896 512h-256v-64h256v64zM896 384h-256v-64h256v64zM1024 768v-576c0-35.2-28.8-64-64-64h-352l-64-64-64 64h-352c-35.2 0-64 28.8-64 64v576c0 35.2 28.8 64 64 64h352l64-64 64 64h352c35.2 0 64-28.8 64-64v0zM512 736l-32 32h-352v-576h384v544zM960 768h-352l-32-32v-544h384v576z" />
<glyph unicode="&#xe90d;" glyph-name="checklist" d="M1024 416l-384-384-192 192 96 96 96-96 288 288 96-96zM364.8 179.2l51.2-51.2h-288c-35.2 0-64 28.8-64 64v576c0 35.2 28.8 64 64 64h448c35.2 0 64-28.8 64-64v-416l-51.2 51.2c-24.96 24.96-65.92 24.96-90.88 0l-133.12-134.4c-24.96-24.96-24.96-65.28 0-90.24v0.64zM256 704h320v64h-320v-64zM256 576h320v64h-320v-64zM256 448h192v64h-192v-64zM192 384h-64v-64h64v64zM192 512h-64v-64h64v64zM192 640h-64v-64h64v64zM192 768h-64v-64h64v64z" />
<glyph unicode="&#xe90e;" glyph-name="alfresco" d="M400.644 777.512c26.724 33.104 67.648 54.312 113.516 54.312 80.508 0 145.804-65.298 145.804-145.804 0-40.252-16.312-76.716-42.7-103.104v0l-103.104-103.104-0.576 0.576v136.592c0 43.66-16.648 87.272-49.944 120.568-18.424 18.424-40.013 31.712-62.996 39.965v0zM200.864 601.48c-4.51 42.316 9.452 86.216 41.884 118.648 56.949 56.949 149.26 56.949 206.208 0 28.452-28.452 42.7-65.777 42.7-103.104v0-145.804h-0.816l-96.58 96.58c-30.849 30.849-73.503 49.944-120.568 49.944-26.052 0-50.712-5.852-72.784-16.264v0zM626.236 119.544c-26.724-33.104-67.648-54.312-113.516-54.312-80.508 0-145.804 65.298-145.804 145.804 0 40.252 16.312 76.716 42.7 103.104v0l103.104 103.104 0.576-0.576v-136.592c0-43.66 16.648-87.272 49.944-120.568 18.424-18.424 40.013-31.76 62.996-39.965v0zM827.792 294.184c4.51-42.316-9.452-86.216-41.884-118.648-56.949-56.949-149.26-56.949-206.208 0-28.452 28.452-42.7 65.777-42.7 103.104v0 145.804h0.816l96.58-96.58c30.849-30.849 73.503-49.944 120.568-49.944 26.052 0 50.712 5.852 72.784 16.264v0zM844.728 560.46c33.104-26.724 54.312-67.648 54.312-113.516 0-80.508-65.298-145.804-145.804-145.804-40.252 0-76.716 16.312-103.104 42.7v0l-103.104 103.104 0.576 0.576h136.592c43.66 0 87.272 16.648 120.568 49.944 18.424 18.424 31.76 40.013 39.965 62.996v0zM668.696 760.96c42.316 4.51 86.216-9.452 118.648-41.884 56.949-56.949 56.949-149.26 0-206.208-28.452-28.452-65.777-42.7-103.104-42.7v0h-145.804v0.816l96.58 96.58c30.849 30.849 49.944 73.503 49.944 120.568 0 26.052-5.852 50.712-16.264 72.784v0zM182.824 336.26c-33.104 26.724-54.312 67.648-54.312 113.516 0 80.508 65.298 145.804 145.804 145.804 40.252 0 76.716-16.312 103.104-42.7v0l103.104-103.104-0.576-0.576h-136.592c-43.66 0-87.272-16.648-120.568-49.944-18.424-18.424-31.712-40.013-39.965-62.996v0zM359.574 136.48c-42.316-4.51-86.216 9.452-118.648 41.884-56.949 56.949-56.949 149.26 0 206.208 28.452 28.452 65.777 42.7 103.104 42.7v0h145.804v-0.816l-96.58-96.58c-30.849-30.849-49.944-73.503-49.944-120.568 0-26.052 5.852-50.712 16.264-72.784v0z" />
<glyph unicode="&#xe90f;" glyph-name="package" d="M64 686.72v-478.080c0-28.8 19.2-53.76 48-62.080l416-110.72c10.24-3.2 21.76-3.2 32 0l416 110.72c28.8 8.32 48 33.28 48 62.080v478.080c0 28.8-19.2 53.76-48 62.080l-416 111.36c-10.24 1.92-21.76 1.92-32 0l-416-111.36c-28.8-8.32-48-33.28-48-62.080v0zM512 104.96l-384 101.76v433.28l384-103.040v-432zM128 704l160 42.88 416-110.72-160-42.88-416 110.72zM960 206.72l-384-101.76v432l128 35.2v-156.16l128 33.92v156.16l128 33.92v-433.28zM832 670.080l-416 110.72 128 33.92 416-110.72-128-33.92z" />
<glyph unicode="&#xe910;" glyph-name="archive" d="M715.827 857.6h-407.706c0 0-50.995 0-50.995-51.2h509.696c0 51.2-50.995 51.2-50.995 51.2zM868.762 704c0 51.2-50.944 51.2-50.944 51.2h-611.635c0 0-50.944 0-50.944-51.2v-51.2h713.523v51.2zM970.65 652.8c-30.106 30.31-30.106 30.31-30.106 30.31v-81.51h-857.088v81.51c0 0 0 0-30.157-30.31s-51.763-38.4-39.629-102.4c12.083-63.795 70.605-413.491 79.309-460.8 9.523-51.917 62.31-51.2 62.31-51.2h713.523c0 0 52.736-0.717 62.31 51.2 8.704 47.309 67.174 397.005 79.309 460.8 12.032 64-9.574 72.090-39.782 102.4zM716.8 345.754c0-28.365-22.989-51.354-51.354-51.354h-306.893c-28.365 0-51.354 22.989-51.354 51.354v102.246h51.2v-102.4h307.2v102.4h51.2v-102.246z" />
<glyph unicode="&#xe911;" glyph-name="certificate" horiz-adv-x="1152" d="M933.936 832h-702.192c-48.288 0-87.792-32.4-87.792-72v-624c0-39.6 39.504-72 87.792-72h702.192c48.288 0 87.792 32.4 87.792 72v624c0 39.6-39.504 72-87.792 72v0zM198.864 755.2c0 12.144 9.84 21.936 21.936 21.936h724.080c12.144 0 21.936-9.84 21.936-21.936v-614.4c0-12.144-9.84-21.936-21.936-21.936h-724.080c-12.144 0-21.936 9.84-21.936 21.936v614.4zM799.152 289.744l-16.080-91.344 72.432 39.408-35.088 64.8c-6.672-4.896-13.824-9.168-21.312-12.864zM633.552 180.16l60.48 11.664 53.76-37.872 23.952 129.984c-11.568-4.368-23.712-6.816-36.336-6.816-29.184 0-56.064 12.624-77.808 33.744l-24.048-130.704zM750.192 362.464c-42.432 0-76.848 34.512-76.848 77.040s34.416 77.088 76.848 77.088 76.848-34.512 76.848-77.088c0-42.528-34.416-77.040-76.848-77.040v0zM817.152 328.48c2.832 6.192 10.608 11.904 17.328 12.672s12.864 6.96 13.632 13.68c0.816 6.72 6.48 14.544 12.624 17.376s10.080 10.608 8.784 17.232c-1.392 6.672 1.632 15.888 6.576 20.448 4.992 4.656 6.336 13.248 3.024 19.152s-3.312 15.6 0 21.456c3.312 5.952 1.968 14.544-3.024 19.152s-7.968 13.824-6.576 20.448c1.296 6.672-2.64 14.448-8.784 17.28-6.096 2.832-11.808 10.656-12.624 17.376-0.768 6.72-6.912 12.864-13.632 13.68s-14.544 6.528-17.328 12.624c-2.88 6.192-10.608 10.128-17.232 8.736s-15.792 1.68-20.4 6.672c-4.608 5.040-13.2 6.384-19.104 3.024s-15.552-3.312-21.408 0c-5.904 3.36-14.448 2.016-19.104-2.976-4.56-4.992-13.728-7.968-20.4-6.672s-14.352-2.592-17.184-8.784c-2.832-6.144-10.656-11.856-17.376-12.624-6.72-0.816-12.864-7.008-13.632-13.728s-6.48-14.544-12.624-17.376c-6.096-2.832-10.080-10.608-8.736-17.28s-1.68-15.84-6.624-20.448-6.336-13.2-3.024-19.152c3.312-5.904 3.312-15.6 0-21.456s-1.968-14.544 3.024-19.2c4.992-4.56 7.968-13.776 6.624-20.448s2.64-14.4 8.736-17.232c6.144-2.832 11.808-10.704 12.576-17.376s6.912-12.912 13.632-13.68 14.544-6.528 17.376-12.672c2.832-6.144 10.56-10.080 17.184-8.736s15.84-1.632 20.4-6.672c4.608-4.992 13.2-6.384 19.104-3.024s15.552 3.312 21.408 0 14.496-1.92 19.104 3.024c4.608 5.040 13.728 7.968 20.4 6.672s14.4 2.592 17.232 8.736v0zM308.592 667.408h548.592v-54.864h-548.592v54.864zM308.592 283.408h219.408v-54.864h-219.408v54.864z" />
<glyph unicode="&#xe912;" glyph-name="group-separate" d="M345.584 710.416c0-39.792-30.672-72.096-68.496-72.096s-68.496 32.256-68.496 72.096c0 39.792 30.672 72.096 68.496 72.096s68.496-32.256 68.496-72.096v0zM419.648 511.072c1.68 5.664 1.68 12.24 1.68 18.768 0 18.096 0 72.48-18.048 90.576-36.624 36.816-55.92 38.928-55.92 38.928s-16.224-38.928-70.32-38.928c-54.096 0-70.32 38.928-70.32 38.928s-19.2-2.016-55.92-38.928c-18.048-18.096-18.048-72.48-18.048-90.576s0-36.24 36.048-36.24h78.912c23.040 27.744 56.928 45.264 94.752 45.264 29.088 0 55.824-10.368 77.136-27.792zM824.144 712.816c0-39.792-30.672-72.096-68.496-72.096s-68.496 32.256-68.496 72.096c0 39.792 30.672 72.096 68.496 72.096s68.496-32.256 68.496-72.096v0zM611.936 518.656c-0.576 4.32-0.576 8.928-0.576 13.584 0 18.096 0 72.48 18.048 90.576 36.72 36.912 55.92 38.928 55.92 38.928s16.224-38.928 70.32-38.928c54.096 0 70.32 38.928 70.32 38.928s19.296-2.112 55.92-38.928c18.048-18.144 18.048-72.48 18.048-90.576s0-36.24-36.048-36.24h-81.744c-24.24 26.496-59.472 43.2-98.64 43.2-26.352 0-50.88-7.536-71.52-20.544zM440 376.384c-14.784-37.632-51.984-64.32-95.568-64.32-56.544 0-102.336 44.928-102.336 100.368s45.84 100.368 102.336 100.368c43.584 0 80.784-26.688 95.568-64.32v-72.096zM440 326.944c-13.296-16.032-42-39.792-95.52-39.792-80.832 0-105.072 54.192-105.072 54.192s-28.656-2.832-83.52-54.192c-26.928-25.248-26.928-100.944-26.928-126.144s0-50.448 53.904-50.448h257.184v216.384zM588.8 376.384c14.784-37.632 51.984-64.32 95.568-64.32 56.544 0 102.336 44.928 102.336 100.368s-45.84 100.368-102.336 100.368c-43.584 0-80.784-26.688-95.568-64.32v-72.096zM588.8 326.944c13.296-16.032 42-39.792 95.52-39.792 80.832 0 105.072 54.192 105.072 54.192s28.656-2.832 83.52-54.192c26.928-25.248 26.928-100.944 26.928-126.144s0-50.448-53.904-50.448h-257.184v216.384zM464 832h96v-768h-96v768z" />
<glyph unicode="&#xe913;" glyph-name="bag" d="M896 640h-128v9c0 137-110 247-247 247h-16c-137 0-249-110-249-247v-9h-128l-64-640h896l-64 640zM320 649c0 101.4 83.6 183 185 183h16c101.4 0 183-81.6 183-183v-9h-384v9zM135.6 64l49.8 512h70.6v-72.6c-19.2-11-32-31.8-32-55.4 0-35.4 28.6-64 64-64s64 28.6 64 64c0 23.6-12.8 44.4-32 55.4v72.6h384v-72.6c-19.2-11-32-31.8-32-55.4 0-35.4 28.6-64 64-64s64 28.6 64 64c0 23.6-12.8 44.4-32 55.4v72.6h70.8l49.8-512h-753z" />
<glyph unicode="&#xe914;" glyph-name="view-tree" d="M896 352v192h-528v-48h-96v144h480v192h-624v-192h96v-480h144v-96h528v192h-528v-48h-96v240h96v-96z" />
<glyph unicode="&#xe915;" glyph-name="log" d="M760.688 314.176v109.92h-632.688v-109.92zM892.016 468.736v113.136h-763.248v-113.136zM548.192 695.92v45.264h-420.192v-45.264zM548.192 64v45.264h-420.192v-45.264zM831.488 786.736v45.264h-703.488v-45.264zM831.488 154.816v45.264h-703.488v-45.264z" />
<glyph unicode="&#xe916;" glyph-name="new" horiz-adv-x="960" d="M827.252 354.088l-69.18 61.612c-20.056 17.836-20.056 47.052 0 64.889l69.18 61.66c20.056 17.836 14.704 34.42-11.86 37.024l-91.743 8.677c-26.516 2.508-40.88 25.358-31.672 50.716l48.692 135.564c9.16 25.456-2.024 34.664-24.78 20.584l-108.229-66.916c-22.756-14.172-52.212-6.412-65.372 17.066l-39.195 69.952c-13.16 23.575-34.952 23.624-48.354 0.336l-36.447-63.3c-13.5-23.429-44.4-33.36-68.65-22.272l-64.119 29.408c-24.345 11.232-43.004-1.688-41.556-28.684l3.424-64.696c1.496-26.996-18.464-54.765-44.256-61.756l-61.9-16.584c-25.744-6.991-30.468-27.239-10.412-45.076l69.18-61.66c20.056-17.836 20.056-47.052 0-64.889l-69.18-61.66c-20.056-17.836-14.752-35.144 11.764-38.328l83.932-10.172c26.468-3.181 41.22-26.852 32.783-52.548l-43.052-130.552c-8.436-25.696 3.616-35.628 26.756-22.224l98.684 57.128c23.14 13.403 54.332 6.027 69.276-16.344l40.929-61.66c14.896-22.416 37.314-21.212 49.704 2.748l36.012 69.42c12.438 23.96 42.136 33.748 66.048 21.744l69.468-34.76c23.96-11.908 42.376 0.385 40.929 27.336l-3.472 64.792c-1.398 26.996 18.464 54.716 44.304 61.66l61.852 16.68c25.792 6.991 30.516 27.239 10.508 45.076v0z" />
<glyph unicode="&#xe917;" glyph-name="picasa" d="M297.37 866.662c-158.157-81.306-256.41-241.715-256.41-419.738 0-32.41 4.096-65.28 11.315-98.202l406.989 370.637c-43.418 39.475-157.491 143.309-161.894 147.302zM706.202 876.749c-61.44 27.904-126.771 42.291-194.253 42.291-47.821 0-94.976-7.987-140.749-22.579l335.002-304.691v284.979zM777.83 835.174v-543.59h178.432c17.562 50.278 26.726 102.605 26.726 155.392 0.051 155.29-77.926 300.646-205.158 388.198zM74.906 272.435c34.509-86.682 95.078-161.28 172.442-214.221v371.2l-104.704-95.283c-35.738-32.461-65.536-59.699-67.738-61.696zM318.976 16.64c47.872-21.606 97.946-34.918 149.504-39.68h86.477c154.573 14.387 293.222 105.882 368.589 242.893h-604.57v-203.213z" />
<glyph unicode="&#xe91f;" glyph-name="book" d="M896 832v-832h-672c-53.026 0-96 42.98-96 96s42.974 96 96 96h608v768h-640c-70.398 0-128-57.6-128-128v-768c0-70.4 57.602-128 128-128h768v896h-64zM224.056 128v0c-0.018-0.002-0.038 0-0.056 0-17.672 0-32-14.326-32-32s14.328-32 32-32c0.018 0 0.038 0.002 0.056 0.002v-0.002h607.89v64h-607.89z" />
<glyph unicode="&#xe920;" glyph-name="books" horiz-adv-x="1152" d="M224 832h-192c-17.6 0-32-14.4-32-32v-704c0-17.6 14.4-32 32-32h192c17.6 0 32 14.4 32 32v704c0 17.6-14.4 32-32 32zM192 640h-128v64h128v-64zM544 832h-192c-17.6 0-32-14.4-32-32v-704c0-17.6 14.4-32 32-32h192c17.6 0 32 14.4 32 32v704c0 17.6-14.4 32-32 32zM512 640h-128v64h128v-64zM765.088 782.52l-171.464-86.394c-15.716-7.918-22.096-27.258-14.178-42.976l287.978-571.548c7.918-15.718 27.258-22.098 42.976-14.178l171.464 86.392c15.716 7.92 22.096 27.26 14.178 42.974l-287.978 571.55c-7.92 15.718-27.26 22.1-42.976 14.18zM928 96c0-17.673-14.327-32-32-32s-32 14.327-32 32c0 17.673 14.327 32 32 32s32-14.327 32-32z" />
<glyph unicode="&#xe923;" glyph-name="profile" d="M864 960h-768c-52.8 0-96-43.2-96-96v-832c0-52.8 43.2-96 96-96h768c52.8 0 96 43.2 96 96v832c0 52.8-43.2 96-96 96zM832 64h-704v768h704v-768zM256 384h448v-64h-448zM256 256h448v-64h-448zM320 672c0 53.019 42.981 96 96 96s96-42.981 96-96c0-53.019-42.981-96-96-96s-96 42.981-96 96zM480 576h-128c-52.8 0-96-28.8-96-64v-64h320v64c0 35.2-43.2 64-96 64z" />
<glyph unicode="&#xe944;" glyph-name="address-book" d="M192 960v-1024h768v1024h-768zM576 703.67c70.51 0 127.67-57.16 127.67-127.67s-57.16-127.67-127.67-127.67-127.67 57.16-127.67 127.67 57.16 127.67 127.67 127.67v0zM768 192h-384v64c0 70.696 57.306 128 128 128v0h128c70.696 0 128-57.304 128-128v-64zM64 896h96v-192h-96v192zM64 640h96v-192h-96v192zM64 384h96v-192h-96v192zM64 128h96v-192h-96v192z" />
<glyph unicode="&#xe950;" glyph-name="alarm" d="M512 832c-247.424 0-448-200.576-448-448s200.576-448 448-448 448 200.576 448 448-200.576 448-448 448zM512 24c-198.824 0-360 161.178-360 360 0 198.824 161.176 360 360 360 198.822 0 360-161.176 360-360 0-198.822-161.178-360-360-360zM934.784 672.826c16.042 28.052 25.216 60.542 25.216 95.174 0 106.040-85.96 192-192 192-61.818 0-116.802-29.222-151.92-74.596 131.884-27.236 245.206-105.198 318.704-212.578v0zM407.92 885.404c-35.116 45.374-90.102 74.596-151.92 74.596-106.040 0-192-85.96-192-192 0-34.632 9.174-67.122 25.216-95.174 73.5 107.38 186.822 185.342 318.704 212.578zM512 384v256h-64v-320h256v64z" />
<glyph unicode="&#xe99c;" glyph-name="stats-bars" d="M0 128h1024v-128h-1024zM128 384h128v-192h-128zM320 640h128v-448h-128zM512 448h128v-256h-128zM704 832h128v-640h-128z" />
<glyph unicode="&#xea8f;" glyph-name="google-drive" d="M438 320l-184.6-320h580.6l184.6 320zM992.4 384l-295.6 512h-369.6l295.6-512zM290.2 832l-290.2-502.8 184.8-320 290.2 502.8z" />
</font>
</defs>
</svg>
