<?xml version="1.0" encoding="UTF-8"?>
<svg width="40px" height="40px" viewBox="0 0 40 40" version="1.1" xmlns="http://www.w3.org/2000/svg" xmlns:xlink="http://www.w3.org/1999/xlink">
    <title>default-image/survey</title>
    <g id="default-image/survey" stroke="none" stroke-width="1" fill="none" fill-rule="evenodd">
        <g id="Group-2">
            <circle id="Oval" stroke="#DCE44B" stroke-width="2" fill="#FFFFFF" cx="20" cy="20" r="19"></circle>
            <g id="Group-8" transform="translate(11.000000, 9.000000)">
                <polygon id="Fill-1" fill="#FFFFFF" points="1 19.3717 17.978 19.3717 17.978 2.3947 1 2.3947"></polygon>
                <path d="M0,20.3717 L18.977,20.3717 L18.977,1.3947 L0,1.3947 L0,20.3717 Z M2,18.3717 L16.978,18.3717 L16.978,3.3947 L2,3.3947 L2,18.3717 Z" id="Fill-2" fill="#DBE24D"></path>
                <polygon id="Fill-3" fill="#FFFFFF" points="5.344 3.6587 13.632 3.6587 13.632 1.0007 5.344 1.0007"></polygon>
                <path d="M4.344,4.6577 L14.632,4.6577 L14.632,-0.0003 L4.344,-0.0003 L4.344,4.6577 Z M6.344,2.6577 L12.632,2.6577 L12.632,1.9997 L6.344,1.9997 L6.344,2.6577 Z" id="Fill-4" fill="#DBE24D"></path>
                <line x1="4.3444" y1="8.2087" x2="14.6324" y2="8.2087" id="Stroke-5" stroke="#DBE24D"></line>
                <line x1="4.3444" y1="11.2087" x2="14.6324" y2="11.2087" id="Stroke-6" stroke="#DBE24D"></line>
                <line x1="4.3444" y1="14.2087" x2="12.0514" y2="14.2087" id="Stroke-7" stroke="#DBE24D"></line>
            </g>
        </g>
    </g>
</svg>