<?xml version="1.0" standalone="no"?>
<!DOCTYPE svg PUBLIC "-//W3C//DTD SVG 1.1//EN" "http://www.w3.org/Graphics/SVG/1.1/DTD/svg11.dtd" >
<svg xmlns="http://www.w3.org/2000/svg">
<metadata>Generated by IcoMoon</metadata>
<defs>
<font id="totara" horiz-adv-x="1024">
<font-face units-per-em="1024" ascent="960" descent="-64" />
<missing-glyph horiz-adv-x="1024" />
<glyph unicode="&#x20;" horiz-adv-x="512" d="" />
<glyph unicode="&#x2302;" glyph-name="home" horiz-adv-x="938" d="M0 422.991q-3.072 15.36 21.504 37.888l390.144 359.424q23.552 21.504 58.368 21.504t58.368-21.504l389.12-359.424q23.552-21.504 21.504-37.888t-30.72-15.36h-93.184v-312.32q0-32.768-23.552-56.32t-56.32-23.552h-530.432q-32.768 0-56.32 23.552t-23.552 56.32v312.32h-94.208q-27.648 0-30.72 15.36z" />
<glyph unicode="&#xe6d5;" glyph-name="stamp" d="M1024 242.116c0 63.006-51.32 114.326-114.266 114.326h-264.794l75.896 272.084 1.144 212.028c-0.12 64.754-55.116 119.448-120.23 119.448h-180.164c-65.236 0-120.29-54.694-120.29-119.448v-202.45l76.98-281.66h-264.012c-62.946 0-114.266-51.32-114.266-114.326v-245.88h60.234v-60.236h903.528v60.236h60.236v245.88zM963.764 56.472h-903.528v185.644c0 29.816 24.216 54.092 54.032 54.092h343.16l-95.894 345.992v198.354c0 31.562 28.070 59.212 60.056 59.212h180.164c31.864 0 59.874-27.648 59.874-59.212v-199.8l-96.014-344.546h344.124c29.816 0 54.030-24.274 54.030-54.092v-185.644z" />
<glyph unicode="&#xe6de;" glyph-name="pin" d="M325.512 304.098l42.586-42.586-316.716-316.656-42.586 42.586 316.716 316.656zM1024 585.216l-132.036-38.37-221.786-315.994 25.842-67.342-93.666-93.666-468.51 468.51 93.726 93.726 67.344-25.842 315.934 221.786 14.938 51.44 23.37 80.534 374.844-374.784zM909.432 614.61l-230.822 230.76-9.88-34.152-5.904-20.36-359.606-252.386-60.776 23.31-23.432-23.432 383.336-383.336 23.432 23.492-11.746 30.84-11.504 29.938 18.492 26.264 233.894 333.342 20.36 5.904 34.154 9.818z" />
<glyph unicode="&#xe727;" glyph-name="brush" d="M1024 506.368c0 49.814-40.538 90.354-90.352 90.354h-289.61l17.168 55.056 1.384 217.87c0 49.814-40.538 90.352-90.352 90.352h-120.472c-49.814 0-90.354-40.538-90.354-90.352v-207.932l18.674-65.054h-289.732c-49.814 0-90.352-40.538-90.352-90.354v-209.98h56.14l-46.14-360.328h1004.002l-46.14 360.328h56.14v210.040zM945.574-3.764h-102.28v120.472h-60.236v-120.472h-60.236v180.706h-60.236v-180.706h-60.236v240.942h-60.236v-240.942h-301.176v120.472h-60.236v-120.472h-102.28l38.43 300.092h790.288l38.43-300.092zM63.848 356.562h-3.614v149.806c0 16.624 13.492 30.118 30.118 30.118h371.35l-40.056 129.808v203.354c0 16.626 13.492 30.118 30.118 30.118h120.472c16.626 0 30.118-13.492 30.118-30.118v-204.378l-40.178-128.784h371.472c16.626 0 30.118-13.494 30.118-30.118v-149.744h-899.914zM481.882 839.528h60.234v-60.236h-60.236v60.236z" />
<glyph unicode="&#xe73b;" glyph-name="columns" d="M0 960h301.176v-1024h-301.176v1024zM361.412-64h301.176v1024h-301.176v-1024zM722.824 960v-1024h301.176v1024h-301.176z" />
<glyph unicode="&#xe7b5;" glyph-name="easel" horiz-adv-x="815" d="M371.712 11.776v117.76l-153.6-59.392-15.36 26.624 168.96 103.424v59.392h-325.632c-25.6 0-46.080 20.48-46.080 46.080 0 24.576 18.432 44.032 41.984 46.080v423.936c-24.576 1.024-41.984 21.504-41.984 45.056 0 25.6 20.48 46.080 46.080 46.080h333.824l19.456 50.176h11.264l19.456-50.176h338.944c25.6 0 46.080-20.48 46.080-46.080s-20.48-46.080-46.080-46.080v-422.912c25.6 0 46.080-20.48 46.080-46.080s-20.48-46.080-46.080-46.080h-335.872v-59.392l169.984-103.424-15.36-26.624-154.624 59.392v-117.76c0-18.432-14.336-33.792-31.744-33.792-19.456 0-30.72 15.36-30.72 33.792zM710.656 355.84v414.72h-609.28v-414.72h609.28z" />
<glyph unicode="&#xe900;" glyph-name="addressbook" d="M853.334-64c47.146 0 85.334 38.186 85.334 85.334v106.666h38.4c26.026 0 46.934 20.906 46.934 46.934l-0.002 226.132c0 26.026-20.906 46.934-46.934 46.934h-38.4v85.334h38.4c26.026 0 46.934 20.906 46.934 46.934v226.132c0 26.026-20.906 46.934-46.934 46.934h-38.4v21.332c0 47.146-38.186 85.334-85.334 85.334h-661.332c-47.146 0-85.334-38.186-85.334-85.334v-85.334l-53.332 0.002c-29.44 0-53.334-23.894-53.334-53.334s23.894-53.334 53.334-53.334h53.332v-85.334l-53.332 0.002c-29.44 0-53.334-23.894-53.334-53.334s23.894-53.334 53.334-53.334h53.332v-85.334l-53.332 0.002c-29.44 0-53.334-23.894-53.334-53.334s23.894-53.334 53.334-53.334h53.332v-85.334l-53.332 0.002c-29.44 0-53.334-23.894-53.334-53.334s23.894-53.334 53.334-53.334h53.332v-85.334c0-47.146 38.186-85.334 85.334-85.334l661.334 0.002zM213.334 89.6v17.066h74.666c29.44 0 53.334 23.894 53.334 53.334s-23.894 53.334-53.334 53.334h-74.666v85.334h74.666c29.44 0 53.334 23.894 53.334 53.334s-23.894 53.332-53.334 53.332h-74.666v85.334h74.666c29.44 0 53.334 23.894 53.334 53.334s-23.894 53.332-53.334 53.332h-74.666v85.334h74.666c29.44 0 53.334 23.894 53.334 53.334s-23.894 53.332-53.334 53.332h-74.666v17.066c0 26.026 20.906 46.934 46.932 46.934h140.8c26.028 0 46.934-20.908 46.934-46.934v-716.8c0-26.026-20.906-46.934-46.934-46.934h-140.8c-26.026 0-46.932 20.908-46.932 46.934z" />
<glyph unicode="&#xe901;" glyph-name="medal" d="M256 960c-47.146 0-85.334-38.186-85.334-85.334v-213.546c0-29.866 12.374-56.982 32.214-76.374l92.8-92.8c-63.574-58.474-103.68-142.506-103.68-235.946 0-176.64 143.36-320 320-320 176.618 0 320 143.36 320 320 0 93.44-40.106 177.472-103.658 235.968l92.8 92.8c19.84 19.392 32.214 46.506 32.214 76.374l-0.002 213.524c0 47.146-38.186 85.334-85.334 85.334h-512.020zM512 426.666c7.466 0 13.654-4.714 15.786-11.306l38.826-95.36h99.626c8.96 0 16.426-9.6 16.426-18.346 0-5.334-2.56-10.026-6.634-12.8l-83.84-56.96c0 0 26.88-101.334 27.754-104.32 0.618-1.494 0.832-3.2 0.832-4.906 0-8.96-7.254-16-16.426-16-4.032 0-7.894 1.472-10.666 3.84l-81.684 63.786-81.706-63.786c-2.774-2.346-6.614-3.84-10.666-3.84-9.174 0-16.426 7.040-16.426 16 0 1.706 0.214 3.414 0.854 4.906 0.854 2.986 28.16 103.872 28.16 103.872l-84.266 57.386c-4.054 2.774-6.614 7.466-6.614 12.8 0 8.746 7.466 18.346 16.426 18.346h99.626l38.826 95.36c2.132 6.614 8.32 11.328 15.786 11.328zM362.666 810.666v-149.334c0-23.466-19.2-42.666-42.666-42.666s-42.666 19.2-42.666 42.666v149.334c0 23.466 19.2 42.666 42.666 42.666s42.666-19.198 42.666-42.666zM554.666 810.666v-192c0-23.466-19.2-42.666-42.666-42.666s-42.666 19.2-42.666 42.666v192c0 23.466 19.2 42.666 42.666 42.666 23.466 0.002 42.666-19.198 42.666-42.666zM746.666 810.666v-149.334c0-23.466-19.2-42.666-42.666-42.666s-42.666 19.2-42.666 42.666v149.334c0 23.466 19.2 42.666 42.666 42.666s42.666-19.198 42.666-42.666z" />
<glyph unicode="&#xe902;" glyph-name="book-bookmark-alt" d="M1024 832h-128v128h-768c-70.4 0-128-57.6-128-128v-768c0-70.4 57.6-128 128-128h768v640h128l-128 128 128 128zM768 64h-512v768h512v-768zM384 704h256v-128h-256z" />
<glyph unicode="&#xe903;" glyph-name="book-bookmark" horiz-adv-x="896" d="M128 960c-70.4 0-128-57.6-128-128v-768c0-70.4 57.6-128 128-128h768v1024h-768zM768 64h-512v768h128v-256l128 128 128-128v256h128v-768z" />
<glyph unicode="&#xe904;" glyph-name="box" d="M0 576h1024v-640h-1024zM576 704h448l-128 256h-320zM448 960h-320l-128-256h448z" />
<glyph unicode="&#xe905;" glyph-name="book-open" d="M512 768c0 0-128 128-512 128v-768c388 0 512-128 512-128s124 128 512 128v768c-384 0-512-128-512-128zM128 768c162.688-13.632 262.496-51.264 320-81.76v-515.488c-57.504 30.368-157.312 68-320 81.76v515.488zM896 252.512c-162.752-13.76-262.496-51.328-320-81.76v515.488c57.504 30.496 157.248 68.128 320 81.76v-515.488z" />
<glyph unicode="&#xe906;" glyph-name="package" d="M480 896l-480-128v-576l480-128 480 128v576l-480 128zM63.875 239.066l-0.375 432.934 384.498-102.533 0.001-432.833-384.124 102.432zM63.5 736l160.254 42.734 416.246-111.134-160-42.667-416.5 111.067zM896.125 239.066l-384.124-102.432 0.001 432.833 127.998 34.133v-156l128 34.135v155.998l128.5 34.267-0.375-432.934zM768 701.733v0.125l-416.266 111.004 128.266 34.204 416.5-111.066-128.5-34.267z" />
<glyph unicode="&#xe907;" glyph-name="checklist" horiz-adv-x="765" d="M760.688 443.781l-49.812 49.656c-6.438 6.529-16.938 6.594-23.375 0l-105.001-104.937-120.125-120.375-93.031 93.125c-6.531 6.562-17.031 6.562-23.5 0l-49.719-49.688c-6.531-6.562-6.531-17.062 0-23.562l154.438-154.562c6.562-6.562 17.188-6.562 23.562 0l286.5 286.782c6.625 6.468 6.625 16.968 0.063 23.561zM228.469 379.188l49.687 49.812c42.469 42.375 116.344 42.438 158.781-0.062l25.312-25.312 113.751 108.374v320h-576v-704h320l-91.531 92.125c-43.781 43.937-43.781 115.25 0 159.063zM192 768h320v-64h-320v64zM192 640h320v-64h-320v64zM128 448h-64v64h64v-64zM128 576h-64v64h64v-64zM128 704h-64v64h64v-64zM192 512h64v-64h-64v64z" />
<glyph unicode="&#xe908;" glyph-name="book-open-alt" d="M768 384h-128c-34 0-64-32-64-64h256c0 34-32 64-64 64zM713 800c-167 0-209-32-233-56-24 24-66 56-233 56s-247-46-247-78v-586c29 16 119 48 214 56 115 9 234-9 234-32 0-16 8-31 31-32 0 0 0 0 1 0 0 0 0 0 1 0 23 1 31 16 31 32 0 23 119 41 234 32 94-7 185-40 214-56v586c0 32-80 78-247 78zM448 228c-30 16-103 28-192 28s-170-12-192-27c0 0 0 411 0 443s64 59 192 59 192-27 192-59 0-444 0-444zM896 229c-22 15-103 27-192 27s-162-12-192-28c0 0 0 412 0 444s64 59 192 59 192-27 192-59 0-443 0-443zM768 512h-128c-34 0-64-32-64-64h256c0 34-32 64-64 64zM768 640h-128c-34 0-64-32-64-64h256c0 34-32 64-64 64zM320 512h-128c-32 0-64-30-64-64h256c0 32-30 64-64 64zM320 384h-128c-32 0-64-30-64-64h256c0 32-30 64-64 64zM320 640h-128c-32 0-64-30-64-64h256c0 32-30 64-64 64z" />
<glyph unicode="&#xe909;" glyph-name="book-alt" d="M896 832v-832h-672c-53.026 0-96 42.98-96 96s42.974 96 96 96h608v768h-640c-70.398 0-128-57.6-128-128v-768c0-70.4 57.602-128 128-128h768v896h-64zM224.056 128v0c-0.018-0.002-0.038 0-0.056 0-17.672 0-32-14.326-32-32s14.328-32 32-32c0.018 0 0.038 0.002 0.056 0.002v-0.002h607.89v64h-607.89z" />
<glyph unicode="&#xe90a;" glyph-name="archives-alt" horiz-adv-x="1152" d="M224 832h-192c-17.6 0-32-14.4-32-32v-704c0-17.6 14.4-32 32-32h192c17.6 0 32 14.4 32 32v704c0 17.6-14.4 32-32 32zM192 640h-128v64h128v-64zM544 832h-192c-17.6 0-32-14.4-32-32v-704c0-17.6 14.4-32 32-32h192c17.6 0 32 14.4 32 32v704c0 17.6-14.4 32-32 32zM512 640h-128v64h128v-64zM765.088 782.52l-171.464-86.394c-15.716-7.918-22.096-27.258-14.178-42.976l287.978-571.548c7.918-15.718 27.258-22.098 42.976-14.178l171.464 86.392c15.716 7.92 22.096 27.26 14.178 42.974l-287.978 571.55c-7.92 15.718-27.26 22.1-42.976 14.18zM928 96c0-17.673-14.327-32-32-32s-32 14.327-32 32c0 17.673 14.327 32 32 32s32-14.327 32-32z" />
<glyph unicode="&#xe90b;" glyph-name="file-text" d="M864 960h-768c-52.8 0-96-43.2-96-96v-832c0-52.8 43.2-96 96-96h768c52.8 0 96 43.2 96 96v832c0 52.8-43.2 96-96 96zM832 64h-704v768h704v-768zM256 512h448v-64h-448zM256 384h448v-64h-448zM256 256h448v-64h-448zM256 640h448v-64h-448z" />
<glyph unicode="&#xe90c;" glyph-name="profile" d="M864 960h-768c-52.8 0-96-43.2-96-96v-832c0-52.8 43.2-96 96-96h768c52.8 0 96 43.2 96 96v832c0 52.8-43.2 96-96 96zM832 64h-704v768h704v-768zM256 384h448v-64h-448zM256 256h448v-64h-448zM320 672c0 53.019 42.981 96 96 96s96-42.981 96-96c0-53.019-42.981-96-96-96s-96 42.981-96 96zM480 576h-128c-52.8 0-96-28.8-96-64v-64h320v64c0 35.2-43.2 64-96 64z" />
<glyph unicode="&#xe90d;" glyph-name="address-book" d="M192 960v-1024h768v1024h-768zM576 703.67c70.51 0 127.67-57.16 127.67-127.67s-57.16-127.67-127.67-127.67-127.67 57.16-127.67 127.67 57.16 127.67 127.67 127.67v0zM768 192h-384v64c0 70.696 57.306 128 128 128v0h128c70.696 0 128-57.304 128-128v-64zM64 896h96v-192h-96v192zM64 640h96v-192h-96v192zM64 384h96v-192h-96v192zM64 128h96v-192h-96v192z" />
<glyph unicode="&#xe90e;" glyph-name="map-alt" d="M672 768l-320 128-352-128v-768l352 128 320-128 352 128v768l-352-128zM384 814.27l256-102.4v-630.138l-256 102.398v630.14zM64 723.172l256 93.090v-631.8l-256-93.088v631.798zM960 172.828l-256-93.092v631.8l256 93.090v-631.798z" />
<glyph unicode="&#xe90f;" glyph-name="history" horiz-adv-x="1088" d="M640 896c247.424 0 448-200.576 448-448s-200.576-448-448-448v96c94.024 0 182.418 36.614 248.902 103.098s103.098 154.878 103.098 248.902c0 94.022-36.614 182.418-103.098 248.902s-154.878 103.098-248.902 103.098c-94.022 0-182.418-36.614-248.902-103.098-51.14-51.138-84.582-115.246-97.306-184.902h186.208l-224-256-224 256h164.57c31.060 217.102 217.738 384 443.43 384zM832 512v-128h-256v320h128v-192z" />
<glyph unicode="&#xe910;" glyph-name="alarm" d="M512 832c-247.424 0-448-200.576-448-448s200.576-448 448-448 448 200.576 448 448-200.576 448-448 448zM512 24c-198.824 0-360 161.178-360 360 0 198.824 161.176 360 360 360 198.822 0 360-161.176 360-360 0-198.822-161.178-360-360-360zM934.784 672.826c16.042 28.052 25.216 60.542 25.216 95.174 0 106.040-85.96 192-192 192-61.818 0-116.802-29.222-151.92-74.596 131.884-27.236 245.206-105.198 318.704-212.578v0zM407.92 885.404c-35.116 45.374-90.102 74.596-151.92 74.596-106.040 0-192-85.96-192-192 0-34.632 9.174-67.122 25.216-95.174 73.5 107.38 186.822 185.342 318.704 212.578zM512 384v256h-64v-320h256v64z" />
<glyph unicode="&#xe911;" glyph-name="user" d="M576 253.388v52.78c70.498 39.728 128 138.772 128 237.832 0 159.058 0 288-192 288s-192-128.942-192-288c0-99.060 57.502-198.104 128-237.832v-52.78c-217.102-17.748-384-124.42-384-253.388h896c0 128.968-166.898 235.64-384 253.388z" />
<glyph unicode="&#xe912;" glyph-name="users" horiz-adv-x="1152" d="M768 189.388v52.78c70.498 39.728 128 138.772 128 237.832 0 159.058 0 288-192 288s-192-128.942-192-288c0-99.060 57.502-198.104 128-237.832v-52.78c-217.102-17.748-384-124.42-384-253.388h896c0 128.968-166.898 235.64-384 253.388zM327.196 164.672c55.31 36.15 124.080 63.636 199.788 80.414-15.054 17.784-28.708 37.622-40.492 59.020-30.414 55.234-46.492 116.058-46.492 175.894 0 86.042 0 167.31 30.6 233.762 29.706 64.504 83.128 104.496 159.222 119.488-16.914 76.48-61.94 126.75-181.822 126.75-192 0-192-128.942-192-288 0-99.060 57.502-198.104 128-237.832v-52.78c-217.102-17.748-384-124.42-384-253.388h279.006c14.518 12.91 30.596 25.172 48.19 36.672z" />
<glyph unicode="&#xe913;" glyph-name="user-plus" d="M384 224c0 151.234 95.874 280.486 230.032 330.2 16.28 36.538 25.968 77.164 25.968 117.8 0 159.058 0 288-192 288s-192-128.942-192-288c0-99.060 57.502-198.104 128-237.832v-52.78c-217.102-17.748-384-124.42-384-253.388h397.306c-8.664 30.53-13.306 62.732-13.306 96zM736 512c-159.058 0-288-128.942-288-288s128.942-288 288-288c159.056 0 288 128.942 288 288s-128.942 288-288 288zM896 192h-128v-128h-64v128h-128v64h128v128h64v-128h128v-64z" />
<glyph unicode="&#xe914;" glyph-name="user-minus" d="M384 224c0 151.234 95.874 280.486 230.032 330.2 16.28 36.538 25.968 77.164 25.968 117.8 0 159.058 0 288-192 288s-192-128.942-192-288c0-99.060 57.502-198.104 128-237.832v-52.78c-217.102-17.748-384-124.42-384-253.388h397.306c-8.664 30.53-13.306 62.732-13.306 96zM736 512c-159.058 0-288-128.942-288-288s128.942-288 288-288c159.056 0 288 128.942 288 288s-128.942 288-288 288zM896 192h-320v64h320v-64z" />
<glyph unicode="&#xe915;" glyph-name="user-check" d="M960 352l-288-288-96 96-64-64 160-160 352 352zM448 192h320v115.128c-67.22 39.2-156.308 66.11-256 74.26v52.78c70.498 39.728 128 138.772 128 237.832 0 159.058 0 288-192 288s-192-128.942-192-288c0-99.060 57.502-198.104 128-237.832v-52.78c-217.102-17.748-384-124.42-384-253.388h448v64z" />
<glyph unicode="&#xe916;" glyph-name="user-tie" d="M320 768c0 106.039 85.961 192 192 192s192-85.961 192-192c0-106.039-85.961-192-192-192s-192 85.961-192 192zM768.078 512h-35.424l-199.104-404.244 74.45 372.244-96 96-96-96 74.45-372.244-199.102 404.244h-35.424c-127.924 0-127.924-85.986-127.924-192v-320h768v320c0 106.014 0 192-127.922 192z" />
<glyph unicode="&#xe917;" glyph-name="key" d="M704 960c-176.73 0-320-143.268-320-320 0-20.026 1.858-39.616 5.376-58.624l-389.376-389.376v-192c0-35.346 28.654-64 64-64h64v64h128v128h128v128h128l83.042 83.042c34.010-12.316 70.696-19.042 108.958-19.042 176.73 0 320 143.268 320 320s-143.27 320-320 320zM799.874 639.874c-53.020 0-96 42.98-96 96s42.98 96 96 96 96-42.98 96-96-42.98-96-96-96z" />
<glyph unicode="&#xe918;" glyph-name="hammer" d="M1009.996 131.024l-301.544 301.544c-18.668 18.668-49.214 18.668-67.882 0l-22.626-22.626-184 184 302.056 302.058h-320l-142.058-142.058-14.060 14.058h-67.882v-67.882l14.058-14.058-206.058-206.060 160-160 206.058 206.058 184-184-22.626-22.626c-18.668-18.668-18.668-49.214 0-67.882l301.544-301.544c18.668-18.668 49.214-18.668 67.882 0l113.136 113.136c18.67 18.666 18.67 49.214 0.002 67.882z" />
<glyph unicode="&#xe919;" glyph-name="stats-bars" d="M0 128h1024v-128h-1024zM128 384h128v-192h-128zM320 640h128v-448h-128zM512 448h128v-256h-128zM704 832h128v-640h-128z" />
<glyph unicode="&#xe91a;" glyph-name="shield" d="M960 960l-448-128-448 128c0 0-4.5-51.698 0-128l448-140.090 448 140.090c4.498 76.302 0 128 0 128zM72.19 764.894c23.986-250.696 113.49-672.234 439.81-828.894 326.32 156.66 415.824 578.198 439.81 828.894l-439.81-165.358-439.81 165.358z" />
<glyph unicode="&#xe91b;" glyph-name="tree" d="M976 192h-16v208c0 61.756-50.242 112-112 112h-272v128h16c26.4 0 48 21.6 48 48v160c0 26.4-21.6 48-48 48h-160c-26.4 0-48-21.6-48-48v-160c0-26.4 21.6-48 48-48h16v-128h-272c-61.756 0-112-50.244-112-112v-208h-16c-26.4 0-48-21.6-48-48v-160c0-26.4 21.6-48 48-48h160c26.4 0 48 21.6 48 48v160c0 26.4-21.6 48-48 48h-16v192h256v-192h-16c-26.4 0-48-21.6-48-48v-160c0-26.4 21.6-48 48-48h160c26.4 0 48 21.6 48 48v160c0 26.4-21.6 48-48 48h-16v192h256v-192h-16c-26.4 0-48-21.6-48-48v-160c0-26.4 21.6-48 48-48h160c26.4 0 48 21.6 48 48v160c0 26.4-21.6 48-48 48zM192 0h-128v128h128v-128zM576 0h-128v128h128v-128zM448 704v128h128v-128h-128zM960 0h-128v128h128v-128z" />
<glyph unicode="&#xe91c;" glyph-name="happy" d="M512-64c282.77 0 512 229.23 512 512s-229.23 512-512 512-512-229.23-512-512 229.23-512 512-512zM512 864c229.75 0 416-186.25 416-416s-186.25-416-416-416-416 186.25-416 416 186.25 416 416 416zM512 361.24c115.95 0 226.23 30.806 320 84.92-14.574-178.438-153.128-318.16-320-318.16-166.868 0-305.422 139.872-320 318.304 93.77-54.112 204.050-85.064 320-85.064zM256 608c0 53.019 28.654 96 64 96s64-42.981 64-96c0-53.019-28.654-96-64-96s-64 42.981-64 96zM640 608c0 53.019 28.654 96 64 96s64-42.981 64-96c0-53.019-28.654-96-64-96s-64 42.981-64 96z" />
<glyph unicode="&#xe91d;" glyph-name="smile" d="M512-64c282.77 0 512 229.23 512 512s-229.23 512-512 512-512-229.23-512-512 229.23-512 512-512zM512 864c229.75 0 416-186.25 416-416s-186.25-416-416-416-416 186.25-416 416 186.25 416 416 416zM256 640c0 35.346 28.654 64 64 64s64-28.654 64-64c0-35.346-28.654-64-64-64s-64 28.654-64 64zM640 640c0 35.346 28.654 64 64 64s64-28.654 64-64c0-35.346-28.654-64-64-64s-64 28.654-64 64zM704.098 332.74l82.328-49.396c-55.962-93.070-157.916-155.344-274.426-155.344s-218.464 62.274-274.426 155.344l82.328 49.396c39.174-65.148 110.542-108.74 192.098-108.74s152.924 43.592 192.098 108.74z" />
<glyph unicode="&#xe91e;" glyph-name="tongue" d="M512-64c282.77 0 512 229.23 512 512s-229.23 512-512 512-512-229.23-512-512 229.23-512 512-512zM512 864c229.75 0 416-186.25 416-416s-186.25-416-416-416-416 186.25-416 416 186.25 416 416 416zM256 640c0 35.346 28.654 64 64 64s64-28.654 64-64c0-35.346-28.654-64-64-64s-64 28.654-64 64zM640 640c0 35.346 28.654 64 64 64s64-28.654 64-64c0-35.346-28.654-64-64-64s-64 28.654-64 64zM768 384v-64h-64v-96c0-53.020-42.98-96-96-96s-96 42.98-96 96v96h-256v64h512z" />
<glyph unicode="&#xe91f;" glyph-name="sad" d="M512-64c282.77 0 512 229.23 512 512s-229.23 512-512 512-512-229.23-512-512 229.23-512 512-512zM512 864c229.75 0 416-186.25 416-416s-186.25-416-416-416-416 186.25-416 416 186.25 416 416 416zM256 640c0 35.346 28.654 64 64 64s64-28.654 64-64c0-35.346-28.654-64-64-64s-64 28.654-64 64zM640 640c0 35.346 28.654 64 64 64s64-28.654 64-64c0-35.346-28.654-64-64-64s-64 28.654-64 64zM319.902 179.26l-82.328 49.396c55.962 93.070 157.916 155.344 274.426 155.344 116.508 0 218.462-62.274 274.426-155.344l-82.328-49.396c-39.174 65.148-110.542 108.74-192.098 108.74-81.558 0-152.924-43.592-192.098-108.74z" />
<glyph unicode="&#xe920;" glyph-name="wink" d="M512-64c282.77 0 512 229.23 512 512s-229.23 512-512 512-512-229.23-512-512 229.23-512 512-512zM512 864c229.75 0 416-186.25 416-416s-186.25-416-416-416-416 186.25-416 416 186.25 416 416 416zM542.74 248.972c140.248 27.706 249.11 91.542 288.454 176.594-21.654-167.956-161.518-297.566-330.85-297.566-119.242 0-223.858 64.282-282.892 160.948 70.41-55.058 194.534-65.808 325.288-39.976zM640 608c0 53.019 28.654 96 64 96s64-42.981 64-96c0-53.019-28.654-96-64-96s-64 42.981-64 96zM352 588.5c-41.796 0-77.334-15.656-90.516-37.5-3.54 5.866-5.484 32.174-5.484 38.75 0 31.066 42.98 56.25 96 56.25s96-25.184 96-56.25c0-6.576-1.944-32.884-5.484-38.75-13.182 21.844-48.72 37.5-90.516 37.5z" />
<glyph unicode="&#xe921;" glyph-name="grin" d="M512-64c282.77 0 512 229.23 512 512s-229.23 512-512 512-512-229.23-512-512 229.23-512 512-512zM512 864c229.75 0 416-186.25 416-416s-186.25-416-416-416-416 186.25-416 416 186.25 416 416 416zM192 448v-64c0-140.8 115.2-256 256-256h128c140.8 0 256 115.2 256 256v64h-640zM384 203.012c-26.538 9.458-50.924 24.822-71.544 45.446-36.406 36.402-56.456 84.54-56.456 135.542h128v-180.988zM576 192h-128v192h128v-192zM711.544 248.458c-20.624-20.624-45.010-35.988-71.544-45.446v180.988h128c0-51.002-20.048-99.14-56.456-135.542zM225.352 576c0.002 0 0 0 0 0 9.768 0 18.108 7.056 19.724 16.69 6.158 36.684 37.668 63.31 74.924 63.31s68.766-26.626 74.924-63.31c1.616-9.632 9.956-16.69 19.722-16.69 9.768 0 18.108 7.056 19.724 16.688 1.082 6.436 1.628 12.934 1.628 19.312 0 63.962-52.038 116-116 116s-116-52.038-116-116c0-6.378 0.548-12.876 1.628-19.312 1.62-9.632 9.96-16.688 19.726-16.688zM609.352 576c0.002 0 0 0 0 0 9.77 0 18.112 7.056 19.724 16.69 6.158 36.684 37.668 63.31 74.924 63.31s68.766-26.626 74.924-63.31c1.616-9.632 9.958-16.69 19.722-16.69s18.108 7.056 19.722 16.688c1.082 6.436 1.628 12.934 1.628 19.312 0 63.962-52.038 116-116 116s-116-52.038-116-116c0-6.378 0.544-12.876 1.626-19.312 1.624-9.632 9.964-16.688 19.73-16.688z" />
<glyph unicode="&#xe922;" glyph-name="cool" d="M512-64c282.77 0 512 229.23 512 512s-229.23 512-512 512-512-229.23-512-512 229.23-512 512-512zM512 864c229.75 0 416-186.25 416-416s-186.25-416-416-416-416 186.25-416 416 186.25 416 416 416zM800 704c17.6 0 32-14.4 32-32v-96c0-35.2-28.8-64-64-64h-128c-35.2 0-64 28.8-64 64h-128c0-35.2-28.8-64-64-64h-128c-35.2 0-64 28.8-64 64v96c0 17.6 14.4 32 32 32h192c17.6 0 32-14.4 32-32v-32h128v32c0 17.6 14.4 32 32 32h192zM512 192c93.208 0 174.772 49.818 219.546 124.278l54.88-32.934c-55.966-93.070-157.916-155.344-274.426-155.344-48.458 0-94.384 10.796-135.54 30.082l33.162 55.278c31.354-13.714 65.964-21.36 102.378-21.36z" />
<glyph unicode="&#xe923;" glyph-name="angry" d="M512-64c282.77 0 512 229.23 512 512s-229.23 512-512 512-512-229.23-512-512 229.23-512 512-512zM512 864c229.75 0 416-186.25 416-416s-186.25-416-416-416-416 186.25-416 416 186.25 416 416 416zM704.098 179.26c-39.174 65.148-110.544 108.74-192.098 108.74-81.556 0-152.924-43.592-192.098-108.74l-82.328 49.396c55.96 93.070 157.916 155.344 274.426 155.344 116.508 0 218.464-62.274 274.426-155.344l-82.328-49.396zM767.042 679.76c4.284-17.144-6.14-34.518-23.282-38.804-17.626-4.45-38.522-12.12-56.936-21.35 10.648-11.43 17.174-26.752 17.174-43.606 0-35.346-28.654-64-64-64s-64 28.654-64 64c0 1.17 0.036 2.33 0.098 3.484 2.032 47.454 45.212 78.946 81.592 97.138 34.742 17.37 69.102 26.060 70.548 26.422 17.146 4.288 34.518-6.138 38.806-23.284zM256.958 679.76c4.288 17.146 21.66 27.572 38.806 23.284 1.446-0.362 35.806-9.052 70.548-26.422 36.38-18.192 79.56-49.684 81.592-97.138 0.062-1.154 0.098-2.314 0.098-3.484 0-35.346-28.654-64-64-64s-64 28.654-64 64c0 16.854 6.526 32.176 17.174 43.606-18.414 9.23-39.31 16.9-56.936 21.35-17.142 4.286-27.566 21.66-23.282 38.804z" />
<glyph unicode="&#xe924;" glyph-name="evil" d="M639.996 512c-35.346 0-64 28.654-63.998 64.002 0 1.17 0.036 2.33 0.098 3.484 2.032 47.454 45.212 78.946 81.592 97.138 34.742 17.37 69.102 26.060 70.548 26.422 17.146 4.288 34.518-6.138 38.806-23.284 4.284-17.146-6.14-34.518-23.284-38.806-17.626-4.45-38.522-12.12-56.936-21.35 10.648-11.43 17.174-26.752 17.174-43.606 0-35.346-28.654-64-64-64zM280.242 640.956c-17.144 4.286-27.568 21.66-23.282 38.804 4.286 17.146 21.66 27.572 38.806 23.284 1.444-0.362 35.806-9.050 70.548-26.422 36.382-18.19 79.56-49.684 81.592-97.138 0.062-1.154 0.098-2.316 0.098-3.484 0-35.346-28.654-64-64-64s-64 28.654-64 64c0 16.854 6.526 32.176 17.174 43.606-18.414 9.23-39.312 16.9-56.936 21.35zM512 224c81.554 0 152.924 43.592 192.098 108.74l82.328-49.396c-55.962-93.070-157.916-155.344-274.426-155.344s-218.464 62.274-274.426 155.344l82.328 49.396c39.174-65.148 110.542-108.74 192.098-108.74zM1024 896c0 45.516-9.524 88.8-26.652 128-33.576-76.836-96.448-137.932-174.494-169.178-86.194 65.96-193.936 105.178-310.854 105.178s-224.66-39.218-310.854-105.178c-78.048 31.246-140.918 92.342-174.494 169.178-17.128-39.2-26.652-82.484-26.652-128 0-73.574 24.85-141.328 66.588-195.378-42.37-74.542-66.588-160.75-66.588-252.622 0-282.77 229.23-512 512-512s512 229.23 512 512c0 91.872-24.218 178.080-66.588 252.622 41.738 54.050 66.588 121.804 66.588 195.378zM512 32c-229.75 0-416 186.25-416 416s186.25 416 416 416 416-186.25 416-416-186.25-416-416-416z" />
<glyph unicode="&#xe925;" glyph-name="shocked" d="M512-64c282.77 0 512 229.23 512 512s-229.23 512-512 512-512-229.23-512-512 229.23-512 512-512zM512 864c229.75 0 416-186.25 416-416s-186.25-416-416-416-416 186.25-416 416 186.25 416 416 416zM384 256c0 70.692 57.308 128 128 128s128-57.308 128-128c0-70.692-57.308-128-128-128s-128 57.308-128 128zM640 608c0 53.019 28.654 96 64 96s64-42.981 64-96c0-53.019-28.654-96-64-96s-64 42.981-64 96zM256 608c0 53.019 28.654 96 64 96s64-42.981 64-96c0-53.019-28.654-96-64-96s-64 42.981-64 96z" />
<glyph unicode="&#xe926;" glyph-name="baffled" d="M512-64c282.77 0 512 229.23 512 512s-229.23 512-512 512-512-229.23-512-512 229.23-512 512-512zM512 864c229.75 0 416-186.25 416-416s-186.25-416-416-416-416 186.25-416 416 186.25 416 416 416zM384 544c0-17.673-14.327-32-32-32s-32 14.327-32 32c0 17.673 14.327 32 32 32s32-14.327 32-32zM352 640c53.020 0 96-42.98 96-96s-42.98-96-96-96-96 42.98-96 96 42.98 96 96 96zM352 704c-88.224 0-160-71.776-160-160s71.776-160 160-160 160 71.776 160 160-71.776 160-160 160v0zM704 544c0-17.673-14.327-32-32-32s-32 14.327-32 32c0 17.673 14.327 32 32 32s32-14.327 32-32zM672 640c53.020 0 96-42.98 96-96s-42.98-96-96-96-96 42.98-96 96 42.98 96 96 96zM672 704c-88.224 0-160-71.776-160-160s71.776-160 160-160 160 71.776 160 160-71.776 160-160 160v0zM384 256h256v-64h-256v64z" />
<glyph unicode="&#xe927;" glyph-name="confused" d="M512-64c282.77 0 512 229.23 512 512s-229.23 512-512 512-512-229.23-512-512 229.23-512 512-512zM512 864c229.75 0 416-186.25 416-416s-186.25-416-416-416-416 186.25-416 416 186.25 416 416 416zM256 640c0 35.346 28.654 64 64 64s64-28.654 64-64c0-35.346-28.654-64-64-64s-64 28.654-64 64zM640 640c0 35.346 28.654 64 64 64s64-28.654 64-64c0-35.346-28.654-64-64-64s-64 28.654-64 64zM726.106 320h64.864c9.246-72.506-32.452-144.53-103.958-170.56-82.904-30.176-174.9 12.716-205.080 95.616-18.108 49.744-73.306 75.482-123.048 57.372-45.562-16.588-70.956-64.298-60.988-110.424h-64.86c-9.242 72.508 32.45 144.528 103.956 170.56 82.904 30.178 174.902-12.716 205.082-95.614 18.104-49.748 73.306-75.482 123.044-57.372 45.562 16.584 70.956 64.298 60.988 110.422z" />
<glyph unicode="&#xe928;" glyph-name="neutral" d="M512-64c282.77 0 512 229.23 512 512s-229.23 512-512 512-512-229.23-512-512 229.23-512 512-512zM512 864c229.75 0 416-186.25 416-416s-186.25-416-416-416-416 186.25-416 416 186.25 416 416 416zM256 640c0-35.346 28.654-64 64-64s64 28.654 64 64-28.654 64-64 64-64-28.654-64-64zM640 640c0-35.346 28.654-64 64-64s64 28.654 64 64-28.654 64-64 64-64-28.654-64-64zM384 256h256v-64h-256v64z" />
<glyph unicode="&#xe929;" glyph-name="hipster" d="M512-64c282.77 0 512 229.23 512 512s-229.23 512-512 512-512-229.23-512-512 229.23-512 512-512zM512 864c229.75 0 416-186.25 416-416s-186.25-416-416-416-416 186.25-416 416 186.25 416 416 416zM256 640c0 35.346 28.654 64 64 64s64-28.654 64-64-28.654-64-64-64-64 28.654-64 64zM640 640c0 35.346 28.654 64 64 64s64-28.654 64-64-28.654-64-64-64-64 28.654-64 64zM675.882 419.882c-37.49 37.49-98.276 37.49-135.766 0s-37.49-98.276 0-135.766c1.204-1.204 2.434-2.368 3.684-3.492 86.528-78.512 288.2 1.842 288.2 103.376-62-40-110.45-9.786-156.118 35.882zM348.118 419.882c37.49 37.49 98.276 37.49 135.766 0s37.49-98.276 0-135.766c-1.204-1.204-2.434-2.368-3.684-3.492-86.528-78.512-288.2 1.842-288.2 103.376 62-40 110.45-9.786 156.118 35.882z" />
<glyph unicode="&#xe92a;" glyph-name="wondering" d="M512-64c282.77 0 512 229.23 512 512s-229.23 512-512 512-512-229.23-512-512 229.23-512 512-512zM512 864c229.75 0 416-186.25 416-416s-186.25-416-416-416-416 186.25-416 416 186.25 416 416 416zM745.74 358.38l22.488-76.776-437.008-128.002-22.488 76.776zM256 640c0 35.346 28.654 64 64 64s64-28.654 64-64c0-35.346-28.654-64-64-64s-64 28.654-64 64zM640 640c0 35.346 28.654 64 64 64s64-28.654 64-64c0-35.346-28.654-64-64-64s-64 28.654-64 64z" />
<glyph unicode="&#xe92b;" glyph-name="sleepy" d="M512-64c282.77 0 512 229.23 512 512s-229.23 512-512 512-512-229.23-512-512 229.23-512 512-512zM512 864c229.75 0 416-186.25 416-416s-186.25-416-416-416-416 186.25-416 416 186.25 416 416 416zM640 288c0-88.366-57.308-160-128.002-160s-128.002 71.634-128.002 160c0 88.366 57.308 160 128.002 160s128.002-71.634 128.002-160zM416 620c-8.19 0-16.378 3.124-22.626 9.374-19.334 19.332-63.412 19.332-82.746 0-12.496-12.498-32.758-12.498-45.254 0-12.498 12.496-12.498 32.758 0 45.254 44.528 44.53 128.726 44.53 173.254 0 12.498-12.496 12.498-32.758 0-45.254-6.248-6.25-14.438-9.374-22.628-9.374zM736 620c-8.19 0-16.378 3.124-22.626 9.374-19.332 19.332-63.414 19.332-82.746 0-12.496-12.498-32.758-12.498-45.254 0-12.498 12.496-12.498 32.758 0 45.254 44.528 44.53 128.726 44.53 173.254 0 12.498-12.496 12.498-32.758 0-45.254-6.248-6.25-14.438-9.374-22.628-9.374z" />
<glyph unicode="&#xe92c;" glyph-name="frustrated" d="M366.312 676.622c-34.742 17.37-69.102 26.060-70.548 26.422-17.146 4.288-34.518-6.138-38.806-23.284-4.284-17.144 6.14-34.518 23.282-38.804 17.626-4.45 38.522-12.12 56.936-21.35-10.648-11.43-17.174-26.752-17.174-43.606 0-35.346 28.654-64 64-64s64 28.654 64 64c0 1.17-0.036 2.33-0.098 3.484-2.032 47.454-45.212 78.946-81.592 97.138zM512 960c-282.77 0-512-229.23-512-512s229.23-512 512-512 512 229.23 512 512-229.23 512-512 512zM236.498 136.336c10.706-5.324 22.756-8.336 35.502-8.336h480c12.746 0 24.796 3.012 35.502 8.338-73.378-64.914-169.828-104.338-275.502-104.338-105.672 0-202.124 39.424-275.502 104.336zM256 208v96c0 8.674 7.328 16 16 16h112v-128h-112c-8.672 0-16 7.326-16 16zM448 192v128h128v-128h-128zM640 192v128h112c8.674 0 16-7.326 16-16v-96c0-8.674-7.326-16-16-16h-112zM823.662 172.498c5.326 10.706 8.338 22.756 8.338 35.502v96c0 44.112-35.888 80-80 80h-480c-44.112 0-80-35.888-80-80v-96c0-12.746 3.012-24.796 8.336-35.502-64.912 73.378-104.336 169.828-104.336 275.502 0 229.75 186.25 416 416 416s416-186.25 416-416c0-105.674-39.424-202.124-104.338-275.502zM728.236 703.044c-1.448-0.362-35.806-9.052-70.548-26.422-36.378-18.192-79.558-49.684-81.592-97.138-0.060-1.154-0.098-2.314-0.098-3.484 0-35.346 28.654-64 64-64s64 28.654 64 64c0 16.854-6.526 32.176-17.174 43.606 18.414 9.23 39.31 16.9 56.936 21.35 17.142 4.286 27.566 21.66 23.284 38.804-4.29 17.146-21.662 27.572-38.808 23.284z" />
<glyph unicode="&#xe92d;" glyph-name="crying" d="M512-64c282.77 0 512 229.23 512 512s-229.23 512-512 512-512-229.23-512-512 229.23-512 512-512zM512 864c229.75 0 416-186.25 416-416s-186.25-416-416-416-416 186.25-416 416 186.25 416 416 416zM800 576h-128c-17.674 0-32 14.328-32 32s14.326 32 32 32h128c17.674 0 32-14.328 32-32s-14.326-32-32-32zM352 576h-128c-17.672 0-32 14.328-32 32s14.328 32 32 32h128c17.672 0 32-14.328 32-32s-14.328-32-32-32zM608 104c-8.19 0-16.378 3.124-22.626 9.374-4.582 4.582-29.42 14.626-73.374 14.626s-68.79-10.044-73.374-14.626c-12.496-12.496-32.758-12.496-45.254 0-12.498 12.496-12.498 32.758 0 45.254 30.122 30.12 92.994 33.372 118.628 33.372 25.632 0 88.506-3.252 118.626-33.374 12.498-12.496 12.498-32.758 0-45.254-6.248-6.248-14.436-9.372-22.626-9.372zM736 384c-17.674 0-32 14.326-32 32v64c0 17.672 14.326 32 32 32s32-14.328 32-32v-64c0-17.674-14.326-32-32-32zM736 192c-17.674 0-32 14.326-32 32v64c0 17.674 14.326 32 32 32s32-14.326 32-32v-64c0-17.674-14.326-32-32-32zM288 384c-17.672 0-32 14.326-32 32v64c0 17.672 14.328 32 32 32s32-14.328 32-32v-64c0-17.674-14.328-32-32-32zM288 192c-17.672 0-32 14.326-32 32v64c0 17.674 14.328 32 32 32s32-14.326 32-32v-64c0-17.674-14.328-32-32-32z" />
<glyph unicode="&#xe92e;" glyph-name="infinite" d="M783.988 207.988c-64.104 0-124.372 24.96-169.7 70.288l-102.288 102.282-102.276-102.27c-45.332-45.336-105.6-70.3-169.706-70.3-64.118 0-124.39 24.964-169.722 70.3-45.332 45.334-70.296 105.604-70.296 169.712s24.964 124.38 70.296 169.714c45.334 45.332 105.608 70.296 169.714 70.296 64.108 0 124.38-24.964 169.712-70.296l102.278-102.276 102.276 102.276c45.332 45.332 105.604 70.298 169.712 70.298 64.112 0 124.384-24.966 169.71-70.298 45.338-45.334 70.302-105.606 70.302-169.714 0-64.112-24.964-124.382-70.3-169.71-45.326-45.336-105.598-70.302-169.712-70.302zM681.72 345.712c27.322-27.31 63.64-42.354 102.268-42.352 38.634 0 74.958 15.044 102.276 42.362 27.316 27.322 42.364 63.644 42.364 102.278s-15.046 74.956-42.364 102.274c-27.32 27.318-63.64 42.364-102.276 42.364-38.632 0-74.956-15.044-102.278-42.364l-102.268-102.274 102.278-102.288zM240.012 592.638c-38.634 0-74.956-15.044-102.274-42.364-27.32-27.318-42.364-63.64-42.364-102.274 0-38.632 15.044-74.954 42.364-102.276 27.32-27.316 63.642-42.364 102.274-42.364 38.634 0 74.956 15.044 102.272 42.362l102.276 102.278-102.276 102.274c-27.318 27.32-63.64 42.366-102.272 42.364v0z" />
<glyph unicode="&#xe92f;" glyph-name="sigma" d="M941.606 225.292l44.394 94.708h38l-64-384h-960v74.242l331.546 391.212-331.546 331.546v227h980l44-256h-34.376l-18.72 38.88c-35.318 73.364-61.904 89.12-138.904 89.12h-662l353.056-353.056-297.42-350.944h542.364c116.008 0 146.648 41.578 173.606 97.292z" />
<glyph unicode="&#xe930;" glyph-name="google-drive" d="M459.33 300.168l-170.654-295.668h564.654l170.67 295.668zM975.612 384l-292.934 507.5h-341.348l292.956-507.5zM292.836 807.486l-292.836-507.318 170.676-295.668 292.832 507.324z" />
<glyph unicode="&#xe931;" glyph-name="picassa" d="M704 565.74l-364.456 364.456c53.89 19.276 111.94 29.804 172.456 29.804 67.904 0 132.704-13.25 192-37.256v-357.004zM768 256v635.486c153.034-88.528 256-253.978 256-443.486 0-67.904-13.25-132.704-37.256-192h-218.744zM320 192h635.486c-88.528-153.034-253.978-256-443.486-256-67.904 0-132.704 13.25-192 37.256v218.744zM426.26 736l-411.282-411.282c-9.764 39.49-14.978 80.774-14.978 123.282 0 193.382 107.226 361.702 265.452 448.808l160.808-160.808zM256 458.26v-453.746c-94.596 54.722-170.036 138.848-213.874 239.872l213.874 213.874z" />
<glyph unicode="&#xe932;" glyph-name="archive" d="M896 469.334v298.667h-128v128h-682.667v-426.667h-42.667v-85.333h42.667v-469.333h853.333v469.333h42.667v85.333h-85.333zM810.667 682.667v-213.333h-512v213.333h512zM170.667 810.667h512v-42.667h-469.333v-298.667h-42.667v341.333zM853.333-0h-682.667v384h682.667v-384zM768 341.334h-512v-298.667h512v298.667zM725.333 85.334h-426.667v213.333h426.667v-213.333zM682.667 256h-341.333v-42.667h341.333v42.667zM554.667 170.667h-213.333v-42.667h213.333v42.667z" />
<glyph unicode="&#xe933;" glyph-name="box-alt" d="M42.667 810.667v-298.667h42.667v-469.333h853.333v469.333h42.667v298.667h-938.667zM853.333 128h-682.667v384h682.667v-384zM896 597.334h-768v128h768v-128zM768 469.334h-512v-298.667h512v298.667zM725.333 213.334h-426.667v213.333h426.667v-213.333zM682.667 384h-341.333v-42.667h341.333v42.667zM554.667 298.667h-213.333v-42.667h213.333v42.667z" />
<glyph unicode="&#xe934;" glyph-name="document-add" d="M640 426.667h-85.333v85.333c0 23.595-19.072 42.667-42.667 42.667s-42.667-19.072-42.667-42.667v-85.333h-85.333c-23.595 0-42.667-19.072-42.667-42.667s19.072-42.667 42.667-42.667h85.333v-85.333c0-23.595 19.072-42.667 42.667-42.667s42.667 19.072 42.667 42.667v85.333h85.333c23.595 0 42.667 19.072 42.667 42.667s-19.072 42.667-42.667 42.667zM840.832 627.499l-170.667 170.667c-7.979 8.021-18.816 12.501-30.165 12.501h-341.333c-70.571 0-128-57.429-128-128v-512c0-70.571 57.429-128 128-128h426.667c70.571 0 128 57.429 128 128v426.667c0 11.349-4.48 22.187-12.501 30.165zM750.336 597.334h-46.336c-35.285 0-64 28.715-64 64v46.336l110.336-110.336zM725.333 128h-426.667c-23.552 0-42.667 19.115-42.667 42.667v512c0 23.552 19.115 42.667 42.667 42.667h298.667v-64c0-58.837 47.829-106.667 106.667-106.667h64v-384c0-23.552-19.115-42.667-42.667-42.667z" />
<glyph unicode="&#xe935;" glyph-name="folder-add" d="M768 682.667h-256c0 47.104-38.229 85.333-85.333 85.333h-170.667c-70.571 0-128-57.429-128-128v-426.667c0-70.571 57.429-128 128-128h512c70.571 0 128 57.429 128 128v341.333c0 70.571-57.429 128-128 128zM768 170.667h-512c-23.552 0-42.667 19.115-42.667 42.667v298.667h170.667c11.733 0 21.333 9.6 21.333 21.333s-9.6 21.333-21.333 21.333h-170.667v85.333c0 23.552 19.115 42.667 42.667 42.667h170.667c0-47.104 38.229-85.333 85.333-85.333h256c23.552 0 42.667-19.115 42.667-42.667h-170.667c-11.733 0-21.333-9.6-21.333-21.333s9.6-21.333 21.333-21.333h170.667v-298.667c0-23.552-19.115-42.667-42.667-42.667zM640 426.667h-85.333v85.333c0 23.595-19.072 42.667-42.667 42.667s-42.667-19.072-42.667-42.667v-85.333h-85.333c-23.595 0-42.667-19.072-42.667-42.667s19.072-42.667 42.667-42.667h85.333v-85.333c0-23.595 19.072-42.667 42.667-42.667s42.667 19.072 42.667 42.667v85.333h85.333c23.595 0 42.667 19.072 42.667 42.667s-19.072 42.667-42.667 42.667z" />
<glyph unicode="&#xe936;" glyph-name="infinity" d="M701.141 571.904c-49.195 0-95.445-19.157-129.536-53.163l-59.563-57.173-58.667 56.32c-34.773 34.859-81.109 54.016-130.347 54.016s-95.531-19.243-130.261-54.016c-34.859-34.816-54.059-81.067-54.059-130.347 0-49.152 19.157-95.488 54.016-130.261 34.731-34.816 81.024-54.016 130.304-54.016 49.195 0 95.531 19.157 129.536 53.248l59.52 57.088 58.709-56.32c34.773-34.816 81.109-54.016 130.347-54.016s95.488 19.157 130.261 54.016c34.859 34.731 54.059 81.067 54.059 130.347s-19.157 95.488-54.016 130.347c-34.859 34.773-81.109 53.931-130.304 53.931zM377.899 332.758c-29.312-29.355-80.384-29.355-109.739 0-14.677 14.677-22.741 34.176-22.741 54.827 0 20.736 8.064 40.149 22.827 54.912 14.592 14.677 34.091 22.741 54.784 22.741s40.192-8.064 55.68-23.509l56.363-54.187-57.173-54.784zM755.968 332.758c-29.312-29.397-79.616-30.080-110.507 0.768l-56.363 54.187 57.131 54.827c29.355 29.355 80.469 29.355 109.781 0.085 14.677-14.763 22.741-34.176 22.741-54.912s-8.107-40.277-22.784-54.955z" />
<glyph unicode="&#xe937;" glyph-name="sort-numerically-outline" d="M993.792 420.95c5.888 18.987 8.875 38.827 8.875 59.051 0 111.744-90.923 202.667-202.667 202.667-59.563 0-114.56-26.027-152.448-69.632-0.896 0.896-1.493 1.963-2.389 2.859-41.515 41.557-100.224 65.408-161.109 65.408-60.672 0-119.211-23.723-160.853-65.067-11.264 18.389-27.477 34.688-47.872 47.275-20.224 12.544-44.032 19.157-68.821 19.157-20.565 0-40.747-4.651-58.411-13.483l-59.989-31.872c-61.525-30.763-87.509-107.776-56.021-170.752 11.605-23.168 30.464-41.899 53.248-54.272v-198.955c0-70.571 57.429-128 128-128 32.683 0 62.208 12.672 84.864 32.896 23.040-20.779 53.333-32.896 85.803-32.896h213.333c33.195 0 63.104 13.013 85.76 33.92 33.963-21.333 73.856-33.92 116.907-33.92 123.52 0 224 100.48 224 224 0 39.339-10.667 77.867-30.208 111.616zM256 213.334c0-23.552-19.115-42.667-42.667-42.667s-42.667 19.115-42.667 42.667v272.299c-6.144-3.072-13.056-4.523-20.096-4.523-17.109 0-34.688 8.661-42.155 23.595-10.539 21.077-1.323 46.72 19.755 57.259l58.069 30.891c6.016 2.987 13.099 4.48 20.267 4.48 8.491 0 17.067-2.133 23.936-6.357 12.544-7.808 25.557-21.504 25.557-36.309v-341.333zM597.333 170.667h-213.333c-17.237 0-32.811 10.411-39.424 26.325-6.613 15.957-2.944 34.304 9.259 46.507l170.667 170.667c10.837 10.837 16.811 25.216 16.811 40.533 0 15.275-5.973 29.653-16.811 40.491s-25.643 16.256-40.491 16.256-29.696-5.419-40.619-16.299c-10.752-10.752-16.725-25.131-16.725-40.448 0-23.552-19.115-42.667-42.667-42.667s-42.667 19.115-42.667 42.667c0 38.144 14.848 73.941 41.813 100.864s63.915 40.405 100.864 40.405 73.856-13.483 100.821-40.448c26.965-26.923 41.771-62.763 41.771-100.821 0-38.101-14.848-73.941-41.771-100.864l-97.835-97.835h110.336c23.552 0 42.667-19.115 42.667-42.667s-19.115-42.667-42.667-42.667zM800 170.667c-76.459 0-138.667 62.208-138.667 138.667 0 23.552 19.115 42.667 42.667 42.667s42.667-19.115 42.667-42.667c0-29.397 23.936-53.333 53.333-53.333s53.333 23.936 53.333 53.333-23.936 53.333-53.333 53.333c-23.552 0-42.667 19.115-42.667 42.667s19.115 42.667 42.667 42.667c17.664 0 32 14.336 32 32s-14.336 32-32 32c-11.989 0-22.869-6.613-28.373-17.237-7.595-14.635-22.485-23.040-37.931-23.040-6.613 0-13.312 1.536-19.584 4.779-20.949 10.837-29.099 36.565-18.261 57.515 20.267 39.040 60.16 63.317 104.149 63.317 64.683 0 117.333-52.608 117.333-117.333 0-26.069-8.832-49.92-23.253-69.419 27.264-25.344 44.587-61.184 44.587-101.248 0-76.459-62.208-138.667-138.667-138.667z" />
<glyph unicode="&#xe938;" glyph-name="sort-numerically" d="M170.667 170.667c-23.552 0-42.667 19.115-42.667 42.667v272.299l-23.595-11.776c-21.12-10.581-46.72-1.963-57.259 19.072-10.539 21.077-1.963 46.677 19.115 57.259l85.333 42.667c13.227 6.613 28.928 5.931 41.515-1.877 12.544-7.808 20.224-21.504 20.224-36.309v-341.333c0-23.552-19.115-42.667-42.667-42.667zM554.667 170.667h-213.333c-17.237 0-32.811 10.411-39.424 26.325-6.613 15.957-2.944 34.304 9.259 46.507l170.667 170.667c10.837 10.837 16.811 25.216 16.811 40.533 0 15.275-5.973 29.653-16.811 40.491-21.675 21.675-59.307 21.675-81.067-0.043-10.795-10.752-16.768-25.131-16.768-40.448 0-23.552-19.115-42.667-42.667-42.667s-42.667 19.115-42.667 42.667c0 38.144 14.848 73.941 41.813 100.864 53.973 53.888 147.797 53.888 201.685-0.043 26.965-26.923 41.771-62.763 41.771-100.821 0-38.101-14.848-73.941-41.771-100.864l-97.835-97.835h110.336c23.552 0 42.667-19.115 42.667-42.667s-19.115-42.667-42.667-42.667zM894.080 410.582c14.421 19.499 23.253 43.349 23.253 69.419 0 64.725-52.651 117.333-117.333 117.333-43.989 0-83.883-24.277-104.107-63.317-10.837-20.907-2.688-46.677 18.261-57.515 20.907-10.837 46.677-2.645 57.515 18.261 5.461 10.624 16.341 17.237 28.331 17.237 17.664 0 32-14.336 32-32s-14.336-32-32-32c-23.552 0-42.667-19.115-42.667-42.667s19.115-42.667 42.667-42.667c29.397 0 53.333-23.936 53.333-53.333s-23.936-53.333-53.333-53.333-53.333 23.936-53.333 53.333c0 23.552-19.115 42.667-42.667 42.667s-42.667-19.115-42.667-42.667c0-76.459 62.208-138.667 138.667-138.667s138.667 62.208 138.667 138.667c0 40.064-17.323 75.904-44.587 101.248z" />
<glyph unicode="&#xe939;" glyph-name="browser" d="M921.6 870.4h-819.2c-56.32 0-102.4-46.080-102.4-102.4v-614.4c0-56.32 46.080-102.4 102.4-102.4h819.2c56.32 0 102.4 46.080 102.4 102.4v614.4c0 56.32-46.080 102.4-102.4 102.4zM230.4 780.8c21.197 0 38.4-17.203 38.4-38.4s-17.203-38.4-38.4-38.4c-21.197 0-38.4 17.203-38.4 38.4s17.203 38.4 38.4 38.4zM89.6 742.4c0 21.197 17.203 38.4 38.4 38.4s38.4-17.203 38.4-38.4c0-21.197-17.203-38.4-38.4-38.4s-38.4 17.203-38.4 38.4zM921.6 153.6h-819.2v460.8h819.2v-460.8zM921.6 716.8h-614.4v51.2h615.373l-0.973-51.2z" />
<glyph unicode="&#xe93a;" glyph-name="book-alt2" d="M870.4 668.16v-529.971c0-26.726-23.142-39.475-51.2-59.392-22.528-16.026-51.2 3.84-51.2 30.054 0 0 0 507.136 0 517.837 0 10.803-3.789 21.094-16.077 27.392s-396.186 208.128-396.186 208.128c-6.195 2.304-33.229 19.354-69.274 0.819-34.253-17.613-52.89-36.762-57.651-45.773l418.816-229.478c11.11-5.837 17.971-14.848 17.971-26.419v-553.062c0-11.776-7.27-24.371-18.893-29.952-5.325-2.662-11.213-3.942-17.050-3.942-6.912 0-13.875 1.69-19.763 5.325-11.008 6.707-398.029 244.019-423.578 259.43-12.288 7.373-26.675 22.477-26.982 33.69l-5.734 526.643c0 10.138-1.178 28.006 14.797 52.838 35.686 55.501 160.205 118.63 223.232 85.914l460.749-233.216c11.11-5.734 18.022-17.203 18.022-36.864z" />
<glyph unicode="&#xe93b;" glyph-name="archive-alt" d="M715.827 870.4h-407.706c0 0-50.995 0-50.995-51.2h509.696c0 51.2-50.995 51.2-50.995 51.2zM868.762 716.8c0 51.2-50.944 51.2-50.944 51.2h-611.635c0 0-50.944 0-50.944-51.2v-51.2h713.523v51.2zM970.65 665.6c-30.106 30.31-30.106 30.31-30.106 30.31v-81.51h-857.088v81.51c0 0 0 0-30.157-30.31s-51.763-38.4-39.629-102.4c12.083-63.795 70.605-413.491 79.309-460.8 9.523-51.917 62.31-51.2 62.31-51.2h713.523c0 0 52.736-0.717 62.31 51.2 8.704 47.309 67.174 397.005 79.309 460.8 12.032 64-9.574 72.090-39.782 102.4zM716.8 358.554c0-28.365-22.989-51.354-51.354-51.354h-306.893c-28.365 0-51.354 22.989-51.354 51.354v102.246h51.2v-102.4h307.2v102.4h51.2v-102.246z" />
<glyph unicode="&#xe93c;" glyph-name="blackboard" d="M129.997-51.2h177.203l71.987 189.338-151.859 51.405-97.331-240.742zM644.813 138.138l71.987-189.338h177.203l-97.331 240.742-151.859-51.405zM921.6 870.4h-332.8l-25.6 102.4h-102.4l-25.6-102.4h-332.8c-28.314 0-51.2-22.886-51.2-51.2v-563.2c0-28.262 22.886-51.2 51.2-51.2h819.2c28.314 0 51.2 22.938 51.2 51.2v563.2c0 28.262-22.886 51.2-51.2 51.2z" />
<glyph unicode="&#xe93d;" glyph-name="blended" d="M410.672 11.536c0-47.248-31.504-75.536-77.888-75.536h-254.912c-46.368 0-77.872 28.288-77.872 75.536 0 65.92 15.456 167.136 100.912 167.136 9.040 0 47.248-40.544 104.416-40.544s95.376 40.544 104.416 40.544c85.472 0 100.928-101.216 100.928-167.136zM1024 11.536c0-47.248-31.504-75.536-77.872-75.536h-254.912c-46.384 0-77.888 28.288-77.888 75.536 0 65.92 15.456 167.136 100.928 167.136 9.040 0 47.248-40.544 104.416-40.544s95.376 40.544 104.416 40.544c85.456 0 100.912-101.216 100.912-167.136zM581.392 8l-0.032 0.672c-0.032 3.2-0.016 6.416 0.016 9.632 0.208 10.896 0.72 21.792 1.744 32.64 0.72 7.744 1.68 15.456 2.912 23.12 0.944 5.904 2.064 11.792 3.376 17.648 0.912 4.112 1.92 8.224 3.040 12.288h-160.896c0.224-0.816 0.448-1.648 0.656-2.464 1.2-4.56 2.272-9.152 3.232-13.76 1.216-5.84 2.256-11.712 3.136-17.616 1.312-8.864 2.272-17.792 2.928-26.72 0.8-10.656 1.12-21.328 1.168-32l-0.032-2.768-0.032-0.672h138.784zM317.328 272c0-61.84-50.16-112-112-112-61.824 0-112 50.16-112 112s50.176 112 112 112c61.84 0 112-50.16 112-112zM930.672 272c0-61.84-50.176-112-112-112-61.84 0-112 50.16-112 112s50.16 112 112 112c61.824 0 112-50.16 112-112zM458.080 543.664c-35.584 0.096-71.184 0.192-106.768 0.256l-72.528-148.064c10.816-6.416 20.784-14.256 29.584-23.264 12.528-12.848 22.64-28.016 29.632-44.544 2.384-5.616 4.384-11.376 6.016-17.248l114.064 232.864zM679.984 310.8c2.736 9.792 6.512 19.312 11.264 28.32 12.368 23.424 31.216 43.216 53.968 56.736l-72.368 147.728c-35.6-0.112-71.216-0.128-106.832-0.112l113.968-232.672zM273.904 576h476.192c26.192 0 47.616 12.896 47.616 28.8v28.8h-571.424v-28.8c0-15.904 21.424-28.8 47.616-28.8zM535.808 604.8h-47.616c-2.688 0-4.768 2.096-4.768 4.8s2.080 4.8 4.768 4.8h47.616c2.688 0 4.768-2.096 4.768-4.8s-2.080-4.8-4.768-4.8zM350.096 652.8h323.808c26.192 0 47.616 21.6 47.616 48v211.2c0 26.4-21.424 48-47.616 48h-323.808c-26.192 0-47.616-21.6-47.616-48v-211.2c0-26.4 21.424-48 47.616-48zM340.576 912c0 5.104 4.464 9.6 9.52 9.6h323.808c5.056 0 9.52-4.496 9.52-9.6v-211.2c0-5.104-4.464-9.6-9.52-9.6h-323.808c-5.056 0-9.52 4.496-9.52 9.6v211.2z" />
<glyph unicode="&#xe93e;" glyph-name="alfresco" d="M510.72-14.688c11.616 0.048 23.216 1.12 34.624 3.408 26.48 5.296 51.568 16.8 72.928 33.312 7.248 5.616 14.064 11.792 20.368 18.464 3.152 3.344 6.128 6.816 9.040 10.368l0.064 0.064c-2.352 0.768-4.688 1.616-7.008 2.464-2.32 0.88-4.624 1.776-6.912 2.704-6.304 2.64-12.512 5.536-18.544 8.752-12.864 6.88-24.992 15.12-36.128 24.544-8.64 7.296-16.816 15.184-23.584 24.272-8.72 11.68-15.376 24.8-20.688 38.336-6.992 17.856-11.728 36.544-15.2 55.376-5.12 27.648-7.568 55.776-8.608 83.84-1.264 33.92-0.384 67.888 1.888 101.728l0.128 1.776c-0.8 0.672-1.584 1.328-2.384 2-3.424-2.832-6.8-5.68-10.176-8.544-22.672-19.376-44.544-39.648-65.408-60.96-17.392-17.776-34.032-36.384-49.264-56.048-10.224-13.184-19.84-26.896-28.224-41.344-6.896-11.904-13.040-24.352-17.36-37.44-2.544-7.712-4.464-15.696-5.232-23.792-0.512-5.44-0.384-10.912-0.112-16.352 0.48-9.6 1.744-19.152 3.792-28.544 3.52-16.128 9.344-31.728 17.216-46.24 9.776-17.984 22.72-34.224 38.032-47.824 14.832-13.168 31.872-23.808 50.24-31.312 12.736-5.216 26.080-8.896 39.68-10.992 6.64-1.008 13.296-1.6 20-1.888 2.272-0.080 4.544-0.128 6.832-0.128zM310.624 72.032c3.52 0.016 7.040 0.112 10.576 0.288l1.424 0.096c-1.088 2.288-2.128 4.608-3.136 6.944-0.928 2.192-1.84 4.4-2.704 6.624-2.368 6.16-4.496 12.416-6.288 18.768-3.664 12.944-6.048 26.256-7.12 39.664-0.592 7.2-0.896 14.496-0.576 21.712 0.192 4.048 0.592 8.080 1.2 12.080 2.112 14.112 6.592 27.808 12.272 40.864 7.936 18.224 18.256 35.392 29.584 51.712 16.080 23.152 34.352 44.784 53.568 65.376 23.632 25.312 48.848 49.12 75.008 71.792l3.392 2.928c-0.096 1.184-0.208 2.384-0.32 3.568-4.416 0.416-8.816 0.8-13.232 1.168-37.152 2.896-74.48 4.048-111.728 2.544-29.008-1.184-58.112-3.888-86.544-9.968-15.024-3.216-29.936-7.392-44.112-13.392-10.304-4.368-20.336-9.728-29.072-16.768-2.768-2.24-5.344-4.656-7.824-7.216-14.352-14.704-26.096-31.904-34.512-50.656-7.552-16.816-12.4-34.832-14.384-53.184-2.192-20.336-0.832-41.040 4.016-60.912 4.24-17.376 11.136-34.096 20.432-49.376 17.36-28.592 42.96-52.032 73.008-66.752 15.184-7.44 31.44-12.656 48.096-15.456 7.856-1.312 15.744-2.048 23.696-2.352 2.64-0.064 2.624-0.064 5.28-0.096zM713.312 72.384c6.352 0.032 12.672 0.336 18.992 1.024 14.080 1.504 27.968 4.72 41.28 9.552 13.536 4.912 26.464 11.52 38.4 19.6 22.256 15.104 41.024 35.344 54.336 58.736 7.52 13.2 13.296 27.392 17.152 42.096 4.832 18.4 6.656 37.552 5.424 56.544-2.304-1.104-4.624-2.128-6.96-3.152-6.608-2.8-13.328-5.312-20.192-7.44-14.576-4.544-29.648-7.44-44.848-8.672-10.448-0.832-20.976-1.056-31.392 0.288-14.096 1.84-27.808 6.096-40.88 11.6-18.272 7.696-35.456 17.824-51.792 29.008-24.032 16.448-46.416 35.312-67.68 55.168-25.328 23.632-49.12 48.832-71.808 74.992l-2.912 3.408c-1.2-0.112-2.384-0.224-3.584-0.336-0.416-4.4-0.8-8.816-1.152-13.216-2.656-33.952-3.824-68.032-2.88-102.064 0.784-28.096 2.944-56.256 7.888-83.952 3.12-17.456 7.344-34.848 13.776-51.392 4.448-11.424 9.984-22.592 17.456-32.336 3.072-4.016 6.528-7.648 10.176-11.12 3.264-3.104 6.64-6.064 10.128-8.912 15.712-12.816 33.664-22.864 52.816-29.568 12.032-4.192 24.512-7.088 37.168-8.592 5.6-0.672 11.216-1.040 16.864-1.216 2.112-0.032 2.096-0.032 4.224-0.048zM800 272c8.24 0.048 16.448 0.56 24.624 1.712 16.464 2.304 32.608 6.976 47.76 13.84 19.984 9.040 38.208 21.84 53.52 37.52 14.832 15.2 26.896 33.040 35.424 52.496 5.488 12.56 9.504 25.776 11.92 39.28 6.128 34.256 1.936 70.112-12.096 101.968-5.76 13.088-13.136 25.456-21.888 36.752-5.616 7.248-11.792 14.080-18.464 20.368-3.344 3.168-6.816 6.24-10.432 9.12-0.768-2.368-1.6-4.688-2.464-7.024-2.608-6.96-5.552-13.792-8.88-20.464-7.056-14.144-15.76-27.456-25.856-39.632-7.12-8.576-14.832-16.8-23.648-23.648-11.472-8.896-24.464-15.728-37.888-21.168-17.712-7.184-36.304-12.048-55.056-15.648-28.496-5.456-57.52-8.016-86.496-9.104-33.904-1.248-67.872-0.368-101.728 1.904l-1.776 0.128c-0.656-0.8-1.328-1.6-1.984-2.4 2.816-3.408 5.664-6.8 8.528-10.176 22.832-26.688 46.864-52.368 72.48-76.4 21.232-19.92 43.6-38.864 67.776-55.136 13.728-9.232 28.128-17.664 43.392-24.112 12.128-5.136 24.88-9.008 38.064-10 1.728-0.096 3.44-0.16 5.168-0.176zM113.632 313.552c0.768 2.368 1.6 4.704 2.464 7.024s1.76 4.608 2.704 6.896c2.64 6.32 5.52 12.512 8.752 18.56 6.864 12.864 15.104 24.992 24.528 36.128 7.296 8.624 15.2 16.816 24.272 23.584 11.68 8.72 24.8 15.376 38.336 20.672 17.856 7.008 36.544 11.728 55.376 15.216 27.648 5.12 55.776 7.568 83.856 8.608 33.904 1.264 67.872 0.384 101.728-1.904l1.776-0.128c0.656 0.8 1.328 1.6 1.984 2.4-2.816 3.408-5.664 6.8-8.528 10.176-23.52 27.504-48.32 53.952-74.832 78.608-21.296 19.808-43.728 38.608-68.016 54.656-12.96 8.544-26.496 16.336-40.8 22.384-10.448 4.432-21.424 7.968-32.72 9.456-5.76 0.768-11.52 0.816-17.328 0.592-21.872-0.832-43.552-5.76-63.616-14.544-18.8-8.24-36.112-19.792-50.96-33.952-13.808-13.152-25.472-28.544-34.368-45.408-7.040-13.328-12.336-27.552-15.728-42.224-6.16-26.656-6.016-54.752 0.432-81.328 3.856-15.856 9.936-31.152 18.016-45.328 6.816-11.984 15.056-23.152 24.48-33.232 3.76-4.016 7.728-7.824 11.808-11.504 2.096-1.84 4.192-3.664 6.384-5.408zM636.624 479.808c24.688 0.032 49.392 0.864 73.968 3.36 14.88 1.52 29.712 3.616 44.368 6.608 15.2 3.12 30.288 7.168 44.688 13.008 10.848 4.4 21.44 9.856 30.688 17.12 4.272 3.36 8.096 7.184 11.792 11.168 3.552 3.824 6.944 7.824 10.128 11.952 12.384 16 21.952 34.128 28.16 53.392 5.856 18.144 8.72 37.248 8.496 56.32-0.24 19.792-3.808 39.536-10.56 58.144-4.432 12.176-10.208 23.856-17.2 34.752-14.416 22.448-34 41.584-56.816 55.44-11.616 7.072-24.064 12.768-37.008 16.96-21.84 7.056-44.944 9.712-67.824 8.032 0.912-1.888 1.776-3.776 2.64-5.68 2.912-6.64 5.536-13.392 7.776-20.288 4.736-14.64 7.84-29.824 9.232-45.152 0.992-11.056 1.328-22.272-0.096-33.296-1.808-13.968-5.984-27.552-11.408-40.512-7.2-17.248-16.608-33.536-27.008-49.040-15.568-23.216-33.44-44.864-52.304-65.472-23.792-25.984-49.312-50.352-75.808-73.568l-2.752-2.4-3.584-3.088 0.176-2.112 0.128-1.296c4.416-0.416 8.816-0.8 13.232-1.168 19.6-1.52 39.232-2.496 58.896-2.976 6-0.112 12-0.176 18-0.208zM512 500.592c12.832 10.608 25.36 21.568 37.648 32.8 14.512 13.312 28.672 27.040 42.32 41.232 12.016 12.512 23.648 25.392 34.688 38.768 9.552 11.584 18.672 23.536 27.056 35.984 8.224 12.24 15.792 24.992 21.92 38.416 5.616 12.272 10.176 25.312 11.792 38.784 0.544 4.64 0.64 9.296 0.512 13.968-0.544 21.936-5.216 43.712-13.776 63.92-8 18.912-19.344 36.368-33.328 51.392-12.992 13.952-28.24 25.792-44.992 34.896-13.216 7.184-27.36 12.656-41.984 16.24-29.904 7.296-61.696 6.608-91.232-2.016-14.592-4.272-28.624-10.448-41.616-18.336-11.696-7.072-22.544-15.52-32.288-25.088-4.464-4.384-8.656-9.008-12.656-13.808 2.304-0.768 4.592-1.568 6.88-2.4 6.992-2.624 13.856-5.552 20.544-8.896 14.224-7.072 27.6-15.792 39.824-25.936 8.64-7.152 16.912-14.928 23.808-23.824 8.48-10.944 15.072-23.28 20.368-36.064 7.408-17.808 12.4-36.576 16.096-55.488 5.456-27.92 8.064-56.368 9.232-84.768 1.472-35.728 0.528-71.536-1.952-107.2l-0.112-1.536c0.416-0.352 0.832-0.704 1.248-1.040zM473.568 483.472c1.2 0.112 2.384 0.224 3.584 0.336 0.416 4.4 0.8 8.816 1.152 13.232 2.816 36.064 3.984 72.32 2.672 108.496-1.056 29.056-3.616 58.208-9.456 86.736-3.104 15.2-7.168 30.288-13.008 44.672-4.256 10.528-9.52 20.784-16.448 29.824-3.536 4.624-7.568 8.72-11.824 12.672-15.024 13.904-32.432 25.168-51.312 33.088-16.992 7.136-35.104 11.552-53.456 13.088-19.696 1.648-39.632-0.032-58.768-4.944-15.232-3.904-29.936-9.872-43.584-17.696-23.168-13.296-43.232-31.952-58.224-54.064-7.6-11.2-13.872-23.28-18.688-35.936-6.288-16.544-10.048-34.048-11.136-51.728-0.448-7.040-0.4-14.080-0.048-21.136l0.080-1.424c2.304 1.088 4.624 2.112 6.96 3.136 2.192 0.928 4.4 1.824 6.608 2.704 6.176 2.368 12.416 4.496 18.768 6.288 12.96 3.648 26.256 6.032 39.664 7.12 10.448 0.832 20.976 1.072 31.392-0.288 14.096-1.84 27.808-6.096 40.88-11.6 16.56-6.96 32.224-15.952 47.168-25.888 22.72-15.088 43.936-32.448 64.128-50.752 24.656-22.352 47.808-46.288 69.968-71.104 4.336-4.912 8.656-9.856 12.928-14.832z" />
<glyph unicode="&#xe93f;" glyph-name="viewtreeactive" d="M320 128v51.2c0 7.072 5.728 12.8 12.8 12.8h678.4c7.072 0 12.8-5.728 12.8-12.8v-102.4c0-7.072-5.728-12.8-12.8-12.8h-678.4c0 0-147.2 0-147.2 0s-51.2 0-51.2 0c-3.536 0-6.4 2.864-6.4 6.4v761.6h-115.2c-7.072 0-12.8 5.728-12.8 12.8v102.4c0 7.072 5.728 12.8 12.8 12.8h678.4c7.072 0 12.8-5.728 12.8-12.8v-102.4c0-7.072-5.728-12.8-12.8-12.8h-499.2v-192h128v51.2c0 7.072 5.728 12.8 12.8 12.8h678.4c7.072 0 12.8-5.728 12.8-12.8v-102.4c0-7.072-5.728-12.8-12.8-12.8h-678.4c-2.048 0-3.984 0.48-5.696 1.328-1.072-0.832-2.432-1.328-3.904-1.328h-131.2v-192h128v51.2c0 7.072 5.728 12.8 12.8 12.8h678.4c7.072 0 12.8-5.728 12.8-12.8v-102.4c0-7.072-5.728-12.8-12.8-12.8h-678.4c0 0-140.8 0-140.8 0v-192h128z" />
<glyph unicode="&#xe940;" glyph-name="grades" d="M832 32c0 17.664-14.336 32-32 32h-64c-17.664 0-32-14.336-32-32v-64c0-17.664 14.336-32 32-32h64c17.664 0 32 14.336 32 32v64zM448 32c0 17.664-14.336 32-32 32h-384c-17.664 0-32-14.336-32-32v-64c0-17.664 14.336-32 32-32h384c17.664 0 32 14.336 32 32v64zM1024 32c0 17.664-14.336 32-32 32h-64c-17.664 0-32-14.336-32-32v-64c0-17.664 14.336-32 32-32h64c17.664 0 32 14.336 32 32v64zM640 32c0 17.664-14.336 32-32 32h-64c-17.664 0-32-14.336-32-32v-64c0-17.664 14.336-32 32-32h64c17.664 0 32 14.336 32 32v64zM832 224c0 17.664-14.336 32-32 32h-64c-17.664 0-32-14.336-32-32v-64c0-17.664 14.336-32 32-32h64c17.664 0 32 14.336 32 32v64zM640 224c0 17.664-14.336 32-32 32h-64c-17.664 0-32-14.336-32-32v-64c0-17.664 14.336-32 32-32h64c17.664 0 32 14.336 32 32v64zM448 224c0 17.664-14.336 32-32 32h-384c-17.664 0-32-14.336-32-32v-64c0-17.664 14.336-32 32-32h384c17.664 0 32 14.336 32 32v64zM1024 224c0 17.664-14.336 32-32 32h-64c-17.664 0-32-14.336-32-32v-64c0-17.664 14.336-32 32-32h64c17.664 0 32 14.336 32 32v64zM1024 416c0 17.664-14.336 32-32 32h-64c-17.664 0-32-14.336-32-32v-64c0-17.664 14.336-32 32-32h64c17.664 0 32 14.336 32 32v64zM448 416c0 17.664-14.336 32-32 32h-384c-17.664 0-32-14.336-32-32v-64c0-17.664 14.336-32 32-32h384c17.664 0 32 14.336 32 32v64zM640 416c0 17.664-14.336 32-32 32h-64c-17.664 0-32-14.336-32-32v-64c0-17.664 14.336-32 32-32h64c17.664 0 32 14.336 32 32v64zM832 416c0 17.664-14.336 32-32 32h-64c-17.664 0-32-14.336-32-32v-64c0-17.664 14.336-32 32-32h64c17.664 0 32 14.336 32 32v64zM329.536 738.784c23.472 1.52 46.784 4.464 69.952 8.272l0.56 0.096c-1.888 4.768-3.744 9.552-5.584 14.352-1.68 4.4-3.344 8.832-4.992 13.248-7.504 20.368-14.576 40.864-21.152 61.52-2.384-5.456-4.736-10.944-7.072-16.432-5.376-12.768-10.624-25.584-15.68-38.464-4.4-11.168-8.64-22.384-12.784-33.648-1.072-2.976-2.16-5.968-3.248-8.944zM227.6 512c-1.696 0.032-3.36 0.096-5.040 0.32-2.96 0.368-5.888 1.104-8.64 2.224-3.2 1.28-6.16 3.072-8.752 5.264-2.112 1.76-3.968 3.792-5.616 5.968-2.672 3.552-4.672 7.536-5.936 11.744-1.136 3.856-1.648 7.856-1.616 11.84 0.032 2.896 0.384 5.728 0.8 8.576 0.272 1.936 0.576 3.904 0.864 5.824 0.912 5.904 1.904 11.792 2.976 17.68 1.088 6 2.272 12 3.52 17.984 1.504 7.168 3.104 14.304 4.816 21.424 4.064 16.896 8.72 33.68 13.712 50.352 7.008 23.424 14.736 46.64 23.104 69.648 10.688 29.36 22.416 58.368 35.232 86.928 8.432 18.8 17.328 37.424 26.784 55.76 7.424 14.4 15.216 28.624 23.424 42.624 1.968 3.344 3.952 6.672 5.968 9.984 1.28 2.112 2.528 4.176 4.096 6.096 2.24 2.752 4.912 5.2 8.016 7.072 3.408 2.032 7.184 3.216 11.136 3.728 1.936 0.256 3.904 0.352 5.856 0.24 0.832 0.48 1.696 0.912 2.544 1.344 4.32 2.112 8.816 3.824 13.6 4.688 3.248 0.592 6.624 0.848 9.936 0.592 1.936-0.144 3.84-0.464 5.712-0.928 1.2-0.288 2.352-0.64 3.488-1.088 7.392-2.992 12.272-9.6 16.4-15.888 1.872-2.832 3.632-5.712 5.296-8.672 3.408-6.096 6.416-12.4 9.36-18.72l0.432-1.024 0.352-1.040c1.376-4.784 2.768-9.568 4.192-14.336 3.936-13.056 8.048-26.048 12.384-38.976 5.072-15.152 10.464-30.192 15.936-45.216 5.968-16.384 12.080-32.72 18.272-49.040 1.088 0.064 2.16 0.112 3.248 0.128 4.352 0.064 8.688-0.128 13.024-0.576 2.576-0.256 5.168-0.56 7.696-1.088 3.888-0.848 7.632-2.256 10.992-4.304 4.384-2.656 7.984-6.352 10.544-10.656 1.312-2.208 2.32-4.56 3.12-6.976 1.152-3.44 1.856-7.024 1.936-10.624 0.128-4.816-0.88-9.616-2.96-14-3.92-8.24-11.344-14.416-18.96-19.456l-0.624-0.416c3.408-7.984 6.864-15.952 10.352-23.904 3.744-8.544 7.52-17.072 11.44-25.552 4.672-10.144 9.52-20.192 14.528-30.176l0.496-1.12c0.4-1.152 0.4-1.152 0.704-2.336 0.944-4.656 1.92-9.312 2.784-13.984 0.768-4.416 1.344-8.88 1.648-13.36 0.272-3.888 0.32-7.76 0.016-11.648-0.4-4.848-1.216-9.776-3.056-14.32-1.12-2.784-2.736-5.424-4.768-7.696-1.616-1.808-3.488-3.376-5.584-4.656-4.768-2.896-10.672-4.064-16.256-3.536-3.104 0.304-6.144 1.12-8.976 2.336-1.696 0.736-3.312 1.616-4.896 2.528-3.2 1.856-6.224 3.984-9.072 6.304-8.688 7.088-15.888 15.888-21.392 25.456-2.544 4.624-4.96 9.312-7.408 13.984-13.104 25.152-25.392 50.656-36.864 76.544l-0.976 2.176c-4.64-0.8-9.312-1.536-13.984-2.272-4.512-0.688-9.040-1.376-13.568-2.032-17.568-2.464-35.184-4.656-52.864-6.384-15.712-1.536-31.472-2.704-47.248-3.536-5.312-17.664-10.672-35.344-15.904-53.040-4.688-16.064-9.088-32.176-13.2-48.384-0.608-1.904-0.608-1.904-1.232-3.808-0.992-2.864-2.048-5.728-3.248-8.528-1.152-2.736-2.432-5.424-3.808-8.064-4.576-8.704-10.48-17.568-19.776-22.16-2.016-0.992-4.112-1.728-6.304-2.24-2.8-0.672-5.584-1.152-8.464-1.44-1.248-0.080-2.496-0.144-3.744-0.16zM759.968 639.648c-10.56 0.064-21.424 1.648-30.352 7.392-1.408 0.896-2.752 1.904-4.016 2.992-3.712 3.216-6.832 7.152-9.44 11.232-2.816 4.416-4.976 9.136-6.752 14.016l-0.32 0.976c-0.72 2.784-1.312 5.616-1.92 8.432-0.912 4.272-1.76 8.544-2.544 12.832-2.784 15.072-4.784 30.256-6.384 45.488v0.096c-15.648-2.016-31.28-4.112-46.896-6.368-3.584-0.512-7.168-1.040-10.736-1.6-2.384-0.368-4.752-0.8-7.152-1.12-1.2-0.144-1.2-0.144-2.384-0.256-4.416-0.304-8.816-0.176-13.168 0.528-3.168 0.528-6.272 1.312-9.28 2.336-3.024 1.040-5.952 2.32-8.768 3.792-8.752 4.608-16.384 11.296-20.56 20.080-1.040 2.224-1.872 4.544-2.448 6.912-0.336 1.408-0.624 2.832-0.768 4.272-0.16 1.776-0.064 3.616 0.144 5.392 0.416 3.408 1.392 6.736 2.896 9.84 2.896 5.984 7.68 10.928 13.312 14.688 2.208 1.488 4.528 2.752 6.912 3.952 2.656 1.36 5.344 2.672 8.064 3.92 3.568 1.632 7.2 3.184 10.896 4.576 2.016 0.768 4.032 1.536 6.128 2.096 1.984 0.48 3.968 0.96 5.968 1.408 20.32 4.416 41.056 6.992 61.712 9.52l2.832 0.336c0 4.56 0.016 9.104 0.064 13.664 0.064 3.056 0.112 6.128 0.192 9.2 0.512 17.296 1.52 34.592 3.6 51.776 0.672 5.6 1.456 11.184 2.56 16.72 0.448 2.256 0.944 4.512 1.552 6.736 0.288 1.040 0.608 2.064 0.912 3.088 0.032 0.080-0.048-0.16-0.080-0.24 0.176 0.912 0.4 1.792 0.608 2.704 0.688 2.592 1.488 5.152 2.56 7.632 2.256 5.2 5.584 10.016 10.112 13.68 3.2 2.608 6.944 4.576 10.96 5.792 2.656 0.8 5.408 1.216 8.16 1.504 6.912 0.736 14.080 0.368 20.544-2.24 2.048-0.816 3.92-1.872 5.744-3.056 1.072-0.784 2.144-1.584 3.184-2.416 3.856-3.136 7.392-6.576 10.528-10.368 4.016-4.832 7.488-10.336 8.432-16.544 0.256-1.584 0.288-3.152 0.24-4.736-0.144-1.6-0.352-3.2-0.528-4.784-0.304-2.976-0.352-3.504-0.64-6.48-0.944-10.592-1.664-21.2-2.016-31.824-0.448-13.744-0.384-27.488-0.24-41.232l0.016-1.456c6.496 0.304 13.008 0.544 19.504 0.784 5.184 0.176 10.368 0.352 15.552 0.48 14.4 0.304 28.768 0.144 43.136-0.816l1.76-0.128c2.896-0.288 5.744-0.672 8.576-1.328 5.824-1.344 11.408-3.712 16.064-7.36 1.904-1.504 3.648-3.216 5.152-5.088 3.2-3.984 5.312-8.704 6.288-13.632 0.672-3.376 0.8-6.848 0.544-10.288-0.144-1.92-0.384-3.84-0.832-5.744-0.832-3.6-2.32-7.056-4.368-10.208-3.488-5.376-8.496-9.712-14.080-13.072-5.824-3.488-12.224-6.048-18.896-7.6-3.376-0.784-6.784-1.28-10.224-1.584-13.088-1.008-26.16-2.176-39.232-3.28-8.656-0.768-17.312-1.6-25.952-2.528 0.432-5.728 0.928-11.424 1.424-17.136 0.352-3.728 0.704-7.44 1.056-11.168l4.48-45.424c0.192-3.504 0.224-7.008-0.208-10.496-0.816-6.592-3.216-12.96-7.616-18.16-1.44-1.696-3.056-3.28-4.832-4.672-2.128-1.664-4.512-3.056-7.040-4.112-2.88-1.2-5.904-1.888-9.040-2.208-0.88-0.064-1.76-0.096-2.656-0.112z" />
<glyph unicode="&#xe941;" glyph-name="backpack" d="M137.264-64v-2.288h-39.104c-54.176 0-98.16 43.984-98.16 98.16v189.968c0 44.16 29.216 81.536 69.344 93.856l30.24 255.488c10.208-9.344 20.688-18.4 31.376-27.2 20.832-17.152 42.48-33.344 64.832-48.496 13.776-9.328 27.824-18.272 42.144-26.752 11.984-7.12 24.16-13.904 36.528-20.336 61.12-31.792 127.536-55.392 196.384-62.32h0.016v-89.008c0-22.672 18.4-41.072 41.072-41.072h0.128c22.672 0 41.072 18.4 41.072 41.072v89.248c3.472 0.368 6.944 0.784 10.4 1.264 51.424 6.944 101.28 23.312 148.384 44.784 33.232 15.168 65.248 32.96 96.048 52.608 30.72 19.6 60.272 41.056 88.48 64.128 9.424 7.696 18.704 15.6 27.776 23.712l30.432-257.12c40.128-12.32 69.344-49.696 69.344-93.856v-189.968c0-54.176-43.984-98.16-98.16-98.16h-39.104v2.288h-749.472zM470.864 450.448l-0.848 0.112h-0.032l-0.272 0.032-0.288 0.032-0.288 0.048-0.528 0.064h-0.080c-0.384 0.048-0.752 0.096-1.12 0.144-39.536 5.072-78.096 16.432-114.896 31.648l-0.048 0.016-0.56 0.224-0.752 0.32-0.48 0.192-0.352 0.144-0.624 0.272-0.4 0.16-0.304 0.144-0.8 0.32-0.464 0.208-0.288 0.112-0.16 0.080c-0.512 0.208-1.008 0.416-1.488 0.624l-0.416 0.192c-0.512 0.208-1.008 0.432-1.52 0.64l-0.128 0.064-0.832 0.352-0.208 0.096-0.672 0.288-0.176 0.080-0.304 0.128c-27.408 12-53.888 26.080-79.424 41.696l-0.080 0.048-0.176 0.096-0.752 0.464-0.72 0.448-0.208 0.128-0.112 0.080c-0.512 0.304-1.024 0.608-1.52 0.928l-0.16 0.096-0.064 0.048-0.16 0.096-0.88 0.544-0.688 0.416-0.112 0.080-0.080 0.048c-25.216 15.728-49.52 32.912-72.816 51.344l-0.144 0.112-0.112 0.096-0.336 0.272-0.784 0.624-0.208 0.176-0.080 0.048c-0.416 0.336-0.848 0.672-1.264 1.008l-0.064 0.064-0.048 0.016-0.16 0.144-0.88 0.704-0.272 0.224-0.112 0.080-0.176 0.144-0.592 0.48-0.592 0.464-0.064 0.064-0.048 0.032c-10.512 8.48-20.816 17.232-30.848 26.256l-0.080 0.064-0.304 0.288-0.72 0.64-0.128 0.112-0.368 0.336-0.464 0.416-0.192 0.176-0.112 0.096-0.16 0.16c-9.168 8.336-18.144 16.896-26.736 25.84l-0.048 0.064-0.096 0.096-0.336 0.352-0.352 0.352-0.272 0.288-0.24 0.256-0.144 0.16-0.24 0.24c-2.256 2.384-4.496 4.784-6.672 7.232v0.016c-8.544 9.584-13.136 16.16-13.136 18.384v29.312c0 14.016 8.016 45.584 27.568 74.368v0.032c7.168 10.528 15.552 20.224 25.184 28.512v0.016l0.432 0.368 0.192 0.16 0.048 0.048 0.384 0.32 0.208 0.176 0.096 0.096 0.128 0.096 0.192 0.16 0.208 0.176 0.176 0.144 0.128 0.096 0.128 0.112 0.192 0.16 0.24 0.192 0.128 0.112 0.080 0.048 0.16 0.144 0.336 0.272 0.128 0.096 0.080 0.080c19.488 15.584 44.688 26.384 76.688 26.384h118.016c-0.096 24.848 0.016 49.712 0.32 74.56 0.24 5.968 1.264 11.824 3.312 17.44 5.36 14.592 16.976 26.48 31.424 32.192 5.984 2.368 12.272 3.552 18.688 3.792 72.56 0.912 145.136 0.912 217.696 0 6.416-0.24 12.704-1.424 18.688-3.792 14.464-5.712 26.080-17.6 31.424-32.192 2.048-5.616 3.088-11.472 3.312-17.44 0.32-24.848 0.416-49.712 0.32-74.56h122.592c30.288 0 54.256-8.88 72.992-22.16l0.752-0.544 0.736-0.528 0.416-0.304 0.576-0.432 0.56-0.416 0.64-0.496 0.72-0.56 0.352-0.256c41.536-32.608 55.36-86.96 55.36-106.672v-29.312c0-2.096-4.64-8.416-13.216-17.68v-0.016c-2.864-3.088-5.808-6.112-8.784-9.088l-0.176-0.192-0.816-0.816-0.288-0.272-0.304-0.32-0.176-0.176-0.064-0.048-0.112-0.112c-9.088-9.024-18.544-17.696-28.208-26.128l-0.032-0.032-0.144-0.128-0.848-0.736-0.208-0.176-0.304-0.272-0.384-0.336-0.288-0.24-0.224-0.192-0.24-0.224-0.4-0.336-0.384-0.336-0.176-0.144-0.16-0.144-0.432-0.368-0.56-0.48-0.080-0.064-0.048-0.048c-10.576-9.088-21.408-17.904-32.432-26.448l-0.144-0.112-0.224-0.176-0.528-0.416-0.448-0.336-0.288-0.224-0.224-0.176-0.352-0.272-0.656-0.512-0.256-0.192-0.112-0.080c-26.768-20.576-54.704-39.664-83.744-56.88l-0.096-0.064-0.064-0.032c-0.592-0.352-1.184-0.704-1.776-1.056-0.608-0.368-1.216-0.72-1.824-1.072l-0.288-0.16c-26.624-15.584-54.192-29.616-82.736-41.344l-0.112-0.048-0.032-0.016-0.384-0.144-0.48-0.208-0.16-0.064-0.224-0.096-0.528-0.208-0.24-0.096c-0.4-0.16-0.8-0.32-1.2-0.48l-0.208-0.096-0.448-0.176-0.336-0.128-0.368-0.16c-34.304-13.744-70.176-24.24-106.896-28.992v84.176c0 22.672-18.4 41.072-41.072 41.072h-0.128c-22.672 0-41.072-18.4-41.072-41.072v-84.48zM411.424 832h196.576v64h-196.576v-64z" />
<glyph unicode="&#xe942;" glyph-name="mnethost" d="M340 250.272c27.472-33.232 44-75.84 44-122.272 0-105.968-86.032-192-192-192s-192 86.032-192 192c0 105.968 86.032 192 192 192 13.104 0 25.904-1.312 38.272-3.824l79.088 131.824-79.088 131.824c-12.368-2.512-25.168-3.824-38.272-3.824-105.968 0-192 86.032-192 192s86.032 192 192 192c105.968 0 192-86.032 192-192 0-46.432-16.528-89.040-44-122.272l80.24-133.728h166.704c26.384 74.544 97.52 128 181.056 128 105.968 0 192-86.032 192-192s-86.032-192-192-192c-83.536 0-154.672 53.456-181.056 128h-166.704l-80.24-133.728z" />
<glyph unicode="&#xe943;" glyph-name="moodle" d="M615.984 575.632c31.888 32.24 84.64 48.368 158.272 48.368 73.888 0 132.512-16.432 175.856-49.28 49.264-36.832 73.888-91.088 73.888-162.768v-347.952h-165.52v328.528c0 68.704-28.064 103.040-84.224 103.040s-84.24-34.336-84.24-103.040v-328.528h-164.032v328.528c0 25.136-3.76 45.664-11.264 61.6 5.936 4.352 11.744 8.896 17.408 13.632 17.632 14.752 33.776 31.248 48.608 48.816 7.568 8.976 14.768 18.256 21.744 27.712 2.064 2.848 4.128 5.712 6.16 8.592 1.216 1.84 1.568 2.272 2.608 4.208 1.168 2.176 2.128 4.464 2.88 6.816 1.2 3.808 1.824 7.76 1.856 11.728zM32 576c0 0 0.176-173.2 0-192 26.048 3.744 25.44-175.648 16-176-29.712-1.136-2.064 41.568-16 48-22.016 10.16-15.264 60.768-16 128-1.984 182.688-15.568 191.76-15.984 192h-0.016l320 144 368 64-272-208h-384zM356.048 394.272c-0.016-0.576-0.016-1.152-0.016-1.744v-328.528h-164.032v342.992c22.672-5.008 45.552-9.072 68.64-11.632 18.144-2.016 36.368-3.056 54.624-3.12 4.032 0.016 4.032 0.016 8.064 0.080 10.464 0.24 20.912 0.784 31.344 1.808l1.376 0.144zM208 544h208l112 80c0 0 31.408-20.928 48-48-82-116.576-189.424-173.744-384-128 0.768 49.968 16 96 16 96z" />
<glyph unicode="&#xe944;" glyph-name="mahara" d="M466 465.376c-34.752-24.592-44.864-164.992 48.256-147.408 9.84 31.6 0.8 70.448-10.832 94.8-12.224 17.92-24.928 35.28-37.424 52.608zM566.72 586.272c5.408 13.456 9.024 30.864 9.28 53.728 0.576 51.6-32.736 52.576-51.52 44.016 0.032-3.824 0.064-7.536 0.064-11.104 0.032-29.232 17.088-56.72 42.176-86.64zM613.344 534.592c69.568-75.456 154.656-174.256 154.656-342.592 0-269.104-249.856-244.096-283.728-242.48 0.288 0.256 0.592 0.528 0.896 0.8-63.488 1.184-227.632 30.992-227.632 242.688 0 195.648 135.904 319.264 161.936 341.152-29.456 48.96-51.040 102.288-51.472 169.84-0.976 150.128 144 256 144 256 0.256-0.144 160-94.176 160-256 0-94.704-26.912-144.736-58.656-169.408z" />
<glyph unicode="&#xe945;" glyph-name="completion-auto" d="M1024 448c0 282.672-229.328 512-512 512s-512-229.328-512-512c0-282.672 229.328-512 512-512s512 229.328 512 512zM512 810.672c200 0 362.672-162.672 362.672-362.672s-162.672-362.672-362.672-362.672c-200 0-362.672 162.672-362.672 362.672s162.672 362.672 362.672 362.672zM704 448l-320-192v384l320-192z" />
<glyph unicode="&#xe946;" glyph-name="competency-achieved" d="M704 526c0 5.392-2.48 10.784-6.944 14.656l-33.68 29.312c-4.464 3.872-10.656 6.032-16.848 6.032s-12.384-2.16-16.848-6.032l-162.528-141.584-72.832 63.568c-4.464 3.888-10.656 6.048-16.848 6.048s-12.384-2.16-16.848-6.048l-33.68-29.296c-4.464-3.888-6.944-9.264-6.944-14.656s2.48-10.768 6.944-14.656l123.376-107.312c4.448-3.872 10.64-6.032 16.832-6.032 6.208 0 12.4 2.16 16.848 6.032l213.056 185.328c4.464 3.872 6.944 9.264 6.944 14.64zM544.192 56.32c19.008-11.184 31.808-31.984 31.808-55.776 0-35.632-28.672-64.544-64-64.544s-64 28.912-64 64.544c0 23.792 12.8 44.592 31.808 55.776l-95.808 167.68h-194.416c0.88-4.256 1.344-8.656 1.344-13.184 0-35.312-28.432-64-63.456-64-35.040 0-63.472 28.688-63.472 64 0 35.328 28.432 64 63.472 64 9.376 0 18.272-2.048 26.288-5.728l102.24 178.912-101.616 177.824c-8.048-3.68-16.976-5.728-26.384-5.728-35.328 0-64 28.928-64 64.544s28.672 64.544 64 64.544c35.328 0 64-28.928 64-64.544 0-4.32-0.416-8.56-1.232-12.64h193.232l95.808 167.68c-19.008 11.184-31.808 31.984-31.808 55.776 0 35.632 28.672 64.544 64 64.544s64-28.912 64-64.544c0-23.792-12.8-44.592-31.808-55.776l95.808-167.68h193.232c-0.816 4.080-1.232 8.32-1.232 12.64 0 35.616 28.672 64.544 64 64.544s64-28.928 64-64.544c0-35.616-28.672-64.544-64-64.544-9.408 0-18.336 2.048-26.384 5.728l-101.616-177.824 101.616-177.824c8.048 3.68 16.976 5.728 26.384 5.728 35.328 0 64-28.928 64-64.544s-28.672-64.544-64-64.544c-35.328 0-64 28.928-64 64.544 0 4.32 0.416 8.56 1.232 12.64h-193.232l-95.808-167.68z" />
<glyph unicode="&#xe947;" glyph-name="competency" d="M544.192 56.32c19.008-11.184 31.808-31.984 31.808-55.776 0-35.632-28.672-64.544-64-64.544s-64 28.912-64 64.544c0 23.792 12.8 44.592 31.808 55.776l-95.808 167.68h-194.416c0.88-4.256 1.344-8.656 1.344-13.184 0-35.312-28.432-64-63.456-64-35.040 0-63.472 28.688-63.472 64 0 35.328 28.432 64 63.472 64 9.376 0 18.272-2.048 26.288-5.728l102.24 178.912-101.616 177.824c-8.048-3.68-16.976-5.728-26.384-5.728-35.328 0-64 28.928-64 64.544s28.672 64.544 64 64.544c35.328 0 64-28.928 64-64.544 0-4.32-0.416-8.56-1.232-12.64h193.232l95.808 167.68c-19.008 11.184-31.808 31.984-31.808 55.776 0 35.632 28.672 64.544 64 64.544s64-28.912 64-64.544c0-23.792-12.8-44.592-31.808-55.776l95.808-167.68h193.232c-0.816 4.080-1.232 8.32-1.232 12.64 0 35.616 28.672 64.544 64 64.544s64-28.928 64-64.544c0-35.616-28.672-64.544-64-64.544-9.408 0-18.336 2.048-26.384 5.728l-101.616-177.824 101.616-177.824c8.048 3.68 16.976 5.728 26.384 5.728 35.328 0 64-28.928 64-64.544s-28.672-64.544-64-64.544c-35.328 0-64 28.928-64 64.544 0 4.32 0.416 8.56 1.232 12.64h-193.232l-95.808-167.68z" />
<glyph unicode="&#xe948;" glyph-name="mean" d="M464.896 693.136c26.992-28.24 47.376-56.496 61.152-84.752 9.92-19.568 26.176-70.912 48.768-154.032l72.72 107.568c19.28 26.080 42.704 50.944 70.256 74.576 27.536 23.632 51.776 39.808 72.72 48.496 13.216 5.44 27.824 8.144 43.808 8.144 23.68 0 42.56-6.24 56.608-18.736s21.072-27.712 21.072-45.648c0-20.64-4.128-34.768-12.4-42.368-15.424-13.584-33.056-20.384-52.896-20.384-11.568 0-23.968 2.448-37.184 7.344-25.888 8.688-43.248 13.040-52.064 13.040-13.232 0-28.928-7.616-47.104-22.832-34.16-28.256-74.944-82.848-122.32-163.808l67.776-280.368c10.464-42.928 19.28-68.592 26.432-77.024 7.168-8.416 14.336-12.624 21.488-12.624 11.584 0 25.072 6.24 40.496 18.736 30.304 25.008 56.208 57.6 77.696 97.808l28.928-14.672c-34.72-64.112-78.8-117.36-132.24-159.744-30.304-23.904-55.92-35.856-76.848-35.856-30.864 0-55.376 17.12-73.568 51.344-11.568 21.184-35.536 112.48-71.888 273.84-85.952-147.248-154.832-242.048-206.624-284.432-33.6-27.168-66.112-40.752-97.52-40.752-22.032 0-42.144 7.872-60.32 23.632-13.232 11.952-19.84 27.984-19.84 48.096 0 17.92 6.064 32.864 18.176 44.816 12.128 11.952 27.008 17.936 44.64 17.936s36.352-8.704 56.192-26.080c14.32-12.496 25.344-18.752 33.056-18.752 6.608 0 15.152 4.352 25.616 13.040 25.904 20.656 61.168 65.2 105.792 133.664s73.824 117.904 87.6 148.336c-34.16 132.032-52.608 201.84-55.376 209.456-12.672 35.312-29.2 60.304-49.584 74.976s-50.416 22-90.080 22c-12.672 0-27.264-0.544-43.808-1.616v29.328l220.672 38.304zM928 936c0 13.248-10.752 24-24 24h-672c-13.248 0-24-10.752-24-24v-48c0-13.248 10.752-24 24-24h672c13.248 0 24 10.752 24 24v48z" />
<glyph unicode="&#xe949;" glyph-name="f2f" d="M410.672 11.536c0 65.92-15.456 167.136-100.928 167.136-9.040 0-47.248-40.544-104.416-40.544s-95.376 40.544-104.416 40.544c-85.456 0-100.912-101.216-100.912-167.136 0-47.248 31.504-75.536 77.872-75.536h254.912c46.384 0 77.888 28.288 77.888 75.536zM1024 11.536c0 65.92-15.456 167.136-100.912 167.136-9.040 0-47.248-40.544-104.416-40.544s-95.376 40.544-104.416 40.544c-85.472 0-100.928-101.216-100.928-167.136 0-47.248 31.504-75.536 77.888-75.536h254.912c46.368 0 77.872 28.288 77.872 75.536zM581.392 8h-138.784l0.032 0.672 0.032 2.768c-0.048 10.672-0.368 21.344-1.168 32-0.656 8.928-1.616 17.856-2.928 26.72-0.88 5.904-1.92 11.776-3.136 17.616-0.96 4.608-2.032 9.2-3.232 13.76-0.208 0.816-0.432 1.648-0.656 2.464h160.896c-1.12-4.064-2.128-8.176-3.040-12.288-1.312-5.856-2.432-11.744-3.376-17.648-1.232-7.664-2.192-15.376-2.912-23.12-1.024-10.848-1.536-21.744-1.744-32.64-0.032-3.216-0.048-6.432-0.016-9.632l0.032-0.672zM317.328 272c0 61.84-50.16 112-112 112-61.824 0-112-50.16-112-112s50.176-112 112-112c61.84 0 112 50.16 112 112zM930.672 272c0 61.84-50.176 112-112 112-61.84 0-112-50.16-112-112s50.16-112 112-112c61.824 0 112 50.16 112 112zM411.216 447.968l-67.2-137.168c-1.632 5.872-3.632 11.632-6.016 17.248-6.992 16.528-17.104 31.696-29.632 44.544-8.8 9.008-18.768 16.848-29.584 23.264l36.080 73.664c1.904-1.424 3.84-2.768 5.84-4.064 7.424-4.752 15.472-8.528 23.824-11.296 8.512-2.816 17.344-4.608 26.256-5.488 4.528-0.448 9.056-0.624 13.6-0.672 8.944 0 17.888-0.016 26.832-0.032zM679.984 310.8l-67.104 137.008c9.776 0.048 19.568 0.128 29.36 0.224 4.576 0.128 9.136 0.384 13.68 0.928 8.864 1.072 17.632 3.056 26.048 6.064 8.304 2.976 16.24 6.944 23.52 11.888 1.232 0.848 2.448 1.712 3.648 2.608l36.080-73.664c-22.752-13.52-41.6-33.312-53.968-56.736-4.752-9.008-8.528-18.528-11.264-28.32zM717.328 555.536c0 65.92-15.456 167.136-100.912 167.136-9.040 0-47.248-40.544-104.416-40.544s-95.376 40.544-104.416 40.544c-85.456 0-100.912-101.216-100.912-167.136 0-47.248 31.488-75.536 77.872-75.536h254.912c46.384 0 77.872 28.288 77.872 75.536zM624 816c0 61.84-50.16 112-112 112s-112-50.16-112-112c0-61.84 50.16-112 112-112s112 50.16 112 112z" />
<glyph unicode="&#xe94a;" glyph-name="highlight" d="M589.296 86.976l-247.376 245.888-325.536-325.456c-29.824-29.808-18.032-72.576 25.84-71.408h341.632c35.6-0.24 54.736 0.432 86.288 31.856l119.152 119.12zM1022.528 420.944l-344.736 344.816-302.432-302.368c-16.064-16.064-16.064-42.144 0-58.208l286.544-286.608c16.048-16.064 42.128-16.064 58.192-0.016l302.432 302.384z" />
<glyph unicode="&#xe94b;" glyph-name="slash" d="M128 16c-3.344 0.128-4.192 0.064-7.504 0.592-4.976 0.784-9.808 2.352-14.288 4.64s-8.592 5.264-12.144 8.832c-3.568 3.552-6.544 7.664-8.832 12.144-5.152 10.128-6.56 21.952-3.904 32.992 1.472 6.112 4.144 11.92 7.84 17.008 1.968 2.72 2.624 3.28 4.896 5.728l768 768c2.448 2.272 3.008 2.928 5.728 4.896 4.064 2.96 8.592 5.264 13.376 6.816s9.808 2.352 14.832 2.352c5.024 0 10.048-0.8 14.832-2.352s9.312-3.856 13.376-6.816c8.16-5.92 14.32-14.416 17.44-24 1.552-4.784 2.352-9.808 2.352-14.832 0-8.816-2.464-17.568-7.072-25.072-1.312-2.144-2.8-4.192-4.432-6.096-0.816-0.96-1.696-1.856-2.56-2.768l-768-768c-0.912-0.864-1.808-1.744-2.768-2.56-1.904-1.632-3.952-3.12-6.096-4.432-4.272-2.624-8.976-4.576-13.872-5.744-3.264-0.784-4.112-0.784-7.44-1.184-1.248-0.048-2.512-0.096-3.76-0.144z" />
<glyph unicode="&#xf075;" glyph-name="lock-open-alt" horiz-adv-x="706" d="M0 44.111v402.432q0 14.336 10.24 24.576t25.6 10.24h459.776v152.576q0 64.512-43.008 110.592-41.984 43.008-99.328 43.008t-99.328-43.008q-41.984-45.056-41.984-110.592v-38.912h-129.024v38.912q0 56.32 20.48 106.496t57.344 90.112q36.864 38.912 87.040 61.44t106.496 21.504 106.496-21.504 87.040-61.44q36.864-38.912 57.344-90.112t20.48-106.496v-152.576h46.080q15.36 0 25.6-10.24t10.24-24.576v-402.432q0-13.312-8.192-19.456t-27.648-14.336q-10.24-4.096-35.84-12.288t-67.584-18.432-100.352-18.432-114.688-7.168q-158.72 0-317.44 57.344-17.408 5.12-26.624 13.312t-9.216 20.48zM191.488 219.215q0-12.288 8.192-20.48l87.040-84.992q8.192-8.192 20.48-8.192 13.312 0 20.48 8.192l179.2 175.104q9.216 9.216 9.216 21.504t-9.216 21.504q-8.192 8.192-20.48 8.192t-20.48-8.192l-158.72-154.624-65.536 63.488q-9.216 9.216-21.504 9.216t-21.504-9.216q-8.192-8.192-8.192-20.48z" />
<glyph unicode="&#xf100;" glyph-name="addbook" horiz-adv-x="680" d="M660 638v0h-48v-60h48c12 0 20-8 20-20v-60c0-12-8-20-20-20h-48v-58h48c12 0 20-10 20-22v-60c0-12-8-20-20-20h-48v-58h48c12 0 20-10 20-22v-60c0-12-8-20-20-20h-48v-18c0-18-14-32-32-32h-548c-18 0-32 14-32 32v616c0 18 14 32 32 32h548c18 0 32-14 32-32v-18h48c12 0 20-8 20-20v-60c0-12-8-20-20-20zM468 308v0 88c0 8-6 16-12 20l-110 52c26 16 42 48 42 84 0 52-36 96-82 96s-82-44-82-96c0-38 18-68 44-84l-112-52c-6-4-10-12-10-20v-88c0-12 8-22 18-22h284c10 0 20 10 20 22z" />
<glyph unicode="&#xf11a;" glyph-name="blind" horiz-adv-x="684" d="M182 758c0 48 24 72 72 72s74-24 74-72-26-74-74-74-72 26-72 74zM682 94c2-2 2-4 2-6 0-8-4-12-12-12-4 0-8 2-10 6v0 0 2l-214 368h-6c-6 0-12 2-16 4v0 0 2h-2l-70 40-46 46v-152l90-88 98-170c6-8 8-16 8-26 0-12-4-22-12-30s-18-12-30-12c-16 0-30 8-38 22v0l-94 162-74 74-82-144-98-98c-8-10-20-16-34-16-12 0-22 4-30 12s-12 18-12 30 4 24 14 32v0l90 90 72 124v192l-38-36v-104c0-8-2-16-8-22s-14-8-22-8c-6 0-12 2-16 4s-10 8-12 12-4 8-4 14v0 124c0 2 2 4 4 6v0l108 110c14 16 34 22 54 22 24 0 42-8 56-26l94-94 62-36c12-6 18-14 18-28 0-6 0-12-4-18l214-372z" />
<glyph unicode="&#xf121;" glyph-name="new" horiz-adv-x="790" d="M790 448c0-10-6-18-12-22v0l-96-56 54-92c4-8 2-18-2-26s-12-12-20-12v0h-108v-110h-2c0-8-4-16-12-20s-18-6-26-2v0l-94 54-54-94c-4-6-12-12-22-12s-18 6-22 12v0l-54 92-98-56c-8-4-16-2-24 2s-14 12-14 20v0 110h-110c-8 0-16 6-20 14s-6 16-2 24v0l54 96-94 56c-6 4-12 12-12 22s6 18 12 22v0l96 56-54 92c-4 8-2 18 2 26s12 12 20 12v0h108v110c0 8 6 16 14 20s16 6 24 2v0l96-54 54 94c4 6 12 12 22 12s18-6 22-12v0l54-92 98 56c8 4 16 2 24-2s14-12 14-20v0-110h110c8 0 16-6 20-14s6-16 2-24v-2l-54-94 94-56c6-4 12-12 12-22zM330 332l24 14-68 118-24-14 42-74-98 42-26-16 68-118 26 16-44 76zM378 360l84 48-14 22-58-34-16 26 58 34-12 22-58-34-14 26 58 34-12 22-84-48zM572 472l26 14-34 138-28-16 28-98-72 72-18-10 26-98-70 72-28-16 102-98 26 16-26 92z" />
<glyph unicode="&#xf134;" glyph-name="filing" horiz-adv-x="768" d="M634 702c24 0 38 0 38-40v-56h-576v56c0 40 16 40 40 40h498zM538 768c26 0 38-2 38-38h-384c0 36 14 38 40 38h306zM736 620c26-16 34-34 30-82l-34-368c-8-42-32-42-48-42h-600c-16 0-40 0-48 42l-34 370c-6 52 2 62 30 80l30 20v-64h642v64z" />
<glyph unicode="&#xf137;" glyph-name="crown" horiz-adv-x="696" d="M696 140v-38c0-18-12-32-30-32h-634c-18 0-32 14-32 32v0 0 38c0 18 14 32 32 32v0h634c18 0 30-14 30-32v0zM88 566c2-2 2 0 4-2l68-70 164 162c6 6 14 10 24 10s18-4 24-10v0l164-162 70 70c0 2 0 4 2 4h2c6 4 12 8 20 8 18 0 34-16 34-34v-300c-2-16-16-28-34-28v0-2h-564c-18 0-30 14-32 30h-2v300h2c0 18 14 32 32 32 8 0 16-2 22-8v0 0zM584 480v0 0zM4 682c0 42 20 62 62 62s60-20 60-62-18-62-60-62-62 20-62 62zM566 682c0 42 20 62 62 62s62-20 62-62-20-62-62-62-62 20-62 62zM290 764c0 42 20 62 62 62s62-20 62-62-20-62-62-62-62 20-62 62z" />
<glyph unicode="&#xf139;" glyph-name="archives" horiz-adv-x="844" d="M248 710v-524c0-24-22-44-46-44v0h-160v2c-24 0-42 18-42 42v0 524c0 24 18 44 42 44v0h160c24 0 44-20 44-44h2zM124 194c36 0 64 28 64 64s-28 64-64 64-64-28-64-64 28-64 64-64zM196 424v278h-144v-278h144zM546 710v-524c0-24-20-44-44-44v0h-162v2c-24 0-42 18-42 42v0 524c0 24 18 44 42 44v0h162c24 0 44-20 44-44v0zM422 194c36 0 64 28 64 64s-28 64-64 64-64-28-64-64 28-64 64-64zM494 424v0 278h-144v-278h144zM844 710v-524c0-24-20-44-44-44v0h-162v2c-24 0-42 18-42 42v0 524c0 24 18 44 42 44v0h162c24 0 44-20 44-44v0zM720 194c36 0 64 28 64 64s-28 64-64 64-64-28-64-64 28-64 64-64zM792 424v278h-144v-278h144z" />
<glyph unicode="&#xf153;" glyph-name="vbars" horiz-adv-x="854" d="M386 344c8 0 16-8 16-16v-224c0-8-8-16-16-16h-144c-8 0-16 8-16 16v224c0 8 8 16 16 16h144zM612 808c8 0 16-8 16-16v-688c0-8-8-16-16-16h-144c-8 0-16 8-16 16v688c0 8 8 16 16 16h144zM840 598c8 0 14-6 14-14v-480c0-8-6-16-14-16h-146c-8 0-16 8-16 16v480c0 8 8 14 16 14h146zM160 598c8 0 16-6 16-14v-480c0-8-8-16-16-16h-144c-8 0-16 8-16 16v480c0 8 8 14 16 14h144z" />
<glyph unicode="&#xf154;" glyph-name="hbars" horiz-adv-x="774" d="M760 540c8 0 14-8 14-16v-154c0-8-6-16-14-16h-744c-8 0-16 8-16 16v154c0 8 8 16 16 16h744zM452 778c6-2 10-8 10-16v-154c0-8-4-14-10-16v0h-436c-8 0-16 8-16 16v154c0 8 8 16 16 16h436zM550 304c8 0 16-8 16-16v-154c0-8-8-16-16-16h-534c-8 0-16 8-16 16v154c0 8 8 16 16 16h534z" />
<glyph unicode="&#xf158;" glyph-name="hearing" horiz-adv-x="642" d="M296 668c116 0 208-96 208-212 0-26-4-48-12-72 0-2-2-4-2-6 0 0-30-52-50-76-2-4-6-6-8-10-14-16-20-22-20-48 2-54 2-74-2-90-8-52-46-78-110-80v0 0c-18 0-34 14-34 32 0 10 2 20 8 26s14 10 24 10c42 2 44 14 46 22v4c2 10 0 42 0 74-2 52 20 76 36 96l8 8c12 14 34 48 42 64 4 14 6 30 6 46 0 78-62 144-140 144s-142-66-142-144c0-18-16-34-34-34s-34 16-34 34c0 116 94 212 210 212zM344 452c0 26-22 48-48 48s-48-22-48-48c0-16-14-30-30-30s-28 14-28 30c0 58 48 104 106 104s104-46 104-104c0-16-12-30-28-30s-28 14-28 30zM150 348c12 12 32 12 44 0 6-6 10-16 10-24s-4-16-10-22l-140-142c-6-6-14-8-22-8s-16 2-22 8-10 16-10 24 4 16 10 22zM414 732c76 0 138-60 138-136v0-14c0-6-6-12-12-12v0h-24c-6 0-12 6-12 12v0 14c0 48-42 88-90 88v0 0h-14c-6 0-10 6-10 12v0 22c0 6 4 14 10 14v0h14zM642 596v0-14c0-6-6-12-12-12v0h-22c-6 0-14 6-14 12v0 14c0 98-82 178-180 178v0 0h-14c-6 0-10 6-10 12v0 24c0 6 4 12 10 12v0h14c126 0 228-100 228-226z" />
<glyph unicode="&#xf162;" glyph-name="blocks" horiz-adv-x="762" d="M152 410v238h458v-238h-458zM164 248v112h114v-112h-114zM492 248v112h114v-112h-114zM328 248v112h114v-112h-114zM716 800c26 0 46-20 46-46v-614c-2-24-22-44-46-44h-670c-24 0-44 20-46 44v0 614c0 26 20 46 46 46v0h670zM660 198v0 500h-558v-500h558z" />
<glyph unicode="&#xf18a;" glyph-name="files" horiz-adv-x="778" d="M762 722c8 0 16-8 16-16v-720c0-8-8-16-16-16h-542c-8 0-16 8-16 16v36h506c8 0 16 6 16 14v686h36zM676 88c0-8-8-16-16-16h-542c-8 0-16 8-16 16v36h506c8 0 16 6 16 14v686h36c8 0 16-8 16-16v-720zM574 190c0-8-8-16-16-16h-542c-8 0-16 8-16 16v720c0 8 8 16 16 16h542c8 0 16-8 16-16v-720z" />
<glyph unicode="&#xf1a1;" glyph-name="screen" horiz-adv-x="782" d="M782 790v0-64c0-10-8-18-18-18h-746c-10 0-18 8-18 18v0 64c0 10 8 20 18 20v0h746c10 0 18-10 18-20v0zM718 656c10 0 18-8 18-18v0-380c0-22-18-42-42-42h-278v-54c10-8 16-20 16-34 0-24-18-42-42-42s-42 18-42 42c0 14 8 26 18 34v54h-278c-24 0-44 20-44 42v380c0 10 8 18 18 18h656z" />
<glyph unicode="&#xf1a3;" glyph-name="quotes" horiz-adv-x="870" d="M104 512c40 0 70-30 70-74s-38-82-82-82c-48 0-92 38-92 106 0 78 42 146 106 192v0c2 0 4 2 6 2s4-2 6-4v0l44-26c4-2 4-6 4-10s-2-8-6-10v0 0 0c-32-18-68-60-78-96 4 2 14 2 22 2zM314 512c40 0 70-30 70-74s-38-82-82-82c-48 0-92 38-92 106 0 78 42 146 106 192h2c2 0 2 2 4 2s6-2 8-4v0l42-26c4-2 6-6 6-10s-4-8-8-10v0 0 0c-32-18-66-60-76-96 4 2 12 2 20 2zM568 540c48 0 92-38 92-106 0-78-42-146-106-192v0c-2 0-4-2-6-2s-4 2-6 4v0l-44 26c-4 2-4 6-4 10s2 8 6 10v0 0 0c32 18 68 60 78 96-4-2-12-2-20-2-40 0-72 30-72 74s38 82 82 82zM778 540c48 0 92-38 92-106 0-78-42-146-106-192v0c-2 0-2-2-4-2s-6 2-8 4v0l-42 26c-4 2-6 6-6 10s2 8 6 10v0h2c32 18 66 60 76 96-4-2-12-2-20-2-40 0-70 30-70 74s36 82 80 82z" />
<glyph unicode="&#xf1a6;" glyph-name="usersdoc" horiz-adv-x="942" d="M246 484c4-6 6-14 10-20l-106-48c-28-14-46-44-46-78v-112h-82c-12 0-22 12-22 26v108c0 10 6 20 14 24l138 64c-32 20-56 58-56 104 0 66 46 118 102 118 16 0 30-4 42-10-4-8-6-18-8-26-6-20-8-38-8-56 0-32 8-66 22-94zM574 604c-2 8-2 16-4 26-6 28-20 54-36 76h390c10 0 18-8 18-18v0-66c0-10-8-18-18-18v0 0h-350zM942 280v0-66c0-10-8-18-18-18v0 0h-228v102h228c10 0 18-8 18-18zM924 502c10 0 18-8 18-18v0-66c0-10-8-18-18-18v0 0h-252c-6 6-14 12-22 16l-106 50c4 8 10 14 14 22 2 4 2 10 4 14h362zM628 370c10-6 18-18 18-32v-134c0-18-12-32-28-32h-436c-16 0-28 14-28 32v134c0 14 8 28 18 32l170 78c-22 14-38 34-50 58-10 22-18 46-18 72 0 16 2 28 6 42 16 60 64 104 120 104 58 0 106-44 120-106 4-12 6-26 6-40 0-24-6-48-16-68-12-26-28-46-50-60l50-24z" />
<glyph unicode="&#xf1ab;" glyph-name="cone" horiz-adv-x="964" d="M964 120v-4c0-14-12-24-26-24v0 0h-914c-14 0-24 10-24 24v52c0 14 10 24 24 24h78l338 586c8 16 24 26 42 26s34-10 42-26v0l338-586h76c14 0 26-10 26-24v0 0-48zM456 702l-58-102h168l-58 102h-52zM338 498l-58-102h404l-58 102h-288zM162 192h640l-60 102h-522z" />
<glyph unicode="&#xf1ae;" glyph-name="sheriff" horiz-adv-x="768" d="M712 324c30 0 56-24 56-54s-26-56-56-56c-20 0-38 12-48 30h-160l-70-122c4-8 6-14 6-24 0-30-24-56-54-56s-56 26-56 56c0 10 2 18 6 26l-68 120h-156c-10-14-28-24-46-24-30 0-54 24-54 54s24 56 54 56c4 0 10 0 14-2l70 120-70 120c-8-4-16-6-24-6-30 0-56 26-56 56s26 54 56 54c20 0 38-10 48-28h158l74 126c-6 8-10 18-10 28 0 30 26 56 56 56s54-26 54-56c0-12-2-22-8-30l72-124h156c10 14 26 24 44 24 30 0 56-26 56-56s-26-54-56-54c-4 0-10 0-14 2l-68-120 70-120c8 4 16 4 24 4z" />
<glyph unicode="&#xf1c1;" glyph-name="gdrive" horiz-adv-x="768" d="M288 350h480l-134-230h-480zM752 362l-264 2-242 416 266-2zM240 762l132-230-240-416-132 230z" />
<glyph unicode="&#xf1fc;" glyph-name="usertie" horiz-adv-x="664" d="M642 342c14-6 22-24 22-42v-182c0-24-18-44-38-44h-246v144l-40 68v2c-2 2-4 4-8 4s-4-2-6-4v0l-42-70h2c0-2-2-2-2-4v-140h-246c-20 0-38 20-38 44v182c0 18 10 36 24 42l166 76 64 30c-30 18-54 44-70 78-14 28-22 62-22 98 0 20 4 40 8 58 22 80 86 140 162 140 78 0 144-60 164-144 4-18 6-36 6-54 0-34-8-64-20-92-16-34-38-64-68-82l66-32zM380 388v4c0 4-4 8-8 8h-80c-4 0-8-4-8-8 0-2 2-2 2-4v0l38-70h2c2-2 2-4 6-4s6 2 8 4v0l40 70z" />
<glyph unicode="&#xf1fd;" glyph-name="userf" horiz-adv-x="664" d="M642 342c14-6 22-24 22-42v-182c0-24-18-44-38-44h-588c-20 0-38 20-38 44v182c0 18 10 36 24 42l166 76 64 30c-2 2-6 4-8 6h-88c-14 0-26 10-26 24v66c2 92 36 174 84 224 26 28 58 46 94 52h4s4 2 6 2h24c2 0 4-2 6-2h6c36-6 68-26 94-54 48-50 80-130 82-222v0-66c0-14-10-24-24-24h-90l-4-4 66-32z" />
<glyph unicode="&#xf1fe;" glyph-name="userm" horiz-adv-x="664" d="M642 342c14-6 22-24 22-42v-182c0-24-18-44-38-44h-588c-20 0-38 20-38 44v182c0 18 10 36 24 42l166 76 64 30c-30 18-54 44-70 78-14 28-22 62-22 98 0 20 4 40 8 58 22 80 86 140 162 140 78 0 144-60 164-144 4-18 6-36 6-54 0-34-8-64-20-92-16-34-38-64-68-82l66-32z" />
<glyph unicode="&#xf1ff;" glyph-name="usersf" horiz-adv-x="976" d="M764 354c8-4 14-10 18-18 4-6 6-14 6-22v-164c0-22-16-40-34-40h-532c-18 0-34 18-34 40v170c2 14 10 28 22 34l148 68 58 28c-2 2-4 0-6 2h-80c-12 0-22 10-22 22v60c2 74 24 138 60 184 28 42 72 68 120 68 44 0 84-22 112-58 40-46 66-116 68-194v0-60c0-12-10-22-22-22h-80c-2 0-2-2-4-2l58-28zM238 422l-50-22c-30-14-50-48-50-84v-138h-110c-16 0-28 14-28 32v132c0 14 8 26 18 30l166 78c-40 24-66 72-66 128 0 80 56 142 124 142 20 0 40-6 56-16-34-60-58-136-60-220v0-62zM958 370c10-4 18-16 18-30v-132c0-18-12-32-28-32h-110v138c0 36-22 70-52 84l-48 22v62h-2c-2 84-24 160-58 220 16 10 36 18 56 18 68 0 124-64 124-144 0-56-28-104-68-128z" />
<glyph unicode="&#xf200;" glyph-name="usersm" horiz-adv-x="978" d="M962 370c10-6 16-16 16-30v-132c0-18-10-32-26-32h-116v140c0 36-18 68-48 82l-108 50c-10 6-20 14-28 24 24 38 38 86 38 134 0 32-4 64-16 92 18 14 40 22 64 22 68 0 122-64 122-144 0-54-26-102-64-126zM300 450l-112-52c-30-14-50-46-50-82v-140h-110c-16 0-28 14-28 32v132c0 14 8 26 18 30l166 78c-40 24-66 72-66 128 0 80 56 144 124 144 22 0 42-8 60-20-12-28-18-60-18-94 0-50 14-98 40-136-8-8-16-14-24-20zM766 352c12-6 20-20 20-36v-164c0-22-16-40-34-40h-530c-18 0-34 18-34 40v164c0 16 10 30 22 36l150 70 58 26c-26 16-50 40-64 70-12 26-20 56-20 88 0 18 4 36 8 52 20 72 78 126 146 126 70 0 128-56 146-130 4-16 6-32 6-48 0-30-6-58-18-82-14-32-36-58-62-74l62-30z" />
<glyph unicode="&#xf201;" glyph-name="usersf-alt" horiz-adv-x="884" d="M280 478v0-48l-78-36c-32-16-54-50-54-88v-148h-118c-16 0-30 16-30 34v142c0 14 6 26 18 32l180 82c-42 26-72 76-72 136 0 84 60 154 132 154 24 0 44-8 64-20-2-8-6-14-8-22-20-44-32-96-34-152v0-66zM860 342c14-6 24-24 24-42v-182c0-24-18-44-38-44h-590c-20 0-38 20-38 44v182c0 18 10 36 24 42l232 106c-2 2-6 4-8 6h-90c-14 0-24 10-24 24v66c2 92 36 174 84 224 26 28 56 46 92 52h6s4 2 6 2h24c2 0 4-2 6-2h4c36-6 68-26 94-54 48-50 80-130 82-222h2v-66c0-14-12-24-26-24h-88c-2-2-4-2-6-4l68-32z" />
<glyph unicode="&#xf202;" glyph-name="usersmf" horiz-adv-x="840" d="M838 312c0-2 2-4 2-6v-174c0-24-18-42-38-42h-564c-20 0-36 18-36 42v174c0 4 0 8 2 12 4 12 10 24 20 28l160 74 62 28c-28 16-52 44-68 76-12 24-18 50-20 80v28c2 14 4 26 8 40 2 8 4 16 6 22 26 66 82 112 148 112v0 0c74 0 136-58 156-138 4-16 8-34 8-52 0-32-8-62-20-88-16-34-38-60-66-78l64-32 154-72c12-6 20-20 22-34zM310 444l-108-50c-32-16-54-50-54-88v-148h-118c-16 0-30 16-30 34v142c0 14 6 26 18 32l180 82-4 2h-72c-10 0-20 10-20 20v52c4 124 74 222 160 222 18 0 34-4 50-12-16-34-26-74-26-116 0-60 20-112 52-156z" />
<glyph unicode="&#xf203;" glyph-name="usersm-alt" horiz-adv-x="840" d="M320 450l-118-56c-32-16-54-50-54-88v-148h-118c-16 0-30 16-30 34v142c0 14 6 26 18 32l180 82c-42 26-72 76-72 136 0 84 60 154 132 154 24 0 44-8 64-20-12-30-18-66-18-102 0-54 14-102 42-144-8-8-16-16-26-22zM816 346c14-6 24-22 24-40v-174c0-24-18-42-38-42h-564c-20 0-36 18-36 42v174c0 18 8 34 22 40l160 74 62 28c-28 16-52 44-68 76-14 28-20 58-20 92 0 20 4 38 8 56 20 78 80 134 154 134s136-58 156-138c4-16 8-34 8-52 0-32-8-62-20-88-16-34-38-60-66-78l64-32z" />
<glyph unicode="&#xf215;" glyph-name="wrench" horiz-adv-x="802" d="M772 720c2 2 8 2 10 0v0 0l2-2c12-28 18-58 18-90 0-122-98-222-220-222-24 0-46 6-68 12l-230-232c-2-78-64-140-142-140s-142 64-142 142 62 140 140 142l230 232c-6 22-10 42-10 66 0 122 100 222 222 222 32 0 60-8 88-20h2l2-2c2-2 2-6 0-8l-78-78-48-50c-2-26 6-52 26-72s46-28 72-26l48 48 40 38zM200 188c0 32-26 60-58 60s-58-28-58-60 26-58 58-58 58 26 58 58z" />
<glyph unicode="&#xf21f;" glyph-name="search" horiz-adv-x="768" d="M762 186c8-8 8-20 0-28l-86-88c-4-4-10-6-16-6s-10 2-14 6l-168 172c-50-30-104-46-160-46-174 0-318 142-318 318s144 318 318 318 316-142 316-318c0-54-14-108-42-156zM318 708c-106 0-194-86-194-194s88-194 194-194 192 86 192 194-86 194-192 194z" />
<glyph unicode="&#xf27b;" glyph-name="hammer-alt" horiz-adv-x="640" d="M628 896c6 0 12-6 12-12v-168c0-6-6-12-12-12h-104c-6 0-12 6-12 12v28c-12 10-32 18-44 14-14-4-46-26-60-50s-12-56-12-132l16-4c10-2 14-12 14-18v-140c0-190 22-402 22-402 0-6-6-12-12-12h-168c-6 0-12 6-12 12 0 0 22 212 22 402v140c0 6 6 16 14 18l14 4c0 86-10 116-44 148-36 32-82 38-126 34s-102-70-116-90-20 4-20 22c2 32 44 120 144 162s182 44 204 44 54-2 76-6 32-36 52-36c14 0 28 10 36 18v12c0 6 6 12 12 12h104z" />
<glyph unicode="&#xf2ad;" glyph-name="settings" horiz-adv-x="832" d="M804 684c20-12 30-50 28-72-2-34-14-72-50-108-2-2-4-2-6-4-52-50-124-60-188-40-2 2-4 4-8 4-10 2-20 0-26-8l-72-78c104-100 214-192 214-192 4-4 4-10 0-14l-100-102c-4-4-10-4-14 0 0 0-88 110-186 214l-184-196c-28-32-80-30-110 0-30 32-30 84 2 112l194 186-24 24c-4 4-6 14-2 20l4 10c-50 52-72 66-112 64s-72-26-96-56-20-104-16-124-14-12-24 0c-18 20-46 100-12 186s84 138 96 150 32 30 48 42 42-2 54 10c8 8 10 22 10 32l-8 8c-4 4-4 10 0 14l62 62c4 4 10 4 14 0l100-100c4-4 4-12 0-16l-62-62c-4-4-10-4-14 0l-16 18c-14 0-30-10-34-20-6-12-12-42-6-66 6-22 26-40 72-86l10 6c8 4 16 2 20-2 0 0 2-4 26-28l76 74c8 6 10 14 8 26 0 4 0 8-2 10-20 66-12 138 38 192l4 4c36 36 72 50 106 52 20 2 60-10 70-30l-96-96-4-6-2-2c-2-2-2-4-2-8s0-6 2-10l8-8 82-84 8-8c2-2 4-2 8-2s6 0 8 2l4 2 4 6z" />
<glyph unicode="&#xf2b5;" glyph-name="stats-bars-alt" horiz-adv-x="704" d="M192 128v640h128v-640h-128zM0 128v192h128v-192h-128zM384 128v320h128v-320h-128zM576 128v448h128v-448h-128z" />
<glyph unicode="&#xf2d7;" glyph-name="close" horiz-adv-x="596" d="M596 686l-238-238 238-238-60-60-238 238-238-238-60 60 238 238-238 238 60 60 238-238 238 238z" />
<glyph unicode="&#xf2e3;" glyph-name="hand" horiz-adv-x="828" d="M802 412c30-30 36-72 6-102 0 0-192-206-252-242v0c-56-42-130-68-200-68-110 0-202 72-234 170v0 2c0 2-2 4-2 6l-116 378c-10 30 4 64 34 74s60-6 70-36l68-176c2-8 4-4 4 2l-44 322c-6 30 14 60 44 66s60-16 66-46l50-276c0-4 4-4 4 0v354c0 30 26 56 56 56s56-26 56-56l16-350c0-10 6-8 8-2l46 270c4 30 32 54 62 50s54-34 50-64l-42-344c-2-24-6-60 4-72 16-18 40-18 62 4l84 84c30 30 70 26 100-4z" />
<glyph unicode="&#xf318;" glyph-name="cube-alt" d="M870 624c14 0 26-12 26-24v-366c0-18-12-34-28-44v-2l-350-184v-2c-4-2-8-2-12-2-14 0-26 12-26 24v370c0 18 10 34 26 44v0l6 4 348 180c4 2 6 2 10 2zM844 722c0 0 16-6 16-18 0-14-16-22-16-22l-370-196c-8-4-16-6-26-6s-18 2-26 6l-4 2-366 192s-16 10-16 24c0 12 16 18 16 18l362 164s22 10 34 10 34-10 34-10zM390 438c16-10 26-26 26-44v-370c0-12-12-24-26-24-4 0-8 2-12 4v0l-350 184v2c-16 10-28 26-28 44v366c0 12 12 24 26 24 4 0 8 0 10-2l4-2 342-178z" />
<glyph unicode="&#xf322;" glyph-name="box-net" d="M197.632 960h628.736c109.568 0 197.632-88.064 197.632-197.632v-628.736c0-109.568-88.064-197.632-197.632-197.632h-628.736c-109.568 0-197.632 88.064-197.632 197.632v628.736c0 109.568 88.064 197.632 197.632 197.632zM512 595.456c-54.272 0-104.448-17.408-145.408-46.080v204.8c0 29.696-23.552 53.248-53.248 53.248s-53.248-23.552-53.248-53.248v-391.168c-1.024-6.144 0-45.056 2.048-56.32 17.408-122.88 122.88-217.088 249.856-217.088 139.264 0 252.928 113.664 252.928 252.928s-113.664 252.928-252.928 252.928zM512 197.12c-80.896 0-145.408 65.536-145.408 145.408 0 80.896 65.536 145.408 145.408 145.408s145.408-65.536 145.408-145.408c0-80.896-65.536-145.408-145.408-145.408z" />
<glyph unicode="&#xf348;" glyph-name="ribbon-alt" horiz-adv-x="704" d="M544 896l160-192-128-268c-48 60-118 98-198 106zM160 896l166-354c-80-8-150-46-198-106l-128 268zM378 896h134l-106-224h-108l-106 224h186zM352 512c142 0 256-114 256-256s-114-256-256-256-256 114-256 256 114 256 256 256zM352 64c106 0 192 86 192 192s-86 192-192 192-192-86-192-192 86-192 192-192zM352 432c98 0 176-78 176-176s-78-176-176-176-176 78-176 176 78 176 176 176z" />
<glyph unicode="&#xf349;" glyph-name="ribbon" horiz-adv-x="768" d="M384 816c98 0 176-78 176-176s-78-176-176-176-176 78-176 176 78 176 176 176zM384 896c142 0 256-114 256-256s-114-256-256-256-256 114-256 256 114 256 256 256zM384 448c106 0 192 86 192 192s-86 192-192 192-192-86-192-192 86-192 192-192zM166 452c52-60 130-100 218-100 24 0 46 2 68 8l-68-148-96-212-96 160h-192zM602 452l166-292h-192l-96-160-80 176 90 196c44 18 82 46 112 80z" />
<glyph unicode="&#xf372;" glyph-name="checkbox-off" horiz-adv-x="768" d="M682 746h-596v-596h596v596zM682 832v0c46 0 86-40 86-86v-596c0-46-40-86-86-86h-596c-46 0-86 40-86 86v596c0 46 40 86 86 86h596z" />
<glyph unicode="&#xf373;" glyph-name="checkbox-on" horiz-adv-x="768" d="M210 530l132-132 366 366 60-60-426-426-192 192zM682 150v340h86v-340c0-46-40-86-86-86h-596c-46 0-86 40-86 86v596c0 46 40 86 86 86h426v-86h-426v-596h596z" />
<glyph unicode="&#xf382;" glyph-name="done-all" d="M776 680l-280-278-62 62 280 278zM962 742l62-62-528-526-244 246 60 62 184-182zM0 400l64 62 244-246-62-62z" />
<glyph unicode="&#xf383;" glyph-name="done" horiz-adv-x="768" d="M244 280l460 460 64-62-524-522-244 244 64 62z" />
<glyph unicode="&#xf396;" glyph-name="more-horizontal" horiz-adv-x="640" d="M80 528c44 0 80-36 80-80s-36-80-80-80-80 36-80 80 36 80 80 80zM560 528c44 0 80-36 80-80s-36-80-80-80-80 36-80 80 36 80 80 80zM320 528c44 0 80-36 80-80s-36-80-80-80-80 36-80 80 36 80 80 80z" />
<glyph unicode="&#xf397;" glyph-name="more-vertical" horiz-adv-x="160" d="M160 688c0-44-36-80-80-80s-80 36-80 80 36 80 80 80 80-36 80-80zM160 208c0-44-36-80-80-80s-80 36-80 80 36 80 80 80 80-36 80-80zM160 448c0-44-36-80-80-80s-80 36-80 80 36 80 80 80 80-36 80-80z" />
<glyph unicode="&#xf39d;" glyph-name="options" d="M0 128v64h544v-64h-544zM736 128v64h160v-64h-160zM704 64c0-36-28-64-64-64v0c-36 0-64 28-64 64v192c0 36 28 64 64 64v0c36 0 64-28 64-64v-192zM0 416v64h160v-64h-160zM352 416v64h544v-64h-544zM320 352c0-36-28-64-64-64v0c-36 0-64 28-64 64v192c0 36 28 64 64 64v0c36 0 64-28 64-64v-192zM0 704v64h544v-64h-544zM736 704v64h160v-64h-160zM704 640c0-36-28-64-64-64v0c-36 0-64 28-64 64v192c0 36 28 64 64 64v0c36 0 64-28 64-64v-192z" />
<glyph unicode="&#xf3a6;" glyph-name="radio-button-off" horiz-adv-x="832" d="M416 864c228 0 416-188 416-416s-188-416-416-416-416 188-416 416 188 416 416 416zM416 116c184 0 332 148 332 332s-148 332-332 332-332-148-332-332 148-332 332-332z" />
<glyph unicode="&#xf3a7;" glyph-name="radio-button-on" horiz-adv-x="832" d="M416 656c114 0 208-94 208-208s-94-208-208-208-208 94-208 208 94 208 208 208zM416 864c228 0 416-188 416-416s-188-416-416-416-416 188-416 416 188 416 416 416zM416 116c184 0 332 148 332 332s-148 332-332 332-332-148-332-332 148-332 332-332z" />
<glyph unicode="&#xf3c2;" glyph-name="easel-alt" d="M96 288v384h704v-384h-704zM864 768c18 0 32-14 32-32v-512c0-18-14-32-32-32h-832c-18 0-32 14-32 32v512c0 18 14 32 32 32h832zM832 256v448h-768v-448h768zM96 0l58 160h62l-56-160h-64zM478 896l34-96h-128l34 96h60zM680 160h62l58-160h-64zM416 64v96h64v-96h-64z" />
</font>
</defs>
</svg>
