<?xml version="1.0" encoding="UTF-8"?>
<svg width="230px" height="120px" viewBox="0 0 230 120" version="1.1" xmlns="http://www.w3.org/2000/svg" xmlns:xlink="http://www.w3.org/1999/xlink">
    <!-- Generator: Sketch 55.1 (78136) - https://sketchapp.com -->
    <title>report_tile_image_nograph</title>
    <desc>Created with Sketch.</desc>
    <defs>
        <rect id="path-1" x="0" y="0" width="230" height="120"></rect>
    </defs>
    <g id="report_tile_image_nograph" stroke="none" stroke-width="1" fill="none" fill-rule="evenodd">
        <g id="img-report-nograph">
            <mask id="mask-2" fill="white">
                <use xlink:href="#path-1"></use>
            </mask>
            <use id="Mask" fill="#F0F0F0" xlink:href="#path-1"></use>
            <g id="report" mask="url(#mask-2)">
                <g transform="translate(117.278497, 79.750523) rotate(-5.000000) translate(-117.278497, -79.750523) translate(16.278497, 26.250523)">
                    <rect id="Rectangle-Copy-36" fill="#7C7C7C" fill-rule="evenodd" opacity="0.3" x="189.984779" y="0.348622971" width="12" height="106"></rect>
                    <rect id="Rectangle-Copy-38" fill="#FFFFFF" fill-rule="evenodd" x="0" y="0" width="198" height="106"></rect>
                    <rect id="Rectangle-Copy-51" fill="#969696" fill-rule="evenodd" x="7.34862297" y="23.0152212" width="185" height="2"></rect>
                    <rect id="Rectangle-Copy-52" fill="#969696" fill-rule="evenodd" x="7.34862297" y="43.0152212" width="185" height="2"></rect>
                    <rect id="Rectangle-Copy-53" fill="#969696" fill-rule="evenodd" x="7.34862297" y="63.0152212" width="185" height="2"></rect>
                    <rect id="Rectangle-Copy-54" fill="#969696" fill-rule="evenodd" x="7.34862297" y="83.0152212" width="185" height="2"></rect>
                    <rect id="Rectangle-Copy-50" fill="#969696" fill-rule="evenodd" x="132.825689" y="7.9923894" width="59" height="8"></rect>
                    <rect id="Rectangle-Copy-49" fill="#969696" fill-rule="evenodd" x="69.8256885" y="7.9923894" width="59" height="8"></rect>
                    <rect id="Rectangle-Copy-48" fill="#969696" fill-rule="evenodd" x="6.82568851" y="7.9923894" width="59" height="8"></rect>
                    <path d="M10.4357787,30.0190265 L18.4357787,30.0190265 L18.4357787,38.0190265 L10.4357787,38.0190265 L10.4357787,30.0190265 Z M12.4357787,36.0190265 L16.4357787,36.0190265 L16.4357787,32.0190265 L12.4357787,32.0190265 L12.4357787,36.0190265 Z" id="Rectangle-Copy-55" fill="#969696" fill-rule="nonzero"></path>
                    <path d="M10.4357787,50.0190265 L18.4357787,50.0190265 L18.4357787,58.0190265 L10.4357787,58.0190265 L10.4357787,50.0190265 Z M12.4357787,52.0190265 L12.4357787,56.0190265 L16.4357787,56.0190265 L16.4357787,52.0190265 L12.4357787,52.0190265 Z" id="Rectangle-Copy-56" fill="#969696" fill-rule="nonzero"></path>
                    <path d="M10.4357787,70.0190265 L18.4357787,70.0190265 L18.4357787,78.0190265 L10.4357787,78.0190265 L10.4357787,70.0190265 Z M12.4357787,76.0190265 L16.4357787,76.0190265 L16.4357787,72.0190265 L12.4357787,72.0190265 L12.4357787,76.0190265 Z" id="Rectangle-Copy-57" fill="#969696" fill-rule="nonzero"></path>
                </g>
            </g>
            <polygon id="Line-2" fill="#FFFFFF" fill-rule="nonzero" mask="url(#mask-2)" points="209.737043 17.4578183 11.4578183 35.027811 11.5460848 36.0239079 209.82531 18.4539152"></polygon>
        </g>
    </g>
</svg>