<svg width="253" height="182" viewBox="0 0 253 182" xmlns="http://www.w3.org/2000/svg"><title>totara_logo</title><path fill="#92AF44" d="M67.265 52.585c1.598 11.872 8.447 23.06 19.634 29.45 11.186 6.394 24.2 6.85 35.386 2.284-1.598-11.872-8.447-23.06-19.634-29.452-6.164-3.653-13.013-5.25-19.862-5.25-5.48 0-10.73 1.14-15.525 2.967m64.38 21.917c-1.597 3.88-2.51 7.99-2.967 12.1a156.453 156.453 0 0 0-.685 14.61v13.243h1.827c0-.457.228-7.99.456-9.36.23-1.827.457-3.653.914-5.48.685-2.74 1.826-5.935 3.88-7.99 2.512-2.283 5.708-3.196 9.133-3.88 3.653-.686 7.077-.686 10.73-1.828 3.425-.913 6.62-2.283 9.59-3.88 11.185-6.393 18.034-17.58 19.633-29.452a39.336 39.336 0 0 0-15.525-3.196c-7.076.227-13.925 1.825-20.09 5.478-7.762 4.338-13.697 11.415-16.894 19.634zm-20.774-43.15c0 12.33 5.937 23.288 15.07 30.365 9.13-6.85 15.067-18.035 15.067-30.364 0-12.328-5.936-23.286-15.068-30.364-9.133 7.077-15.07 18.035-15.07 30.363"/><path fill="#1A1918" d="M58.89 168.447c8.802 0 9.88-9.866 9.88-14.493 0-4.596-1.043-14.4-9.88-14.4-8.84 0-9.787 9.774-9.787 14.4 0 4.66.983 14.493 9.786 14.493zm0-41.744c16.43 0 26.778 10.022 26.806 27.25.014 8.298-3.2 27.298-26.807 27.298-23.608 0-26.717-18.73-26.717-27.296 0-16.955 10.285-27.25 26.716-27.25zm-58.517 1.83h6.772v-14.447h16.51v14.446h8.442v10.084h-8.442v22.092c0 8.557 2.72 8.598 8.256 8.255v10.648c-1.7.343-16.685 3.618-21.612-3.166-2.088-2.875-3.153-8.856-3.153-18.083v-19.744H.373v-10.084zm84.145 0h6.772v-14.447h16.512v14.446h8.44v10.084h-8.44v22.092c0 5.455.277 9.2 8.255 8.255v10.648c-8.638 1.792-17.638 1.694-21.614-3.166-2.16-2.64-3.153-8.856-3.153-18.083v-19.744h-6.772v-10.084zm48.94 32.175c-2.572 2.71-1.398 9.568 4.845 9.568 5.318 0 9.555-3.296 9.555-8.912v-5.862c-3.835 2.41-11.556 2.208-14.4 5.206zm15.746 18.808c-.187-.813-.76-4.315-.883-5.254-2.317 2.347-7.234 6.895-15.998 6.895-13.117 0-15.77-9.667-15.77-15.008 0-5.246 1.837-13.19 13.358-15.854 11.408-2.638 17.948-2.546 17.948-5.958v-1.22c0-3.27-3.08-4.764-6.973-4.54-3.893.226-7.31 1.806-7.73 5.76h-15.213c.804-5.752 3.97-17.073 23.747-17.073 12.157 0 19.81 4.768 21.102 12.313.742 4.33.742 5.745.742 10.624v19.324c0 2.315 0 6.583 2.506 8.068v1.922h-16.836zm20.62-50.984h15.86v8.912c4.056-8.912 12.556-10.115 16.605-10.18v16.512c-.71-.094-10.596-1.933-14.332 4.41-.62 1.062-1.716 2.468-1.716 14.21v17.12h-16.42v-50.984zm49.646 32.176c-2.57 2.71-1.397 9.568 4.847 9.568 5.318 0 9.555-3.296 9.555-8.912v-5.862c-3.835 2.41-11.557 2.208-14.402 5.206zm15.747 18.808c-.187-.813-.758-4.315-.882-5.254-2.32 2.347-7.236 6.895-16 6.895-13.117 0-15.77-9.667-15.77-15.008 0-5.246 1.837-13.19 13.358-15.854 11.408-2.638 17.95-2.546 17.95-5.958v-1.22c0-3.27-3.082-4.764-6.975-4.54-3.893.226-7.31 1.806-7.73 5.76h-15.212c.804-5.752 3.97-17.073 23.747-17.073 12.158 0 19.81 4.768 21.103 12.313.742 4.33.742 5.745.742 10.624v19.324c0 2.315 0 6.583 2.505 8.068v1.922h-16.836z"/></svg>
