<svg id="Layer_1" data-name="Layer 1" xmlns="http://www.w3.org/2000/svg" viewBox="0 0 117.57 27.94"><defs><style>.cls-1{fill:#1a1818;}.cls-2{fill:#909d39;}</style></defs><title>logo</title><path id="Path_654" data-name="Path 654" class="cls-1" d="M270.15,416.73v-3.4h2.3v-4.86h5.62v4.86H281v3.4h-2.88v7.44a3.91,3.91,0,0,0,.45,2.25,2,2,0,0,0,1.65.56h.42l.3,0v3.58c-.58.12-1.16.21-1.73.27a14.88,14.88,0,0,1-1.64.09c-1.95,0-3.28-.47-4-1.43s-1.08-3-1.07-6.08v-6.65Z" transform="translate(-238.2 -405.18)"/><path id="Path_655" data-name="Path 655" class="cls-1" d="M286.71,421.89a6.29,6.29,0,0,0,.87,3.62,2.81,2.81,0,0,0,2.46,1.26,2.84,2.84,0,0,0,2.49-1.27,7.86,7.86,0,0,0,0-7.19A2.85,2.85,0,0,0,290,417a2.81,2.81,0,0,0-2.47,1.26,6.26,6.26,0,0,0-.86,3.59m-5.77,0a9.15,9.15,0,0,1,2.42-6.74,10.4,10.4,0,0,1,13.38,0,10.59,10.59,0,0,1,0,13.5,10.44,10.44,0,0,1-13.4,0,9.25,9.25,0,0,1-2.4-6.76" transform="translate(-238.2 -405.18)"/><path id="Path_656" data-name="Path 656" class="cls-1" d="M298.77,416.73v-3.4h2.3v-4.86h5.63v4.86h2.87v3.4h-2.88v7.44a4,4,0,0,0,.44,2.25,2.06,2.06,0,0,0,1.66.56h.42l.29,0v3.58a17.06,17.06,0,0,1-1.72.27,14.88,14.88,0,0,1-1.64.09c-1.95,0-3.28-.47-4-1.43s-1.08-3-1.07-6.08v-6.65Z" transform="translate(-238.2 -405.18)"/><path id="Path_657" data-name="Path 657" class="cls-1" d="M320.31,422.41a7.75,7.75,0,0,1-2.28.76c-.53.1-.93.2-1.2.27a3.06,3.06,0,0,0-1.43.73,1.64,1.64,0,0,0-.42,1.18,2,2,0,0,0,.57,1.48,2.08,2.08,0,0,0,1.5.56,3.42,3.42,0,0,0,2.35-.83,2.84,2.84,0,0,0,.91-2.18Zm6.19,8.09h-5.74c-.06-.28-.12-.56-.16-.86s-.1-.6-.14-.91a8,8,0,0,1-2.52,1.75,7.32,7.32,0,0,1-2.93.57,5.48,5.48,0,0,1-3.92-1.36,4.86,4.86,0,0,1-1.45-3.69,5.23,5.23,0,0,1,1.13-3.47,6.18,6.18,0,0,1,3.42-1.87c.85-.19,1.91-.4,3.21-.62,1.93-.31,2.9-.78,2.91-1.39v-.41a1.3,1.3,0,0,0-.56-1.13,3,3,0,0,0-1.67-.38,3.19,3.19,0,0,0-1.9.49,2.08,2.08,0,0,0-.88,1.43h-5.18a6,6,0,0,1,2.41-4.32,9.69,9.69,0,0,1,5.68-1.43,11.76,11.76,0,0,1,3.86.56,5.34,5.34,0,0,1,2.46,1.67,4.84,4.84,0,0,1,.86,1.92,17.88,17.88,0,0,1,.26,3.58v6.5a6.35,6.35,0,0,0,.21,1.84,1.34,1.34,0,0,0,.64.88Z" transform="translate(-238.2 -405.18)"/><path id="Path_658" data-name="Path 658" class="cls-1" d="M327.78,430.5V413.33h5.4v3a6.17,6.17,0,0,1,2.25-2.58,6.75,6.75,0,0,1,3.41-.85v5.56l-.72-.07c-.24,0-.46,0-.67,0a5,5,0,0,0-2.14.38A3.08,3.08,0,0,0,334,420a4.15,4.15,0,0,0-.45,1.54,27,27,0,0,0-.14,3.24v5.77Z" transform="translate(-238.2 -405.18)"/><path id="Path_659" data-name="Path 659" class="cls-1" d="M349.57,422.41a7.6,7.6,0,0,1-2.27.76q-.8.15-1.2.27a3.06,3.06,0,0,0-1.43.73,1.64,1.64,0,0,0-.42,1.18,2,2,0,0,0,.57,1.48,2.06,2.06,0,0,0,1.5.56,3.38,3.38,0,0,0,2.34-.83,2.81,2.81,0,0,0,.91-2.18Zm6.2,8.09H350c-.06-.28-.12-.56-.17-.86s-.09-.6-.13-.91a8,8,0,0,1-2.52,1.75,7.36,7.36,0,0,1-2.93.57,5.48,5.48,0,0,1-3.92-1.36,4.86,4.86,0,0,1-1.45-3.69,5.23,5.23,0,0,1,1.13-3.47,6.18,6.18,0,0,1,3.42-1.87c.84-.19,1.91-.4,3.21-.62,1.93-.31,2.9-.78,2.9-1.39v-.41a1.28,1.28,0,0,0-.56-1.13,2.91,2.91,0,0,0-1.66-.38,3.17,3.17,0,0,0-1.9.49,2.08,2.08,0,0,0-.88,1.43h-5.18a6,6,0,0,1,2.41-4.32,9.69,9.69,0,0,1,5.68-1.43,11.76,11.76,0,0,1,3.86.56,5.26,5.26,0,0,1,2.45,1.67,4.72,4.72,0,0,1,.87,1.92,17.87,17.87,0,0,1,.25,3.58v6.5a6.35,6.35,0,0,0,.22,1.84,1.34,1.34,0,0,0,.64.88Z" transform="translate(-238.2 -405.18)"/><path id="Path_660" data-name="Path 660" class="cls-2" d="M256.4,412.65a9.34,9.34,0,0,0-3.7-7.47,9.39,9.39,0,0,0-1.78,13.15,9.73,9.73,0,0,0,1.78,1.79,9.4,9.4,0,0,0,3.7-7.47" transform="translate(-238.2 -405.18)"/><path id="Path_661" data-name="Path 661" class="cls-2" d="M246.91,418.45a9.8,9.8,0,0,0-8.71-.56,9.83,9.83,0,0,0,13.54,7.82,9.83,9.83,0,0,0-4.83-7.26" transform="translate(-238.2 -405.18)"/><path id="Path_662" data-name="Path 662" class="cls-2" d="M258.26,418.45a9.83,9.83,0,0,0-4.19,4.81,11.41,11.41,0,0,0-.71,3,33.13,33.13,0,0,0-.18,3.6v3.26h.46c0-.09.06-1.95.09-2.29a10.69,10.69,0,0,1,.21-1.38,3.73,3.73,0,0,1,1-1.95,4.15,4.15,0,0,1,2.22-.93c.88-.16,1.76-.2,2.63-.43A9.79,9.79,0,0,0,267,417.9a9.79,9.79,0,0,0-8.71.55" transform="translate(-238.2 -405.18)"/></svg>
