<?xml version="1.0" encoding="UTF-8"?>
<svg width="16px" height="16px" viewBox="0 0 16 16" version="1.1" xmlns="http://www.w3.org/2000/svg" xmlns:xlink="http://www.w3.org/1999/xlink">
    <title>reply</title>
    <g id="reply" stroke="none" stroke-width="1" fill-rule="evenodd">
        <g id="globe" transform="translate(0.000000, -0.500000)">
            <g id="16x16" transform="translate(0.000000, 0.500000)"></g>
        </g>
        <g id="Group-5">
            <path d="M8.30013333,10.3856 C7.64946667,10.3976 7.00413333,10.4896 6.37746667,10.6629333 C5.0508,11.0309333 3.48146667,11.8629333 2.43746667,13.7429333 C2.3028,13.9842667 1.99746667,14.0709333 1.75746667,13.9362667 C1.5788,13.8376 1.4788,13.6389333 1.50413333,13.4376 C1.96813333,9.72826667 3.38946667,7.77626667 4.96413333,6.7776 C6.20946667,5.98826667 7.4908,5.83626667 8.30013333,5.80693333 L8.30013333,5.14693333 C8.30013333,4.51493333 8.81213333,4.00293333 9.44413333,4.0016 C9.66546667,4.0016 9.88146667,4.06693333 10.0668,4.18693333 L14.0614667,7.12693333 C14.5988,7.46293333 14.7614667,8.1696 14.4268,8.70693333 C14.3348,8.85626667 14.2094667,8.98026667 14.0614667,9.0736 L10.0668,12.0136 C9.53613333,12.3576 8.82813333,12.2056 8.48413333,11.6762667 C8.36413333,11.4909333 8.30013333,11.2736 8.30013333,11.0536 L8.30013333,10.3856 Z M9.5028,5.0136 C9.42946667,4.98026667 9.34413333,5.0136 9.31213333,5.08693333 C9.30413333,5.1056 9.30013333,5.12693333 9.30013333,5.14693333 L9.30013333,6.30026667 C9.30013333,6.57626667 9.07613333,6.80026667 8.80013333,6.80026667 C8.13346667,6.80026667 6.7868,6.80426667 5.50013333,7.6216 C4.51613333,8.2456 3.50946667,9.3816 2.90546667,11.4976 C3.92546667,10.5149333 5.08946667,9.9816 6.10946667,9.69893333 C6.73746667,9.5256 7.38146667,9.42426667 8.0308,9.3936 C8.29746667,9.3816 8.5628,9.38426667 8.82813333,9.40293333 L8.84146667,9.40293333 L8.8468,9.40293333 L8.84813333,9.40293333 L8.80013333,9.90026667 L8.8508,9.40293333 C9.10546667,9.42693333 9.30013333,9.64293333 9.30013333,9.90026667 L9.30013333,11.0536 C9.30013333,11.1602667 9.4108,11.2296 9.5028,11.1869333 L13.4854667,8.2536 C13.5001333,8.24426667 13.5134667,8.23493333 13.5281333,8.2256 C13.5974667,8.18426667 13.6201333,8.0936 13.5774667,8.02426667 C13.5668,8.00293333 13.5481333,7.98693333 13.5281333,7.9736 C13.5134667,7.9656 13.5001333,7.95626667 13.4854667,7.9456 L9.5028,5.0136 Z" id="Fill-1" transform="translate(8.050468, 9.000669) scale(-1, 1) translate(-8.050468, -9.000669) "></path>
        </g>
    </g>
</svg>