<?xml version="1.0" encoding="UTF-8"?>
<svg width="16px" height="16px" viewBox="0 0 16 16" version="1.1" xmlns="http://www.w3.org/2000/svg" xmlns:xlink="http://www.w3.org/1999/xlink">
    <title>bell_slash</title>
    <g id="bell_slash" stroke="none" stroke-width="1" fill="none" fill-rule="evenodd">
        <g id="Group-5" transform="translate(0.000000, -1.000000)">
            <g id="Mask-2"></g>
            <g mask="url(#mask-2)" fill="currentColor">
                <g transform="translate(1.000000, 1.000000)">
                    <path d="M7,16.0009333 C8.10533333,16.0009333 9,15.1049333 9,14.0009333 L5,14.0009333 C5,15.1049333 5.89466667,16.0009333 7,16.0009333" id="Fill-1"></path>
                    <path d="M13.22,12.0009333 C13.4426667,12.4476 13.7,12.8022667 14,13.0009333 L0,13.0009333 C0.298666667,12.8022667 0.557333333,12.4476 0.78,12.0009333 C1.68,10.2009333 2,6.88093333 2,6.00093333 C2,3.58093333 3.72,1.56093333 6.00533333,1.0996 C5.94933333,0.550266667 6.35066667,0.0596 6.9,0.00493333333 C7.44933333,-0.0497333333 7.94,0.350266667 7.99466667,0.8996 C8.00133333,0.966266667 8.00133333,1.03293333 7.99466667,1.0996 C10.3253333,1.57426667 12,3.62226667 12,6.00093333 C12,6.88093333 12.32,10.2009333 13.22,12.0009333 L13.22,12.0009333 Z M7,1.91826667 L6.20266667,2.0796 C4.33866667,2.4596 3,4.09826667 3,6.00093333 C3,6.62893333 2.86533333,8.19826667 2.54133333,9.7436 C2.38133333,10.5102667 2.164,11.3089333 1.87866667,12.0009333 L12.1226667,12.0009333 C11.8346667,11.3089333 11.62,10.5116 11.46,9.7436 C11.1346667,8.19826667 11,6.62893333 11,6.00093333 C10.9986667,4.0996 9.66,2.46093333 7.79733333,2.08093333 L7,1.91826667 Z" id="Fill-3"></path>
                </g>
            </g>
        </g>
        <line x1="0.5" y1="15.5" x2="15.5" y2="0.5" id="Line-23" stroke="currentColor" stroke-linecap="round"></line>
    </g>
</svg>