<?xml version="1.0" encoding="UTF-8"?>
<svg width="16px" height="16px" viewBox="0 0 16 16" version="1.1" xmlns="http://www.w3.org/2000/svg" xmlns:xlink="http://www.w3.org/1999/xlink">
    <title>16x16</title>
    <g id="Page-1" stroke="none" stroke-width="1" fill-rule="evenodd">
        <g id="custom-icons" transform="translate(-58.000000, -955.000000)">
            <g id="file-pdf" transform="translate(29.000000, 909.000000)">
                <g id="16x16" transform="translate(29.000000, 46.000000)">
                    <g id="Group-3" transform="translate(2.000000, 1.000000)">
                        <path d="M2,0 L7,0 L7,1 L2,1 C1.448,1 1,1.44666667 1,2 L1,12 C1,12.552 1.448,13 2,13 L10,13 C10.552,13 11,12.552 11,12 L11,5 L12,5 L12,12 C12,13.104 11.104,14 10,14 L2,14 C0.894666667,14 0,13.104 0,12 L0,2 C0,0.894666667 0.894666667,0 2,0" id="Fill-1"></path>
                        <path d="M7,3.5 L7,0 L12,5 L8.5,5 C7.672,5 7,4.328 7,3.5" id="Fill-4"></path>
                    </g>
                    <path d="M7.63392857,4 L7.71840123,4.00732422 C7.79750279,4.02197266 7.86049107,4.05859375 7.90736607,4.1171875 C8.00111607,4.2265625 8.02455357,4.40364583 7.97767857,4.6484375 C7.9672619,4.6796875 7.95684524,4.70052083 7.94642857,4.7109375 L7.95228795,4.73828125 L7.95228795,4.73828125 L7.95424107,4.7734375 L7.95424107,5.0078125 L7.9481824,5.27375638 C7.93287628,5.78842474 7.8984375,6.19977679 7.84486607,6.5078125 C8.1313244,7.36197917 8.51153274,7.98177083 8.98549107,8.3671875 C9.15736607,8.50260417 9.37611607,8.6484375 9.64174107,8.8046875 C9.94903274,8.76822917 10.2537202,8.75 10.5558036,8.75 C11.3214286,8.75 11.7823661,8.87760417 11.9386161,9.1328125 C12.0219494,9.24739583 12.0271577,9.3828125 11.9542411,9.5390625 L11.9522879,9.546875 L11.9464286,9.5546875 L11.9308036,9.5703125 L11.9308036,9.578125 L11.9118827,9.64770508 C11.8509289,9.79923503 11.67234,9.875 11.3761161,9.875 C11.1261161,9.875 10.8266369,9.82291667 10.4776786,9.71875 C10.1287202,9.61458333 9.79017857,9.4765625 9.46205357,9.3046875 C8.3110119,9.4296875 7.29017857,9.64583333 6.39955357,9.953125 C5.60267857,11.3177083 4.97247024,12 4.50892857,12 C4.45684524,12 4.40707672,11.9918981 4.35962302,11.9756944 L4.29017857,11.9453125 L4.10267857,11.8515625 L4.09399802,11.84375 C4.08589616,11.8368056 4.07316468,11.8263889 4.05580357,11.8125 C4.00372024,11.7604167 3.98809524,11.6666667 4.00892857,11.53125 C4.05580357,11.3229167 4.2016369,11.0846354 4.44642857,10.8164062 C4.69122024,10.5481771 5.03497024,10.296875 5.47767857,10.0625 C5.55059524,10.015625 5.61049107,10.03125 5.65736607,10.109375 C5.66778274,10.1197917 5.67299107,10.1302083 5.67299107,10.140625 C5.9438244,9.69791667 6.22247024,9.18489583 6.50892857,8.6015625 C6.86309524,7.89322917 7.13392857,7.2109375 7.32142857,6.5546875 C7.19642857,6.12760417 7.11700149,5.71223958 7.08314732,5.30859375 C7.04929315,4.90494792 7.06622024,4.57291667 7.13392857,4.3125 C7.18303571,4.13392857 7.27040816,4.03188776 7.39604592,4.00637755 L7.46205357,4 L7.63392857,4 Z M5.55580357,10.34375 C5.29017857,10.5520833 5.06231399,10.7708333 4.87220982,11 C4.68210565,11.2291667 4.5531994,11.421875 4.48549107,11.578125 C4.7563244,11.453125 5.11309524,11.0416667 5.55580357,10.34375 Z M7.62611607,7.3671875 C7.48549107,7.81510417 7.26934524,8.328125 6.97767857,8.90625 C6.82142857,9.19791667 6.70424107,9.4140625 6.62611607,9.5546875 C7.32924107,9.2734375 8.0688244,9.0625 8.84486607,8.921875 C8.8344494,8.91666667 8.80059524,8.89192708 8.74330357,8.84765625 C8.6860119,8.80338542 8.64434524,8.76822917 8.61830357,8.7421875 C8.22247024,8.39322917 7.89174107,7.93489583 7.62611607,7.3671875 Z M10.5792411,9.2421875 C10.9750744,9.38802083 11.2979911,9.4609375 11.5479911,9.4609375 L11.5479911,9.4609375 L11.6122272,9.46006944 L11.6591022,9.45746528 L11.6886161,9.453125 C11.6886161,9.44791667 11.6834077,9.44010417 11.6729911,9.4296875 C11.5479911,9.3046875 11.1834077,9.2421875 10.5792411,9.2421875 Z M7.60267857,4.359375 C7.60267857,4.36458333 7.6000744,4.36979167 7.59486607,4.375 L7.59486607,4.375 L7.59486607,4.390625 L7.56584821,4.49202806 C7.51674107,4.71014031 7.52120536,5.02008929 7.57924107,5.421875 C7.5844494,5.38541667 7.60267857,5.27083333 7.63392857,5.078125 L7.63392857,5.078125 L7.64760045,4.98242187 C7.65671503,4.92643229 7.6703869,4.84635417 7.68861607,4.7421875 C7.6938244,4.72135417 7.70424107,4.70052083 7.71986607,4.6796875 C7.71465774,4.67447917 7.71205357,4.66927083 7.71205357,4.6640625 C7.70684524,4.65364583 7.70424107,4.64583333 7.70424107,4.640625 C7.69903274,4.52604167 7.66517857,4.43229167 7.60267857,4.359375 Z" id="Combined-Shape" fill="currentColor"></path>
                </g>
            </g>
        </g>
    </g>
</svg>