<?xml version="1.0" encoding="UTF-8"?>
<svg width="16px" height="16px" viewBox="0 0 16 16" version="1.1" xmlns="http://www.w3.org/2000/svg" xmlns:xlink="http://www.w3.org/1999/xlink">
    <title>16x16</title>
    <g id="Page-1" stroke="none" stroke-width="1" fill-rule="evenodd">
        <g id="custom-icons" transform="translate(-58.000000, -587.000000)">
            <g id="file-volume" transform="translate(29.000000, 541.000000)">
                <g id="16x16" transform="translate(29.000000, 46.000000)">
                    <g id="Group-3" transform="translate(2.000000, 1.000000)">
                        <path d="M2,0 L7,0 L7,1 L2,1 C1.448,1 1,1.44666667 1,2 L1,12 C1,12.552 1.448,13 2,13 L10,13 C10.552,13 11,12.552 11,12 L11,5 L12,5 L12,12 C12,13.104 11.104,14 10,14 L2,14 C0.894666667,14 0,13.104 0,12 L0,2 C0,0.894666667 0.894666667,0 2,0" id="Fill-1"></path>
                        <path d="M7,3.5 L7,0 L12,5 L8.5,5 C7.672,5 7,4.328 7,3.5" id="Fill-4" fill="currentColor"></path>
                    </g>
                    <path d="M7.75,6.28 L6.484,7.293 C6.417,7.346 6.335,7.375 6.25,7.375 L4.75,7.375 L4.75,9.625 L6.25,9.625 C6.335,9.625 6.417,9.655 6.484,9.707 L7.75,10.72 L7.75,6.28 Z M8.288,5.162 C8.417,5.225 8.5,5.356 8.5,5.5 L8.5,11.5 C8.5,11.707 8.332,11.875 8.125,11.8740044 C8.04,11.8740044 7.958,11.846 7.891,11.792 L6.119,10.375 L4.375,10.375 C4.168,10.375 4,10.207 4,10 L4,7 C4,6.793 4.168,6.625 4.375,6.625 L6.119,6.625 L7.891,5.208 C8.003,5.117 8.158,5.1 8.288,5.162 L8.288,5.162 Z" id="Fill-1"></path>
                    <path d="M9.7803,10.8869 C10.4143,10.2539 10.7693,9.3959 10.7683021,8.4999 C10.7693,7.6049 10.4143,6.7459 9.7803,6.1139 L9.2503,6.6439 C9.7433,7.1359 10.0193,7.8039 10.0183,8.4999 C10.0183,9.2239 9.7243,9.8809 9.2503,10.3569 L9.7803,10.8869 Z" id="Fill-3"></path>
                </g>
            </g>
        </g>
    </g>
</svg>