<svg xmlns="http://www.w3.org/2000/svg" viewBox="0 0 16 16"><g fill="none" fill-rule="evenodd"><circle cx="8" cy="8" r="7.5" stroke="currentColor"/><path fill="currentColor" d="M9 15v-.2-.2l.2-.2c-.1 0-.2-.1-.2-.3l.4-.4c.1-.1.2-.3.1-.5v-.4l-.1-.3h.2l.2-.2h.2V12h.2l.1-.1h.1V12.3l.1-.2H10.8l.2.1.4.2h.2l.1-.1h.1a.8.8 0 01.2.1l.2.2h.1l.1.1v.2h.5v.1h.1a7.2 7.2 0 01-4 2z"/><path fill="currentColor" d="M6.9 1.7v.1l.2.2V2v-.2a10.2 10.2 0 01.3-.1l-.1-.2h-.1-.1L7 1.2l-.1-.1V1h.5c.2.2.2.3 0 .4h.4c0 .1.1.2 0 .2l.3-.1v.1l.1.2h.2l.2-.2s0-.1.1 0v-.2H9v.3l.1.2L9 2h-.1l-.2-.1h-.1l-.2.3v.2h-.6v.2a1.3 1.3 0 01-.2.2l-.2.3V3.4l.2.2v.1H8l.5.4h.3l.2.3.1.3.3.1a1.1 1.1 0 00.1-.1v-.1-.2-.2l.1-.2.2-.1v-.3c-.2 0-.2-.1-.2-.2v-.1s.1-.1 0-.2V3v-.2c.1-.1.2-.1.4 0h.4l.1.1.2.1.1.1V3.4h.2v.2l.2-.1h.2v-.1l.1-.1.1-.1h.1a1.4 1.4 0 010 .2l.2.1v.2l.1.2.1.1.2.1h.2v.1l.1-.1.1.2.2.1v.3h-.2l-.2.1-.1.2-.1.1c-.2-.1-.3-.2-.6-.1l-.6.1-.2.2-.1.2.2-.2.5-.1c.1 0 .2.1 0 .2h-.2.2v.2c.1 0 .1.1 0 .2 0 .1-.1.2-.3.1l-.2.2H11l-.2.2V6.6h-.1-.2l-.2.2V7H10c0 .2-.1.2-.2.2.1.1 0 .2 0 .2h.2v.1l-.1.1c0 .1 0 .3-.2.4l-.1.1a2 2 0 01-.3.1l-.1.3v.2l.1.1v.4a3 3 0 010 .3v.1L9 9l-.1-.3h-.2-.1-.2l-.2-.1-.3-.1v.2c0 .1-.1.1-.2 0H7l.1.1V9H7l-.2.1v1.5l.3.3h.6l.1-.2v-.1c0-.2.2-.2.3-.2h.2v.4l-.1.1v.5l.1-.1h.2c0 .1.1 0 .2 0l.1.2.1.2v.2s.1 0 0 .1v.2a.8.8 0 000 .2c.2.3.3.3.6.2 0 .3 0 .4-.2.4l-.2-.1v-.3l-.1.2-.2-.2a1 1 0 01-.2-.2 6 6 0 01-.3-.4v-.1l-.6-.2-.3-.2-.3-.2H7l-.2.1h-.2l-.2-.2-.2-.1H6l-.1-.2h-.2v-.2l-.1-.3-.1-.3-.2-.2-.2-.2v-.1l-.2-.3a7 7 0 01-.4-.5v-.2l-.2-.1a1.7 1.7 0 00-.1 0v.3l.3.3c.2.3.3.6.2.7v-.1l-.1-.1-.2-.2-.1-.2-.1-.2-.1-.3-.2-.2v-.3L3.6 8a2.2 2.2 0 00-.3-.2v-.1C3 7.5 3 7.3 3 7.3c-.1 0-.2 0-.2-.3l-.1-.4v-.2-.5l.1-.1-.1-.2v-.2l.2.2.1-.3-.2-.2a4 4 0 00-.5-.3v-.2h-.2v-.1-.1L2 4.3c.7-1.1 1.5-2 2.6-2.6H5l.2.2.1.1v-.2l.2-.1h.3c0-.1 0-.2-.2-.3l-.5.1a3.7 3.7 0 00-.3.2l1-.5.2.2v.3H6.8z"/></g></svg>