<svg width="20" height="20" viewBox="0 0 20 20" fill="none" xmlns="http://www.w3.org/2000/svg">
  <circle cx="10" cy="10" r="10" fill="#262626"/>
  <g clip-path="url(#clip0)">
    <path fill-rule="evenodd" clip-rule="evenodd" d="M13.6439 4.10265C13.5735 4.03235 13.4782 3.99286 13.3787 3.99286C13.2793 3.99286 13.1839 4.03235 13.1136 4.10265L11.8784 5.3379L14.6586 8.11815L15.8939 6.88365C15.9288 6.84882 15.9565 6.80744 15.9754 6.76188C15.9943 6.71632 16.004 6.66748 16.004 6.61815C16.004 6.56883 15.9943 6.51999 15.9754 6.47443C15.9565 6.42887 15.9288 6.38749 15.8939 6.35265L13.6439 4.10265ZM14.1284 8.6484L11.3481 5.86815L6.47311 10.7432H6.62836C6.72781 10.7432 6.8232 10.7827 6.89352 10.853C6.96385 10.9233 7.00336 11.0187 7.00336 11.1182V11.4932H7.37836C7.47781 11.4932 7.5732 11.5327 7.64352 11.603C7.71385 11.6733 7.75336 11.7687 7.75336 11.8682V12.2432H8.12836C8.22781 12.2432 8.3232 12.2827 8.39352 12.353C8.46385 12.4233 8.50336 12.5187 8.50336 12.6182V12.9932H8.87836C8.97781 12.9932 9.0732 13.0327 9.14352 13.103C9.21385 13.1733 9.25336 13.2687 9.25336 13.3682V13.5234L14.1284 8.6484ZM8.52736 14.2494C8.51158 14.2074 8.50345 14.163 8.50336 14.1182V13.7432H8.12836C8.0289 13.7432 7.93352 13.7036 7.86319 13.6333C7.79287 13.563 7.75336 13.4676 7.75336 13.3682V12.9932H7.37836C7.2789 12.9932 7.18352 12.9536 7.11319 12.8833C7.04287 12.813 7.00336 12.7176 7.00336 12.6182V12.2432H6.62836C6.5289 12.2432 6.43352 12.2036 6.36319 12.1333C6.29287 12.063 6.25336 11.9676 6.25336 11.8682V11.4932H5.87836C5.83352 11.4931 5.78907 11.485 5.74711 11.4692L5.61286 11.6027C5.57712 11.6386 5.54905 11.6815 5.53036 11.7287L5.03036 14.4787C5.00308 14.5468 4.9964 14.6215 5.01115 14.6934C5.0259 14.7653 5.06143 14.8313 5.11334 14.8832C5.16524 14.9351 5.23124 14.9706 5.30315 14.9854C5.37505 15.0001 5.44971 14.9934 5.51786 14.9662L8.26786 14.4662C8.315 14.4475 8.35787 14.4194 8.39386 14.3837L8.52736 14.2494Z" fill="white"/>
    <rect x="7.77924" y="10.5917" width="4.8627" height="0.2" transform="rotate(-45 7.77924 10.5917)" fill="#262626"/>
  </g>
  <defs>
    <clipPath id="clip0">
      <rect width="12" height="12" fill="white" transform="translate(4 4)"/>
    </clipPath>
  </defs>
</svg>