<?xml version="1.0" encoding="UTF-8"?>
<svg width="16px" height="16px" viewBox="0 0 16 16" version="1.1" xmlns="http://www.w3.org/2000/svg" xmlns:xlink="http://www.w3.org/1999/xlink">
    <title>spinner</title>
    <defs>
        <polygon id="path-1" points="0.270636364 0.319227273 3.90681818 0.319227273 3.90681818 3.95559091 0.270636364 3.95559091"></polygon>
        <polygon id="path-3" points="0.133772727 0.411045455 2.90468182 0.411045455 2.90468182 3.18181818 0.133772727 3.18181818"></polygon>
    </defs>
    <g id="spinner" stroke="none" stroke-width="1" fill="none" fill-rule="evenodd">
        <g id="Group-23" transform="translate(8.000000, 8.272727) scale(-1, 1) translate(-8.000000, -8.272727) translate(0.500000, 1.000000)">
            <g id="Group-3" transform="translate(10.909091, 4.583591)">
                <path d="M3.907,2.13740909 C3.907,3.1415 3.09290909,3.95559091 2.08881818,3.95559091 C1.08472727,3.95559091 0.270636364,3.1415 0.270636364,2.13740909 C0.270636364,1.13331818 1.08472727,0.319227273 2.08881818,0.319227273 C3.09290909,0.319227273 3.907,1.13331818 3.907,2.13740909" id="Fill-1" fill="currentColor"></path>
            </g>
            <path d="M13.8493182,9.76122727 C13.8493182,10.6857727 13.0997727,11.4353182 12.1752273,11.4353182 C11.2511364,11.4353182 10.5015909,10.6857727 10.5015909,9.76122727 C10.5015909,8.83668182 11.2511364,8.08713636 12.1752273,8.08713636 C13.0997727,8.08713636 13.8493182,8.83668182 13.8493182,9.76122727" id="Fill-4" fill="currentColor"></path>
            <path d="M11.5439545,11.9218636 C11.5439545,12.7664091 10.8589545,13.4514091 10.0144091,13.4514091 C9.16940909,13.4514091 8.48486364,12.7664091 8.48486364,11.9218636 C8.48486364,11.0773182 9.16940909,10.3923182 10.0144091,10.3923182 C10.8589545,10.3923182 11.5439545,11.0773182 11.5439545,11.9218636" id="Fill-6" fill="currentColor"></path>
            <g id="Group-10" transform="translate(5.454545, 10.947227)">
                <path d="M2.90468182,1.7965 C2.90468182,2.5615 2.28422727,3.18195455 1.51922727,3.18195455 C0.754227273,3.18195455 0.133772727,2.5615 0.133772727,1.7965 C0.133772727,1.0315 0.754227273,0.411045455 1.51922727,0.411045455 C2.28422727,0.411045455 2.90468182,1.0315 2.90468182,1.7965" id="Fill-8" fill="currentColor"></path>
            </g>
            <path d="M5.175,11.9205455 C5.175,12.606 4.61954545,13.1614545 3.93409091,13.1614545 C3.24863636,13.1614545 2.69318182,12.606 2.69318182,11.9205455 C2.69318182,11.2350909 3.24863636,10.6796364 3.93409091,10.6796364 C4.61954545,10.6796364 5.175,11.2350909 5.175,11.9205455" id="Fill-11" fill="currentColor"></path>
            <path d="M2.8705,9.759 C2.8705,10.3649091 2.37913636,10.8558182 1.77368182,10.8558182 C1.16777273,10.8558182 0.676863636,10.3649091 0.676863636,9.759 C0.676863636,9.15309091 1.16777273,8.66218182 1.77368182,8.66218182 C2.37913636,8.66218182 2.8705,9.15309091 2.8705,9.759" id="Fill-13" fill="currentColor"></path>
            <path d="M1.90481818,6.71831818 C1.90481818,7.24422727 1.47845455,7.67059091 0.952545455,7.67059091 C0.426636364,7.67059091 0.000272727273,7.24422727 0.000272727273,6.71831818 C0.000272727273,6.19240909 0.426636364,5.76604545 0.952545455,5.76604545 C1.47845455,5.76604545 1.90481818,6.19240909 1.90481818,6.71831818" id="Fill-15" fill="currentColor"></path>
            <path d="M2.53736364,3.6335 C2.53736364,4.07986364 2.17554545,4.44168182 1.72918182,4.44168182 C1.28281818,4.44168182 0.921,4.07986364 0.921,3.6335 C0.921,3.18713636 1.28281818,2.82531818 1.72918182,2.82531818 C2.17554545,2.82531818 2.53736364,3.18713636 2.53736364,3.6335" id="Fill-17" fill="currentColor"></path>
            <path d="M4.46763636,1.38786364 C4.46763636,1.75468182 4.17036364,2.0515 3.804,2.0515 C3.43718182,2.0515 3.13990909,1.75468182 3.13990909,1.38786364 C3.13990909,1.02104545 3.43718182,0.723772727 3.804,0.723772727 C4.17036364,0.723772727 4.46763636,1.02104545 4.46763636,1.38786364" id="Fill-19" fill="currentColor"></path>
            <path d="M7.31609091,0.519590909 C7.31609091,0.806409091 7.08336364,1.03913636 6.79654545,1.03913636 C6.50972727,1.03913636 6.277,0.806409091 6.277,0.519590909 C6.277,0.232772727 6.50972727,4.54545455e-05 6.79654545,4.54545455e-05 C7.08336364,4.54545455e-05 7.31609091,0.232772727 7.31609091,0.519590909" id="Fill-21" fill="currentColor"></path>
        </g>
    </g>
</svg>