<svg width="86" height="60" viewBox="0 0 86 60" xmlns="http://www.w3.org/2000/svg"><path fill="#fff" d="M30.433 25.944c-1.13 2.427-.798 8.912-.798 8.912h.57c0-1.16-.416-5.66 3.002-5.928.803-.062 7.183-.274 8.9-7.845-5.153-2.01-9.67.557-11.674 4.86zm-2.11 2.214c-1.18-5.648-6.127-9.24-12.255-7.075 1.106 6.864 8.008 8.845 12.255 7.075zm.87-5.062c4.84-3.805 3.697-11.005 0-13.52-4.042 2.515-4.623 9.715 0 13.52zM12.97 46.76c1.94 0 2.177-2.15 2.177-3.16 0-1-.23-3.137-2.178-3.137-1.95 0-2.157 2.13-2.157 3.138 0 1.017.216 3.16 2.156 3.16zm0-9.098c3.62 0 5.902 2.185 5.908 5.94.003 1.808-.705 5.95-5.91 5.95-5.202 0-5.887-4.083-5.887-5.95 0-3.696 2.268-5.94 5.89-5.94zM.07 38.06h1.493v-3.148h3.64v3.148h1.86v2.2h-1.86v4.813c0 1.865.6 1.875 1.818 1.8v2.32c-.375.075-3.677.788-4.763-.69-.46-.627-.695-1.93-.695-3.94v-4.305H.072V38.06zm18.546 0h1.493v-3.148h3.64v3.148h1.86v2.2h-1.86v4.813c0 1.19.06 2.005 1.82 1.8v2.32c-1.904.39-3.888.37-4.764-.69-.476-.575-.695-1.93-.695-3.94v-4.305h-1.49V38.06h-.002zm10.787 7.013c-.567.59-.308 2.086 1.068 2.086 1.172 0 2.106-.72 2.106-1.944v-1.278c-.846.526-2.548.48-3.175 1.135zm3.47 4.1a24.55 24.55 0 0 1-.194-1.146c-.51.512-1.594 1.503-3.525 1.503-2.89 0-3.476-2.107-3.476-3.27 0-1.144.404-2.875 2.943-3.456 2.514-.575 3.956-.555 3.956-1.3v-.264c0-.713-.68-1.038-1.538-.99-.858.05-1.61.394-1.703 1.256h-3.354c.177-1.254.875-3.72 5.234-3.72 2.68 0 4.366 1.038 4.65 2.683.165.943.165 1.25.165 2.314v4.212c0 .504 0 1.434.552 1.758v.42h-3.71v-.002zM37.42 38.06h3.496v1.943c.894-1.942 2.767-2.205 3.66-2.218v3.598c-.157-.02-2.335-.42-3.16.96-.135.233-.377.54-.377 3.098v3.732h-3.62v-11.11zm10.943 7.013c-.567.59-.308 2.086 1.068 2.086 1.173 0 2.107-.72 2.107-1.944v-1.278c-.845.526-2.547.48-3.174 1.135zm3.47 4.1a24.55 24.55 0 0 1-.194-1.146c-.512.512-1.596 1.503-3.528 1.503-2.89 0-3.475-2.107-3.475-3.27 0-1.144.405-2.875 2.944-3.456 2.515-.575 3.957-.555 3.957-1.3v-.264c0-.713-.68-1.038-1.537-.99-.858.05-1.612.394-1.704 1.256h-3.353c.177-1.254.875-3.72 5.234-3.72 2.68 0 4.366 1.038 4.65 2.683.165.943.165 1.25.165 2.314v4.212c0 .504 0 1.434.552 1.758v.42h-3.71v-.002zM58.905 34.135v15.058h-1.247V34.135h1.247zm1.91 4.192h1.174v1.8c.366-.67 1.352-2.077 3.45-2.077 2.238 0 2.914 1.456 3.09 2.137.363-.695 1.354-2.136 3.497-2.137 1.18 0 3.517.276 3.517 3.568v7.575h-1.278V41.72c0-2.427-1.267-2.574-2.28-2.555-1.12.02-3.18.593-3.18 3.22v6.808H67.55v-7.35c0-.9-.09-2.658-2.285-2.658-1.353 0-3.194.742-3.194 3.292v6.716h-1.256V38.326zm17.23 7.482c.034.75.466 2.524 2.913 2.524 2.524 0 2.924-1.38 2.924-1.993 0-2.106-4.57-1.893-6.067-3.26-1.45-1.323-.68-3.46.245-4.155.712-.535 1.593-.874 2.704-.874 1.22 0 2.19.306 2.913.916.723.61 1.12 1.456 1.196 2.54h-1.278c-.054-.736-.495-2.34-2.852-2.34-2.104 0-2.442 1.3-2.442 1.86 0 .967.987 1.693 2.965 2.146 1.553.355 2.697.796 3.17 1.278 1.412 1.444.572 3.545-.415 4.17-2.54 1.61-5.212.663-6.037-.133-.824-.795-1.162-1.56-1.196-2.678h1.258z"/></svg>
