<svg width="48" height="25" viewBox="0 0 48 25" xmlns="http://www.w3.org/2000/svg"><title>Totara LMS logo</title><path fill="#fff" d="M17.073 10.505c-.634 1.362-.448 5-.448 5h.32c0-.65-.234-3.175 1.684-3.326.45-.035 4.028-.154 4.992-4.402-2.89-1.127-5.425.313-6.55 2.727zm-1.184 1.242c-.663-3.168-3.438-5.183-6.876-3.97.62 3.852 4.492 4.963 6.875 3.97zm.487-2.84c2.715-2.134 2.074-6.173 0-7.584-2.268 1.41-2.594 5.45 0 7.585zm-9.1 13.276c1.087 0 1.22-1.206 1.22-1.773 0-.56-.13-1.76-1.222-1.76-1.093 0-1.21 1.195-1.21 1.76 0 .57.122 1.773 1.21 1.773zm0-5.104c2.03 0 3.31 1.225 3.313 3.33.002 1.016-.395 3.34-3.315 3.34-2.918 0-3.303-2.29-3.303-3.34 0-2.072 1.273-3.33 3.305-3.33zM.038 17.3h.837v-1.766H2.92v1.766H3.96v1.234H2.92v2.7c0 1.047.335 1.052 1.02 1.01v1.302c-.212.042-2.064.442-2.673-.387-.258-.35-.39-1.082-.39-2.21v-2.415H.04v-1.233zm10.403 0h.838v-1.766h2.043v1.766h1.043v1.234h-1.043v2.7c0 .668.034 1.125 1.02 1.01v1.302c-1.067.22-2.18.207-2.672-.387-.266-.322-.39-1.082-.39-2.21v-2.415h-.834v-1.233h-.002zm6.052 3.935c-.318.33-.173 1.17.6 1.17.656 0 1.18-.404 1.18-1.09v-.718c-.474.294-1.43.268-1.78.636zm1.946 2.3c-.04-.214-.076-.428-.107-.643-.287.287-.895.843-1.978.843-1.62 0-1.95-1.182-1.95-1.835 0-.64.227-1.612 1.65-1.938 1.41-.323 2.22-.312 2.22-.73v-.148c0-.4-.38-.582-.863-.555-.48.03-.903.222-.955.705h-1.88c.098-.703.49-2.086 2.935-2.086 1.503 0 2.45.58 2.608 1.504.093.53.093.7.093 1.298v2.363c0 .282 0 .804.31.986v.237H18.44v-.002.002zm2.552-6.235h1.96v1.09c.503-1.09 1.554-1.237 2.055-1.244v2.018c-.088-.01-1.31-.235-1.773.54-.076.13-.212.302-.212 1.737v2.094h-2.03V17.302zm6.14 3.935c-.32.33-.174 1.17.598 1.17.658 0 1.182-.404 1.182-1.09v-.718c-.474.294-1.43.268-1.78.636zm1.946 2.3c-.042-.214-.078-.428-.11-.643-.286.287-.895.843-1.978.843-1.622 0-1.95-1.182-1.95-1.835 0-.64.227-1.612 1.652-1.938 1.41-.323 2.22-.312 2.22-.73v-.148c0-.4-.382-.582-.863-.555-.482.03-.905.222-.957.705h-1.88c.1-.703.49-2.086 2.936-2.086 1.502 0 2.448.58 2.607 1.504.093.53.093.7.093 1.298v2.363c0 .282 0 .804.31.986v.237h-2.082v-.002.002zm3.967-8.437v8.448h-.7V15.1h.7zm1.07 2.352h.66v1.01c.205-.376.76-1.165 1.935-1.165 1.256 0 1.635.816 1.734 1.2.204-.39.76-1.2 1.962-1.2.662 0 1.973.155 1.973 2v4.25h-.718v-4.19c0-1.363-.71-1.445-1.28-1.435-.628.01-1.783.333-1.783 1.807v3.818h-.705v-4.123c0-.505-.05-1.492-1.282-1.492-.76 0-1.792.417-1.792 1.847v3.768h-.704v-6.096zm9.667 4.197c.02.42.262 1.415 1.634 1.415 1.416 0 1.64-.774 1.64-1.118 0-1.18-2.563-1.062-3.403-1.83-.813-.74-.38-1.94.138-2.33.4-.3.894-.49 1.518-.49.684 0 1.228.172 1.634.514.405.343.628.818.67 1.426h-.716c-.03-.413-.278-1.313-1.6-1.313-1.18 0-1.37.73-1.37 1.044 0 .542.554.95 1.663 1.204.87.2 1.512.447 1.778.718.792.81.32 1.988-.233 2.34-1.425.902-2.924.37-3.387-.076-.462-.446-.652-.875-.67-1.502h.705z"/></svg>
