<?xml version="1.0" encoding="utf-8"?>
<!-- Generator: Adobe Illustrator 24.1.2, SVG Export Plug-In . SVG Version: 6.00 Build 0)  -->
<svg version="1.1" id="Layer_1" xmlns="http://www.w3.org/2000/svg" xmlns:xlink="http://www.w3.org/1999/xlink" x="0px" y="0px"
	 viewBox="0 0 150 150" style="enable-background:new 0 0 150 150;" xml:space="preserve">
<style type="text/css">
	.st0{fill:#DCE44B;}
	.st1{clip-path:url(#SVGID_2_);}
	.st2{clip-path:url(#SVGID_4_);}
	.st3{fill:#FFFFFF;stroke:#FFFFFF;}
	.st4{fill:none;stroke:#FFFFFF;stroke-width:2;}
	.st5{fill:#FFED52;}
	.st6{fill:none;stroke:#FFFFFF;stroke-width:2;stroke-miterlimit:10;}
	.st7{fill:#262626;}
</style>
<rect class="st0" width="150" height="150"/>
<g>
	<defs>
		<rect id="SVGID_1_" width="150" height="150"/>
	</defs>
	<clipPath id="SVGID_2_">
		<use xlink:href="#SVGID_1_"  style="overflow:visible;"/>
	</clipPath>
	<g class="st1">
		<g>
			<defs>
				<rect id="SVGID_3_" x="-67.5" y="-1" width="285" height="152"/>
			</defs>
			<clipPath id="SVGID_4_">
				<use xlink:href="#SVGID_3_"  style="overflow:visible;"/>
			</clipPath>
			<g class="st2">
				<g id="Group_957">
					<g id="Group_953">
						<path id="Path_937" class="st3" d="M29.4,51.6c-5.2,0-9.4-4.2-9.4-9.4s4.2-9.4,9.4-9.4s9.4,4.2,9.4,9.4c0,2.7-1.2,5.3-3.2,7.1
							C33.9,50.8,31.7,51.6,29.4,51.6z M29.4,34.1c-4.5,0-8.1,3.6-8.1,8.1s3.6,8.1,8.1,8.1s8.1-3.6,8.1-8.1c0-2-0.7-3.9-2-5.3
							C34,35.1,31.7,34.1,29.4,34.1L29.4,34.1z"/>
					</g>
					<g id="Group_954">
						<path id="Path_938" class="st3" d="M4.9,73.2H4.2c-5.2-0.4-9.1-4.9-8.8-10.1c0.2-2.5,1.3-4.8,3.2-6.4l0.9,1
							c-3.4,2.9-3.7,8-0.8,11.4c2.9,3.4,8,3.7,11.4,0.8l0.9,1C9.4,72.3,7.2,73.2,4.9,73.2z"/>
					</g>
					<g id="Group_955">
						<path id="Path_939" class="st3" d="M-0.4,57.7l-0.9-1l24.6-21.6l0.9,1L-0.4,57.7z"/>
					</g>
					<g id="Group_956">
						<path id="Path_940" class="st3" d="M11.1,70.8l-0.9-1l24.6-21.6l0.9,1L11.1,70.8z"/>
					</g>
				</g>
				<line id="Line_141" class="st4" x1="-1" y1="69.2" x2="65" y2="135.2"/>
				<line id="Line_142" class="st4" x1="39" y1="108.2" x2="-7" y2="154.2"/>
				<rect id="Rectangle_256" x="69.5" y="33.8" class="st5" width="49" height="30"/>
				<g id="Group_952">
					<rect id="Rectangle_254" x="65.9" y="-3.2" class="st6" width="116" height="139"/>
					<rect id="Rectangle_255" x="75.1" y="31.4" class="st6" width="48.8" height="27.9"/>
					<line id="Line_126" class="st6" x1="75.1" y1="16.5" x2="172.2" y2="16.5"/>
					<line id="Line_127" class="st6" x1="132.3" y1="31.4" x2="172.2" y2="31.4"/>
					<line id="Line_128" class="st6" x1="132.3" y1="45.4" x2="172.2" y2="45.4"/>
					<line id="Line_129" class="st6" x1="132.3" y1="59.3" x2="172.2" y2="59.3"/>
					<line id="Line_131" class="st6" x1="75.1" y1="87.2" x2="172.2" y2="87.2"/>
					<line id="Line_132" class="st6" x1="75.1" y1="101.1" x2="172.2" y2="101.1"/>
				</g>
				<g id="Group_958">
					<path id="Path_941" class="st7" d="M14.9,1.5c-0.4,0.4-1,0.4-1.4,0s-0.4-1,0-1.4s1-0.4,1.4,0C15.3,0.4,15.3,1.1,14.9,1.5
						L14.9,1.5z"/>
					<path id="Path_942" class="st7" d="M20.8,7.5c-0.4,0.4-1,0.4-1.4,0s-0.4-1,0-1.4s1-0.4,1.4,0C21.2,6.4,21.2,7,20.8,7.5
						C20.8,7.4,20.8,7.4,20.8,7.5z"/>
					<path id="Path_943" class="st7" d="M26.8,13.4c-0.4,0.4-1,0.4-1.4,0s-0.4-1,0-1.4s1-0.4,1.4,0C27.2,12.4,27.2,13,26.8,13.4
						L26.8,13.4z"/>
					<path id="Path_944" class="st7" d="M32.8,19.4c-0.4,0.4-1,0.4-1.4,0s-0.4-1,0-1.4s1-0.4,1.4,0l0,0C33.2,18.4,33.2,19,32.8,19.4
						L32.8,19.4z"/>
					<path id="Path_945" class="st7" d="M38.7,25.4c-0.4,0.4-1,0.4-1.4,0l0,0c-0.4-0.4-0.4-1,0-1.4l0,0c0.4-0.4,1-0.4,1.4,0
						S39.1,25,38.7,25.4z"/>
					<path id="Path_946" class="st7" d="M44.7,31.3c-0.4,0.4-1,0.4-1.4,0c-0.4-0.4-0.4-1,0-1.4s1-0.4,1.4,0S45.1,30.9,44.7,31.3
						L44.7,31.3z"/>
					<path id="Path_947" class="st7" d="M50.7,37.3c-0.4,0.4-1,0.4-1.4,0l0,0c-0.4-0.4-0.4-1,0-1.4s1-0.4,1.4,0S51.1,37,50.7,37.3z"
						/>
					<path id="Path_948" class="st7" d="M8.9,7.5C8.5,7.9,7.9,8,7.5,7.6S7,6.6,7.4,6.2c0-0.1,0.1-0.1,0.2-0.2C8,5.6,8.6,5.6,9,6
						C9.3,6.4,9.3,7.1,8.9,7.5L8.9,7.5z"/>
					<path id="Path_949" class="st7" d="M14.9,13.4c-0.4,0.4-1,0.4-1.4,0s-0.4-1,0-1.4s1-0.4,1.4,0S15.3,13,14.9,13.4L14.9,13.4z"/>
					<path id="Path_950" class="st7" d="M20.8,19.4c-0.4,0.4-1,0.4-1.4,0l0,0c-0.4-0.4-0.4-1,0-1.4s1-0.4,1.4,0
						C21.2,18.3,21.2,19,20.8,19.4z"/>
					<path id="Path_951" class="st7" d="M26.8,25.4c-0.4,0.4-1,0.4-1.4,0s-0.4-1,0-1.4s1-0.4,1.4,0C27.2,24.3,27.2,24.9,26.8,25.4
						C26.8,25.3,26.8,25.3,26.8,25.4z"/>
					<path id="Path_952" class="st7" d="M32.8,31.3c-0.4,0.4-1,0.4-1.4,0c-0.4-0.4-0.4-1,0-1.4s1-0.4,1.4,0
						C33.2,30.3,33.2,30.9,32.8,31.3L32.8,31.3z"/>
					<path id="Path_953" class="st7" d="M38.7,37.3c-0.4,0.4-1,0.4-1.4,0s-0.4-1,0-1.4s1-0.4,1.4,0S39.1,37,38.7,37.3z"/>
					<path id="Path_954" class="st7" d="M44.7,43.3c-0.4,0.4-1,0.4-1.4,0l0,0c-0.4-0.4-0.4-1,0-1.4l0,0c0.4-0.4,1-0.4,1.4,0
						C45.1,42.2,45.1,42.9,44.7,43.3L44.7,43.3z"/>
					<path id="Path_955" class="st7" d="M2.9,13.4c-0.4,0.4-1,0.4-1.4,0s-0.4-1,0-1.4s1-0.4,1.4,0l0,0C3.3,12.4,3.3,13,2.9,13.4
						L2.9,13.4z"/>
					<path id="Path_956" class="st7" d="M8.9,19.4C8.6,19.9,8,20,7.5,19.7c-0.5-0.3-0.6-0.9-0.3-1.4c0.1-0.1,0.2-0.2,0.3-0.3
						c0.5-0.3,1.1-0.2,1.4,0.3C9.1,18.6,9.1,19,8.9,19.4z"/>
					<path id="Path_957" class="st7" d="M14.9,25.4c-0.4,0.4-1,0.4-1.4,0s-0.4-1,0-1.4l0,0c0.4-0.4,1-0.4,1.4,0
						C15.2,24.3,15.3,25,14.9,25.4z"/>
					<path id="Path_958" class="st7" d="M20.8,31.3c-0.4,0.4-1,0.4-1.4,0c-0.4-0.4-0.4-1,0-1.4s1-0.4,1.4,0l0,0
						C21.2,30.3,21.2,30.9,20.8,31.3L20.8,31.3z"/>
					<path id="Path_959" class="st7" d="M26.8,37.3c-0.4,0.4-1,0.4-1.4,0s-0.4-1,0-1.4s1-0.4,1.4,0l0,0
						C27.2,36.3,27.2,36.9,26.8,37.3L26.8,37.3z"/>
					<path id="Path_960" class="st7" d="M32.8,43.3c-0.4,0.4-1,0.4-1.4,0s-0.4-1,0-1.4s1-0.4,1.4,0l0,0
						C33.2,42.2,33.2,42.9,32.8,43.3L32.8,43.3L32.8,43.3z"/>
					<path id="Path_961" class="st7" d="M38.7,49.2c-0.4,0.4-1,0.4-1.4,0s-0.4-1,0-1.4s1-0.4,1.4,0l0,0l0,0
						C39.1,48.2,39.1,48.9,38.7,49.2L38.7,49.2L38.7,49.2z"/>
					<path id="Path_962" class="st7" d="M-3.1,19.4c-0.4,0.4-1,0.4-1.4,0s-0.4-1,0-1.4s1-0.4,1.4,0l0,0C-2.7,18.3-2.7,19-3.1,19.4
						C-3.1,19.3-3.1,19.3-3.1,19.4z"/>
					<path id="Path_963" class="st7" d="M2.9,25.4c-0.4,0.4-1,0.4-1.4,0s-0.4-1,0-1.4s1-0.4,1.4,0C3.3,24.3,3.3,24.9,2.9,25.4
						C2.9,25.3,2.9,25.3,2.9,25.4z"/>
					<path id="Path_964" class="st7" d="M8.9,31.3c-0.4,0.4-1.1,0.3-1.4-0.1c-0.3-0.4-0.3-0.9,0-1.3c0.4-0.4,1-0.4,1.4,0l0,0
						C9.3,30.3,9.3,30.9,8.9,31.3L8.9,31.3z"/>
					<path id="Path_965" class="st7" d="M14.9,37.3c-0.4,0.4-1,0.4-1.4,0l0,0c-0.4-0.4-0.4-1,0-1.4l0,0c0.4-0.4,1-0.4,1.4,0l0,0l0,0
						C15.3,36.3,15.3,37,14.9,37.3L14.9,37.3z"/>
					<path id="Path_966" class="st7" d="M20.8,43.3c-0.4,0.4-1,0.4-1.4,0s-0.4-1,0-1.4s1-0.4,1.4,0l0,0
						C21.2,42.2,21.2,42.9,20.8,43.3L20.8,43.3z"/>
					<path id="Path_967" class="st7" d="M26.8,49.3c-0.4,0.4-1,0.4-1.4,0s-0.4-1,0-1.4s1-0.4,1.4,0l0,0l0,0
						C27.2,48.2,27.2,48.8,26.8,49.3C26.8,49.2,26.8,49.3,26.8,49.3z"/>
					<path id="Path_968" class="st7" d="M32.8,55.2c-0.4,0.4-1,0.4-1.4,0s-0.4-1,0-1.4s1-0.4,1.4,0l0,0l0,0
						C33.2,54.2,33.2,54.8,32.8,55.2L32.8,55.2z"/>
					<path id="Path_969" class="st7" d="M-9,25.4c-0.4,0.4-1,0.4-1.4,0s-0.4-1,0-1.4s1-0.4,1.4,0l0,0C-8.6,24.3-8.6,24.9-9,25.4
						C-9,25.3-9,25.3-9,25.4z"/>
					<path id="Path_970" class="st7" d="M-3.1,31.3c-0.4,0.4-1,0.4-1.4,0c-0.4-0.4-0.4-1,0-1.4s1-0.4,1.4,0S-2.7,30.9-3.1,31.3
						C-3,31.3-3.1,31.3-3.1,31.3z"/>
					<path id="Path_971" class="st7" d="M2.9,37.3c-0.4,0.4-1,0.4-1.4,0s-0.4-1,0-1.4s1-0.4,1.4,0S3.3,36.9,2.9,37.3L2.9,37.3z"/>
					<path id="Path_972" class="st7" d="M8.9,43.3c-0.4,0.4-1,0.4-1.4,0s-0.4-1,0-1.4s1-0.4,1.4,0l0,0C9.3,42.2,9.3,42.9,8.9,43.3
						L8.9,43.3z"/>
					<path id="Path_973" class="st7" d="M14.9,49.3c-0.4,0.4-1,0.4-1.4,0l0,0c-0.4-0.4-0.4-1,0-1.4s1-0.4,1.4,0l0,0
						C15.3,48.2,15.3,48.8,14.9,49.3C14.9,49.2,14.9,49.3,14.9,49.3z"/>
					<path id="Path_974" class="st7" d="M20.8,55.2c-0.4,0.4-1,0.4-1.4,0s-0.4-1,0-1.4s1-0.4,1.4,0l0,0
						C21.2,54.2,21.2,54.8,20.8,55.2L20.8,55.2z"/>
					<path id="Path_975" class="st7" d="M26.8,61.2c-0.4,0.4-1,0.4-1.4,0s-0.4-1,0-1.4s1-0.4,1.4,0l0,0
						C27.2,60.2,27.2,60.8,26.8,61.2L26.8,61.2z"/>
					<path id="Path_976" class="st7" d="M-15,31.3c-0.4,0.4-1,0.4-1.4,0c-0.4-0.4-0.4-1,0-1.4s1-0.4,1.4,0S-14.6,30.9-15,31.3
						L-15,31.3z"/>
					<circle id="Ellipse_117" class="st7" cx="-9.7" cy="36.6" r="1"/>
					<circle id="Ellipse_118" class="st7" cx="-3.8" cy="42.6" r="1"/>
					<circle id="Ellipse_119" class="st7" cx="2.2" cy="48.5" r="1"/>
					<path id="Path_977" class="st7" d="M8.9,55.2c-0.4,0.4-1.1,0.3-1.4-0.1c-0.3-0.4-0.3-0.9,0-1.3c0.4-0.4,1-0.4,1.4,0l0,0
						C9.3,54.2,9.3,54.8,8.9,55.2L8.9,55.2L8.9,55.2z"/>
					<path id="Path_978" class="st7" d="M14.9,61.2c-0.4,0.4-1,0.4-1.4,0s-0.4-1,0-1.4s1-0.4,1.4,0S15.3,60.8,14.9,61.2L14.9,61.2z"
						/>
					<path id="Path_979" class="st7" d="M20.8,67.2c-0.4,0.4-1,0.4-1.4,0s-0.4-1,0-1.4s1-0.4,1.4,0C21.2,66.1,21.2,66.8,20.8,67.2
						L20.8,67.2z"/>
					<path id="Path_980" class="st7" d="M-21,37.3c-0.4,0.4-1,0.4-1.4,0s-0.4-1,0-1.4s1-0.4,1.4,0S-20.6,36.9-21,37.3L-21,37.3z"/>
					<path id="Path_981" class="st7" d="M-15,43.3c-0.4,0.4-1,0.4-1.4,0l0,0c-0.4-0.4-0.4-1,0-1.4s1-0.4,1.4,0S-14.6,42.9-15,43.3z"
						/>
					<path id="Path_982" class="st7" d="M-9,49.2c-0.4,0.4-1,0.4-1.4,0l0,0c-0.4-0.4-0.4-1,0-1.4s1-0.4,1.4,0
						C-8.7,48.2-8.7,48.9-9,49.2z"/>
					<path id="Path_983" class="st7" d="M-3.1,55.2c-0.4,0.4-1,0.4-1.4,0s-0.4-1,0-1.4s1-0.4,1.4,0S-2.7,54.8-3.1,55.2
						C-3,55.2-3.1,55.2-3.1,55.2z"/>
					<path id="Path_984" class="st7" d="M2.9,61.2c-0.4,0.4-1,0.4-1.4,0s-0.4-1,0-1.4s1-0.4,1.4,0S3.3,60.8,2.9,61.2L2.9,61.2z"/>
					<path id="Path_985" class="st7" d="M8.9,67.2c-0.4,0.3-1.1,0.3-1.4-0.2c-0.3-0.4-0.3-0.9,0-1.3c0.4-0.4,1-0.4,1.4,0
						S9.3,66.8,8.9,67.2L8.9,67.2z"/>
					<path id="Path_986" class="st7" d="M14.9,73.1c-0.4,0.4-1,0.4-1.4,0l0,0c-0.4-0.4-0.4-1,0-1.4l0,0c0.4-0.4,1-0.4,1.4,0
						C15.2,72.1,15.3,72.7,14.9,73.1z"/>
					<path id="Path_987" class="st7" d="M56.7,43.3c-0.4,0.4-1,0.4-1.4,0s-0.4-1,0-1.4s1-0.4,1.4,0C57.1,42.2,57.1,42.9,56.7,43.3
						L56.7,43.3z"/>
					<path id="Path_988" class="st7" d="M62.6,49.3c-0.4,0.4-1,0.4-1.4,0s-0.4-1,0-1.4s1-0.4,1.4,0l0,0C63,48.2,63,48.8,62.6,49.3
						C62.6,49.2,62.6,49.3,62.6,49.3z"/>
					<path id="Path_989" class="st7" d="M68.6,55.2c-0.4,0.4-1,0.4-1.4,0s-0.4-1,0-1.4s1-0.4,1.4,0S69,54.8,68.6,55.2L68.6,55.2z"/>
					<path id="Path_990" class="st7" d="M74.6,61.2c-0.4,0.4-1,0.4-1.4,0s-0.4-1,0-1.4s1-0.4,1.4,0S75,60.8,74.6,61.2z"/>
					<path id="Path_991" class="st7" d="M80.6,67.2c-0.4,0.4-1,0.4-1.4,0l0,0c-0.4-0.4-0.4-1,0-1.4s1-0.4,1.4,0
						C80.9,66.2,80.9,66.8,80.6,67.2z"/>
					<path id="Path_992" class="st7" d="M86.5,73.1c-0.4,0.4-1,0.4-1.4,0s-0.4-1,0-1.4s1-0.4,1.4,0S86.9,72.7,86.5,73.1L86.5,73.1z"
						/>
					<path id="Path_993" class="st7" d="M50.7,49.3c-0.4,0.4-1,0.4-1.4,0s-0.4-1,0-1.4s1-0.4,1.4,0S51.1,48.9,50.7,49.3z"/>
					<path id="Path_994" class="st7" d="M56.7,55.2c-0.4,0.4-1,0.4-1.4,0s-0.4-1,0-1.4s1-0.4,1.4,0S57.1,54.8,56.7,55.2L56.7,55.2z"
						/>
					<path id="Path_995" class="st7" d="M62.6,61.2c-0.4,0.4-1,0.4-1.4,0s-0.4-1,0-1.4s1-0.4,1.4,0S63,60.8,62.6,61.2L62.6,61.2z"/>
					<path id="Path_996" class="st7" d="M68.6,67.2c-0.4,0.4-1,0.4-1.4,0s-0.4-1,0-1.4s1-0.4,1.4,0C69,66.1,69,66.8,68.6,67.2
						L68.6,67.2z"/>
					<path id="Path_997" class="st7" d="M74.6,73.1c-0.4,0.4-1,0.4-1.4,0s-0.4-1,0-1.4s1-0.4,1.4,0S75,72.7,74.6,73.1L74.6,73.1z"/>
					<path id="Path_998" class="st7" d="M80.6,79.1c-0.4,0.4-1,0.4-1.4,0s-0.4-1,0-1.4l0,0c0.4-0.4,1-0.4,1.4,0
						C80.9,78.1,80.9,78.7,80.6,79.1z"/>
					<path id="Path_999" class="st7" d="M44.7,55.2c-0.4,0.4-1,0.4-1.4,0s-0.4-1,0-1.4s1-0.4,1.4,0l0,0
						C45.1,54.2,45.1,54.8,44.7,55.2L44.7,55.2z"/>
					<path id="Path_1000" class="st7" d="M50.7,61.2c-0.4,0.4-1,0.4-1.4,0l0,0c-0.4-0.4-0.4-1,0-1.4s1-0.4,1.4,0l0,0
						C51.1,60.2,51.1,60.8,50.7,61.2L50.7,61.2z"/>
					<path id="Path_1001" class="st7" d="M56.7,67.2c-0.4,0.4-1,0.4-1.4,0s-0.4-1,0-1.4s1-0.4,1.4,0l0,0l0,0
						C57.1,66.1,57.1,66.8,56.7,67.2L56.7,67.2z"/>
					<path id="Path_1002" class="st7" d="M62.6,73.2c-0.4,0.4-1,0.4-1.4,0s-0.4-1,0-1.4s1-0.4,1.4,0C63,72.1,63,72.7,62.6,73.2
						C62.7,73.1,62.6,73.1,62.6,73.2z"/>
					<path id="Path_1003" class="st7" d="M68.6,79.1c-0.4,0.4-1,0.4-1.4,0s-0.4-1,0-1.4s1-0.4,1.4,0S69,78.7,68.6,79.1L68.6,79.1z"
						/>
					<path id="Path_1004" class="st7" d="M74.6,85.1c-0.4,0.4-1,0.4-1.4,0s-0.4-1,0-1.4s1-0.4,1.4,0l0,0C75,84,75,84.7,74.6,85.1
						L74.6,85.1z"/>
					<path id="Path_1005" class="st7" d="M38.7,61.2c-0.4,0.4-1,0.4-1.4,0s-0.4-1,0-1.4s1-0.4,1.4,0l0,0
						C39.1,60.2,39.2,60.8,38.7,61.2C38.8,61.2,38.8,61.2,38.7,61.2z"/>
					<path id="Path_1006" class="st7" d="M44.7,67.2c-0.4,0.4-1,0.4-1.4,0s-0.4-1,0-1.4s1-0.4,1.4,0l0,0
						C45.1,66.1,45.1,66.8,44.7,67.2L44.7,67.2z"/>
					<path id="Path_1007" class="st7" d="M50.7,73.1c-0.4,0.4-1,0.4-1.4,0s-0.4-1,0-1.4s1-0.4,1.4,0l0,0
						C51.1,72.1,51.1,72.7,50.7,73.1L50.7,73.1z"/>
					<path id="Path_1008" class="st7" d="M56.7,79.1c-0.4,0.4-1,0.4-1.4,0l0,0c-0.4-0.4-0.4-1,0-1.4s1-0.4,1.4,0
						S57.1,78.7,56.7,79.1z"/>
					<path id="Path_1009" class="st7" d="M62.6,85.1c-0.4,0.4-1,0.4-1.4,0s-0.4-1,0-1.4s1-0.4,1.4,0C63,84,63,84.7,62.6,85.1
						L62.6,85.1z"/>
					<path id="Path_1010" class="st7" d="M68.6,91.1c-0.4,0.4-1,0.4-1.4,0s-0.4-1,0-1.4s1-0.4,1.4,0l0,0C69,90,69,90.6,68.6,91.1
						C68.6,91,68.6,91.1,68.6,91.1z"/>
					<path id="Path_1011" class="st7" d="M32.8,67.2c-0.4,0.4-1,0.4-1.4,0s-0.4-1,0-1.4s1-0.4,1.4,0l0,0
						C33.2,66.1,33.2,66.8,32.8,67.2L32.8,67.2L32.8,67.2z"/>
					<path id="Path_1012" class="st7" d="M38.7,73.1c-0.4,0.4-1,0.4-1.4,0s-0.4-1,0-1.4s1-0.4,1.4,0l0,0l0,0
						C39.1,72.1,39.1,72.7,38.7,73.1C38.8,73.1,38.8,73.1,38.7,73.1z"/>
					<path id="Path_1013" class="st7" d="M44.7,79.1c-0.4,0.4-1,0.4-1.4,0s-0.4-1,0-1.4s1-0.4,1.4,0l0,0
						C45.1,78.1,45.1,78.7,44.7,79.1L44.7,79.1z"/>
					<path id="Path_1014" class="st7" d="M50.7,85.1c-0.4,0.4-1,0.4-1.4,0s-0.4-1,0-1.4s1-0.4,1.4,0C51.1,84,51.1,84.7,50.7,85.1
						L50.7,85.1z"/>
					<path id="Path_1015" class="st7" d="M56.7,91.1c-0.4,0.4-1,0.4-1.4,0s-0.4-1,0-1.4s1-0.4,1.4,0l0,0
						C57.1,90,57.1,90.6,56.7,91.1C56.7,91,56.7,91.1,56.7,91.1z"/>
					<path id="Path_1016" class="st7" d="M62.6,97c-0.4,0.4-1,0.4-1.4,0s-0.4-1,0-1.4l0,0c0.4-0.4,1-0.4,1.4,0l0,0l0,0
						C63,96,63,96.6,62.6,97L62.6,97z"/>
					<path id="Path_1017" class="st7" d="M26.8,73.1c-0.4,0.4-1,0.4-1.4,0l0,0c-0.4-0.4-0.4-1,0-1.4s1-0.4,1.4,0
						C27.2,72.1,27.2,72.8,26.8,73.1L26.8,73.1z"/>
					<path id="Path_1018" class="st7" d="M32.8,79.1c-0.4,0.4-1,0.4-1.4,0l0,0c-0.4-0.4-0.4-1,0-1.4l0,0c0.4-0.4,1-0.4,1.4,0
						C33.2,78.1,33.2,78.7,32.8,79.1L32.8,79.1z"/>
					<path id="Path_1019" class="st7" d="M38.7,85.1c-0.4,0.4-1,0.4-1.4,0s-0.4-1,0-1.4s1-0.4,1.4,0C39.1,84,39.2,84.7,38.7,85.1
						C38.8,85.1,38.8,85.1,38.7,85.1z"/>
					<path id="Path_1020" class="st7" d="M44.7,91.1c-0.4,0.4-1,0.4-1.4,0s-0.4-1,0-1.4s1-0.4,1.4,0C45.1,90,45.1,90.6,44.7,91.1
						C44.7,91,44.7,91.1,44.7,91.1z"/>
					<circle id="Ellipse_120" class="st7" cx="50" cy="96.3" r="1"/>
					<circle id="Ellipse_121" class="st7" cx="55.9" cy="102.3" r="1"/>
					<path id="Path_1021" class="st7" d="M20.8,79.1c-0.4,0.4-1,0.4-1.4,0s-0.4-1,0-1.4s1-0.4,1.4,0S21.2,78.7,20.8,79.1z"/>
					<path id="Path_1022" class="st7" d="M26.8,85.1c-0.4,0.4-1,0.4-1.4,0s-0.4-1,0-1.4s1-0.4,1.4,0C27.2,84,27.2,84.7,26.8,85.1
						L26.8,85.1z"/>
					<path id="Path_1023" class="st7" d="M32.8,91.1c-0.4,0.4-1,0.4-1.4,0s-0.4-1,0-1.4l0,0c0.4-0.4,1-0.4,1.4,0
						C33.2,90,33.2,90.7,32.8,91.1z"/>
					<path id="Path_1024" class="st7" d="M38.7,97c-0.4,0.4-1,0.4-1.4,0s-0.4-1,0-1.4s1-0.4,1.4,0S39.2,96.6,38.7,97
						C38.8,97,38.8,97,38.7,97z"/>
					<path id="Path_1025" class="st7" d="M44.7,103c-0.4,0.4-1,0.4-1.4,0s-0.4-1,0-1.4s1-0.4,1.4,0S45.1,102.6,44.7,103L44.7,103z"
						/>
					<path id="Path_1026" class="st7" d="M50.7,109c-0.4,0.4-1,0.4-1.4,0s-0.4-1,0-1.4s1-0.4,1.4,0l0,0
						C51.1,107.9,51.1,108.6,50.7,109L50.7,109z"/>
					<path id="Path_1027" class="st7" d="M-27,43.3c-0.4,0.4-1,0.4-1.4,0l0,0c-0.4-0.4-0.4-1,0-1.4s1-0.4,1.4,0
						C-26.6,42.2-26.6,42.9-27,43.3C-26.9,43.3-26.9,43.3-27,43.3z"/>
					<path id="Path_1028" class="st7" d="M-21,49.3c-0.4,0.4-1,0.4-1.4,0l0,0c-0.4-0.4-0.4-1,0-1.4s1-0.4,1.4,0S-20.6,48.9-21,49.3z
						"/>
					<path id="Path_1029" class="st7" d="M-15,55.2c-0.4,0.4-1,0.4-1.4,0s-0.4-1,0-1.4s1-0.4,1.4,0S-14.6,54.8-15,55.2L-15,55.2z"/>
					<path id="Path_1030" class="st7" d="M-9,61.2c-0.4,0.4-1,0.4-1.4,0s-0.4-1,0-1.4s1-0.4,1.4,0S-8.6,60.8-9,61.2L-9,61.2z"/>
					<path id="Path_1031" class="st7" d="M-3.1,67.2c-0.4,0.4-1,0.4-1.4,0l0,0c-0.4-0.4-0.4-1,0-1.4s1-0.4,1.4,0
						C-2.7,66.1-2.7,66.8-3.1,67.2C-3,67.2-3.1,67.2-3.1,67.2z"/>
					<path id="Path_1032" class="st7" d="M2.9,73.1c-0.4,0.4-1,0.4-1.4,0s-0.4-1,0-1.4s1-0.4,1.4,0S3.3,72.7,2.9,73.1L2.9,73.1z"/>
					<path id="Path_1033" class="st7" d="M8.9,79.1c-0.4,0.4-1,0.4-1.4,0l0,0c-0.4-0.4-0.4-1,0-1.4s1-0.4,1.4,0S9.3,78.7,8.9,79.1z"
						/>
					<path id="Path_1034" class="st7" d="M-32.9,49.3c-0.4,0.4-1,0.4-1.4,0l0,0c-0.4-0.4-0.4-1,0-1.4s1-0.4,1.4,0
						S-32.5,48.9-32.9,49.3z"/>
					<circle id="Ellipse_122" class="st7" cx="-27.7" cy="54.5" r="1"/>
					<circle id="Ellipse_123" class="st7" cx="-21.7" cy="60.5" r="1"/>
					<circle id="Ellipse_124" class="st7" cx="-15.7" cy="66.5" r="1"/>
					<path id="Path_1035" class="st7" d="M-9,73.1c-0.4,0.4-1,0.4-1.4,0s-0.4-1,0-1.4s1-0.4,1.4,0S-8.6,72.7-9,73.1L-9,73.1z"/>
					<path id="Path_1036" class="st7" d="M-3.1,79.1c-0.4,0.4-1,0.4-1.4,0s-0.4-1,0-1.4l0,0c0.4-0.4,1-0.4,1.4,0S-2.7,78.7-3.1,79.1
						L-3.1,79.1z"/>
					<path id="Path_1037" class="st7" d="M2.9,85.1c-0.4,0.4-1,0.4-1.4,0s-0.4-1,0-1.4s1-0.4,1.4,0C3.3,84,3.3,84.7,2.9,85.1
						L2.9,85.1z"/>
					<path id="Path_1038" class="st7" d="M-38.9,55.2c-0.4,0.4-1,0.4-1.4,0s-0.4-1,0-1.4s1-0.4,1.4,0
						C-38.5,54.2-38.5,54.8-38.9,55.2L-38.9,55.2z"/>
					<circle id="Ellipse_125" class="st7" cx="-33.6" cy="60.5" r="1"/>
					<circle id="Ellipse_126" class="st7" cx="-27.7" cy="66.5" r="1"/>
					<circle id="Ellipse_127" class="st7" cx="-21.7" cy="72.4" r="1"/>
					<path id="Path_1039" class="st7" d="M-15,79.1c-0.4,0.4-1,0.4-1.4,0l0,0c-0.4-0.4-0.4-1,0-1.4s1-0.4,1.4,0S-14.6,78.7-15,79.1
						L-15,79.1z"/>
					<path id="Path_1040" class="st7" d="M-9,85.1c-0.4,0.4-1,0.4-1.4,0s-0.4-1,0-1.4s1-0.4,1.4,0C-8.6,84-8.6,84.7-9,85.1L-9,85.1z
						"/>
					<path id="Path_1041" class="st7" d="M-3.1,91.1c-0.4,0.4-1,0.4-1.4,0l0,0c-0.4-0.4-0.4-1,0-1.4s1-0.4,1.4,0S-2.7,90.7-3.1,91.1
						z"/>
					<path id="Path_1042" class="st7" d="M-44.9,61.2c-0.4,0.4-1,0.4-1.4,0s-0.4-1,0-1.4s1-0.4,1.4,0
						C-44.5,60.2-44.5,60.8-44.9,61.2C-44.8,61.2-44.9,61.2-44.9,61.2z"/>
					<path id="Path_1043" class="st7" d="M-38.9,67.2c-0.4,0.4-1,0.4-1.4,0l0,0c-0.4-0.4-0.4-1,0-1.4s1-0.4,1.4,0
						C-38.5,66.2-38.5,66.8-38.9,67.2z"/>
					<path id="Path_1044" class="st7" d="M-32.9,73.1c-0.4,0.4-1,0.4-1.4,0s-0.4-1,0-1.4s1-0.4,1.4,0S-32.5,72.7-32.9,73.1
						L-32.9,73.1z"/>
					<path id="Path_1045" class="st7" d="M-27,79.1c-0.4,0.4-1,0.4-1.4,0s-0.4-1,0-1.4s1-0.4,1.4,0S-26.6,78.7-27,79.1z"/>
					<path id="Path_1046" class="st7" d="M-21,85.1c-0.4,0.4-1,0.4-1.4,0l0,0c-0.4-0.4-0.4-1,0-1.4l0,0c0.4-0.4,1-0.4,1.4,0
						S-20.6,84.7-21,85.1z"/>
					<path id="Path_1047" class="st7" d="M-15,91.1c-0.4,0.4-1,0.4-1.4,0s-0.4-1,0-1.4s1-0.4,1.4,0S-14.6,90.7-15,91.1L-15,91.1z"/>
					<path id="Path_1048" class="st7" d="M-9,97c-0.4,0.4-1,0.4-1.4,0l0,0c-0.4-0.4-0.4-1,0-1.4s1-0.4,1.4,0C-8.7,96-8.7,96.6-9,97z
						"/>
					<path id="Path_1049" class="st7" d="M-50.8,67.2c-0.4,0.4-1,0.4-1.4,0l0,0c-0.4-0.4-0.4-1,0-1.4c0.4-0.4,1-0.4,1.4,0
						C-50.5,66.2-50.5,66.8-50.8,67.2z"/>
					<path id="Path_1050" class="st7" d="M-44.9,73.1c-0.4,0.4-1,0.4-1.4,0s-0.4-1,0-1.4s1-0.4,1.4,0
						C-44.5,72.1-44.5,72.7-44.9,73.1L-44.9,73.1z"/>
					<path id="Path_1051" class="st7" d="M-38.9,79.1c-0.4,0.4-1,0.4-1.4,0s-0.4-1,0-1.4s1-0.4,1.4,0
						C-38.5,78.1-38.5,78.7-38.9,79.1L-38.9,79.1z"/>
					<path id="Path_1052" class="st7" d="M-32.9,85.1c-0.4,0.4-1,0.4-1.4,0s-0.4-1,0-1.4s1-0.4,1.4,0C-32.5,84-32.5,84.7-32.9,85.1
						L-32.9,85.1z"/>
					<path id="Path_1053" class="st7" d="M-27,91.1c-0.4,0.4-1,0.4-1.4,0l0,0c-0.4-0.4-0.4-1,0-1.4s1-0.4,1.4,0l0,0
						C-26.6,90-26.5,90.6-27,91.1C-26.9,91-26.9,91.1-27,91.1z"/>
					<path id="Path_1054" class="st7" d="M-21,97c-0.4,0.4-1,0.4-1.4,0s-0.4-1,0-1.4s1-0.4,1.4,0S-20.6,96.6-21,97z"/>
					<path id="Path_1055" class="st7" d="M-15,103c-0.4,0.4-1,0.4-1.4,0l0,0c-0.4-0.4-0.4-1,0-1.4l0,0c0.4-0.4,1-0.4,1.4,0
						S-14.6,102.6-15,103z"/>
					<path id="Path_1056" class="st7" d="M-56.8,73.1c-0.4,0.4-1,0.4-1.4,0c-0.4-0.4-0.4-1,0-1.4c0.4-0.4,1-0.4,1.4,0l0,0l0,0
						C-56.4,72.1-56.4,72.7-56.8,73.1L-56.8,73.1z"/>
					<path id="Path_1057" class="st7" d="M-50.8,79.1c-0.4,0.4-1,0.4-1.4,0l0,0c-0.4-0.4-0.4-1,0-1.4c0.4-0.4,1-0.4,1.4,0
						C-50.5,78.1-50.5,78.7-50.8,79.1z"/>
					<path id="Path_1058" class="st7" d="M-44.9,85.1c-0.4,0.4-1,0.4-1.4,0s-0.4-1,0-1.4s1-0.4,1.4,0C-44.5,84-44.5,84.7-44.9,85.1
						L-44.9,85.1z"/>
					<path id="Path_1059" class="st7" d="M-38.9,91.1c-0.4,0.4-1,0.4-1.4,0s-0.4-1,0-1.4s1-0.4,1.4,0l0,0
						C-38.5,90-38.5,90.6-38.9,91.1C-38.9,91-38.9,91.1-38.9,91.1z"/>
					<path id="Path_1060" class="st7" d="M-32.9,97c-0.4,0.4-1,0.4-1.4,0s-0.4-1,0-1.4s1-0.4,1.4,0l0,0C-32.5,96-32.5,96.6-32.9,97
						L-32.9,97z"/>
					<path id="Path_1061" class="st7" d="M-27,103c-0.4,0.4-1,0.4-1.4,0l0,0c-0.4-0.4-0.4-1,0-1.4s1-0.4,1.4,0l0,0
						C-26.6,102-26.6,102.6-27,103C-26.9,103-26.9,103-27,103L-27,103z"/>
					<path id="Path_1062" class="st7" d="M-21,109c-0.4,0.4-1,0.4-1.4,0s-0.4-1,0-1.4l0,0c0.4-0.4,1-0.4,1.4,0l0,0l0,0
						C-20.6,107.9-20.6,108.6-21,109L-21,109L-21,109z"/>
					<path id="Path_1063" class="st7" d="M14.9,85.1c-0.4,0.4-1,0.4-1.4,0s-0.4-1,0-1.4s1-0.4,1.4,0C15.3,84,15.3,84.7,14.9,85.1
						L14.9,85.1z"/>
					<path id="Path_1064" class="st7" d="M20.8,91.1c-0.4,0.4-1,0.4-1.4,0l0,0c-0.4-0.4-0.4-1,0-1.4s1-0.4,1.4,0
						C21.2,90.1,21.2,90.7,20.8,91.1z"/>
					<path id="Path_1065" class="st7" d="M26.8,97c-0.4,0.4-1,0.4-1.4,0s-0.4-1,0-1.4s1-0.4,1.4,0C27.2,96,27.2,96.6,26.8,97
						L26.8,97z"/>
					<path id="Path_1066" class="st7" d="M32.8,103c-0.4,0.4-1,0.4-1.4,0s-0.4-1,0-1.4s1-0.4,1.4,0C33.2,102,33.2,102.6,32.8,103
						L32.8,103z"/>
					<path id="Path_1067" class="st7" d="M38.7,109c-0.4,0.4-1,0.4-1.4,0s-0.4-1,0-1.4s1-0.4,1.4,0C39.1,107.9,39.2,108.6,38.7,109
						C38.8,109,38.8,109,38.7,109z"/>
					<path id="Path_1068" class="st7" d="M44.7,115c-0.4,0.4-1,0.4-1.4,0s-0.4-1,0-1.4s1-0.4,1.4,0C45.1,113.9,45.1,114.5,44.7,115
						C44.7,114.9,44.7,114.9,44.7,115z"/>
					<path id="Path_1069" class="st7" d="M8.9,91.1c-0.4,0.4-1,0.5-1.4,0.1s-0.5-1-0.1-1.4l0.1-0.1c0.4-0.4,1-0.4,1.4,0
						S9.3,90.7,8.9,91.1L8.9,91.1L8.9,91.1z"/>
					<path id="Path_1070" class="st7" d="M14.9,97c-0.4,0.4-1,0.4-1.4,0s-0.4-1,0-1.4s1-0.4,1.4,0S15.3,96.6,14.9,97L14.9,97z"/>
					<path id="Path_1071" class="st7" d="M20.8,103c-0.4,0.4-1,0.4-1.4,0s-0.4-1,0-1.4s1-0.4,1.4,0C21.2,102,21.2,102.6,20.8,103
						L20.8,103z"/>
					<path id="Path_1072" class="st7" d="M26.8,109c-0.4,0.4-1,0.4-1.4,0s-0.4-1,0-1.4s1-0.4,1.4,0C27.2,107.9,27.2,108.6,26.8,109
						L26.8,109z"/>
					<circle id="Ellipse_128" class="st7" cx="32.1" cy="114.2" r="1"/>
					<circle id="Ellipse_129" class="st7" cx="38" cy="120.2" r="1"/>
					<path id="Path_1073" class="st7" d="M2.9,97c-0.4,0.4-1,0.4-1.4,0s-0.4-1,0-1.4s1-0.4,1.4,0S3.3,96.6,2.9,97L2.9,97z"/>
					<path id="Path_1074" class="st7" d="M8.9,103c-0.4,0.4-1,0.4-1.4,0l0,0c-0.4-0.4-0.4-1,0-1.4s1-0.4,1.4,0l0,0
						C9.3,102,9.3,102.6,8.9,103L8.9,103z"/>
					<path id="Path_1075" class="st7" d="M14.9,109c-0.4,0.4-1,0.4-1.4,0s-0.4-1,0-1.4s1-0.4,1.4,0C15.3,107.9,15.3,108.6,14.9,109
						L14.9,109z"/>
					<path id="Path_1076" class="st7" d="M20.8,115c-0.4,0.4-1,0.4-1.4,0l0,0c-0.4-0.4-0.4-1,0-1.4s1-0.4,1.4,0
						C21.2,113.9,21.2,114.6,20.8,115z"/>
					<circle id="Ellipse_130" class="st7" cx="26.1" cy="120.2" r="1"/>
					<circle id="Ellipse_131" class="st7" cx="32.1" cy="126.2" r="1"/>
					<path id="Path_1077" class="st7" d="M-3.1,103c-0.4,0.4-1,0.4-1.4,0s-0.4-1,0-1.4s1-0.4,1.4,0l0,0C-2.7,102-2.7,102.6-3.1,103
						L-3.1,103L-3.1,103z"/>
					<path id="Path_1078" class="st7" d="M2.9,109c-0.4,0.4-1,0.4-1.4,0s-0.4-1,0-1.4s1-0.4,1.4,0C3.3,107.9,3.3,108.6,2.9,109
						L2.9,109z"/>
					<path id="Path_1079" class="st7" d="M8.9,115c-0.4,0.3-1.1,0.3-1.4-0.2c-0.3-0.4-0.3-0.9,0-1.2c0.4-0.4,1-0.4,1.4,0
						S9.3,114.6,8.9,115L8.9,115L8.9,115z"/>
					<path id="Path_1080" class="st7" d="M14.9,120.9c-0.4,0.4-1,0.4-1.4,0s-0.4-1,0-1.4s1-0.4,1.4,0S15.3,120.5,14.9,120.9z"/>
					<path id="Path_1081" class="st7" d="M20.8,126.9c-0.4,0.4-1,0.4-1.4,0l0,0c-0.4-0.4-0.4-1,0-1.4s1-0.4,1.4,0
						C21.2,125.9,21.2,126.5,20.8,126.9z"/>
					<path id="Path_1082" class="st7" d="M26.8,132.9c-0.4,0.4-1,0.4-1.4,0s-0.4-1,0-1.4s1-0.4,1.4,0l0,0
						C27.2,131.8,27.2,132.5,26.8,132.9L26.8,132.9L26.8,132.9z"/>
					<path id="Path_1083" class="st7" d="M-9,109c-0.4,0.4-1,0.4-1.4,0s-0.4-1,0-1.4l0,0c0.4-0.4,1-0.4,1.4,0l0,0
						C-8.7,107.9-8.7,108.6-9,109C-9.1,109-9.1,109-9,109L-9,109z"/>
					<path id="Path_1084" class="st7" d="M-3.1,115c-0.4,0.4-1,0.4-1.4,0s-0.4-1,0-1.4s1-0.4,1.4,0C-2.7,113.9-2.7,114.5-3.1,115
						C-3,114.9-3.1,114.9-3.1,115z"/>
					<path id="Path_1085" class="st7" d="M2.9,120.9c-0.4,0.4-1,0.4-1.4,0s-0.4-1,0-1.4s1-0.4,1.4,0S3.3,120.5,2.9,120.9L2.9,120.9z
						"/>
					<path id="Path_1086" class="st7" d="M8.9,126.9c-0.4,0.4-1,0.4-1.4,0s-0.4-1,0-1.4s1-0.4,1.4,0S9.3,126.5,8.9,126.9L8.9,126.9z
						"/>
					<path id="Path_1087" class="st7" d="M14.9,132.9c-0.4,0.4-1,0.4-1.4,0s-0.4-1,0-1.4s1-0.4,1.4,0
						C15.3,131.8,15.3,132.5,14.9,132.9L14.9,132.9z"/>
					<path id="Path_1088" class="st7" d="M20.8,138.8c-0.4,0.4-1,0.4-1.4,0s-0.4-1,0-1.4s1-0.4,1.4,0l0,0
						C21.2,137.8,21.2,138.4,20.8,138.8L20.8,138.8z"/>
					<path id="Path_1089" class="st7" d="M-15,115c-0.4,0.4-1,0.4-1.4,0s-0.4-1,0-1.4s1-0.4,1.4,0l0,0
						C-14.6,113.9-14.6,114.5-15,115C-15,114.9-15,114.9-15,115z"/>
					<path id="Path_1090" class="st7" d="M-9,120.9c-0.4,0.4-1,0.4-1.4,0s-0.4-1,0-1.4s1-0.4,1.4,0l0,0
						C-8.6,119.9-8.6,120.5-9,120.9L-9,120.9z"/>
					<path id="Path_1091" class="st7" d="M-3.1,126.9c-0.4,0.4-1,0.4-1.4,0s-0.4-1,0-1.4s1-0.4,1.4,0l0,0
						C-2.7,125.8-2.7,126.5-3.1,126.9C-3,126.9-3.1,126.9-3.1,126.9z"/>
					<path id="Path_1092" class="st7" d="M2.9,132.9c-0.4,0.4-1,0.4-1.4,0s-0.4-1,0-1.4s1-0.4,1.4,0C3.3,131.8,3.3,132.5,2.9,132.9
						L2.9,132.9z"/>
					<path id="Path_1093" class="st7" d="M8.9,138.8c-0.4,0.4-1,0.4-1.4,0l0,0c-0.4-0.4-0.4-1,0-1.4s1-0.4,1.4,0
						S9.3,138.5,8.9,138.8z"/>
					<path id="Path_1094" class="st7" d="M14.9,144.8c-0.4,0.4-1,0.4-1.4,0l0,0c-0.4-0.4-0.4-1,0-1.4l0,0c0.4-0.4,1-0.4,1.4,0l0,0
						l0,0C15.3,143.8,15.3,144.4,14.9,144.8L14.9,144.8z"/>
				</g>
			</g>
		</g>
	</g>
</g>
</svg>
