<?xml version="1.0" encoding="utf-8"?>
<!-- Generator: Adobe Illustrator 24.1.2, SVG Export Plug-In . SVG Version: 6.00 Build 0)  -->
<svg version="1.1" id="Layer_1" xmlns="http://www.w3.org/2000/svg" xmlns:xlink="http://www.w3.org/1999/xlink" x="0px" y="0px"
	 viewBox="0 0 285 152" style="enable-background:new 0 0 285 152;" xml:space="preserve"
	 preserveAspectRatio="xMidYMid slice">
<style type="text/css">
	.st0{fill:#DCE44B;}
	.st1{clip-path:url(#SVGID_2_);}
	.st2{fill:#FFFFFF;stroke:#FFFFFF;}
	.st3{fill:none;stroke:#FFFFFF;stroke-width:2;}
	.st4{fill:#FFED52;}
	.st5{fill:none;stroke:#FFFFFF;stroke-width:2;stroke-miterlimit:10;}
	.st6{fill:#262626;}
</style>
<rect class="st0" width="285" height="152"/>
<g>
	<defs>
		<rect id="SVGID_1_" width="285" height="152"/>
	</defs>
	<clipPath id="SVGID_2_">
		<use xlink:href="#SVGID_1_"  style="overflow:visible;"/>
	</clipPath>
	<g class="st1">
		<g id="Group_957">
			<g id="Group_953">
				<path id="Path_937" class="st2" d="M96.9,52.6c-5.2,0-9.4-4.2-9.4-9.4c0-5.2,4.2-9.4,9.4-9.4s9.4,4.2,9.4,9.4
					c0,2.7-1.2,5.3-3.2,7.1C101.4,51.8,99.2,52.6,96.9,52.6z M96.9,35.1c-4.5,0-8.1,3.6-8.1,8.1c0,4.5,3.6,8.1,8.1,8.1
					c4.5,0,8.1-3.6,8.1-8.1c0-2-0.7-3.9-2-5.3C101.5,36.1,99.2,35.1,96.9,35.1L96.9,35.1z"/>
			</g>
			<g id="Group_954">
				<path id="Path_938" class="st2" d="M72.4,74.2h-0.7c-5.2-0.4-9.1-4.9-8.8-10.1c0.2-2.5,1.3-4.8,3.2-6.4l0.9,1
					c-3.4,2.9-3.7,8-0.8,11.4c2.9,3.4,8,3.7,11.4,0.8l0.9,1C76.9,73.3,74.7,74.2,72.4,74.2z"/>
			</g>
			<g id="Group_955">
				<path id="Path_939" class="st2" d="M67.1,58.7l-0.9-1l24.6-21.6l0.9,1L67.1,58.7z"/>
			</g>
			<g id="Group_956">
				<path id="Path_940" class="st2" d="M78.6,71.8l-0.9-1l24.6-21.6l0.9,1L78.6,71.8z"/>
			</g>
		</g>
		<line id="Line_141" class="st3" x1="66.5" y1="70.2" x2="132.5" y2="136.2"/>
		<line id="Line_142" class="st3" x1="106.5" y1="109.2" x2="60.5" y2="155.2"/>
		<rect id="Rectangle_256" x="137" y="34.8" class="st4" width="49" height="30"/>
		<g id="Group_952">
			<rect id="Rectangle_254" x="133.4" y="-2.2" class="st5" width="116" height="139"/>
			<rect id="Rectangle_255" x="142.6" y="32.4" class="st5" width="48.8" height="27.9"/>
			<line id="Line_126" class="st5" x1="142.6" y1="17.5" x2="239.7" y2="17.5"/>
			<line id="Line_127" class="st5" x1="199.8" y1="32.4" x2="239.7" y2="32.4"/>
			<line id="Line_128" class="st5" x1="199.8" y1="46.4" x2="239.7" y2="46.4"/>
			<line id="Line_129" class="st5" x1="199.8" y1="60.3" x2="239.7" y2="60.3"/>
			<line id="Line_131" class="st5" x1="142.6" y1="88.2" x2="239.7" y2="88.2"/>
			<line id="Line_132" class="st5" x1="142.6" y1="102.1" x2="239.7" y2="102.1"/>
		</g>
		<g id="Group_958">
			<path id="Path_941" class="st6" d="M82.4,2.5c-0.4,0.4-1,0.4-1.4,0s-0.4-1,0-1.4c0.4-0.4,1-0.4,1.4,0C82.8,1.4,82.8,2.1,82.4,2.5
				C82.4,2.5,82.4,2.5,82.4,2.5z"/>
			<path id="Path_942" class="st6" d="M88.3,8.5c-0.4,0.4-1,0.4-1.4,0c-0.4-0.4-0.4-1,0-1.4c0.4-0.4,1-0.4,1.4,0
				C88.7,7.4,88.7,8,88.3,8.5C88.3,8.4,88.3,8.4,88.3,8.5z"/>
			<path id="Path_943" class="st6" d="M94.3,14.4c-0.4,0.4-1,0.4-1.4,0c-0.4-0.4-0.4-1,0-1.4c0.4-0.4,1-0.4,1.4,0
				C94.7,13.4,94.7,14,94.3,14.4C94.3,14.4,94.3,14.4,94.3,14.4z"/>
			<path id="Path_944" class="st6" d="M100.3,20.4c-0.4,0.4-1,0.4-1.4,0c-0.4-0.4-0.4-1,0-1.4c0.4-0.4,1-0.4,1.4,0c0,0,0,0,0,0
				C100.7,19.4,100.7,20,100.3,20.4C100.3,20.4,100.3,20.4,100.3,20.4z"/>
			<path id="Path_945" class="st6" d="M106.2,26.4c-0.4,0.4-1,0.4-1.4,0c0,0,0,0,0,0c-0.4-0.4-0.4-1,0-1.4c0,0,0,0,0,0
				c0.4-0.4,1-0.4,1.4,0S106.6,26,106.2,26.4z"/>
			<path id="Path_946" class="st6" d="M112.2,32.3c-0.4,0.4-1,0.4-1.4,0c-0.4-0.4-0.4-1,0-1.4c0.4-0.4,1-0.4,1.4,0
				C112.6,31.3,112.6,31.9,112.2,32.3C112.2,32.3,112.2,32.3,112.2,32.3z"/>
			<path id="Path_947" class="st6" d="M118.2,38.3c-0.4,0.4-1,0.4-1.4,0c0,0,0,0,0,0c-0.4-0.4-0.4-1,0-1.4s1-0.4,1.4,0
				C118.6,37.3,118.6,38,118.2,38.3z"/>
			<path id="Path_948" class="st6" d="M76.4,8.5c-0.4,0.4-1,0.5-1.4,0.1s-0.5-1-0.1-1.4c0-0.1,0.1-0.1,0.2-0.2c0.4-0.4,1-0.4,1.4,0
				C76.8,7.4,76.8,8.1,76.4,8.5L76.4,8.5z"/>
			<path id="Path_949" class="st6" d="M82.4,14.4c-0.4,0.4-1,0.4-1.4,0c-0.4-0.4-0.4-1,0-1.4c0.4-0.4,1-0.4,1.4,0
				C82.8,13.4,82.8,14,82.4,14.4C82.4,14.4,82.4,14.4,82.4,14.4z"/>
			<path id="Path_950" class="st6" d="M88.3,20.4c-0.4,0.4-1,0.4-1.4,0c0,0,0,0,0,0c-0.4-0.4-0.4-1,0-1.4c0.4-0.4,1-0.4,1.4,0
				C88.7,19.3,88.7,20,88.3,20.4z"/>
			<path id="Path_951" class="st6" d="M94.3,26.4c-0.4,0.4-1,0.4-1.4,0c-0.4-0.4-0.4-1,0-1.4c0.4-0.4,1-0.4,1.4,0
				C94.7,25.3,94.7,25.9,94.3,26.4C94.3,26.3,94.3,26.3,94.3,26.4z"/>
			<path id="Path_952" class="st6" d="M100.3,32.3c-0.4,0.4-1,0.4-1.4,0c-0.4-0.4-0.4-1,0-1.4c0.4-0.4,1-0.4,1.4,0
				C100.7,31.3,100.7,31.9,100.3,32.3C100.3,32.3,100.3,32.3,100.3,32.3z"/>
			<path id="Path_953" class="st6" d="M106.2,38.3c-0.4,0.4-1,0.4-1.4,0s-0.4-1,0-1.4s1-0.4,1.4,0S106.6,38,106.2,38.3z"/>
			<path id="Path_954" class="st6" d="M112.2,44.3c-0.4,0.4-1,0.4-1.4,0c0,0,0,0,0,0c-0.4-0.4-0.4-1,0-1.4c0,0,0,0,0,0
				c0.4-0.4,1-0.4,1.4,0C112.6,43.2,112.6,43.9,112.2,44.3L112.2,44.3z"/>
			<path id="Path_955" class="st6" d="M70.4,14.4c-0.4,0.4-1,0.4-1.4,0c-0.4-0.4-0.4-1,0-1.4c0.4-0.4,1-0.4,1.4,0l0,0
				C70.8,13.4,70.8,14,70.4,14.4C70.4,14.4,70.4,14.4,70.4,14.4z"/>
			<path id="Path_956" class="st6" d="M76.4,20.4c-0.3,0.5-0.9,0.6-1.4,0.3c-0.5-0.3-0.6-0.9-0.3-1.4c0.1-0.1,0.2-0.2,0.3-0.3
				c0.5-0.3,1.1-0.2,1.4,0.3C76.6,19.6,76.6,20,76.4,20.4z"/>
			<path id="Path_957" class="st6" d="M82.4,26.4c-0.4,0.4-1,0.4-1.4,0c-0.4-0.4-0.4-1,0-1.4l0,0c0.4-0.4,1-0.4,1.4,0
				C82.7,25.3,82.8,26,82.4,26.4z"/>
			<path id="Path_958" class="st6" d="M88.3,32.3c-0.4,0.4-1,0.4-1.4,0c-0.4-0.4-0.4-1,0-1.4c0.4-0.4,1-0.4,1.4,0l0,0
				C88.7,31.3,88.7,31.9,88.3,32.3C88.3,32.3,88.3,32.3,88.3,32.3z"/>
			<path id="Path_959" class="st6" d="M94.3,38.3c-0.4,0.4-1,0.4-1.4,0c-0.4-0.4-0.4-1,0-1.4c0.4-0.4,1-0.4,1.4,0l0,0
				C94.7,37.3,94.7,37.9,94.3,38.3C94.3,38.3,94.3,38.3,94.3,38.3z"/>
			<path id="Path_960" class="st6" d="M100.3,44.3c-0.4,0.4-1,0.4-1.4,0c-0.4-0.4-0.4-1,0-1.4c0.4-0.4,1-0.4,1.4,0l0,0
				C100.7,43.2,100.7,43.9,100.3,44.3C100.3,44.3,100.3,44.3,100.3,44.3L100.3,44.3z"/>
			<path id="Path_961" class="st6" d="M106.2,50.2c-0.4,0.4-1,0.4-1.4,0c-0.4-0.4-0.4-1,0-1.4c0.4-0.4,1-0.4,1.4,0c0,0,0,0,0,0l0,0
				C106.6,49.2,106.6,49.9,106.2,50.2C106.2,50.2,106.2,50.2,106.2,50.2L106.2,50.2z"/>
			<path id="Path_962" class="st6" d="M64.4,20.4c-0.4,0.4-1,0.4-1.4,0c-0.4-0.4-0.4-1,0-1.4c0.4-0.4,1-0.4,1.4,0l0,0
				C64.8,19.3,64.8,20,64.4,20.4C64.4,20.3,64.4,20.3,64.4,20.4z"/>
			<path id="Path_963" class="st6" d="M70.4,26.4c-0.4,0.4-1,0.4-1.4,0c-0.4-0.4-0.4-1,0-1.4c0.4-0.4,1-0.4,1.4,0
				C70.8,25.3,70.8,25.9,70.4,26.4C70.4,26.3,70.4,26.3,70.4,26.4z"/>
			<path id="Path_964" class="st6" d="M76.4,32.3c-0.4,0.4-1.1,0.3-1.4-0.1c-0.3-0.4-0.3-0.9,0-1.3c0.4-0.4,1-0.4,1.4,0c0,0,0,0,0,0
				C76.8,31.3,76.8,31.9,76.4,32.3C76.4,32.3,76.4,32.3,76.4,32.3z"/>
			<path id="Path_965" class="st6" d="M82.4,38.3c-0.4,0.4-1,0.4-1.4,0c0,0,0,0,0,0c-0.4-0.4-0.4-1,0-1.4c0,0,0,0,0,0
				c0.4-0.4,1-0.4,1.4,0c0,0,0,0,0,0l0,0C82.8,37.3,82.8,38,82.4,38.3C82.4,38.3,82.4,38.3,82.4,38.3z"/>
			<path id="Path_966" class="st6" d="M88.3,44.3c-0.4,0.4-1,0.4-1.4,0c-0.4-0.4-0.4-1,0-1.4c0.4-0.4,1-0.4,1.4,0l0,0
				C88.7,43.2,88.7,43.9,88.3,44.3C88.3,44.3,88.3,44.3,88.3,44.3z"/>
			<path id="Path_967" class="st6" d="M94.3,50.3c-0.4,0.4-1,0.4-1.4,0s-0.4-1,0-1.4c0.4-0.4,1-0.4,1.4,0c0,0,0,0,0,0l0,0
				C94.7,49.2,94.7,49.8,94.3,50.3C94.3,50.2,94.3,50.3,94.3,50.3z"/>
			<path id="Path_968" class="st6" d="M100.3,56.2c-0.4,0.4-1,0.4-1.4,0s-0.4-1,0-1.4c0.4-0.4,1-0.4,1.4,0c0,0,0,0,0,0l0,0
				C100.7,55.2,100.7,55.8,100.3,56.2C100.3,56.2,100.3,56.2,100.3,56.2z"/>
			<path id="Path_969" class="st6" d="M58.5,26.4c-0.4,0.4-1,0.4-1.4,0c-0.4-0.4-0.4-1,0-1.4c0.4-0.4,1-0.4,1.4,0l0,0
				C58.9,25.3,58.9,25.9,58.5,26.4C58.5,26.3,58.5,26.3,58.5,26.4z"/>
			<path id="Path_970" class="st6" d="M64.4,32.3c-0.4,0.4-1,0.4-1.4,0c-0.4-0.4-0.4-1,0-1.4c0.4-0.4,1-0.4,1.4,0
				C64.8,31.3,64.8,31.9,64.4,32.3C64.5,32.3,64.4,32.3,64.4,32.3z"/>
			<path id="Path_971" class="st6" d="M70.4,38.3c-0.4,0.4-1,0.4-1.4,0c-0.4-0.4-0.4-1,0-1.4c0.4-0.4,1-0.4,1.4,0
				C70.8,37.3,70.8,37.9,70.4,38.3C70.4,38.3,70.4,38.3,70.4,38.3z"/>
			<path id="Path_972" class="st6" d="M76.4,44.3c-0.4,0.4-1,0.4-1.4,0c-0.4-0.4-0.4-1,0-1.4c0.4-0.4,1-0.4,1.4,0l0,0
				C76.8,43.2,76.8,43.9,76.4,44.3C76.4,44.3,76.4,44.3,76.4,44.3z"/>
			<path id="Path_973" class="st6" d="M82.4,50.3c-0.4,0.4-1,0.4-1.4,0c0,0,0,0,0,0c-0.4-0.4-0.4-1,0-1.4s1-0.4,1.4,0l0,0
				C82.8,49.2,82.8,49.8,82.4,50.3C82.4,50.2,82.4,50.3,82.4,50.3z"/>
			<path id="Path_974" class="st6" d="M88.3,56.2c-0.4,0.4-1,0.4-1.4,0s-0.4-1,0-1.4c0.4-0.4,1-0.4,1.4,0l0,0
				C88.7,55.2,88.7,55.8,88.3,56.2C88.3,56.2,88.3,56.2,88.3,56.2z"/>
			<path id="Path_975" class="st6" d="M94.3,62.2c-0.4,0.4-1,0.4-1.4,0s-0.4-1,0-1.4c0.4-0.4,1-0.4,1.4,0l0,0
				C94.7,61.2,94.7,61.8,94.3,62.2C94.3,62.2,94.3,62.2,94.3,62.2z"/>
			<path id="Path_976" class="st6" d="M52.5,32.3c-0.4,0.4-1,0.4-1.4,0c-0.4-0.4-0.4-1,0-1.4c0.4-0.4,1-0.4,1.4,0
				C52.9,31.3,52.9,31.9,52.5,32.3C52.5,32.3,52.5,32.3,52.5,32.3z"/>
			<circle id="Ellipse_117" class="st6" cx="57.8" cy="37.6" r="1"/>
			<circle id="Ellipse_118" class="st6" cx="63.7" cy="43.6" r="1"/>
			<circle id="Ellipse_119" class="st6" cx="69.7" cy="49.5" r="1"/>
			<path id="Path_977" class="st6" d="M76.4,56.2c-0.4,0.4-1.1,0.3-1.4-0.1c-0.3-0.4-0.3-0.9,0-1.3c0.4-0.4,1-0.4,1.4,0c0,0,0,0,0,0
				C76.8,55.2,76.8,55.8,76.4,56.2C76.4,56.2,76.4,56.2,76.4,56.2L76.4,56.2z"/>
			<path id="Path_978" class="st6" d="M82.4,62.2c-0.4,0.4-1,0.4-1.4,0s-0.4-1,0-1.4c0.4-0.4,1-0.4,1.4,0
				C82.8,61.2,82.8,61.8,82.4,62.2C82.4,62.2,82.4,62.2,82.4,62.2z"/>
			<path id="Path_979" class="st6" d="M88.3,68.2c-0.4,0.4-1,0.4-1.4,0s-0.4-1,0-1.4c0.4-0.4,1-0.4,1.4,0
				C88.7,67.1,88.7,67.8,88.3,68.2C88.3,68.2,88.3,68.2,88.3,68.2z"/>
			<path id="Path_980" class="st6" d="M46.5,38.3c-0.4,0.4-1,0.4-1.4,0c-0.4-0.4-0.4-1,0-1.4c0.4-0.4,1-0.4,1.4,0
				C46.9,37.3,46.9,37.9,46.5,38.3C46.5,38.3,46.5,38.3,46.5,38.3z"/>
			<path id="Path_981" class="st6" d="M52.5,44.3c-0.4,0.4-1,0.4-1.4,0c0,0,0,0,0,0c-0.4-0.4-0.4-1,0-1.4s1-0.4,1.4,0
				C52.9,43.3,52.9,43.9,52.5,44.3z"/>
			<path id="Path_982" class="st6" d="M58.5,50.2c-0.4,0.4-1,0.4-1.4,0c0,0,0,0,0,0c-0.4-0.4-0.4-1,0-1.4s1-0.4,1.4,0
				C58.8,49.2,58.8,49.9,58.5,50.2z"/>
			<path id="Path_983" class="st6" d="M64.4,56.2c-0.4,0.4-1,0.4-1.4,0s-0.4-1,0-1.4c0.4-0.4,1-0.4,1.4,0
				C64.8,55.2,64.8,55.8,64.4,56.2C64.5,56.2,64.4,56.2,64.4,56.2z"/>
			<path id="Path_984" class="st6" d="M70.4,62.2c-0.4,0.4-1,0.4-1.4,0s-0.4-1,0-1.4c0.4-0.4,1-0.4,1.4,0
				C70.8,61.2,70.8,61.8,70.4,62.2C70.4,62.2,70.4,62.2,70.4,62.2z"/>
			<path id="Path_985" class="st6" d="M76.4,68.2C76,68.5,75.3,68.5,75,68c-0.3-0.4-0.3-0.9,0-1.3c0.4-0.4,1-0.4,1.4,0
				S76.8,67.8,76.4,68.2L76.4,68.2z"/>
			<path id="Path_986" class="st6" d="M82.4,74.1c-0.4,0.4-1,0.4-1.4,0c0,0,0,0,0,0c-0.4-0.4-0.4-1,0-1.4c0,0,0,0,0,0
				c0.4-0.4,1-0.4,1.4,0C82.7,73.1,82.8,73.7,82.4,74.1z"/>
			<path id="Path_987" class="st6" d="M124.2,44.3c-0.4,0.4-1,0.4-1.4,0c-0.4-0.4-0.4-1,0-1.4c0.4-0.4,1-0.4,1.4,0
				C124.6,43.2,124.6,43.9,124.2,44.3C124.2,44.3,124.2,44.3,124.2,44.3z"/>
			<path id="Path_988" class="st6" d="M130.1,50.3c-0.4,0.4-1,0.4-1.4,0s-0.4-1,0-1.4c0.4-0.4,1-0.4,1.4,0c0,0,0,0,0,0
				C130.5,49.2,130.5,49.8,130.1,50.3C130.1,50.2,130.1,50.3,130.1,50.3z"/>
			<path id="Path_989" class="st6" d="M136.1,56.2c-0.4,0.4-1,0.4-1.4,0c-0.4-0.4-0.4-1,0-1.4c0.4-0.4,1-0.4,1.4,0
				C136.5,55.2,136.5,55.8,136.1,56.2C136.1,56.2,136.1,56.2,136.1,56.2z"/>
			<path id="Path_990" class="st6" d="M142.1,62.2c-0.4,0.4-1,0.4-1.4,0s-0.4-1,0-1.4s1-0.4,1.4,0S142.5,61.8,142.1,62.2z"/>
			<path id="Path_991" class="st6" d="M148.1,68.2c-0.4,0.4-1,0.4-1.4,0c0,0,0,0,0,0c-0.4-0.4-0.4-1,0-1.4s1-0.4,1.4,0
				C148.4,67.2,148.4,67.8,148.1,68.2z"/>
			<path id="Path_992" class="st6" d="M154,74.1c-0.4,0.4-1,0.4-1.4,0s-0.4-1,0-1.4c0.4-0.4,1-0.4,1.4,0
				C154.4,73.1,154.4,73.7,154,74.1C154,74.1,154,74.1,154,74.1z"/>
			<path id="Path_993" class="st6" d="M118.2,50.3c-0.4,0.4-1,0.4-1.4,0s-0.4-1,0-1.4s1-0.4,1.4,0S118.6,49.9,118.2,50.3z"/>
			<path id="Path_994" class="st6" d="M124.2,56.2c-0.4,0.4-1,0.4-1.4,0c-0.4-0.4-0.4-1,0-1.4c0.4-0.4,1-0.4,1.4,0
				C124.6,55.2,124.6,55.8,124.2,56.2C124.2,56.2,124.2,56.2,124.2,56.2z"/>
			<path id="Path_995" class="st6" d="M130.1,62.2c-0.4,0.4-1,0.4-1.4,0c-0.4-0.4-0.4-1,0-1.4c0.4-0.4,1-0.4,1.4,0
				C130.5,61.2,130.5,61.8,130.1,62.2C130.1,62.2,130.1,62.2,130.1,62.2z"/>
			<path id="Path_996" class="st6" d="M136.1,68.2c-0.4,0.4-1,0.4-1.4,0c-0.4-0.4-0.4-1,0-1.4c0.4-0.4,1-0.4,1.4,0
				C136.5,67.1,136.5,67.8,136.1,68.2C136.1,68.2,136.1,68.2,136.1,68.2z"/>
			<path id="Path_997" class="st6" d="M142.1,74.1c-0.4,0.4-1,0.4-1.4,0s-0.4-1,0-1.4c0.4-0.4,1-0.4,1.4,0
				C142.5,73.1,142.5,73.7,142.1,74.1C142.1,74.1,142.1,74.1,142.1,74.1z"/>
			<path id="Path_998" class="st6" d="M148.1,80.1c-0.4,0.4-1,0.4-1.4,0c-0.4-0.4-0.4-1,0-1.4l0,0c0.4-0.4,1-0.4,1.4,0
				C148.4,79.1,148.4,79.7,148.1,80.1z"/>
			<path id="Path_999" class="st6" d="M112.2,56.2c-0.4,0.4-1,0.4-1.4,0c-0.4-0.4-0.4-1,0-1.4c0.4-0.4,1-0.4,1.4,0l0,0
				C112.6,55.2,112.6,55.8,112.2,56.2C112.2,56.2,112.2,56.2,112.2,56.2z"/>
			<path id="Path_1000" class="st6" d="M118.2,62.2c-0.4,0.4-1,0.4-1.4,0c0,0,0,0,0,0c-0.4-0.4-0.4-1,0-1.4c0.4-0.4,1-0.4,1.4,0l0,0
				C118.6,61.2,118.6,61.8,118.2,62.2C118.2,62.2,118.2,62.2,118.2,62.2z"/>
			<path id="Path_1001" class="st6" d="M124.2,68.2c-0.4,0.4-1,0.4-1.4,0c-0.4-0.4-0.4-1,0-1.4c0.4-0.4,1-0.4,1.4,0c0,0,0,0,0,0l0,0
				C124.6,67.1,124.6,67.8,124.2,68.2C124.2,68.2,124.2,68.2,124.2,68.2z"/>
			<path id="Path_1002" class="st6" d="M130.1,74.2c-0.4,0.4-1,0.4-1.4,0c-0.4-0.4-0.4-1,0-1.4c0.4-0.4,1-0.4,1.4,0
				C130.5,73.1,130.5,73.7,130.1,74.2C130.2,74.1,130.1,74.1,130.1,74.2z"/>
			<path id="Path_1003" class="st6" d="M136.1,80.1c-0.4,0.4-1,0.4-1.4,0c-0.4-0.4-0.4-1,0-1.4c0.4-0.4,1-0.4,1.4,0
				C136.5,79.1,136.5,79.7,136.1,80.1C136.1,80.1,136.1,80.1,136.1,80.1z"/>
			<path id="Path_1004" class="st6" d="M142.1,86.1c-0.4,0.4-1,0.4-1.4,0c-0.4-0.4-0.4-1,0-1.4c0.4-0.4,1-0.4,1.4,0l0,0
				C142.5,85,142.5,85.7,142.1,86.1C142.1,86.1,142.1,86.1,142.1,86.1z"/>
			<path id="Path_1005" class="st6" d="M106.2,62.2c-0.4,0.4-1,0.4-1.4,0s-0.4-1,0-1.4c0.4-0.4,1-0.4,1.4,0l0,0
				C106.6,61.2,106.7,61.8,106.2,62.2C106.3,62.2,106.3,62.2,106.2,62.2z"/>
			<path id="Path_1006" class="st6" d="M112.2,68.2c-0.4,0.4-1,0.4-1.4,0c-0.4-0.4-0.4-1,0-1.4c0.4-0.4,1-0.4,1.4,0l0,0
				C112.6,67.1,112.6,67.8,112.2,68.2C112.2,68.2,112.2,68.2,112.2,68.2z"/>
			<path id="Path_1007" class="st6" d="M118.2,74.1c-0.4,0.4-1,0.4-1.4,0s-0.4-1,0-1.4c0.4-0.4,1-0.4,1.4,0l0,0
				C118.6,73.1,118.6,73.7,118.2,74.1C118.2,74.1,118.2,74.1,118.2,74.1z"/>
			<path id="Path_1008" class="st6" d="M124.2,80.1c-0.4,0.4-1,0.4-1.4,0c0,0,0,0,0,0c-0.4-0.4-0.4-1,0-1.4s1-0.4,1.4,0
				C124.6,79.1,124.6,79.7,124.2,80.1z"/>
			<path id="Path_1009" class="st6" d="M130.1,86.1c-0.4,0.4-1,0.4-1.4,0c-0.4-0.4-0.4-1,0-1.4c0.4-0.4,1-0.4,1.4,0
				C130.5,85,130.5,85.7,130.1,86.1C130.1,86.1,130.1,86.1,130.1,86.1z"/>
			<path id="Path_1010" class="st6" d="M136.1,92.1c-0.4,0.4-1,0.4-1.4,0c-0.4-0.4-0.4-1,0-1.4c0.4-0.4,1-0.4,1.4,0l0,0
				C136.5,91,136.5,91.6,136.1,92.1C136.1,92,136.1,92.1,136.1,92.1z"/>
			<path id="Path_1011" class="st6" d="M100.3,68.2c-0.4,0.4-1,0.4-1.4,0s-0.4-1,0-1.4c0.4-0.4,1-0.4,1.4,0l0,0
				C100.7,67.1,100.7,67.8,100.3,68.2C100.3,68.2,100.3,68.2,100.3,68.2L100.3,68.2z"/>
			<path id="Path_1012" class="st6" d="M106.2,74.1c-0.4,0.4-1,0.4-1.4,0c-0.4-0.4-0.4-1,0-1.4c0.4-0.4,1-0.4,1.4,0c0,0,0,0,0,0l0,0
				C106.6,73.1,106.6,73.7,106.2,74.1C106.3,74.1,106.3,74.1,106.2,74.1z"/>
			<path id="Path_1013" class="st6" d="M112.2,80.1c-0.4,0.4-1,0.4-1.4,0c-0.4-0.4-0.4-1,0-1.4c0.4-0.4,1-0.4,1.4,0l0,0
				C112.6,79.1,112.6,79.7,112.2,80.1C112.2,80.1,112.2,80.1,112.2,80.1z"/>
			<path id="Path_1014" class="st6" d="M118.2,86.1c-0.4,0.4-1,0.4-1.4,0c-0.4-0.4-0.4-1,0-1.4c0.4-0.4,1-0.4,1.4,0
				C118.6,85,118.6,85.7,118.2,86.1C118.2,86.1,118.2,86.1,118.2,86.1z"/>
			<path id="Path_1015" class="st6" d="M124.2,92.1c-0.4,0.4-1,0.4-1.4,0c-0.4-0.4-0.4-1,0-1.4c0.4-0.4,1-0.4,1.4,0c0,0,0,0,0,0
				C124.6,91,124.6,91.6,124.2,92.1C124.2,92,124.2,92.1,124.2,92.1z"/>
			<path id="Path_1016" class="st6" d="M130.1,98c-0.4,0.4-1,0.4-1.4,0c-0.4-0.4-0.4-1,0-1.4l0,0c0.4-0.4,1-0.4,1.4,0c0,0,0,0,0,0
				l0,0C130.5,97,130.5,97.6,130.1,98C130.1,98,130.1,98,130.1,98z"/>
			<path id="Path_1017" class="st6" d="M94.3,74.1c-0.4,0.4-1,0.4-1.4,0c0,0,0,0,0,0c-0.4-0.4-0.4-1,0-1.4s1-0.4,1.4,0
				C94.7,73.1,94.7,73.8,94.3,74.1L94.3,74.1z"/>
			<path id="Path_1018" class="st6" d="M100.3,80.1c-0.4,0.4-1,0.4-1.4,0c0,0,0,0,0,0c-0.4-0.4-0.4-1,0-1.4c0,0,0,0,0,0
				c0.4-0.4,1-0.4,1.4,0C100.7,79.1,100.7,79.7,100.3,80.1L100.3,80.1z"/>
			<path id="Path_1019" class="st6" d="M106.2,86.1c-0.4,0.4-1,0.4-1.4,0s-0.4-1,0-1.4c0.4-0.4,1-0.4,1.4,0
				C106.6,85,106.7,85.7,106.2,86.1C106.3,86.1,106.3,86.1,106.2,86.1z"/>
			<path id="Path_1020" class="st6" d="M112.2,92.1c-0.4,0.4-1,0.4-1.4,0c-0.4-0.4-0.4-1,0-1.4c0.4-0.4,1-0.4,1.4,0
				C112.6,91,112.6,91.6,112.2,92.1C112.2,92,112.2,92.1,112.2,92.1z"/>
			<circle id="Ellipse_120" class="st6" cx="117.5" cy="97.3" r="1"/>
			<circle id="Ellipse_121" class="st6" cx="123.4" cy="103.3" r="1"/>
			<path id="Path_1021" class="st6" d="M88.3,80.1c-0.4,0.4-1,0.4-1.4,0s-0.4-1,0-1.4s1-0.4,1.4,0S88.7,79.7,88.3,80.1z"/>
			<path id="Path_1022" class="st6" d="M94.3,86.1c-0.4,0.4-1,0.4-1.4,0s-0.4-1,0-1.4c0.4-0.4,1-0.4,1.4,0
				C94.7,85,94.7,85.7,94.3,86.1C94.3,86.1,94.3,86.1,94.3,86.1z"/>
			<path id="Path_1023" class="st6" d="M100.3,92.1c-0.4,0.4-1,0.4-1.4,0c-0.4-0.4-0.4-1,0-1.4l0,0c0.4-0.4,1-0.4,1.4,0
				C100.7,91,100.7,91.7,100.3,92.1z"/>
			<path id="Path_1024" class="st6" d="M106.2,98c-0.4,0.4-1,0.4-1.4,0s-0.4-1,0-1.4c0.4-0.4,1-0.4,1.4,0
				C106.6,97,106.7,97.6,106.2,98C106.3,98,106.3,98,106.2,98z"/>
			<path id="Path_1025" class="st6" d="M112.2,104c-0.4,0.4-1,0.4-1.4,0s-0.4-1,0-1.4c0.4-0.4,1-0.4,1.4,0
				C112.6,103,112.6,103.6,112.2,104C112.2,104,112.2,104,112.2,104z"/>
			<path id="Path_1026" class="st6" d="M118.2,110c-0.4,0.4-1,0.4-1.4,0c-0.4-0.4-0.4-1,0-1.4c0.4-0.4,1-0.4,1.4,0c0,0,0,0,0,0
				C118.6,108.9,118.6,109.6,118.2,110C118.2,110,118.2,110,118.2,110z"/>
			<path id="Path_1027" class="st6" d="M40.5,44.3c-0.4,0.4-1,0.4-1.4,0c0,0,0,0,0,0c-0.4-0.4-0.4-1,0-1.4s1-0.4,1.4,0
				C40.9,43.2,40.9,43.9,40.5,44.3C40.6,44.3,40.6,44.3,40.5,44.3z"/>
			<path id="Path_1028" class="st6" d="M46.5,50.3c-0.4,0.4-1,0.4-1.4,0c0,0,0,0,0,0c-0.4-0.4-0.4-1,0-1.4c0.4-0.4,1-0.4,1.4,0
				C46.9,49.3,46.9,49.9,46.5,50.3z"/>
			<path id="Path_1029" class="st6" d="M52.5,56.2c-0.4,0.4-1,0.4-1.4,0c-0.4-0.4-0.4-1,0-1.4c0.4-0.4,1-0.4,1.4,0
				C52.9,55.2,52.9,55.8,52.5,56.2C52.5,56.2,52.5,56.2,52.5,56.2z"/>
			<path id="Path_1030" class="st6" d="M58.5,62.2c-0.4,0.4-1,0.4-1.4,0s-0.4-1,0-1.4c0.4-0.4,1-0.4,1.4,0
				C58.9,61.2,58.9,61.8,58.5,62.2C58.5,62.2,58.5,62.2,58.5,62.2z"/>
			<path id="Path_1031" class="st6" d="M64.4,68.2c-0.4,0.4-1,0.4-1.4,0c0,0,0,0,0,0c-0.4-0.4-0.4-1,0-1.4s1-0.4,1.4,0
				C64.8,67.1,64.8,67.8,64.4,68.2C64.5,68.2,64.4,68.2,64.4,68.2z"/>
			<path id="Path_1032" class="st6" d="M70.4,74.1c-0.4,0.4-1,0.4-1.4,0c-0.4-0.4-0.4-1,0-1.4c0.4-0.4,1-0.4,1.4,0
				C70.8,73.1,70.8,73.7,70.4,74.1C70.4,74.1,70.4,74.1,70.4,74.1z"/>
			<path id="Path_1033" class="st6" d="M76.4,80.1c-0.4,0.4-1,0.4-1.4,0c0,0,0,0,0,0c-0.4-0.4-0.4-1,0-1.4s1-0.4,1.4,0
				C76.8,79.1,76.8,79.7,76.4,80.1z"/>
			<path id="Path_1034" class="st6" d="M34.6,50.3c-0.4,0.4-1,0.4-1.4,0c0,0,0,0,0,0c-0.4-0.4-0.4-1,0-1.4c0.4-0.4,1-0.4,1.4,0
				C35,49.3,35,49.9,34.6,50.3z"/>
			<circle id="Ellipse_122" class="st6" cx="39.8" cy="55.5" r="1"/>
			<circle id="Ellipse_123" class="st6" cx="45.8" cy="61.5" r="1"/>
			<circle id="Ellipse_124" class="st6" cx="51.8" cy="67.5" r="1"/>
			<path id="Path_1035" class="st6" d="M58.5,74.1c-0.4,0.4-1,0.4-1.4,0c-0.4-0.4-0.4-1,0-1.4c0.4-0.4,1-0.4,1.4,0
				C58.9,73.1,58.9,73.7,58.5,74.1C58.5,74.1,58.5,74.1,58.5,74.1z"/>
			<path id="Path_1036" class="st6" d="M64.4,80.1c-0.4,0.4-1,0.4-1.4,0c-0.4-0.4-0.4-1,0-1.4l0,0c0.4-0.4,1-0.4,1.4,0
				S64.8,79.7,64.4,80.1L64.4,80.1z"/>
			<path id="Path_1037" class="st6" d="M70.4,86.1c-0.4,0.4-1,0.4-1.4,0s-0.4-1,0-1.4c0.4-0.4,1-0.4,1.4,0
				C70.8,85,70.8,85.7,70.4,86.1C70.4,86.1,70.4,86.1,70.4,86.1z"/>
			<path id="Path_1038" class="st6" d="M28.6,56.2c-0.4,0.4-1,0.4-1.4,0s-0.4-1,0-1.4c0.4-0.4,1-0.4,1.4,0
				C29,55.2,29,55.8,28.6,56.2C28.6,56.2,28.6,56.2,28.6,56.2z"/>
			<circle id="Ellipse_125" class="st6" cx="33.9" cy="61.5" r="1"/>
			<circle id="Ellipse_126" class="st6" cx="39.8" cy="67.5" r="1"/>
			<circle id="Ellipse_127" class="st6" cx="45.8" cy="73.4" r="1"/>
			<path id="Path_1039" class="st6" d="M52.5,80.1c-0.4,0.4-1,0.4-1.4,0c0,0,0,0,0,0c-0.4-0.4-0.4-1,0-1.4s1-0.4,1.4,0
				C52.9,79.1,52.9,79.7,52.5,80.1C52.5,80.1,52.5,80.1,52.5,80.1z"/>
			<path id="Path_1040" class="st6" d="M58.5,86.1c-0.4,0.4-1,0.4-1.4,0s-0.4-1,0-1.4c0.4-0.4,1-0.4,1.4,0
				C58.9,85,58.9,85.7,58.5,86.1C58.5,86.1,58.5,86.1,58.5,86.1z"/>
			<path id="Path_1041" class="st6" d="M64.4,92.1c-0.4,0.4-1,0.4-1.4,0c0,0,0,0,0,0c-0.4-0.4-0.4-1,0-1.4s1-0.4,1.4,0
				C64.8,91.1,64.8,91.7,64.4,92.1z"/>
			<path id="Path_1042" class="st6" d="M22.6,62.2c-0.4,0.4-1,0.4-1.4,0s-0.4-1,0-1.4c0.4-0.4,1-0.4,1.4,0
				C23,61.2,23,61.8,22.6,62.2C22.7,62.2,22.6,62.2,22.6,62.2z"/>
			<path id="Path_1043" class="st6" d="M28.6,68.2c-0.4,0.4-1,0.4-1.4,0c0,0,0,0,0,0c-0.4-0.4-0.4-1,0-1.4c0.4-0.4,1-0.4,1.4,0
				C29,67.2,29,67.8,28.6,68.2z"/>
			<path id="Path_1044" class="st6" d="M34.6,74.1c-0.4,0.4-1,0.4-1.4,0s-0.4-1,0-1.4c0.4-0.4,1-0.4,1.4,0
				C35,73.1,35,73.7,34.6,74.1C34.6,74.1,34.6,74.1,34.6,74.1z"/>
			<path id="Path_1045" class="st6" d="M40.5,80.1c-0.4,0.4-1,0.4-1.4,0s-0.4-1,0-1.4s1-0.4,1.4,0S40.9,79.7,40.5,80.1z"/>
			<path id="Path_1046" class="st6" d="M46.5,86.1c-0.4,0.4-1,0.4-1.4,0c0,0,0,0,0,0c-0.4-0.4-0.4-1,0-1.4c0,0,0,0,0,0
				c0.4-0.4,1-0.4,1.4,0S46.9,85.7,46.5,86.1z"/>
			<path id="Path_1047" class="st6" d="M52.5,92.1c-0.4,0.4-1,0.4-1.4,0s-0.4-1,0-1.4s1-0.4,1.4,0S52.9,91.7,52.5,92.1L52.5,92.1z"
				/>
			<path id="Path_1048" class="st6" d="M58.5,98c-0.4,0.4-1,0.4-1.4,0c0,0,0,0,0,0c-0.4-0.4-0.4-1,0-1.4s1-0.4,1.4,0
				C58.8,97,58.8,97.6,58.5,98z"/>
			<path id="Path_1049" class="st6" d="M16.7,68.2c-0.4,0.4-1,0.4-1.4,0c0,0,0,0,0,0c-0.4-0.4-0.4-1,0-1.4c0.4-0.4,1-0.4,1.4,0
				C17,67.2,17,67.8,16.7,68.2z"/>
			<path id="Path_1050" class="st6" d="M22.6,74.1c-0.4,0.4-1,0.4-1.4,0c-0.4-0.4-0.4-1,0-1.4c0.4-0.4,1-0.4,1.4,0
				C23,73.1,23,73.7,22.6,74.1C22.6,74.1,22.6,74.1,22.6,74.1z"/>
			<path id="Path_1051" class="st6" d="M28.6,80.1c-0.4,0.4-1,0.4-1.4,0c-0.4-0.4-0.4-1,0-1.4c0.4-0.4,1-0.4,1.4,0
				C29,79.1,29,79.7,28.6,80.1C28.6,80.1,28.6,80.1,28.6,80.1z"/>
			<path id="Path_1052" class="st6" d="M34.6,86.1c-0.4,0.4-1,0.4-1.4,0s-0.4-1,0-1.4c0.4-0.4,1-0.4,1.4,0C35,85,35,85.7,34.6,86.1
				C34.6,86.1,34.6,86.1,34.6,86.1z"/>
			<path id="Path_1053" class="st6" d="M40.5,92.1c-0.4,0.4-1,0.4-1.4,0c0,0,0,0,0,0c-0.4-0.4-0.4-1,0-1.4s1-0.4,1.4,0l0,0
				C40.9,91,41,91.6,40.5,92.1C40.6,92,40.6,92.1,40.5,92.1z"/>
			<path id="Path_1054" class="st6" d="M46.5,98c-0.4,0.4-1,0.4-1.4,0s-0.4-1,0-1.4s1-0.4,1.4,0S46.9,97.6,46.5,98z"/>
			<path id="Path_1055" class="st6" d="M52.5,104c-0.4,0.4-1,0.4-1.4,0c0,0,0,0,0,0c-0.4-0.4-0.4-1,0-1.4c0,0,0,0,0,0
				c0.4-0.4,1-0.4,1.4,0C52.9,103,52.9,103.6,52.5,104z"/>
			<path id="Path_1056" class="st6" d="M10.7,74.1c-0.4,0.4-1,0.4-1.4,0c-0.4-0.4-0.4-1,0-1.4c0.4-0.4,1-0.4,1.4,0c0,0,0,0,0,0l0,0
				C11.1,73.1,11.1,73.7,10.7,74.1C10.7,74.1,10.7,74.1,10.7,74.1z"/>
			<path id="Path_1057" class="st6" d="M16.7,80.1c-0.4,0.4-1,0.4-1.4,0c0,0,0,0,0,0c-0.4-0.4-0.4-1,0-1.4c0.4-0.4,1-0.4,1.4,0
				C17,79.1,17,79.7,16.7,80.1z"/>
			<path id="Path_1058" class="st6" d="M22.6,86.1c-0.4,0.4-1,0.4-1.4,0c-0.4-0.4-0.4-1,0-1.4c0.4-0.4,1-0.4,1.4,0
				C23,85,23,85.7,22.6,86.1C22.6,86.1,22.6,86.1,22.6,86.1z"/>
			<path id="Path_1059" class="st6" d="M28.6,92.1c-0.4,0.4-1,0.4-1.4,0s-0.4-1,0-1.4c0.4-0.4,1-0.4,1.4,0l0,0
				C29,91,29,91.6,28.6,92.1C28.6,92,28.6,92.1,28.6,92.1z"/>
			<path id="Path_1060" class="st6" d="M34.6,98c-0.4,0.4-1,0.4-1.4,0s-0.4-1,0-1.4c0.4-0.4,1-0.4,1.4,0l0,0C35,97,35,97.6,34.6,98
				C34.6,98,34.6,98,34.6,98z"/>
			<path id="Path_1061" class="st6" d="M40.5,104c-0.4,0.4-1,0.4-1.4,0c0,0,0,0,0,0c-0.4-0.4-0.4-1,0-1.4c0.4-0.4,1-0.4,1.4,0l0,0
				C40.9,103,40.9,103.6,40.5,104C40.6,104,40.6,104,40.5,104L40.5,104z"/>
			<path id="Path_1062" class="st6" d="M46.5,110c-0.4,0.4-1,0.4-1.4,0c-0.4-0.4-0.4-1,0-1.4l0,0c0.4-0.4,1-0.4,1.4,0c0,0,0,0,0,0
				l0,0C46.9,108.9,46.9,109.6,46.5,110C46.5,110,46.5,110,46.5,110L46.5,110z"/>
			<path id="Path_1063" class="st6" d="M82.4,86.1c-0.4,0.4-1,0.4-1.4,0s-0.4-1,0-1.4c0.4-0.4,1-0.4,1.4,0
				C82.8,85,82.8,85.7,82.4,86.1C82.4,86.1,82.4,86.1,82.4,86.1z"/>
			<path id="Path_1064" class="st6" d="M88.3,92.1c-0.4,0.4-1,0.4-1.4,0c0,0,0,0,0,0c-0.4-0.4-0.4-1,0-1.4s1-0.4,1.4,0
				C88.7,91.1,88.7,91.7,88.3,92.1z"/>
			<path id="Path_1065" class="st6" d="M94.3,98c-0.4,0.4-1,0.4-1.4,0s-0.4-1,0-1.4c0.4-0.4,1-0.4,1.4,0C94.7,97,94.7,97.6,94.3,98
				C94.3,98,94.3,98,94.3,98z"/>
			<path id="Path_1066" class="st6" d="M100.3,104c-0.4,0.4-1,0.4-1.4,0s-0.4-1,0-1.4c0.4-0.4,1-0.4,1.4,0
				C100.7,103,100.7,103.6,100.3,104C100.3,104,100.3,104,100.3,104z"/>
			<path id="Path_1067" class="st6" d="M106.2,110c-0.4,0.4-1,0.4-1.4,0s-0.4-1,0-1.4c0.4-0.4,1-0.4,1.4,0
				C106.6,108.9,106.7,109.6,106.2,110C106.3,110,106.3,110,106.2,110z"/>
			<path id="Path_1068" class="st6" d="M112.2,116c-0.4,0.4-1,0.4-1.4,0c-0.4-0.4-0.4-1,0-1.4c0.4-0.4,1-0.4,1.4,0
				C112.6,114.9,112.6,115.5,112.2,116C112.2,115.9,112.2,115.9,112.2,116z"/>
			<path id="Path_1069" class="st6" d="M76.4,92.1c-0.4,0.4-1,0.5-1.4,0.1c-0.4-0.4-0.5-1-0.1-1.4c0,0,0.1-0.1,0.1-0.1
				c0.4-0.4,1-0.4,1.4,0S76.8,91.7,76.4,92.1L76.4,92.1L76.4,92.1z"/>
			<path id="Path_1070" class="st6" d="M82.4,98c-0.4,0.4-1,0.4-1.4,0c-0.4-0.4-0.4-1,0-1.4c0.4-0.4,1-0.4,1.4,0
				C82.8,97,82.8,97.6,82.4,98C82.4,98,82.4,98,82.4,98z"/>
			<path id="Path_1071" class="st6" d="M88.3,104c-0.4,0.4-1,0.4-1.4,0c-0.4-0.4-0.4-1,0-1.4c0.4-0.4,1-0.4,1.4,0
				C88.7,103,88.7,103.6,88.3,104C88.3,104,88.3,104,88.3,104z"/>
			<path id="Path_1072" class="st6" d="M94.3,110c-0.4,0.4-1,0.4-1.4,0s-0.4-1,0-1.4c0.4-0.4,1-0.4,1.4,0
				C94.7,108.9,94.7,109.6,94.3,110C94.3,110,94.3,110,94.3,110z"/>
			<circle id="Ellipse_128" class="st6" cx="99.6" cy="115.2" r="1"/>
			<circle id="Ellipse_129" class="st6" cx="105.5" cy="121.2" r="1"/>
			<path id="Path_1073" class="st6" d="M70.4,98c-0.4,0.4-1,0.4-1.4,0c-0.4-0.4-0.4-1,0-1.4c0.4-0.4,1-0.4,1.4,0
				C70.8,97,70.8,97.6,70.4,98C70.4,98,70.4,98,70.4,98z"/>
			<path id="Path_1074" class="st6" d="M76.4,104c-0.4,0.4-1,0.4-1.4,0c0,0,0,0,0,0c-0.4-0.4-0.4-1,0-1.4s1-0.4,1.4,0l0,0
				C76.8,103,76.8,103.6,76.4,104C76.4,104,76.4,104,76.4,104z"/>
			<path id="Path_1075" class="st6" d="M82.4,110c-0.4,0.4-1,0.4-1.4,0s-0.4-1,0-1.4c0.4-0.4,1-0.4,1.4,0
				C82.8,108.9,82.8,109.6,82.4,110C82.4,110,82.4,110,82.4,110z"/>
			<path id="Path_1076" class="st6" d="M88.3,116c-0.4,0.4-1,0.4-1.4,0c0,0,0,0,0,0c-0.4-0.4-0.4-1,0-1.4c0.4-0.4,1-0.4,1.4,0
				C88.7,114.9,88.7,115.6,88.3,116z"/>
			<circle id="Ellipse_130" class="st6" cx="93.6" cy="121.2" r="1"/>
			<circle id="Ellipse_131" class="st6" cx="99.6" cy="127.2" r="1"/>
			<path id="Path_1077" class="st6" d="M64.4,104c-0.4,0.4-1,0.4-1.4,0c-0.4-0.4-0.4-1,0-1.4c0.4-0.4,1-0.4,1.4,0c0,0,0,0,0,0
				C64.8,103,64.8,103.6,64.4,104C64.4,104,64.4,104,64.4,104L64.4,104z"/>
			<path id="Path_1078" class="st6" d="M70.4,110c-0.4,0.4-1,0.4-1.4,0s-0.4-1,0-1.4c0.4-0.4,1-0.4,1.4,0
				C70.8,108.9,70.8,109.6,70.4,110C70.4,110,70.4,110,70.4,110z"/>
			<path id="Path_1079" class="st6" d="M76.4,116c-0.4,0.3-1.1,0.3-1.4-0.2c-0.3-0.4-0.3-0.9,0-1.2c0.4-0.4,1-0.4,1.4,0
				S76.8,115.6,76.4,116L76.4,116L76.4,116z"/>
			<path id="Path_1080" class="st6" d="M82.4,121.9c-0.4,0.4-1,0.4-1.4,0s-0.4-1,0-1.4s1-0.4,1.4,0S82.8,121.5,82.4,121.9z"/>
			<path id="Path_1081" class="st6" d="M88.3,127.9c-0.4,0.4-1,0.4-1.4,0c0,0,0,0,0,0c-0.4-0.4-0.4-1,0-1.4c0.4-0.4,1-0.4,1.4,0
				C88.7,126.9,88.7,127.5,88.3,127.9z"/>
			<path id="Path_1082" class="st6" d="M94.3,133.9c-0.4,0.4-1,0.4-1.4,0c-0.4-0.4-0.4-1,0-1.4c0.4-0.4,1-0.4,1.4,0c0,0,0,0,0,0
				C94.7,132.8,94.7,133.5,94.3,133.9C94.3,133.9,94.3,133.9,94.3,133.9L94.3,133.9z"/>
			<path id="Path_1083" class="st6" d="M58.5,110c-0.4,0.4-1,0.4-1.4,0c-0.4-0.4-0.4-1,0-1.4l0,0c0.4-0.4,1-0.4,1.4,0c0,0,0,0,0,0
				C58.8,108.9,58.8,109.6,58.5,110C58.4,110,58.4,110,58.5,110L58.5,110z"/>
			<path id="Path_1084" class="st6" d="M64.4,116c-0.4,0.4-1,0.4-1.4,0c-0.4-0.4-0.4-1,0-1.4c0.4-0.4,1-0.4,1.4,0
				C64.8,114.9,64.8,115.5,64.4,116C64.5,115.9,64.4,115.9,64.4,116z"/>
			<path id="Path_1085" class="st6" d="M70.4,121.9c-0.4,0.4-1,0.4-1.4,0s-0.4-1,0-1.4c0.4-0.4,1-0.4,1.4,0
				C70.8,120.9,70.8,121.5,70.4,121.9C70.4,121.9,70.4,121.9,70.4,121.9z"/>
			<path id="Path_1086" class="st6" d="M76.4,127.9c-0.4,0.4-1,0.4-1.4,0c-0.4-0.4-0.4-1,0-1.4c0.4-0.4,1-0.4,1.4,0
				C76.8,126.9,76.8,127.5,76.4,127.9C76.4,127.9,76.4,127.9,76.4,127.9z"/>
			<path id="Path_1087" class="st6" d="M82.4,133.9c-0.4,0.4-1,0.4-1.4,0s-0.4-1,0-1.4c0.4-0.4,1-0.4,1.4,0
				C82.8,132.8,82.8,133.5,82.4,133.9C82.4,133.9,82.4,133.9,82.4,133.9z"/>
			<path id="Path_1088" class="st6" d="M88.3,139.8c-0.4,0.4-1,0.4-1.4,0c-0.4-0.4-0.4-1,0-1.4c0.4-0.4,1-0.4,1.4,0c0,0,0,0,0,0
				C88.7,138.8,88.7,139.4,88.3,139.8C88.3,139.8,88.3,139.8,88.3,139.8z"/>
			<path id="Path_1089" class="st6" d="M52.5,116c-0.4,0.4-1,0.4-1.4,0c-0.4-0.4-0.4-1,0-1.4c0.4-0.4,1-0.4,1.4,0l0,0
				C52.9,114.9,52.9,115.5,52.5,116C52.5,115.9,52.5,115.9,52.5,116z"/>
			<path id="Path_1090" class="st6" d="M58.5,121.9c-0.4,0.4-1,0.4-1.4,0s-0.4-1,0-1.4c0.4-0.4,1-0.4,1.4,0l0,0
				C58.9,120.9,58.9,121.5,58.5,121.9C58.5,121.9,58.5,121.9,58.5,121.9z"/>
			<path id="Path_1091" class="st6" d="M64.4,127.9c-0.4,0.4-1,0.4-1.4,0c-0.4-0.4-0.4-1,0-1.4c0.4-0.4,1-0.4,1.4,0l0,0
				C64.8,126.8,64.8,127.5,64.4,127.9C64.5,127.9,64.4,127.9,64.4,127.9z"/>
			<path id="Path_1092" class="st6" d="M70.4,133.9c-0.4,0.4-1,0.4-1.4,0s-0.4-1,0-1.4c0.4-0.4,1-0.4,1.4,0
				C70.8,132.8,70.8,133.5,70.4,133.9C70.4,133.9,70.4,133.9,70.4,133.9z"/>
			<path id="Path_1093" class="st6" d="M76.4,139.8c-0.4,0.4-1,0.4-1.4,0c0,0,0,0,0,0c-0.4-0.4-0.4-1,0-1.4c0.4-0.4,1-0.4,1.4,0
				C76.8,138.8,76.8,139.5,76.4,139.8z"/>
			<path id="Path_1094" class="st6" d="M82.4,145.8c-0.4,0.4-1,0.4-1.4,0c0,0,0,0,0,0c-0.4-0.4-0.4-1,0-1.4c0,0,0,0,0,0
				c0.4-0.4,1-0.4,1.4,0c0,0,0,0,0,0l0,0C82.8,144.8,82.8,145.4,82.4,145.8C82.4,145.8,82.4,145.8,82.4,145.8z"/>
		</g>
	</g>
</g>
</svg>
