<?xml version="1.0" standalone="no"?>
<!DOCTYPE svg PUBLIC "-//W3C//DTD SVG 1.1//EN" "http://www.w3.org/Graphics/SVG/1.1/DTD/svg11.dtd" >
<svg xmlns="http://www.w3.org/2000/svg">
<metadata>Generated by IcoMoon</metadata>
<defs>
<font id="totara" horiz-adv-x="1024">
<font-face units-per-em="1024" ascent="960" descent="-64" />
<missing-glyph horiz-adv-x="1024" />
<glyph unicode="&#x20;" horiz-adv-x="512" d="" />
<glyph unicode="&#xe900;" glyph-name="columns" horiz-adv-x="1036" d="M443.312 43.576v808.104c0 44.065 30.623 44.065 74.685 44.065s74.685 0 74.685-44.065v-807.357c0-44.065-30.623-44.065-74.685-44.065s-74.685 0-74.685 44.065v-0.746zM742.058 43.576v808.104c0 44.065 30.623 44.065 74.685 44.065s74.685 0 74.685-44.065v-807.357c0-44.065-30.623-44.065-74.685-44.065s-74.685 0-74.685 44.065v-0.746zM293.942 851.68v-807.357c0-44.065-30.623-44.065-74.685-44.065s-74.685 0-74.685 44.065v807.357c0 44.065 30.623 44.065 74.685 44.065s74.685 0 74.685-44.065v0z" />
<glyph unicode="&#xe901;" glyph-name="blended" horiz-adv-x="1028" d="M353.354 294.198c0-54.030-41.656-97.81-93.054-97.81s-93.054 43.784-93.054 97.81c0 54.030 41.656 97.81 93.054 97.81s93.054-43.784 93.054-97.81zM113.329 0.088c-48.99 0-48.99 24.579-48.99 49.158s0 98.316 24.523 122.896c49.886 50.054 75.92 52.798 75.92 52.798s22.060-52.798 95.52-52.798c73.514 0 95.52 52.798 95.52 52.798s26.203-2.856 75.92-52.798c24.523-24.579 24.523-98.316 24.523-122.896s0-49.158-48.99-49.158zM856.526 296.326c0-54.366-41.936-98.484-93.726-98.484s-93.726 44.12-93.726 98.484c0 54.366 41.936 98.484 93.726 98.484s93.726-44.12 93.726-98.484zM614.766 0.088c-49.326 0-49.326 24.747-49.326 49.494s0 99.044 24.691 123.792c50.222 50.39 76.482 53.19 76.482 53.19s22.228-53.19 96.191-53.19c74.018 0 96.191 53.19 96.191 53.19s26.368-2.912 76.482-53.19c24.691-24.747 24.691-99.044 24.691-123.792s0-49.494-49.326-49.494zM244.121 894.68v-380.727h536.262v380.727h-536.262zM288.798 845.69h446.904v-283.136h-446.904v283.136zM580.893 212.846h15.398v30.794h-168.024v-30.794h15.398zM432.578 458.526l10.862 10.862-21.78 21.78-95.464-95.464 21.78-21.78 10.862 10.862zM610.901 480.306l-10.862 10.862-21.78-21.78 95.464-95.464 21.78 21.78-10.862 10.862z" />
<glyph unicode="&#xe902;" glyph-name="slash" horiz-adv-x="1020" d="M135.719 1.472l665.867 950.956 82.692-57.901-665.867-950.956-82.692 57.901z" />
<glyph unicode="&#xe903;" glyph-name="seminar" d="M604.906 767.262c0.896-5.096 1.4-10.36 1.4-15.68 0-50.791-42.56-91.898-95.034-91.898s-95.034 41.16-95.034 91.898c0 4.872 0.392 9.688 1.176 14.392 9.52-5.488 22.008-9.856 37.52-13.16 16.968-3.64 35.336-5.432 55.106-5.432s38.192 1.792 55.106 5.432c16.744 3.584 30.016 8.4 39.76 14.504zM569.848 823.934c-16.128 12.264-36.456 19.544-58.576 19.544-22.4 0-43.006-7.504-59.248-20.048l49.841-14.504c2.52-0.728 5.208-1.12 8.176-1.12s5.712 0.392 8.176 1.12l51.631 15.008zM405.262 676.932c-11.536-4.144-34.832-15.68-69.108-47.321-25.032-23.128-25.032-110.714-25.032-110.714h397.608c0 0 2.576 87.642-22.4 110.714-34.664 32.032-58.128 43.454-69.556 47.489-24.304-29.4-62.667-48.329-105.842-48.329-43.062 0-81.37 18.872-105.73 48.217zM596.674 843.536l2.52-40.656c0.392-5.936-3.416-11.424-11.424-16.464s-18.928-9.072-32.76-12.040c-13.832-2.968-28.84-4.424-45.022-4.424s-31.136 1.456-45.022 4.424c-13.832 2.968-24.752 6.944-32.76 12.040s-11.816 10.528-11.424 16.464l2.52 40.656 79.97-23.296c2.016-0.616 4.256-0.896 6.664-0.896s4.648 0.28 6.664 0.896l79.97 23.296zM685.098 842.133c0-2.128-1.12-3.584-3.36-4.368l-170.244-49.393c-0.392-0.112-0.896-0.112-1.512-0.112s-1.12 0.056-1.512 0.112l-99.066 28.896c-4.368-3.192-7.952-8.4-10.808-15.624s-4.536-15.624-5.152-25.032c6.384-3.36 9.576-8.456 9.576-15.288 0-6.44-2.912-11.48-8.792-15.008l8.792-60.763c0.224-1.288-0.224-2.464-1.232-3.528-0.896-1.008-2.128-1.568-3.64-1.568h-29.176c-1.512 0-2.744 0.504-3.64 1.568-1.008 1.008-1.4 2.184-1.232 3.528l8.792 60.763c-5.88 3.528-8.792 8.568-8.792 15.008 0 6.832 3.304 12.040 9.856 15.568 1.12 19.376 6.104 34.776 14.896 46.313l-50.623 14.616c-2.24 0.728-3.36 2.184-3.36 4.368s1.12 3.584 3.36 4.368l170.244 49.393c0.392 0.112 0.896 0.168 1.512 0.168s1.12-0.056 1.512-0.168l170.244-49.393c2.24-0.728 3.36-2.184 3.36-4.368v0zM354.864 296.014c0-54.378-41.944-98.45-93.69-98.45s-93.69 44.070-93.69 98.45c0 54.378 41.944 98.45 93.69 98.45s93.69-44.070 93.69-98.45zM113.272-0.008c-49.281 0-49.281 24.752-49.281 49.449s0 98.954 24.64 123.706c50.175 50.343 76.442 53.143 76.442 53.143s22.176-53.143 96.154-53.143c73.978 0 96.154 53.143 96.154 53.143s26.376-2.856 76.442-53.143c24.64-24.752 24.64-98.954 24.64-123.706s0-49.449-49.281-49.449zM856.406 298.87c0-54.378-41.944-98.45-93.69-98.45s-93.69 44.070-93.69 98.45c0 54.378 41.944 98.45 93.69 98.45s93.69-44.070 93.69-98.45zM614.874 2.792c-49.281 0-49.281 24.752-49.281 49.449s0 98.954 24.64 123.706c50.175 50.343 76.442 53.143 76.442 53.143s22.176-53.143 96.154-53.143c73.978 0 96.154 53.143 96.154 53.143s26.376-2.856 76.442-53.143c24.64-24.752 24.64-98.954 24.64-123.706s0-49.449-49.281-49.449zM579.425 216.268h15.456v30.912h-168.564v-30.912h15.456zM430.63 462.728l10.92 10.92-21.84 21.84-95.762-95.762 21.84-21.84 10.92 10.92zM609.61 484.624l-10.92 10.92-21.84-21.84 95.762-95.762 21.84 21.84-10.92 10.92z" />
<glyph unicode="&#xe904;" glyph-name="totara" horiz-adv-x="1023" d="M404.841 641.168c0-90.581 43.192-171.058 110.077-222.048 66.869 50.987 110.063 131.462 110.063 222.048 0 90.591-43.192 171.043-110.062 222.054-66.882-51.011-110.078-131.462-110.078-222.054zM680.303 468.74c-56.107-32.366-100.336-83.13-124.598-143.172-11.552-28.572-17.914-58.561-21.197-89.024-3.889-35.687-5.328-71.258-5.133-106.885l0.082-96.882h13.518c-0.089 2.551 1.767 57.799 2.661 68.089 1.16 13.645 3.262 27.495 6.252 40.792 4.614 20.915 12.89 43.036 28.723 57.991 17.804 16.858 42.649 23.741 66.197 27.867 26.157 4.585 52.183 5.786 77.942 12.752 24.711 6.662 48.597 16.16 70.781 28.993 82.040 47.411 132.412 128.619 143.636 215.966-35.727 14.912-74.225 22.685-113.131 22.685-49.543 0-99.726-12.602-145.728-39.177zM83.837 485.232c11.237-87.347 61.557-168.554 143.657-215.966 82.079-47.423 177.652-50.395 258.873-16.445-11.223 87.301-61.562 168.582-143.694 215.919-45.988 26.575-96.188 39.177-145.699 39.177-38.922 0-77.412-7.773-113.138-22.685z" />
<glyph unicode="&#xe905;" glyph-name="mahara" horiz-adv-x="1013" d="M610.831 636.936c0-103.229-44.11-125.278-44.11-125.278s107.015-113.406 107.015-250.69c0-112.896-54.012-196.685-158.104-196.685-104.094 0-173.884 80.097-174.948 196.685-1.421 154.014 109.345 251.44 109.345 251.44l22.885-49.189c0 0-27.392-124.625 24.096-119.918 43.465 3.972-13.148 105.796-13.148 105.796-20.804 44.694-67.303 102.087-67.303 187.88 0 101.475 86.651 194.741 96.715 194.741s97.554-75.078 97.554-194.778v0zM539.508 552.89c0 0 20.838 90.829-17.263 78.451-21.177-6.876 0-48.103 0-48.103l17.263-30.344z" />
<glyph unicode="&#xe906;" glyph-name="stamp" d="M904 0h-784v56h784v-56zM848 336h-268.8c-5.6 44.8-11.2 89.6-11.2 117.6 0 100.8 112 196 112 274.4 0 95.2-72.8 168-168 168s-168-72.8-168-168c0-78.4 106.4-179.2 112-274.4 0-28 0-67.2-5.6-117.6h-274.4c-61.6 0-112-50.4-112-112v-112c0 0 0 0 0 0h896c0 0 0 0 0 0v112c0 61.6-50.4 112-112 112z" />
<glyph unicode="&#xe907;" glyph-name="sigma" d="M685.6 201.6c-39.2-16.8-78.4-28-117.6-33.6h-246.4l291.2 330.4-140 285.6h89.6c61.6 0 112-5.6 145.6-16.8 28-11.2 56-28 72.8-56 11.2-22.4 16.8-39.2 16.8-95.2h22.4l72.8 280h-610.4v-112l156.8-313.6-268.8-302.4v-168h582.4l140 336h-28c-56-56-112-100.8-179.2-134.4z" />
<glyph unicode="&#xe908;" glyph-name="mean" d="M242.962 627.358l246.618 44.84c44.84-67.26 78.47-145.73 95.284-229.804 44.84 61.654 78.47 112.1 106.494 140.124 33.63 39.232 56.050 61.654 78.47 72.864s44.84 16.813 67.26 16.813c28.025 0 44.84-5.606 61.654-22.42 11.21-16.813 22.42-33.63 22.42-56.050s-5.606-39.232-22.42-56.050c-11.21-16.813-33.63-22.42-50.444-22.42s-33.63 0-50.444 5.606c-16.813 5.606-33.63 5.606-39.232 5.606-22.42 0-39.232-5.606-56.050-22.42-33.63-16.813-67.26-56.050-100.89-117.704 39.232-140.124 72.864-224.196 95.284-257.828 16.813-16.813 28.025-28.025 44.84-28.025 11.21 0 22.42 5.606 33.63 11.21 11.21 11.21 33.63 33.63 61.654 72.864l28.025-16.813c-39.232-67.26-84.074-112.1-123.31-140.124-28.025-22.42-61.654-33.63-89.68-33.63s-56.050 5.606-72.864 22.42c-22.42 11.21-39.232 33.63-50.444 67.26-16.813 28.025-33.63 78.47-56.050 145.73-56.050-67.26-95.284-123.31-128.914-151.334-33.63-33.63-56.050-50.444-78.47-61.654s-50.444-16.813-72.864-16.813c-22.42 0-44.84 5.606-56.050 22.42s-22.42 28.025-22.42 50.444c0 22.42 5.606 44.84 22.42 61.654s33.63 22.42 61.654 22.42c11.21 0 28.025-5.606 44.84-11.21 22.42-11.21 39.232-16.813 50.444-16.813s28.025 5.606 39.232 11.21c16.813 5.606 33.63 22.42 56.050 44.84 5.606 11.21 28.025 39.232 61.654 89.68-44.84 168.149-78.47 269.038-106.494 297.064-11.21 22.42-33.63 33.63-56.050 33.63-11.21 0-28.025 0-44.84-5.606v28.025zM478.37 896.398h409.161l-44.84-145.73h-409.161l44.84 145.73z" />
<glyph unicode="&#xe909;" glyph-name="mnethost" d="M877.576 563.293c-67.491 67.491-174.352 67.491-236.218 0-22.498-16.872-33.746-39.37-39.37-61.866h-129.358l-73.117 118.108c50.618 67.491 50.618 163.104-11.248 224.97-61.866 67.491-174.352 67.491-236.218 0-67.491-67.491-67.491-174.352 0-236.218 39.37-39.37 101.236-56.242 157.478-44.994l61.866-118.108-67.491-112.482c-56.242 11.248-112.482 0-157.478-44.994-67.491-67.491-67.491-174.352 0-236.218 67.491-67.491 174.352-67.491 236.218 0 61.866 61.866 67.491 157.478 11.248 224.97l78.74 112.482h129.358c5.624 0 16.872-44.994 39.37-61.866 67.491-67.491 174.352-67.491 236.218 0 67.491 67.491 67.491 174.352 0 236.218z" />
<glyph unicode="&#xe90a;" glyph-name="highlight" d="M136.8 571.2l235.2 324.8h140l-212.8-291.2 364-212.8 224 504h72.8v-106.4l-240.8-554.4-22.4 11.2c-61.6-5.6-201.6-39.2-263.2-140l-268.8 156.8c61.6 100.8 16.8 240.8-5.6 296.8l-22.4 11.2zM321.6 0l44.8 84-196 112-112-190.4v-5.6h263.2z" />
<glyph unicode="&#xe90b;" glyph-name="grades" d="M904 896h-784c-28 0-56-28-56-56v-784c0-28 28-56 56-56h784c28 0 56 28 56 56v784c0 28-28 56-56 56zM512 112h-336v112h336v-112zM512 280h-336v112h336v-112zM512 448h-336v112h336v-112zM680 112h-112v112h112v-112zM680 280h-112v112h112v-112zM680 448h-112v112h112v-112zM848 112h-112v112h112v-112zM848 280h-112v112h112v-112zM848 448h-112v112h112v-112z" />
<glyph unicode="&#xe90c;" glyph-name="book-open" d="M192 640h256v-64h-256v64zM192 448h256v64h-256v-64zM192 320h256v64h-256v-64zM896 640h-256v-64h256v64zM896 512h-256v-64h256v64zM896 384h-256v-64h256v64zM1024 768v-576c0-35.2-28.8-64-64-64h-352l-64-64-64 64h-352c-35.2 0-64 28.8-64 64v576c0 35.2 28.8 64 64 64h352l64-64 64 64h352c35.2 0 64-28.8 64-64v0zM512 736l-32 32h-352v-576h384v544zM960 768h-352l-32-32v-544h384v576z" />
<glyph unicode="&#xe90d;" glyph-name="checklist" d="M1024 416l-384-384-192 192 96 96 96-96 288 288 96-96zM364.8 179.2l51.2-51.2h-288c-35.2 0-64 28.8-64 64v576c0 35.2 28.8 64 64 64h448c35.2 0 64-28.8 64-64v-416l-51.2 51.2c-24.96 24.96-65.92 24.96-90.88 0l-133.12-134.4c-24.96-24.96-24.96-65.28 0-90.24v0.64zM256 704h320v64h-320v-64zM256 576h320v64h-320v-64zM256 448h192v64h-192v-64zM192 384h-64v-64h64v64zM192 512h-64v-64h64v64zM192 640h-64v-64h64v64zM192 768h-64v-64h64v64z" />
<glyph unicode="&#xe90e;" glyph-name="alfresco" d="M382.050 832.532c31.186 38.632 78.944 63.38 132.47 63.38 93.95 0 170.15-76.2 170.15-170.15 0-46.972-19.036-89.526-49.83-120.32v0l-120.32-120.32-0.672 0.672v159.4c0 50.95-19.428 101.844-58.284 140.7-21.5 21.5-46.695 37.008-73.514 46.639v0zM148.912 627.106c-5.264 49.382 11.030 100.612 48.878 138.458 66.457 66.457 174.182 66.457 240.64 0 33.202-33.202 49.83-76.759 49.83-120.32v0-170.15h-0.952l-112.706 112.706c-35.999 35.999-85.777 58.284-140.7 58.284-30.402 0-59.18-6.83-84.936-18.98v0zM645.31 64.7c-31.186-38.632-78.944-63.38-132.47-63.38-93.95 0-170.15 76.2-170.15 170.15 0 46.972 19.036 89.526 49.83 120.32v0l120.32 120.32 0.672-0.672v-159.4c0-50.95 19.428-101.844 58.284-140.7 21.5-21.5 46.695-37.064 73.514-46.639v0zM880.52 268.5c5.264-49.382-11.030-100.612-48.878-138.458-66.457-66.457-174.182-66.457-240.64 0-33.202 33.202-49.83 76.759-49.83 120.32v0 170.15h0.952l112.706-112.706c35.999-35.999 85.777-58.284 140.7-58.284 30.402 0 59.18 6.83 84.936 18.98v0zM900.284 579.238c38.632-31.186 63.38-78.944 63.38-132.47 0-93.95-76.2-170.15-170.15-170.15-46.972 0-89.526 19.036-120.32 49.83v0l-120.32 120.32 0.672 0.672h159.4c50.95 0 101.844 19.428 140.7 58.284 21.5 21.5 37.064 46.695 46.639 73.514v0zM694.86 813.216c49.382 5.264 100.612-11.030 138.458-48.878 66.457-66.457 66.457-174.182 0-240.64-33.202-33.202-76.759-49.83-120.32-49.83v0h-170.15v0.952l112.706 112.706c35.999 35.999 58.284 85.777 58.284 140.7 0 30.402-6.83 59.18-18.98 84.936v0zM127.86 317.602c-38.632 31.186-63.38 78.944-63.38 132.47 0 93.95 76.2 170.15 170.15 170.15 46.972 0 89.526-19.036 120.32-49.83v0l120.32-120.32-0.672-0.672h-159.4c-50.95 0-101.844-19.428-140.7-58.284-21.5-21.5-37.008-46.695-46.639-73.514v0zM334.124 84.464c-49.382-5.264-100.612 11.030-138.458 48.878-66.457 66.457-66.457 174.182 0 240.64 33.202 33.202 76.759 49.83 120.32 49.83v0h170.15v-0.952l-112.706-112.706c-35.999-35.999-58.284-85.777-58.284-140.7 0-30.402 6.83-59.18 18.98-84.936v0z" />
<glyph unicode="&#xe90f;" glyph-name="package" d="M64 686.72v-478.080c0-28.8 19.2-53.76 48-62.080l416-110.72c10.24-3.2 21.76-3.2 32 0l416 110.72c28.8 8.32 48 33.28 48 62.080v478.080c0 28.8-19.2 53.76-48 62.080l-416 111.36c-10.24 1.92-21.76 1.92-32 0l-416-111.36c-28.8-8.32-48-33.28-48-62.080v0zM512 104.96l-384 101.76v433.28l384-103.040v-432zM128 704l160 42.88 416-110.72-160-42.88-416 110.72zM960 206.72l-384-101.76v432l128 35.2v-156.16l128 33.92v156.16l128 33.92v-433.28zM832 670.080l-416 110.72 128 33.92 416-110.72-128-33.92z" />
<glyph unicode="&#xe910;" glyph-name="archive" d="M715.827 857.6h-407.706c0 0-50.995 0-50.995-51.2h509.696c0 51.2-50.995 51.2-50.995 51.2zM868.762 704c0 51.2-50.944 51.2-50.944 51.2h-611.635c0 0-50.944 0-50.944-51.2v-51.2h713.523v51.2zM970.65 652.8c-30.106 30.31-30.106 30.31-30.106 30.31v-81.51h-857.088v81.51c0 0 0 0-30.157-30.31s-51.763-38.4-39.629-102.4c12.083-63.795 70.605-413.491 79.309-460.8 9.523-51.917 62.31-51.2 62.31-51.2h713.523c0 0 52.736-0.717 62.31 51.2 8.704 47.309 67.174 397.005 79.309 460.8 12.032 64-9.574 72.090-39.782 102.4zM716.8 345.754c0-28.365-22.989-51.354-51.354-51.354h-306.893c-28.365 0-51.354 22.989-51.354 51.354v102.246h51.2v-102.4h307.2v102.4h51.2v-102.246z" />
<glyph unicode="&#xe911;" glyph-name="certificate" horiz-adv-x="1152" d="M993.592 896h-819.224c-56.336 0-102.424-37.8-102.424-84v-728c0-46.2 46.088-84 102.424-84h819.224c56.336 0 102.424 37.8 102.424 84v728c0 46.2-46.088 84-102.424 84v0zM136.008 806.4c0 14.168 11.48 25.592 25.592 25.592h844.76c14.168 0 25.592-11.48 25.592-25.592v-716.8c0-14.168-11.48-25.592-25.592-25.592h-844.76c-14.168 0-25.592 11.48-25.592 25.592v716.8zM836.344 263.368l-18.76-106.568 84.504 45.976-40.936 75.6c-7.784-5.712-16.128-10.696-24.864-15.008zM643.144 135.52l70.56 13.608 62.72-44.184 27.944 151.648c-13.496-5.096-27.664-7.952-42.392-7.952-34.048 0-65.408 14.728-90.776 39.368l-28.056-152.488zM779.224 348.208c-49.504 0-89.656 40.264-89.656 89.88s40.152 89.936 89.656 89.936 89.656-40.264 89.656-89.936c0-49.616-40.152-89.88-89.656-89.88v0zM857.344 308.56c3.304 7.224 12.376 13.888 20.216 14.784s15.008 8.12 15.904 15.96c0.952 7.84 7.56 16.968 14.728 20.272s11.76 12.376 10.248 20.104c-1.624 7.784 1.904 18.536 7.672 23.856 5.824 5.432 7.392 15.456 3.528 22.344s-3.864 18.2 0 25.032c3.864 6.944 2.296 16.968-3.528 22.344s-9.296 16.128-7.672 23.856c1.512 7.784-3.080 16.856-10.248 20.16-7.112 3.304-13.776 12.432-14.728 20.272-0.896 7.84-8.064 15.008-15.904 15.96s-16.968 7.616-20.216 14.728c-3.36 7.224-12.376 11.816-20.104 10.192s-18.424 1.96-23.8 7.784c-5.376 5.88-15.4 7.448-22.288 3.528s-18.144-3.864-24.976 0c-6.888 3.92-16.856 2.352-22.288-3.472-5.32-5.824-16.016-9.296-23.8-7.784s-16.744-3.024-20.048-10.248c-3.304-7.168-12.432-13.832-20.272-14.728-7.84-0.952-15.008-8.176-15.904-16.016s-7.56-16.968-14.728-20.272c-7.112-3.304-11.76-12.376-10.192-20.16s-1.96-18.48-7.728-23.856-7.392-15.4-3.528-22.344c3.864-6.888 3.864-18.2 0-25.032s-2.296-16.968 3.528-22.4c5.824-5.32 9.296-16.072 7.728-23.856s3.080-16.8 10.192-20.104c7.168-3.304 13.776-12.488 14.672-20.272s8.064-15.064 15.904-15.96 16.968-7.616 20.272-14.784c3.304-7.168 12.32-11.76 20.048-10.192s18.48-1.904 23.8-7.784c5.376-5.824 15.4-7.448 22.288-3.528s18.144 3.864 24.976 0 16.912-2.24 22.288 3.528c5.376 5.88 16.016 9.296 23.8 7.784s16.8 3.024 20.104 10.192v0zM264.024 703.976h640.024v-64.008h-640.024v64.008zM264.024 255.976h255.976v-64.008h-255.976v64.008z" />
<glyph unicode="&#xe912;" glyph-name="group-separate" d="M317.848 754.152c0-46.424-35.784-84.112-79.912-84.112s-79.912 37.632-79.912 84.112c0 46.424 35.784 84.112 79.912 84.112s79.912-37.632 79.912-84.112v0zM404.256 521.584c1.96 6.608 1.96 14.28 1.96 21.896 0 21.112 0 84.56-21.056 105.672-42.728 42.952-65.24 45.416-65.24 45.416s-18.928-45.416-82.040-45.416c-63.112 0-82.040 45.416-82.040 45.416s-22.4-2.352-65.24-45.416c-21.056-21.112-21.056-84.56-21.056-105.672s0-42.28 42.056-42.28h92.064c26.88 32.368 66.416 52.808 110.544 52.808 33.936 0 65.128-12.096 89.992-32.424zM876.168 756.952c0-46.424-35.784-84.112-79.912-84.112s-79.912 37.632-79.912 84.112c0 46.424 35.784 84.112 79.912 84.112s79.912-37.632 79.912-84.112v0zM628.592 530.432c-0.672 5.040-0.672 10.416-0.672 15.848 0 21.112 0 84.56 21.056 105.672 42.84 43.064 65.24 45.416 65.24 45.416s18.928-45.416 82.040-45.416c63.112 0 82.040 45.416 82.040 45.416s22.512-2.464 65.24-45.416c21.056-21.168 21.056-84.56 21.056-105.672s0-42.28-42.056-42.28h-95.368c-28.28 30.912-69.384 50.4-115.080 50.4-30.744 0-59.36-8.792-83.44-23.968zM428 364.448c-17.248-43.904-60.648-75.040-111.496-75.040-65.968 0-119.392 52.416-119.392 117.096s53.48 117.096 119.392 117.096c50.848 0 94.248-31.136 111.496-75.040v-84.112zM428 306.768c-15.512-18.704-49-46.424-111.44-46.424-94.304 0-122.584 63.224-122.584 63.224s-33.432-3.304-97.44-63.224c-31.416-29.456-31.416-117.768-31.416-147.168s0-58.856 62.888-58.856h300.048v252.448zM601.6 364.448c17.248-43.904 60.648-75.040 111.496-75.040 65.968 0 119.392 52.416 119.392 117.096s-53.48 117.096-119.392 117.096c-50.848 0-94.248-31.136-111.496-75.040v-84.112zM601.6 306.768c15.512-18.704 49-46.424 111.44-46.424 94.304 0 122.584 63.224 122.584 63.224s33.432-3.304 97.44-63.224c31.416-29.456 31.416-117.768 31.416-147.168s0-58.856-62.888-58.856h-300.048v252.448zM456 896h112v-896h-112v896z" />
<glyph unicode="&#xe913;" glyph-name="backpack" horiz-adv-x="896" d="M223.998 728.002h449.46v-126.898c0-12.376-7.112-29.512-15.848-38.248l-42.056-42.056c-8.736-8.736-25.872-15.848-38.248-15.848h-255.922c-12.376 0-29.512 7.112-38.248 15.848l-42.784 42.784c-8.736 8.736-15.848 25.872-15.904 38.248l-0.448 126.226zM167.662 728.002l0.056-131.098c0-23.184 13.16-55.496 29.344-72.072l46.368-47.6c16.184-16.632 48.104-30.072 71.288-30.072h77.336v-84.168l39.312-29.064c9.968-7.336 25.928-7.112 35.672 0.448l38.36 29.96v83.16h78.12c23.184 0 55.16 13.496 71.344 30.072l45.864 47.040c16.184 16.632 29.176 48.888 29.064 72.072l-0.728 131.266h29.736c44.856 0 81.2-36.4 81.2-81.2v-536.316c0 0 0-110.489-110.937-110.489s-449.628 0-561.349 0c-111.721 0-111.721 110.489-111.721 110.489v536.316c0 44.856 36.344 81.2 81.2 81.2h30.464zM167.998 784.002h168.002v89.6c0 12.376-10.024 22.4-22.4 22.4h-120.513c-12.376 0-22.624-10.024-22.904-22.4l-2.184-89.6zM561.177 784.002h166.826v89.6c0 12.376-10.024 22.4-22.4 22.4h-123.482c-12.376 0-22.288-10.024-22.12-22.4l1.176-89.6z" />
<glyph unicode="&#xe914;" glyph-name="view-tree" d="M960 336v224h-616v-56h-112v168h560v224h-728v-224h112v-560h168v-112h616v224h-616v-56h-112v280h112v-112z" />
<glyph unicode="&#xe915;" glyph-name="log" d="M802.136 291.872v128.24h-738.136v-128.24zM955.352 472.192v131.992h-890.456v-131.992zM554.224 737.24v52.808h-490.224v-52.808zM554.224 0v52.808h-490.224v-52.808zM884.736 843.192v52.808h-820.736v-52.808zM884.736 105.952v52.808h-820.736v-52.808z" />
<glyph unicode="&#xe916;" glyph-name="new" horiz-adv-x="960" d="M884.122 338.708l-80.51 71.702c-23.34 20.758-23.34 54.758 0 75.517l80.51 71.758c23.34 20.758 17.112 40.058-13.802 43.088l-106.767 10.099c-30.858 2.918-47.576 29.51-36.858 59.022l56.666 157.766c10.66 29.624-2.356 40.342-28.838 23.956l-125.953-77.874c-26.482-16.492-60.762-7.462-76.078 19.86l-45.615 81.408c-15.316 27.435-40.676 27.492-56.274 0.392l-42.417-73.666c-15.71-27.267-51.672-38.824-79.892-25.92l-74.619 34.224c-28.333 13.072-50.046-1.964-48.362-33.382l3.984-75.292c1.742-31.418-21.488-63.733-51.504-71.87l-72.038-19.3c-29.96-8.135-35.458-31.699-12.118-52.458l80.51-71.758c23.34-20.758 23.34-54.758 0-75.517l-80.51-71.758c-23.34-20.758-17.168-40.9 13.69-44.606l97.678-11.838c30.802-3.701 47.97-31.25 38.151-61.154l-50.102-151.932c-9.818-29.904 4.208-41.462 31.138-25.864l114.846 66.484c26.93 15.599 63.23 7.015 80.622-19.020l47.633-71.758c17.336-26.088 43.424-24.686 57.844 3.198l41.91 80.79c14.474 27.884 49.036 39.274 76.864 25.306l80.844-40.452c27.884-13.858 49.316 0.449 47.633 31.812l-4.040 75.404c-1.626 31.418 21.488 63.676 51.56 71.758l71.982 19.412c30.016 8.135 35.514 31.699 12.228 52.458v0z" />
<glyph unicode="&#xe917;" glyph-name="picasa" d="M297.37 866.662c-158.157-81.306-256.41-241.715-256.41-419.738 0-32.41 4.096-65.28 11.315-98.202l406.989 370.637c-43.418 39.475-157.491 143.309-161.894 147.302zM706.202 876.749c-61.44 27.904-126.771 42.291-194.253 42.291-47.821 0-94.976-7.987-140.749-22.579l335.002-304.691v284.979zM777.83 835.174v-543.59h178.432c17.562 50.278 26.726 102.605 26.726 155.392 0.051 155.29-77.926 300.646-205.158 388.198zM74.906 272.435c34.509-86.682 95.078-161.28 172.442-214.221v371.2l-104.704-95.283c-35.738-32.461-65.536-59.699-67.738-61.696zM318.976 16.64c47.872-21.606 97.946-34.918 149.504-39.68h86.477c154.573 14.387 293.222 105.882 368.589 242.893h-604.57v-203.213z" />
<glyph unicode="&#xe918;" glyph-name="square-small" d="M373.003 667.45h277.996c44.431 0 80.451-36.020 80.451-80.451v-277.996c0-44.431-36.020-80.451-80.451-80.451h-277.996c-44.431 0-80.451 36.020-80.451 80.451v277.996c0 44.431 36.020 80.451 80.451 80.451z" />
<glyph unicode="&#xe919;" glyph-name="add_to_list" horiz-adv-x="1269" d="M117.163 903.287h752.15v-93.548h-752.15v93.548zM117.163 669.178h565.054v-93.548h-565.054v93.548zM117.163 435.072h377.954v-93.548h-377.954v93.548zM939.826 383.361v235.047h-141.030v-235.047h-235.047v-140.559h235.047v-235.516h141.030v235.516h235.047v140.559z" />
<glyph unicode="&#xe91a;" glyph-name="backward_arrow-filled" d="M499.251 295.322c41.643-0.768 82.944-6.656 123.051-17.749 84.907-23.552 185.344-76.8 252.16-197.12 8.619-15.445 28.16-20.992 43.52-12.373 11.435 6.315 17.835 19.029 16.213 31.915-29.696 237.397-120.661 362.325-221.44 426.24-79.701 50.517-161.707 60.245-213.504 62.123v42.24c0 40.448-32.768 73.216-73.216 73.301-14.165 0-27.989-4.181-39.851-11.861l-255.659-188.16c-34.389-21.504-44.8-66.731-23.381-101.12 5.888-9.557 13.909-17.493 23.381-23.467l255.659-188.16c33.963-22.016 79.275-12.288 101.291 21.589 7.68 11.861 11.776 25.771 11.776 39.851v42.752z" />
<glyph unicode="&#xe91b;" glyph-name="backward_arrow" d="M499.251 295.322c41.643-0.768 82.944-6.656 123.051-17.749 84.907-23.552 185.344-76.8 252.16-197.12 8.619-15.445 28.16-20.992 43.52-12.373 11.435 6.315 17.835 19.029 16.213 31.915-29.696 237.397-120.661 362.325-221.44 426.24-79.701 50.517-161.707 60.245-213.504 62.123v42.24c0 40.448-32.768 73.216-73.216 73.301-14.165 0-27.989-4.181-39.851-11.861l-255.659-188.16c-34.389-21.504-44.8-66.731-23.381-101.12 5.888-9.557 13.909-17.493 23.381-23.467l255.659-188.16c33.963-22.016 79.275-12.288 101.291 21.589 7.68 11.861 11.776 25.771 11.776 39.851v42.752zM422.281 639.13c4.693 2.133 10.155 0 12.203-4.693 0.512-1.195 0.768-2.56 0.768-3.84v-73.813c0-17.664 14.336-32 32-32 42.667 0 128.853-0.256 211.2-52.565 62.976-39.936 127.403-112.64 166.059-248.064-65.28 62.891-139.776 97.024-205.056 115.115-40.192 11.093-81.408 17.579-122.965 19.541-17.067 0.768-34.048 0.597-51.029-0.597h-1.28l3.072-31.829-3.243 31.829c-16.299-1.536-28.757-15.36-28.757-31.829v-73.813c0-6.827-7.083-11.264-12.971-8.533l-254.891 187.733c-0.939 0.597-1.792 1.195-2.731 1.792-4.437 2.645-5.888 8.448-3.157 12.885 0.683 1.365 1.877 2.389 3.157 3.243 0.939 0.512 1.792 1.109 2.731 1.792l254.891 187.648z" />
<glyph unicode="&#xe91c;" glyph-name="bell_slash" d="M512-64.060c70.741 0 128 57.344 128 128h-256c0-70.656 57.259-128 128-128zM910.080 191.94c14.251-28.587 30.72-51.285 49.92-64h-896c19.115 12.715 35.669 35.413 49.92 64 57.6 115.2 78.080 327.68 78.080 384 0 154.88 110.080 284.16 256.341 313.685-3.584 35.157 22.101 66.56 57.259 70.059s66.56-22.101 70.059-57.259c0.427-4.267 0.427-8.533 0-12.8 149.163-30.379 256.341-161.451 256.341-313.685 0-56.32 20.48-268.8 78.080-384v0zM512 837.231l-51.029-10.325c-119.296-24.32-204.971-129.195-204.971-250.965 0-40.192-8.619-140.629-29.355-239.531-10.24-49.067-24.149-100.181-42.411-144.469h655.616c-18.432 44.288-32.171 95.317-42.411 144.469-20.821 98.901-29.44 199.339-29.44 239.531-0.085 121.685-85.76 226.56-204.971 250.88l-51.029 10.411z" />
<glyph unicode="&#xe91d;" d="M256 896h320v-64h-320c-35.328 0-64-28.587-64-64v-640c0-35.328 28.672-64 64-64h512c35.328 0 64 28.672 64 64v448h64v-448c0-70.656-57.344-128-128-128h-512c-70.741 0-128 57.344-128 128v640c0 70.741 57.259 128 128 128z" />
<glyph unicode="&#xe91e;" d="M576 672v224l320-320h-224c-52.992 0-96 43.008-96 96z" />
<glyph unicode="&#xe91f;" glyph-name="book" d="M896 832v-832h-672c-53.026 0-96 42.98-96 96s42.974 96 96 96h608v768h-640c-70.398 0-128-57.6-128-128v-768c0-70.4 57.602-128 128-128h768v896h-64zM224.056 128v0c-0.018-0.002-0.038 0-0.056 0-17.672 0-32-14.326-32-32s14.328-32 32-32c0.018 0 0.038 0.002 0.056 0.002v-0.002h607.89v64h-607.89z" />
<glyph unicode="&#xe920;" glyph-name="books" horiz-adv-x="1152" d="M224 832h-192c-17.6 0-32-14.4-32-32v-704c0-17.6 14.4-32 32-32h192c17.6 0 32 14.4 32 32v704c0 17.6-14.4 32-32 32zM192 640h-128v64h128v-64zM544 832h-192c-17.6 0-32-14.4-32-32v-704c0-17.6 14.4-32 32-32h192c17.6 0 32 14.4 32 32v704c0 17.6-14.4 32-32 32zM512 640h-128v64h128v-64zM765.088 782.52l-171.464-86.394c-15.716-7.918-22.096-27.258-14.178-42.976l287.978-571.548c7.918-15.718 27.258-22.098 42.976-14.178l171.464 86.392c15.716 7.92 22.096 27.26 14.178 42.974l-287.978 571.55c-7.92 15.718-27.26 22.1-42.976 14.18zM928 96c0-17.673-14.327-32-32-32s-32 14.327-32 32c0 17.673 14.327 32 32 32s32-14.327 32-32z" />
<glyph unicode="&#xe921;" d="M496 558.080l-81.024-64.832c-4.288-3.392-9.536-5.248-14.976-5.248h-96v-144h96c5.44 0 10.688-1.92 14.976-5.248l81.024-64.832v284.16zM530.432 629.632c8.256-4.032 13.568-12.416 13.568-21.632v-384c0-13.248-10.752-24-24-23.936-5.44 0-10.688 1.792-14.976 5.248l-113.408 90.688h-111.616c-13.248 0-24 10.752-24 24v192c0 13.248 10.752 24 24 24h111.616l113.408 90.688c7.168 5.824 17.088 6.912 25.408 2.944v0z" />
<glyph unicode="&#xe922;" d="M625.939 263.238c40.576 40.512 63.296 95.424 63.232 152.768 0.064 57.28-22.656 112.256-63.232 152.704l-33.92-33.92c31.552-31.488 49.216-74.24 49.152-118.784 0-46.336-18.816-88.384-49.152-118.848l33.92-33.92z" />
<glyph unicode="&#xe923;" glyph-name="profile" d="M864 960h-768c-52.8 0-96-43.2-96-96v-832c0-52.8 43.2-96 96-96h768c52.8 0 96 43.2 96 96v832c0 52.8-43.2 96-96 96zM832 64h-704v768h704v-768zM256 384h448v-64h-448zM256 256h448v-64h-448zM320 672c0 53.019 42.981 96 96 96s96-42.981 96-96c0-53.019-42.981-96-96-96s-96 42.981-96 96zM480 576h-128c-52.8 0-96-28.8-96-64v-64h320v64c0 35.2-43.2 64-96 64z" />
<glyph unicode="&#xe924;" glyph-name="file_camera" d="M256 896h320v-64h-320c-35.328 0-64-28.587-64-64v-640c0-35.328 28.672-64 64-64h512c35.328 0 64 28.672 64 64v448h64v-448c0-70.656-57.344-128-128-128h-512c-70.741 0-128 57.344-128 128v640c0 70.741 57.259 128 128 128zM576 672v224l320-320h-224c-52.992 0-96 43.008-96 96zM314.205 529.445h232.681c32.116 0 58.228-26.019 58.228-58.182v-232.727c0-32.070-26.065-58.182-58.228-58.182h-232.681c-32.116 0-58.182 26.065-58.182 58.182v232.727c0 32.116 26.019 58.182 58.182 58.182zM479.567 330.584l222.115-128.931c18.851-10.892 43.055 2.327 43.055 24.39v257.769c0 21.969-24.204 35.235-43.055 24.25l-222.115-128.884c-13.452-7.633-18.106-24.716-10.473-38.167 2.513-4.329 6.097-7.959 10.473-10.426z" />
<glyph unicode="&#xe925;" glyph-name="file_image" d="M256 896h320v-64h-320c-35.328 0-64-28.587-64-64v-640c0-35.328 28.672-64 64-64h512c35.328 0 64 28.672 64 64v448h64v-448c0-70.656-57.344-128-128-128h-512c-70.741 0-128 57.344-128 128v640c0 70.741 57.259 128 128 128zM576 672v224l320-320h-224c-52.992 0-96 43.008-96 96zM608.748 466.487c5.558 6.566 14.042 8.179 21.112 4.032l138.129-84.154v-194.4h-512v86.4l96.783 101.722c6.143 7.258 15.797 8.41 23.013 2.707l97.271-76.608 135.691 160.301zM400 432c39.808 0 72 32.256 72 72 0 39.808-32.192 72-72 72-39.744 0-72-32.192-72-72 0-39.744 32.256-72 72-72z" />
<glyph unicode="&#xe926;" glyph-name="file_p" d="M256 896h320v-64h-320c-35.328 0-64-28.587-64-64v-640c0-35.328 28.672-64 64-64h512c35.328 0 64 28.672 64 64v448h64v-448c0-70.656-57.344-128-128-128h-512c-70.741 0-128 57.344-128 128v640c0 70.741 57.259 128 128 128zM576 672v224l320-320h-224c-52.992 0-96 43.008-96 96z" />
<glyph unicode="&#xe927;" d="M256 896h320v-64h-320c-35.328 0-64-28.587-64-64v-640c0-35.328 28.672-64 64-64h512c35.328 0 64 28.672 64 64v448h64v-448c0-70.656-57.344-128-128-128h-512c-70.741 0-128 57.344-128 128v640c0 70.741 57.259 128 128 128z" />
<glyph unicode="&#xe928;" d="M576 672v224l320-320h-224c-52.992 0-96 43.008-96 96z" />
<glyph unicode="&#xe929;" d="M488.571 704l5.406-0.469c5.062-0.938 9.094-3.281 12.094-7.031 6-7 7.5-18.333 4.5-34-0.667-2-1.333-3.333-2-4l0.375-1.75 0.125-2.25v-15l-0.388-17.020c-0.98-32.939-3.184-59.265-6.612-78.98 18.333-54.667 42.667-94.333 73-119 11-8.667 25-18 42-28 19.667 2.333 39.167 3.5 58.5 3.5 49 0 78.5-8.167 88.5-24.5 5.333-7.333 5.667-16 1-26l-0.125-0.5-0.375-0.5-1-1v-0.5l-1.211-4.453c-3.901-9.698-15.331-14.547-34.289-14.547-16 0-35.167 3.333-57.5 10s-44 15.5-65 26.5c-73.667-8-139-21.833-196-41.5-51-87.333-91.333-131-121-131-3.333 0-6.519 0.519-9.556 1.556l-4.444 1.944-12 6-0.556 0.5c-0.519 0.444-1.333 1.111-2.444 2-3.333 3.333-4.333 9.333-3 18 3 13.333 12.333 28.583 28 45.75s37.667 33.25 66 48.25c4.667 3 8.5 2 11.5-3 0.667-0.667 1-1.333 1-2 17.333 28.333 35.167 61.167 53.5 98.5 22.667 45.333 40 89 52 131-8 27.333-13.083 53.917-15.25 79.75s-1.083 47.083 3.25 63.75c3.143 11.429 8.735 17.959 16.776 19.592l4.224 0.408h11zM355.571 298c-17-13.333-31.583-27.333-43.75-42s-20.417-27-24.75-37c17.333 8 40.167 34.333 68.5 79zM488.071 488.5c-9-28.667-22.833-61.5-41.5-98.5-10-18.667-17.5-32.5-22.5-41.5 45 18 92.333 31.5 142 40.5-0.667 0.333-2.833 1.917-6.5 4.75s-6.333 5.083-8 6.75c-25.333 22.333-46.5 51.667-63.5 88zM677.071 368.5c25.333-9.333 46-14 62-14v0l4.111 0.056 3 0.167 1.889 0.278c0 0.333-0.333 0.833-1 1.5-8 8-31.333 12-70 12zM486.571 681c0-0.333-0.167-0.667-0.5-1v0-1l-1.857-6.49c-3.143-13.959-2.857-33.796 0.857-59.51 0.333 2.333 1.5 9.667 3.5 22v0l0.875 6.125c0.583 3.583 1.458 8.708 2.625 15.375 0.333 1.333 1 2.667 2 4-0.333 0.333-0.5 0.667-0.5 1-0.333 0.667-0.5 1.167-0.5 1.5-0.333 7.333-2.5 13.333-6.5 18z" />
<glyph unicode="&#xe92a;" glyph-name="file_w" d="M256 896h320v-64h-320c-35.328 0-64-28.587-64-64v-640c0-35.328 28.672-64 64-64h512c35.328 0 64 28.672 64 64v448h64v-448c0-70.656-57.344-128-128-128h-512c-70.741 0-128 57.344-128 128v640c0 70.741 57.259 128 128 128zM576 672v224l320-320h-224c-52.992 0-96 43.008-96 96z" />
<glyph unicode="&#xe92b;" glyph-name="file_x" d="M256 896h320v-64h-320c-35.328 0-64-28.587-64-64v-640c0-35.328 28.672-64 64-64h512c35.328 0 64 28.672 64 64v448h64v-448c0-70.656-57.344-128-128-128h-512c-70.741 0-128 57.344-128 128v640c0 70.741 57.259 128 128 128zM576 672v224l320-320h-224c-52.992 0-96 43.008-96 96z" />
<glyph unicode="&#xe92c;" glyph-name="globe" d="M577.531 0c-0.967 4.432-1.45 7.978-1.45 10.637-0.483 3.546 1.208 8.31 5.075 14.294s5.8 10.526 5.8 13.629c-7.733 1.773-10.633 7.535-8.7 17.285 0.967 6.648 7.975 15.512 21.025 26.593 9.183 7.535 12.083 18.172 8.7 31.911-1.45 5.762-2.658 14.183-3.625 25.263s-1.933 18.837-2.9 23.269c0-1.33 2.296-2.548 6.887-3.657s7.371-2.548 8.337-4.321c0.967 1.33 2.175 3.767 3.625 7.313s2.9 6.205 4.35 7.978c0.967 1.33 3.021 2.992 6.162 4.986s5.196 3.213 6.162 3.657c0.967 0.443 3.142 1.884 6.525 4.321s6.162 4.321 8.337 5.651c2.175 1.33 5.075 2.327 8.7 2.992s6.162-0.332 7.612-2.992c2.417-2.659 1.933-6.759-1.45-12.299l-1.903-3.843c-1.269-3.532-0.634-6.129 1.903-7.791 0.483 1.33 0.967 4.211 1.45 8.643s1.933 7.756 4.35 9.972c2.9 2.659 5.679 4.211 8.337 4.654s5.075 0.111 7.25-0.997c2.175-1.108 4.712-2.659 7.612-4.654s5.558-3.213 7.975-3.657c7.25-2.216 15.95-7.091 26.099-14.626-0.483 0.443-0.483 0.997 0 1.662s1.45 1.33 2.9 1.994c1.45 0.665 2.779 1.33 3.987 1.994s2.537 1.219 3.987 1.662v0l2.175 0.665c3.383 0 5.8 0.222 7.25 0.665s3.504 0 6.162-1.33c2.658-1.33 4.471-2.327 5.437-2.992s2.658-1.884 5.075-3.657c2.417-1.773 4.108-3.102 5.075-3.989 1.45-0.886 4.108-2.438 7.975-4.654v0l9.062-5.319c2.175-1.33 4.108-3.324 5.8-5.983s2.296-5.54 1.812-8.643c2.9-0.443 8.7-2.216 17.4-5.319 1.45-0.886 4.471-1.662 9.062-2.327l4.068-0.776c2.363-0.591 4.028-1.33 4.994-2.216-70.082-67.812-154.905-109.695-254.469-125.651zM441.555 853.444l1.078-1.739c1.057-2.25 2.219-5.434 3.487-9.551 1.902-6.175 4.042-10.497 6.419-12.967 2.378 1.976 2.853 5.434 1.427 10.374s-1.427 8.398 0 10.374c0.476 0.988 1.902 1.976 4.28 2.964s5.112 2.099 8.203 3.334c3.091 1.235 5.112 2.099 6.063 2.593 2.853 1.976 0.951 5.434-5.706 10.374-0.951 0.494-2.972 1.235-6.063 2.223s-5.825 1.976-8.203 2.964c-2.378 0.988-4.874 2.346-7.489 4.075s-3.804 3.705-3.566 5.928c0.238 2.223 1.545 5.063 3.923 8.521 2.853 2.47 7.489 3.458 13.909 2.964s11.293-1.729 14.622-3.705c12.839-7.41 14.741-14.079 5.706-20.007 4.755-0.494 10.461-2.47 17.119-5.928s9.273-7.163 7.846-11.115c3.804 7.41 7.608 11.115 11.412 11.115 2.378-0.494 4.636-3.828 6.776-10.003s3.447-9.509 3.923-10.003c3.804-5.434 7.608-6.669 11.412-3.705s7.727 7.286 11.769 12.967c4.042 5.681 6.301 8.274 6.776 7.78-4.755 1.976-5.231 3.952-1.427 5.928 7.133 4.446 13.552 5.681 19.258 3.705 1.902-0.988 3.804-3.211 5.706-6.669 4.28-8.892 3.566-13.091-2.14-12.597 4.28-3.952 6.063-8.892 5.35-14.82s-4.399-8.645-11.056-8.151c-2.378 0-5.825 1.235-10.342 3.705s-7.965 3.828-10.342 4.075c-2.378 0.247-5.706-1.111-9.986-4.075-1.902-2.47-4.399-6.669-7.489-12.597s-5.825-10.127-8.203-12.597c-7.133-7.41-19.021-10.127-35.664-8.151 1.427 0 1.308-1.482-0.357-4.446s-3.923-6.298-6.776-10.003c-2.853-3.705-4.517-5.804-4.993-6.298-4.28-4.94-7.133-10.621-8.559-17.043 0-0.988-0.238-4.322-0.713-10.003s-1.427-10.003-2.853-12.967c5.706 1.482 10.224-1.482 13.552-8.892 2.853-6.916 2.853-10.621 0-11.115 15.692 2.47 29.482 1.482 41.37-2.964 17.119-6.422 26.867-12.844 29.244-19.266 2.853 4.446 9.748 4.693 20.685 0.741 4.28-2.47 8.084-9.88 11.412-22.23 1.902-7.41 5.112-13.832 9.629-19.266s9.391-6.916 14.622-4.446v0l2.14 1.482c1.902 0.988 3.447 1.852 4.636 2.593s2.496 1.729 3.923 2.964c1.427 1.235 2.259 2.346 2.496 3.334s-0.119 1.976-1.070 2.964c-3.329 2.964-5.825 7.039-7.489 12.226s-1.308 9.756 1.070 13.708c1.427 1.976 5.231 4.94 11.412 8.892s9.986 7.904 11.412 11.856c1.902 6.422-0.476 11.732-7.133 15.931s-9.986 8.027-9.986 11.485c0 2.47 1.545 5.434 4.636 8.892s4.399 6.669 3.923 9.633c0 1.482-0.832 4.569-2.496 9.262s-2.615 8.151-2.853 10.374c-0.238 2.223 0.832 4.816 3.21 7.78 3.329 1.976 11.175 1.852 23.538-0.37s20.447-4.569 24.251-7.039c1.427-0.988 4.517-2.47 9.273-4.446s8.916-4.075 12.482-6.298c3.566-2.223 5.587-4.322 6.063-6.298v0h-3.566c3.329-2.964 5.35-6.422 6.063-10.374s-1.070-6.916-5.35-8.892c2.853 0.494 6.657-0.247 11.412-2.223 7.608-2.964 7.846-5.681 0.713-8.151 1.427 0.494 3.447 0.988 6.063 1.482s4.636 1.235 6.063 2.223c0.951 0.494 2.14 1.358 3.566 2.593s2.496 1.976 3.21 2.223c0.713 0.247 1.783 0.494 3.21 0.741s2.853-0.123 4.28-1.111c0.476 0 1.545 1.235 3.21 3.705s3.447 4.94 5.35 7.41c1.902 2.47 3.566 3.705 4.993 3.705s2.734-0.617 3.923-1.852c1.189-1.235 2.14-2.593 2.853-4.075s1.427-3.087 2.14-4.816c0.713-1.729 1.308-3.087 1.783-4.075 0.951-1.976 3.21-4.446 6.776-7.41s5.825-5.681 6.776-8.151c0.476-1.482 1.427-5.187 2.853-11.115s3.329-10.003 5.706-12.226c2.378-2.223 5.944-4.075 10.699-5.557 0.951-0.494 3.091-0.247 6.419 0.741s6.063 1.235 8.203 0.741c2.14-0.494 3.21-2.47 3.21-5.928 2.853 2.964 4.28 4.94 4.28 5.928 0.476-6.422 2.021-11.609 4.636-15.561s6.776-5.681 12.482-5.187v0l-1.427-16.302c-1.427-2.47-4.993-4.322-10.699-5.557s-9.273-2.346-10.699-3.334c-1.427-0.494-4.874-3.458-10.342-8.892s-7.727-8.645-6.776-9.633c-8.084 9.386-20.209 12.103-36.377 8.151-18.070-2.964-30.433-5.928-37.090-8.892-7.608-3.952-12.839-7.657-15.692-11.115-0.476-0.494-1.308-2.223-2.496-5.187s-2.378-5.681-3.566-8.151c-1.189-2.47-2.259-3.705-3.21-3.705 2.853 0.494 6.063 2.84 9.629 7.039s5.825 6.545 6.776 7.039c12.363 8.398 22.587 11.362 30.671 8.892 10.461-2.964 12.126-6.916 4.993-11.856-0.951-0.988-3.447-1.358-7.489-1.111s-6.776 0.123-8.203-0.37c4.28-0.988 7.846-2.346 10.699-4.075s3.566-4.075 2.14-7.039c7.608-4.446 9.035-9.386 4.28-14.82-6.182-6.422-13.552-9.139-22.111-8.151 1.427 0 1.427-0.988 0-2.964v0l-12.126-8.151c-0.951-0.494-4.042-1.729-9.273-3.705s-8.797-4.199-10.699-6.669c-1.427-1.976-2.14-4.94-2.14-8.892s-0.238-6.916-0.713-8.892c-0.476-1.976-2.378-2.47-5.706-1.482-1.427-2.964-5.825-5.31-13.196-7.039s-12.245-4.322-14.622-7.78c3.329-3.952 3.091-7.904-0.713-11.856-5.706-4.94-10.699-4.446-14.979 1.482-2.378-0.988-4.161-3.458-5.35-7.41s-2.972-6.669-5.35-8.151c3.329-5.434 2.853-9.386-1.427-11.856 0.476 0 1.545-0.494 3.21-1.482s3.447-2.223 5.35-3.705c1.902-1.482 3.091-2.223 3.566-2.223-1.902-4.446-4.517-6.669-7.846-6.669 2.853-7.904-0.713-16.549-10.699-25.935-1.902-1.976-4.874-3.952-8.916-5.928s-7.727-3.581-11.056-4.816c-3.329-1.235-5.231-2.099-5.706-2.593-4.755-4.446-8.322-9.015-10.699-13.708s-2.734-9.262-1.070-13.708c1.664-4.446 6.063-7.41 13.196-8.892v0l0.713-5.928v-13.338l0.713-5.928c0.476-3.458 0.832-6.545 1.070-9.262s0.238-6.175 0-10.374c-0.238-4.199-1.308-6.545-3.21-7.039s-4.517 0-7.846 1.482c-3.804 1.976-8.322 12.844-13.552 32.604-0.951 4.94-3.804 10.868-8.559 17.784-2.378-2.47-4.399-4.075-6.063-4.816s-2.853-0.864-3.566-0.37c-0.713 0.494-2.021 1.605-3.923 3.334s-3.566 3.087-4.993 4.075c-2.378 1.482-6.538 2.717-12.482 3.705s-9.629 2.223-11.056 3.705c-11.412-8.892-18.307-6.669-20.685 6.669-0.951-2.47-0.832-5.804 0.357-10.003s1.783-6.545 1.783-7.039c-3.329-6.422-8.559-6.916-15.692-1.482-2.853 2.964-9.391 3.334-19.615 1.111s-17-2.593-20.328-1.111c0.476 0 1.427-0.741 2.853-2.223 1.427-0.988 2.378-1.729 2.853-2.223-0.476-1.976-1.189-3.458-2.14-4.446s-1.902-1.358-2.853-1.111c-0.951 0.247-2.021 0.247-3.21 0s-2.259-0.617-3.21-1.111c-1.902-1.482-4.28-4.075-7.133-7.78l-2.615-3.252c-1.585-1.866-2.853-3.129-3.804-3.787 2.853-7.904 4.161-13.955 3.923-18.154s-0.951-10.374-2.14-18.525c-1.189-8.151-1.783-14.696-1.783-19.636 0-7.904 2.259-17.043 6.776-27.417s9.867-17.537 16.049-21.489c3.329-1.976 9.035-3.211 17.119-3.705s13.79 0 17.119 1.482c2.853 1.482 4.993 3.211 6.419 5.187s2.615 4.816 3.566 8.521c0.951 3.705 1.664 6.298 2.14 7.78 3.329 9.386 9.51 14.326 18.545 14.82 5.706 0.494 9.867-0.123 12.482-1.852s3.685-4.075 3.21-7.039c-0.476-2.964-1.427-6.051-2.853-9.262s-3.21-6.792-5.35-10.744c-2.14-3.952-3.447-6.916-3.923-8.892-0.951-3.952-1.783-9.509-2.496-16.672s-1.308-11.485-1.783-12.967c0.951-0.494 4.517-0.741 10.699-0.741 0 0.988 0.357 2.593 1.070 4.816s1.070 3.581 1.070 4.075c2.378-3.952 6.182-6.175 11.412-6.669s9.035 1.482 11.412 5.928c0.951-1.482 3.804-5.187 8.559-11.115s7.37-10.868 7.846-14.82c0.476-1.976 1.427-5.187 2.853-9.633s1.902-7.533 1.427-9.262c-0.476-1.729-2.853-2.593-7.133-2.593-1.902 0-3.091-0.741-3.566-2.223s-0.476-3.334 0-5.557c0.476-2.223 1.070-4.322 1.783-6.298s1.664-4.075 2.853-6.298c1.189-2.223 1.783-3.581 1.783-4.075 8.559-16.302 20.209-20.748 34.95-13.338 0-14.326-3.329-22.23-9.986-23.712-3.804-0.988-8.084 1.482-12.839 7.41s-6.419 10.868-4.993 14.82c-0.476-2.47-2.14-4.693-4.993-6.669-2.378 2.964-6.657 6.669-12.839 11.115s-10.461 8.151-12.839 11.115c-0.951 1.482-2.259 3.581-3.923 6.298s-3.804 6.298-6.419 10.744c-2.615 4.446-4.517 8.274-5.706 11.485s-1.308 5.063-0.357 5.557c-9.035-3.952-22.111-1.235-39.23 8.151-3.329 1.976-8.322 7.163-14.979 15.561s-13.552 12.103-20.685 11.115c-2.378-0.494-5.587-1.358-9.629-2.593s-7.489-1.852-10.342-1.852c-2.853 0-6.657 0.988-11.412 2.964-3.804 1.482-8.916 4.322-15.335 8.521s-10.818 6.792-13.196 7.78c-1.427 0.988-4.517 2.717-9.273 5.187s-8.559 4.446-11.412 5.928c-2.853 1.482-5.825 3.828-8.916 7.039s-5.112 6.545-6.063 10.003c-0.951 2.964-2.14 8.892-3.566 17.784s-3.329 15.314-5.706 19.266c-2.853 4.446-6.895 9.262-12.126 14.449s-9.986 7.78-14.265 7.78c3.804 0 3.804 3.334 0 10.003s-7.133 11.485-9.986 14.449c-0.951 0.988-3.804 4.199-8.559 9.633s-8.797 10.127-12.126 14.079c-3.329 3.952-6.182 8.521-8.559 13.708s-2.853 9.509-1.427 12.967c0.476 0.494 0 1.235-1.427 2.223s-3.21 1.976-5.35 2.964c-2.14 0.988-4.161 1.852-6.063 2.593s-3.329 1.111-4.28 1.111c0.951-1.976 2.021-5.557 3.21-10.744s2.496-9.015 3.923-11.485c0.951-1.976 4.993-9.139 12.126-21.489 12.363-20.748 18.070-36.061 17.119-45.941-2.853-0.988-4.755-0.494-5.706 1.482s-1.664 4.693-2.14 8.151c-0.476 3.458-0.951 5.928-1.427 7.41-1.427 2.964-5.112 6.175-11.056 9.633l-5.191 3.458c-2.959 2.305-4.914 4.611-5.865 6.916 0.476 0 1.070 0.247 1.783 0.741l0.981 0.556c1.010 4.569-1.219 10.312-6.687 17.228s-7.727 11.856-6.776 14.82c-3.804 2.964-7.133 8.768-9.986 17.413s-5.231 14.202-7.133 16.672c-1.902 2.964-4.28 5.557-7.133 7.78s-6.419 4.693-10.699 7.41c-4.28 2.717-7.133 4.569-8.559 5.557-0.951 0.494-2.853 2.717-5.706 6.669-15.692 19.76-20.447 30.381-14.265 31.863-6.182-1.482-11.293 3.334-15.335 14.449s-5.35 19.636-3.923 25.564v0l-1.427 0.741c0.476 1.976 0.713 7.78 0.713 17.413s0.594 18.401 1.783 26.305c1.189 7.904 3.447 11.856 6.776 11.856-3.329-0.494-5.825 2.593-7.489 9.262s-1.783 11.238-0.357 13.708c0.476 1.482 2.615 0.494 6.419-2.964s5.944-5.681 6.419-6.669c6.182 3.458 8.559 7.904 7.133 13.338-0.951 1.976-5.944 7.163-14.979 15.561-20.447 13.832-30.908 20.501-31.384 20.007 2.853 5.434 2.14 10.127-2.14 14.079-4.755-2.964-7.489-3.705-8.203-2.223s-1.308 4.199-1.783 8.151c-0.476 3.952-1.664 6.175-3.566 6.669-2.378 0.494-5.231 2.47-8.559 5.928 42.321 70.147 98.194 124.98 167.619 164.5 2.853 0.494 8.084 0.741 15.692 0.741 3.804-0.494 7.37-1.729 10.699-3.705s6.776-4.693 10.342-8.151c3.566-3.458 6.301-5.928 8.203-7.41 0.951 2.964-0.238 7.41-3.566 13.338 0.951 2.964 6.182 5.928 15.692 8.892 10.937 1.482 18.070 1.235 21.398-0.741-2.853 4.446-7.608 10.621-14.265 18.525v0l-3.566-3.705c-3.804 3.458-13.79 1.729-29.957-5.187-0.951-0.494-3.329-1.852-7.133-4.075s-6.895-3.828-9.273-4.816c-2.853-0.988-5.706-1.235-8.559-0.741 22.825 12.844 45.174 22.971 67.048 30.381 1.427-0.988 3.804-3.087 7.133-6.298s5.944-5.557 7.846-7.039c-1.427 0.988-2.378 0.494-2.853-1.482-1.902-5.928-1.902-10.868 0-14.82 2.378-3.458 5.587-5.434 9.629-5.928s8.916-0.247 14.622 0.741v0l8.876 1.317 2.536 0.165 7.133-0.741c15.216-1.482 21.16 0 17.832 4.446l0.428-0.937z" />
<glyph unicode="&#xe92d;" glyph-name="grid_list_filled" d="M64 191.983c0 35.328 28.672 64 64 64h128c35.328 0 64-28.672 64-64v-128c0-35.328-28.672-64-64-64h-128c-35.328 0-64 28.672-64 64v128zM64 511.983c0 35.413 28.672 64 64 64h128c35.328 0 64-28.587 64-64v-128c0-35.328-28.672-64-64-64h-128c-35.328 0-64 28.672-64 64v128zM64 831.983c0 35.413 28.672 64 64 64h128c35.328 0 64-28.587 64-64v-128c0-35.328-28.672-64-64-64h-128c-35.328 0-64 28.672-64 64v128zM480 864h384c35.346 0 64-28.654 64-64v-64c0-35.346-28.654-64-64-64h-384c-35.346 0-64 28.654-64 64v64c0 35.346 28.654 64 64 64zM480 544h384c35.346 0 64-28.654 64-64v-64c0-35.346-28.654-64-64-64h-384c-35.346 0-64 28.654-64 64v64c0 35.346 28.654 64 64 64zM480 224h384c35.346 0 64-28.654 64-64v-64c0-35.346-28.654-64-64-64h-384c-35.346 0-64 28.654-64 64v64c0 35.346 28.654 64 64 64z" />
<glyph unicode="&#xe92e;" glyph-name="hand_thumbs_up_filled" d="M608 576c21.333 213.333 0 320-64 320-96 0-64-192-96-224s-64-192-192-192c-85.333 0-117.333-128-96-384l256-96c192 0 309.333 0 352 0 64 0 96 128 96 160s0 320 0 352c0 21.333-85.333 42.667-256 64zM445.167 848.316c4.181 59.819 60.928 106.155 122.112 90.88l16.725-4.181c29.696-7.424 55.893-29.269 64.768-61.781 14.080-52.224 34.133-160.683 4.011-288.683 9.387 1.28 18.773 2.389 28.331 3.328 45.653 4.096 106.837 4.523 160.939-13.483 33.195-11.093 63.659-43.605 76.885-81.493 11.691-34.048 10.24-74.325-15.019-110.848 3.755-7.68 6.571-15.531 8.789-23.211 4.949-17.323 7.253-36.352 7.253-54.869s-2.304-37.461-7.253-54.784c-2.475-8.619-5.717-17.493-10.24-25.771 10.837-24.832 6.912-52.395-0.171-73.557-7.168-20.821-17.749-40.192-31.232-57.6 3.499-9.813 4.949-20.053 4.949-29.781 0-19.541-5.803-40.021-16.299-58.453-21.333-37.461-63.744-68.011-123.733-68.011v64c36.011 0 57.685 17.408 68.267 35.84 4.779 8.021 7.424 17.237 7.765 26.624 0 7.68-2.304 10.496-2.56 10.837l-22.699 22.699 22.613 22.613c12.885 12.885 26.027 32.768 32.256 51.541 6.741 19.883 2.816 28.16-0.256 31.147l-22.613 22.699 22.613 22.613c2.731 2.645 6.741 9.045 9.813 20.224 3.072 10.667 4.779 23.637 4.779 37.12s-1.707 26.539-4.779 37.205c-3.157 11.179-7.083 17.493-9.813 20.139l-22.613 22.699 22.613 22.613c22.528 22.528 23.893 45.653 17.067 65.28-7.851 22.443-25.344 37.973-36.523 41.728-41.813 13.909-92.672 14.336-135.083 10.496-23.467-2.133-46.933-5.803-69.973-10.923l-0.939-0.171-0.171-0.085c-17.152-4.267-34.475 6.229-38.827 23.381-1.451 5.888-1.195 12.032 0.768 17.749 32.171 97.877 35.413 202.923 9.301 302.507-1.963 7.083-8.277 13.739-18.517 16.299l-16.725 4.181c-19.541 4.949-41.045-9.984-42.667-33.195-4.864-69.205-15.36-137.557-30.891-182.357-11.093-32.171-38.571-81.152-79.275-126.549-40.704-45.568-97.195-90.197-167.253-109.312-25.173-6.912-39.68-25.344-39.68-41.557v-256.171c0-16.64 14.080-32.939 35.413-35.157 82.688-8.789 123.904-33.963 159.403-55.637l2.56-1.536c17.323-10.496 31.659-18.944 49.664-25.173 17.749-6.144 40.363-10.411 72.96-10.411h224v-64h-224c-38.656 0-68.523 5.12-93.781 13.995-21.845 7.851-42.667 18.261-62.123 30.891l-3.072 1.877c-32.256 19.712-63.915 38.997-132.352 46.251-48.981 5.291-92.672 44.8-92.672 98.987v256c0 54.357 43.861 91.648 86.869 103.339 54.272 14.848 100.693 50.347 136.448 90.283 35.84 40.107 58.453 81.92 66.475 104.875 12.8 36.779 22.784 98.475 27.392 165.803z" />
<glyph unicode="&#xe92f;" glyph-name="info_filled" d="M512 960c282.77 0 512-229.23 512-512s-229.23-512-512-512c-282.77 0-512 229.23-512 512s229.23 512 512 512zM579.406 574.062h-120.25v-446.062h120.25v446.062zM579.406 749.562h-120.25v-100.344h120.25v100.344z" />
<glyph unicode="&#xe930;" glyph-name="info" d="M579.406 649.219v100.344h-120.25v-100.344h120.25zM579.406 128v446.062h-120.25v-446.062h120.25z" />
<glyph unicode="&#xe931;" glyph-name="list_ol" d="M222.625 672v274.125h-47.625l-88.313-70.312 27.938-34.875 31.5 25.312c3.75 3 10.438 9.313 20.062 18.938v0l-0.938-28.5-0.562-26.062v-158.625h57.938zM271 320v48.75h-119.438v2.625l35.25 33.188c23.5 21.5 39.906 38.062 49.219 49.687s16.187 22.969 20.625 34.031c4.438 11.062 6.656 22.906 6.656 35.531 0 14.5-3.625 27.375-10.875 38.625s-17.437 20-30.562 26.25c-13.125 6.25-28.25 9.375-45.375 9.375-13 0-24.75-1.281-35.25-3.844s-20.187-6.219-29.063-10.969c-8.875-4.75-20.062-12.875-33.562-24.375v0l31.5-37.312c10.875 9 21.312 15.938 31.312 20.812s20.312 7.312 30.938 7.312c10.125 0 18.219-2.687 24.281-8.062s9.094-13.562 9.094-24.562c0-7.375-1.375-14.5-4.125-21.375s-7.25-14.344-13.5-22.406c-6.25-8.063-19.562-22.531-39.938-43.406v0l-68.812-69.562v-40.312h191.625zM157.75-67.75c35.5 0 62.813 7.344 81.938 22.031s28.688 35.219 28.688 61.594c0 18.125-5.688 32.531-17.062 43.219s-28.125 17.406-50.25 20.156v0 1.125c18.75 4.5 33.312 12.75 43.687 24.75s15.563 26.563 15.563 43.688c0 20.5-8.219 36.5-24.656 48s-38.844 17.25-67.219 17.25c-34.625 0-64.437-9-89.437-27v0l26.813-39.937c11.375 7.375 21.719 12.563 31.031 15.563s18.469 4.5 27.469 4.5c26 0 39-10.375 39-31.125 0-13.5-4.906-23.031-14.719-28.594s-25.344-8.344-46.594-8.344v0h-21.187v-44.437h20.812c23 0 39.75-2.688 50.25-8.063s15.75-14.5 15.75-27.375c0-14.375-4.562-24.812-13.688-31.312s-23.25-9.75-42.375-9.75c-12.5 0-25.125 1.688-37.875 5.062s-24.437 7.75-35.062 13.125v0-49.312c23-9.875 49.375-14.812 79.125-14.812z" />
<glyph unicode="&#xe933;" glyph-name="list_ul" d="M224 800c0-35.346-28.654-64-64-64s-64 28.654-64 64c0 35.346 28.654 64 64 64s64-28.654 64-64zM224 448c0-35.346-28.654-64-64-64s-64 28.654-64 64c0 35.346 28.654 64 64 64s64-28.654 64-64zM224 96c0-35.346-28.654-64-64-64s-64 28.654-64 64c0 35.346 28.654 64 64 64s64-28.654 64-64z" />
<glyph unicode="&#xe934;" glyph-name="person_x" d="M437.333 522.667l533.333-533.333M970.667 522.667l-533.333-533.333M288 640c67.235 0 119.755-16.35 160.422-41.099l-12.665-1.559c-19.582-2.325-37.813-11.172-51.757-25.116-34.304-34.304-34.304-89.923 0-124.227v0l128-128h-454.4c0 0-57.6 0-57.6 64s57.6 256 288 256zM272 671.987c-79.488 0-144 64.448-144 144s64.512 144 144 144c79.488 0 144-64.448 144-144s-64.512-144-144-144v0z" />
<glyph unicode="&#xe935;" glyph-name="progress_bars" d="M64 960h704c35.346 0 64-28.654 64-64v-128c0-35.346-28.654-64-64-64h-704c-35.346 0-64 28.654-64 64v128c0 35.346 28.654 64 64 64zM64 576h192c35.346 0 64-28.654 64-64v-128c0-35.346-28.654-64-64-64h-192c-35.346 0-64 28.654-64 64v128c0 35.346 28.654 64 64 64zM64 192h448c35.346 0 64-28.654 64-64v-128c0-35.346-28.654-64-64-64h-448c-35.346 0-64 28.654-64 64v128c0 35.346 28.654 64 64 64z" />
<glyph unicode="&#xe936;" glyph-name="spinner" d="M43.77 465.856c0-64.262 52.102-116.364 116.364-116.364s116.364 52.102 116.364 116.364c0 64.262-52.102 116.364-116.364 116.364s-116.364-52.102-116.364-116.364zM105.644 271.281c0-59.171 47.971-107.142 107.142-107.142 59.142 0 107.113 47.971 107.113 107.142s-47.971 107.142-107.113 107.142c-59.171 0-107.142-47.971-107.142-107.142zM253.187 133.001c0-54.051 43.84-97.891 97.891-97.891 54.080 0 97.891 43.84 97.891 97.891s-43.811 97.891-97.891 97.891c-54.051 0-97.891-43.84-97.891-97.891zM457.009 80.401c0-48.96 39.709-88.669 88.669-88.669s88.669 39.709 88.669 88.669c0 48.96-39.709 88.669-88.669 88.669s-88.669-39.709-88.669-88.669zM660.8 133.085c0-43.869 35.549-79.418 79.418-79.418s79.418 35.549 79.418 79.418c0 43.869-35.549 79.418-79.418 79.418s-79.418-35.549-79.418-79.418zM808.288 271.424c0-38.778 31.447-70.196 70.196-70.196 38.778 0 70.196 31.418 70.196 70.196s-31.418 70.196-70.196 70.196c-38.749 0-70.196-31.418-70.196-70.196zM870.092 466.028c0-33.658 27.287-60.945 60.945-60.945s60.945 27.287 60.945 60.945c0 33.658-27.287 60.945-60.945 60.945s-60.945-27.287-60.945-60.945zM829.609 663.456c0-28.567 23.156-51.724 51.724-51.724s51.724 23.156 51.724 51.724c0 28.567-23.156 51.724-51.724 51.724s-51.724-23.156-51.724-51.724zM706.071 807.177c0-23.476 19.025-42.473 42.473-42.473 23.476 0 42.502 18.996 42.502 42.473s-19.025 42.502-42.502 42.502c-23.447 0-42.473-19.025-42.473-42.502zM523.77 862.746c0-18.356 14.895-33.251 33.251-33.251s33.251 14.895 33.251 33.251c0 18.356-14.895 33.251-33.251 33.251s-33.251-14.895-33.251-33.251z" />
<glyph unicode="&#xe937;" glyph-name="alarm_lightning" d="M576.266 883.19c38.449-33.477 42.486-91.815 9.009-130.265-2.806-3.2-5.809-6.252-9.009-9.058-28.554 56.123-74.142 101.711-130.265 130.215 33.477 38.498 91.717 42.535 130.265 9.108zM39.897 874.082c33.477 38.498 91.766 42.535 130.215 9.108 3.249-2.855 6.252-5.858 9.058-9.108-56.123-28.505-101.711-74.092-130.215-130.215-38.449 33.477-42.535 91.766-9.058 130.215zM220.283 924.298c0 10.24 8.271 18.462 18.462 18.462h147.692c10.191 0 18.462-8.222 18.462-18.462 0-10.191-8.271-18.462-18.462-18.462h-147.692c-10.191 0-18.462 8.271-18.462 18.462v0zM177.994 420.47c-7.237 7.188-18.905 7.237-26.142 0.049 0 0 0-0.049-0.049-0.049l-36.923-36.923c-7.188-7.237-7.188-18.954 0-26.191 7.237-7.188 18.954-7.188 26.191 0l36.923 36.923c7.188 7.237 7.237 18.905 0 26.142 0 0.049 0 0.049 0 0.049v0zM447.188 420.47c7.237 7.188 18.905 7.237 26.142 0.049l36.972-36.972c7.188-7.237 7.188-18.954 0-26.191-7.237-7.188-18.954-7.188-26.191 0l-36.923 36.923c-7.188 7.237-7.188 18.905-0.049 26.142l0.049 0.049zM275.643 831.975h73.846v73.846h-73.846zM906.082 828.17c11.275-6.571 16.576-20.011 12.693-32.48l-100.875-327.712h186.144c15.456 0 28-12.544 28-28 0-7.093-2.763-14.037-7.616-19.189l-448.075-476c-10.528-11.275-28.299-11.797-39.499-1.269-7.84 7.392-10.752 18.443-7.616 28.672l100.875 327.787h-186.069c-15.531 0-28 12.544-28 28 0 7.093 2.688 14.037 7.616 19.189l447.925 476c8.96 9.483 23.221 11.573 34.496 5.003z" />
<glyph unicode="&#xe938;" glyph-name="Alarm-warning" d="M504 694.5c7.824 0 15.327-3.108 20.86-8.64s8.641-13.036 8.641-20.86v-236c-0.001-4.589-1.071-9.114-3.127-13.216l-88.5-177c-1.717-3.494-4.109-6.611-7.037-9.178s-6.336-4.525-10.026-5.766c-3.69-1.242-7.589-1.747-11.473-1.472-3.884 0.269-7.676 1.312-11.156 3.053-3.481 1.747-6.582 4.16-9.124 7.11s-4.476 6.368-5.69 10.067c-1.213 3.699-1.683 7.603-1.38 11.488 0.302 3.878 1.369 7.661 3.14 11.13l85.373 170.746v229.038c0 7.823 3.108 15.327 8.641 20.86s13.036 8.64 20.86 8.64v0zM82.74 642.168c-15.265 13.279-27.636 29.556-36.342 47.82s-13.562 38.124-14.264 58.344c-0.703 20.221 2.762 40.37 10.179 59.194s18.627 35.921 32.934 50.228c14.307 14.307 31.404 25.517 50.228 32.934s38.973 10.882 59.194 10.179c20.221-0.703 40.081-5.559 58.345-14.264s34.541-21.076 47.82-36.342c-89.683-45.533-162.56-118.41-208.093-208.093v0zM717.165 850.261c13.28 15.266 29.562 27.636 47.821 36.342 18.266 8.706 38.125 13.562 58.349 14.264 20.218 0.703 40.365-2.762 59.194-10.179 18.822-7.417 35.917-18.627 50.227-32.934 14.304-14.307 25.517-31.404 32.934-50.228s10.88-38.973 10.176-59.194c-0.704-20.221-5.555-40.081-14.266-58.344-8.704-18.264-21.075-34.541-36.339-47.82-45.536 89.683-118.413 162.56-208.096 208.093v0zM504 75.002h1.761c-6.141-8.506-9.761-18.957-9.761-30.253 0-10.637 3.21-20.525 8.714-28.749h-0.714c-109.535 0-214.582 43.514-292.035 120.966s-120.964 182.496-120.964 292.033c0 109.535 43.512 214.583 120.964 292.035s182.5 120.965 292.035 120.965c109.535 0 214.586-43.512 292.032-120.965 77.453-77.452 120.966-182.5 120.966-292.035 0-47.487-8.179-94.131-23.75-138.049l-42.432 67.101c4.742 23.177 7.181 46.937 7.181 70.948 0 93.887-37.293 183.928-103.68 250.316s-156.43 103.684-250.317 103.684c-93.887 0-183.928-37.297-250.316-103.684s-103.684-156.429-103.684-250.316c0-93.886 37.296-183.924 103.684-250.318 66.388-66.387 156.429-103.68 250.316-103.68zM795.322 411.956l216.269-350.44c14.451-23.334-2.867-53.075-30.912-53.075h-432.57c-28.043 0-45.329 29.709-30.913 53.075l216.302 350.44c3.123 5.18 7.622 9.483 13.050 12.476s11.59 4.568 17.862 4.568c6.272 0 12.435-1.576 17.862-4.568s9.926-7.296 13.050-12.476zM764.346 308.813c-3.987-0.006-7.93-0.8-11.571-2.342-3.648-1.542-6.912-3.795-9.581-6.611-2.675-2.81-4.704-6.131-5.952-9.734-1.242-3.61-1.683-7.424-1.286-11.2l11.040-105.338c0.371-4.141 2.362-7.994 5.574-10.803s7.418-4.371 11.776-4.371c4.365 0 8.563 1.562 11.776 4.371s5.203 6.662 5.574 10.803l11.040 105.338c0.397 3.776-0.045 7.59-1.286 11.2-1.248 3.603-3.27 6.925-5.946 9.734-2.675 2.816-5.939 5.069-9.587 6.611-3.642 1.542-7.584 2.336-11.571 2.342v0zM764.41 128.589c-8.365 0-16.39-3.162-22.304-8.794-5.92-5.638-9.242-13.274-9.242-21.242s3.322-15.61 9.242-21.242c5.914-5.632 13.939-8.794 22.304-8.794s16.39 3.162 22.304 8.794c5.914 5.632 9.242 13.274 9.242 21.242s-3.328 15.603-9.242 21.242c-5.914 5.632-13.939 8.794-22.304 8.794z" />
<glyph unicode="&#xe939;" glyph-name="area_chart" d="M0 959.974v-1024h1024v64h-960v960z" />
<glyph unicode="&#xe93d;" glyph-name="badge" d="M220.956 834.883c-15.89-1.988-31.476-6.1-46.332-12.255-21.742-9.005-41.496-22.205-58.137-38.845s-29.84-36.395-38.845-58.137c-9.006-21.741-13.641-45.044-13.641-68.577 0-47.527 18.88-93.107 52.486-126.714s79.187-52.486 126.714-52.486c14.308 0 28.441 1.711 42.124 5.021-6.841 18.326-12.862 37.461-18.204 57.132-7.814-1.597-15.825-2.419-23.92-2.419-31.684 0-62.071 12.587-84.476 34.991s-34.991 52.791-34.991 84.476c0 31.684 12.587 62.071 34.991 84.476 18.681 18.681 42.911 30.536 68.817 33.961-1.004 8.969-1.98 17.833-2.941 26.565-1.229 11.17-2.435 22.125-3.645 32.812zM738.675 482.889c13.683-3.309 27.814-5.020 42.125-5.020 47.526 0 93.107 18.88 126.714 52.486s52.486 79.187 52.486 126.714c0 23.533-4.634 46.835-13.638 68.577-9.011 21.742-22.208 41.497-38.848 58.137s-36.397 29.84-58.138 38.845c-14.854 6.154-30.438 10.267-46.33 12.255-1.21-10.687-2.419-21.642-3.648-32.812-0.96-8.732-1.933-17.596-2.938-26.565 25.901-3.425 50.131-15.28 68.813-33.961 22.406-22.404 34.995-52.791 34.995-84.476s-12.589-62.071-34.995-84.476c-22.4-22.404-52.787-34.991-84.474-34.991-8.096 0-16.102 0.822-23.917 2.419-5.344-19.67-11.366-38.805-18.208-57.132zM452.267 326.932h119.467v-207.463h59.734c15.841 0 31.035-6.298 42.235-17.498 11.206-11.2 17.498-26.394 17.498-42.24h59.731c15.846 0 31.040-6.291 42.24-17.491 11.2-11.206 17.498-26.4 17.498-42.24h-597.335c0 15.84 6.294 31.034 17.496 42.24 11.202 11.2 26.396 17.491 42.238 17.491h59.733c0 15.846 6.293 31.040 17.496 42.24s26.396 17.498 42.237 17.498h59.733v207.463z" />
<glyph unicode="&#xe93e;" glyph-name="books1" d="M256 832c35.346 0 64-28.654 64-64v-832h-256v832c0 35.346 28.654 64 64 64h128zM256 768h-128v-768h128v768zM753.233 836.307c34.809 6.138 68.003-17.105 74.141-51.914l144.475-819.36-252.111-44.454-144.475 819.36c-6.138 34.809 17.105 68.003 51.914 74.141l126.055 22.227zM764.347 773.28l-126.055-22.227 133.362-756.332 126.055 22.227-133.362 756.332zM660.518 624.997l126.055 22.227 11.113-63.028-126.055-22.227-11.113 63.028zM738.313 183.803l126.055 22.227 11.113-63.028-126.055-22.227-11.113 63.028zM576 960c35.346 0 64-28.654 64-64v-960h-384v960c0 35.346 28.654 64 64 64h256zM576 896h-256v-896h256v896zM128 640h128v-64h-128v64zM320 768h256v-64h-256v64zM128 128h128v-64h-128v64zM320 192h256v-64h-256v64z" />
<glyph unicode="&#xe93f;" glyph-name="box_play" d="M960 692.33l-416-167.203v-509.455l32 12.873v-69.248l-52.096-20.988c-7.641-3.077-16.167-3.077-23.808 0l-459.776 184.824c-24.323 9.734-40.293 33.372-40.32 59.679v557.044c0 13.138 7.96 24.952 20.096 29.839l456.256 183.409c22.884 9.196 48.412 9.196 71.296 0l456.256-183.409c12.136-4.887 20.096-16.702 20.096-29.839v-557.044c-0.017-26.291-15.958-49.925-40.256-59.679l-23.744-9.532v578.73zM64 692.33v-509.52l416-167.203v509.584l-416 167.139zM500.096 893.36l-381.952-153.505 393.856-158.264 393.856 158.264-381.952 153.505c-7.641 3.077-16.167 3.077-23.808 0zM640 381.055v-356.776c0-17.673 14.327-32 32-32 7.313 0 14.406 2.505 20.097 7.098l221.046 178.388c13.753 11.099 15.905 31.246 4.806 44.999-1.427 1.768-3.038 3.379-4.806 4.806l-221.046 178.388c-13.753 11.099-33.9 8.947-44.999-4.806-4.593-5.691-7.098-12.784-7.098-20.097z" />
<glyph unicode="&#xe940;" glyph-name="boxes" d="M517.952 862.68c-3.82 1.538-8.084 1.538-11.904 0l-190.976-76.753 196.928-79.132 196.928 79.132-190.976 76.753zM736 762.165l-208-83.602v-254.728l208 83.602v254.728zM496 423.803v254.792l-208 83.569v-254.76l208-83.602zM494.176 892.551c11.442 4.598 24.206 4.598 35.648 0l228.128-91.705c6.068-2.444 10.048-8.351 10.048-14.92v-278.522c-0.008-13.146-7.979-24.962-20.128-29.839l-229.92-92.412c-3.82-1.538-8.084-1.538-11.904 0l-229.888 92.412c-12.161 4.867-20.146 16.686-20.16 29.839v278.522c0 6.569 3.98 12.476 10.048 14.92l228.128 91.705zM773.952 478.68c-3.82 1.538-8.084 1.538-11.904 0l-190.976-76.753 196.928-79.132 196.928 79.132-190.976 76.753zM992 378.165l-208-83.602v-254.728l208 83.602v254.728zM752 39.803v254.792l-208 83.569v-254.76l208-83.602zM750.176 508.551c11.442 4.598 24.206 4.598 35.648 0l228.128-91.705c6.068-2.444 10.048-8.351 10.048-14.92v-278.522c-0.008-13.146-7.979-24.962-20.128-29.839l-229.92-92.412c-3.82-1.538-8.084-1.538-11.904 0l-229.888 92.412c-12.161 4.867-20.146 16.686-20.16 29.839v278.522c0 6.569 3.98 12.476 10.048 14.92l228.128 91.705zM261.952 478.68c-3.82 1.538-8.084 1.538-11.904 0l-190.976-76.753 196.928-79.132 196.928 79.132-190.976 76.753zM480 378.165l-208-83.602v-254.728l208 83.602v254.728zM240 39.803v254.792l-208 83.569v-254.76l208-83.602zM238.176 508.551c11.442 4.598 24.206 4.598 35.648 0l228.128-91.705c6.068-2.444 10.048-8.351 10.048-14.92v-278.522c-0.008-13.146-7.979-24.962-20.128-29.839l-229.92-92.412c-3.82-1.538-8.084-1.538-11.904 0l-229.888 92.412c-12.161 4.867-20.146 16.686-20.16 29.839v278.522c0 6.569 3.98 12.476 10.048 14.92l228.128 91.705z" />
<glyph unicode="&#xe941;" glyph-name="calculator_slash_filled" d="M256 959.983h512c70.656 0 128-57.259 128-128v-768c0-70.656-57.344-128-128-128h-512c-70.741 0-128 57.344-128 128v768c0 70.741 57.259 128 128 128zM768 895.983h-512c-35.328 0-64-28.587-64-64v-768c0-35.328 28.672-64 64-64h512c35.328 0 64 28.672 64 64v768c0 35.413-28.672 64-64 64v0zM640 351.983c0 17.664 14.336 32 32 32h64c17.664 0 32-14.336 32-32v-256c0-17.664-14.336-32-32-32h-64c-17.664 0-32 14.336-32 32v256zM640 543.983c0 17.749 14.336 32 32 32h64c17.664 0 32-14.251 32-32v-64c0-17.664-14.336-32-32-32h-64c-17.664 0-32 14.336-32 32v64zM448 159.983c0 17.664 14.336 32 32 32h64c17.664 0 32-14.336 32-32v-64c0-17.664-14.336-32-32-32h-64c-17.664 0-32 14.336-32 32v64zM448 351.983c0 17.664 14.336 32 32 32h64c17.664 0 32-14.336 32-32v-64c0-17.664-14.336-32-32-32h-64c-17.664 0-32 14.336-32 32v64zM448 543.983c0 17.749 14.336 32 32 32h64c17.664 0 32-14.251 32-32v-64c0-17.664-14.336-32-32-32h-64c-17.664 0-32 14.336-32 32v64zM256 159.983c0 17.664 14.336 32 32 32h64c17.664 0 32-14.336 32-32v-64c0-17.664-14.336-32-32-32h-64c-17.664 0-32 14.336-32 32v64zM256 351.983c0 17.664 14.336 32 32 32h64c17.664 0 32-14.336 32-32v-64c0-17.664-14.336-32-32-32h-64c-17.664 0-32 14.336-32 32v64zM256 543.983c0 17.749 14.336 32 32 32h64c17.664 0 32-14.251 32-32v-64c0-17.664-14.336-32-32-32h-64c-17.664 0-32 14.336-32 32v64zM256 799.983c0 17.749 14.336 32 32 32h448c17.664 0 32-14.251 32-32v-128c0-17.664-14.336-32-32-32h-448c-17.664 0-32 14.336-32 32v128z" />
<glyph unicode="&#xe942;" glyph-name="certificate1" d="M896 512c0-88.366-71.634-160-160-160s-160 71.634-160 160c0 88.366 71.634 160 160 160s160-71.634 160-160z" />
<glyph unicode="&#xe943;" glyph-name="archive1" d="M128 640v-480c0-55.296 41.088-96 86.848-96h594.304c45.76 0 86.848 40.704 86.848 96v480h64v-480c0-86.080-65.344-160-150.848-160h-594.304c-85.504 0-150.848 73.92-150.848 160v480h64zM352 480v0c0-17.673 14.327-32 32-32h256c17.673 0 32 14.327 32 32s-14.327 32-32 32h-256c-17.673 0-32-14.327-32-32zM960 832v-128h-896v128h896zM64 896c-35.346 0-64-28.654-64-64v0-128c0-35.346 28.654-64 64-64v0h896c35.346 0 64 28.654 64 64v0 128c0 35.346-28.654 64-64 64v0h-896z" />
<glyph unicode="&#xe944;" glyph-name="address-book" d="M192 960v-1024h768v1024h-768zM576 703.67c70.51 0 127.67-57.16 127.67-127.67s-57.16-127.67-127.67-127.67-127.67 57.16-127.67 127.67 57.16 127.67 127.67 127.67v0zM768 192h-384v64c0 70.696 57.306 128 128 128v0h128c70.696 0 128-57.304 128-128v-64zM64 896h96v-192h-96v192zM64 640h96v-192h-96v192zM64 384h96v-192h-96v192zM64 128h96v-192h-96v192z" />
<glyph unicode="&#xe945;" glyph-name="chat_text_search" d="M842.46 133.549l27.757 28.66c12.295 12.695 32.554 13.020 45.249 0.725 1.018-0.986 1.97-2.039 2.848-3.151l97.35-123.235c9.94-12.583 9.032-30.58-2.124-42.098l-27.757-28.66c-12.295-12.695-32.554-13.020-45.249-0.725-1.018 0.986-1.97 2.039-2.848 3.151l-97.35 123.235c-9.94 12.583-9.032 30.58 2.124 42.098zM448 896c214.796 0 394.305-131.629 437.896-307.3-25.997 31.285-57.87 57.485-93.907 76.971-65.308 102.237-191.802 174.607-343.99 174.607-223.776 0-392-156.467-392-334.332 0-81.8 34.552-157.693 93.968-216.981 11.768-11.755 17.66-28.117 16.072-44.633-3.936-37.756-11.397-75.065-22.288-111.444 78.12 17.998 125.832 38.838 147.504 49.76 12.292 6.195 26.448 7.663 39.76 4.123 22.125-5.869 44.643-10.048 67.358-12.512 19.3-22.289 41.695-41.876 66.481-58.116-5.601-0.159-11.216-0.25-16.854-0.25-44.372-0.060-88.559 5.673-131.432 17.051-29.12-14.655-91.784-41.346-194.208-61.573-13.268-2.617-26.579-5.014-39.928-7.188-11.2-1.783-19.712 9.807-15.288 20.171 4.972 11.668 9.53 23.507 13.664 35.495l0.168 0.557c13.888 40.12 25.2 86.258 29.344 129.219-68.712 68.538-110.32 158.25-110.32 256.321 0 215.421 200.592 390.054 448 390.054zM224 640h320c17.673 0 32-14.327 32-32s-14.327-32-32-32h-320c-17.673 0-32 14.327-32 32s14.327 32 32 32zM224 512h256c17.673 0 32-14.327 32-32s-14.327-32-32-32h-256c-17.673 0-32 14.327-32 32s14.327 32 32 32zM224 384h128c17.673 0 32-14.327 32-32s-14.327-32-32-32h-128c-17.673 0-32 14.327-32 32s14.327 32 32 32zM736 512c123.712 0 224-100.288 224-224s-100.288-224-224-224c-123.712 0-224 100.288-224 224s100.288 224 224 224zM736 448c-88.366 0-160-71.634-160-160s71.634-160 160-160c88.366 0 160 71.634 160 160s-71.634 160-160 160z" />
<glyph unicode="&#xe948;" glyph-name="arrow-90deg-up" d="M169.344 521.344c5.794-5.808 13.805-9.401 22.656-9.401s16.862 3.593 22.655 9.401l169.345 169.409 169.344-169.408c5.798-5.798 13.808-9.384 22.656-9.384 17.695 0 32.040 14.345 32.040 32.040 0 8.848-3.586 16.858-9.384 22.656v0l-192 192c-5.794 5.808-13.805 9.401-22.656 9.401s-16.862-3.593-22.655-9.401l-192.001-192.001c-5.808-5.794-9.401-13.805-9.401-22.656s3.593-16.862 9.401-22.655l0.001-0.001zM384 736c-17.673 0-32-14.327-32-32v0-416c0-88.366 71.634-160 160-160v0h352c17.673 0 32 14.327 32 32s-14.327 32-32 32v0h-352c-53.019 0-96 42.981-96 96v0 416c0 17.673-14.327 32-32 32v0z" />
<glyph unicode="&#xe94b;" glyph-name="Clock-lock" d="M503.999 694.5c7.824 0 15.327-3.108 20.86-8.64s8.641-13.036 8.641-20.86v-236c-0.001-4.589-1.071-9.114-3.127-13.216l-88.5-177c-1.718-3.494-4.109-6.611-7.038-9.178s-6.336-4.525-10.026-5.766c-3.69-1.242-7.589-1.747-11.473-1.472-3.884 0.269-7.675 1.312-11.156 3.053-3.48 1.747-6.582 4.16-9.124 7.11s-4.476 6.368-5.69 10.067c-1.213 3.699-1.683 7.603-1.38 11.488 0.302 3.878 1.37 7.661 3.14 11.13l85.373 170.746v229.038c0 7.823 3.108 15.327 8.641 20.86s13.036 8.64 20.86 8.64v0zM582 83.699c-25.4-5.741-51.547-8.698-78-8.698-93.887 0-183.928 37.293-250.316 103.68-66.388 66.394-103.684 156.432-103.684 250.318s37.296 183.928 103.684 250.316c66.388 66.388 156.429 103.684 250.316 103.684s183.93-37.297 250.317-103.684c66.387-66.388 103.68-156.429 103.68-250.316 0-4.169-0.070-8.331-0.218-12.484 26.304-17.855 44.698-46.487 48.838-79.55 6.848 29.957 10.381 60.813 10.381 92.034 0 109.535-43.514 214.583-120.966 292.035-77.446 77.453-182.497 120.965-292.032 120.965s-214.582-43.512-292.035-120.965c-77.452-77.452-120.964-182.5-120.964-292.035 0-109.537 43.512-214.58 120.964-292.033s182.5-120.966 292.035-120.966c26.367 0 52.475 2.522 78 7.43v60.269zM596.645 167.226c0 17.523 6.96 34.323 19.35 46.714s29.196 19.354 46.712 19.354h231.226c17.523 0 34.33-6.963 46.72-19.354 12.384-12.39 19.347-29.19 19.347-46.714v-165.158c0-17.523-6.963-34.33-19.347-46.714-12.39-12.39-29.197-19.354-46.72-19.354h-231.226c-17.517 0-34.323 6.963-46.712 19.354-12.39 12.384-19.35 29.19-19.35 46.714v165.158zM829.894 306.752l-0.051-1.274v-72.186h64v70.912c0.064 1.555 0.090 3.117 0.090 4.685 0 63.849-51.757 115.61-115.61 115.61s-115.616-51.761-115.616-115.61c0-1.568 0.032-3.13 0.096-4.678v-70.918h64v72.192l-0.051 1.274c-0.026 0.698-0.045 1.414-0.045 2.131 0 28.502 23.11 51.61 51.616 51.61s51.61-23.108 51.61-51.61c0-0.723-0.013-1.434-0.038-2.138z" />
<glyph unicode="&#xe94c;" d="M0 960h1024v-1024h-1024v1024z" />
<glyph unicode="&#xe94d;" d="M316.44 740.678c57.886 38.678 125.942 59.323 195.561 59.323 61.789 0.121 122.51-16.108 175.999-47.040 3.642-2.316 7.718-3.87 11.974-4.57s8.614-0.532 12.806 0.494c4.192 1.027 8.134 2.892 11.584 5.48 3.456 2.589 6.349 5.85 8.506 9.587 2.163 3.736 3.546 7.871 4.064 12.156s0.166 8.629-1.037 12.774c-1.197 4.145-3.226 8.004-5.958 11.344s-6.112 6.094-9.939 8.095c-79.302 45.787-171.501 64.127-262.292 52.175s-175.1-53.526-239.855-118.276c-64.754-64.75-106.334-149.058-118.291-239.847s6.377-182.988 52.159-262.296c45.781-79.309 116.452-141.293 201.052-176.346 69.873-28.947 146.021-38.189 220.25-27.181v64.781c-42.731-7.52-86.707-7.117-129.695 1.434-68.281 13.581-131.002 47.104-180.23 96.333s-82.753 111.949-96.335 180.231c-13.582 68.282-6.611 139.057 20.031 203.377s71.759 119.295 129.645 157.972zM779.501 542.188l203.155 203.158c2.982 2.973 5.344 6.504 6.957 10.392s2.445 8.055 2.445 12.264c0 4.209-0.832 8.377-2.445 12.265s-3.974 7.419-6.957 10.391c-2.976 2.98-6.502 5.345-10.394 6.957-3.885 1.613-8.051 2.444-12.262 2.444s-8.378-0.831-12.262-2.444c-3.891-1.613-7.424-3.977-10.394-6.957l-206.157-206.188 48.314-42.282zM573.023 426.283v-90.57l-38.368-38.369c-2.972-2.976-6.504-5.344-10.392-6.957s-8.055-2.445-12.264-2.445c-4.209 0-8.377 0.832-12.264 2.445s-7.419 3.981-10.392 6.957l-192 192.001c-2.975 2.975-5.335 6.508-6.945 10.395s-2.439 8.054-2.439 12.261c0 4.208 0.829 8.374 2.439 12.262s3.97 7.419 6.945 10.394c2.975 2.975 6.508 5.336 10.395 6.946s8.054 2.438 12.261 2.438c4.207 0 8.374-0.829 12.261-2.438s7.42-3.971 10.395-6.946l169.344-169.408 61.024 61.034z" />
<glyph unicode="&#xe94e;" glyph-name="arrow-counterclockwise" d="M821.12 530.816c-37.766 137.709-161.816 237.223-309.108 237.223-53.101 0-103.181-12.934-147.261-35.823l1.778 0.84c-4.226-2.196-9.226-3.484-14.528-3.484-17.689 0-32.028 14.34-32.028 32.028 0 12.387 7.032 23.132 17.322 28.46l0.179 0.084c50.751 26.444 110.83 41.955 174.532 41.955 212.077 0 384-171.923 384-384s-171.923-384-384-384c-212.077 0-384 171.923-384 384 0 57.987 12.853 112.971 35.865 162.261l-0.99-2.36c5.185 11.12 16.269 18.688 29.12 18.688 17.691 0 32.032-14.341 32.032-32.032 0-4.839-1.073-9.428-2.994-13.541l0.083 0.197c-18.373-39.127-29.095-84.972-29.095-133.321 0-176.731 143.269-320 320-320s320 143.269 320 320c0 29.456-3.98 57.983-11.432 85.072l0.527-2.247zM502.656 950.656c-5.794 5.808-13.805 9.401-22.656 9.401s-16.862-3.593-22.655-9.401l-160.001-160.001c-5.808-5.794-9.401-13.805-9.401-22.656s3.593-16.862 9.401-22.655l160.001-160.001c5.798-5.798 13.808-9.384 22.656-9.384 17.695 0 32.040 14.345 32.040 32.040 0 8.848-3.586 16.858-9.384 22.656v0l-137.408 137.344 137.408 137.344c5.808 5.794 9.401 13.805 9.401 22.656s-3.593 16.862-9.401 22.655l-0.001 0.001z" />
<glyph unicode="&#xe94f;" d="M1005.178 214.477l-302.579-264.717c-35.654-31.238-91.512-5.85-91.512 41.568v529.429c-0.009 10.611 3.041 21 8.783 29.923s13.937 16 23.599 20.385c9.664 4.386 20.384 5.893 30.88 4.342s20.326-6.095 28.307-13.088l302.47-264.719c5.926-5.178 10.675-11.565 13.933-18.733s4.941-14.95 4.941-22.829c0-7.872-1.683-15.654-4.941-22.822s-8.006-13.555-13.933-18.739h0.051z" />
<glyph unicode="&#xe950;" glyph-name="alarm" d="M512 832c-247.424 0-448-200.576-448-448s200.576-448 448-448 448 200.576 448 448-200.576 448-448 448zM512 24c-198.824 0-360 161.178-360 360 0 198.824 161.176 360 360 360 198.822 0 360-161.176 360-360 0-198.822-161.178-360-360-360zM934.784 672.826c16.042 28.052 25.216 60.542 25.216 95.174 0 106.040-85.96 192-192 192-61.818 0-116.802-29.222-151.92-74.596 131.884-27.236 245.206-105.198 318.704-212.578v0zM407.92 885.404c-35.116 45.374-90.102 74.596-151.92 74.596-106.040 0-192-85.96-192-192 0-34.632 9.174-67.122 25.216-95.174 73.5 107.38 186.822 185.342 318.704 212.578zM512 384v256h-64v-320h256v64z" />
<glyph unicode="&#xe951;" d="M0 960h1024v-1024h-1024v1024z" />
<glyph unicode="&#xe952;" d="M124.118 60.115c-18.003 18.003-28.118 42.426-28.118 67.885v640c0 25.46 10.115 49.879 28.118 67.882s42.422 28.118 67.882 28.118h512c8.486 0 16.627-3.372 22.63-9.373 5.997-6.001 9.37-14.14 9.37-22.627s-3.373-16.627-9.37-22.627c-6.003-6.001-14.144-9.373-22.63-9.373h-512c-8.487 0-16.627-3.372-22.627-9.373s-9.373-14.14-9.373-22.627v-640c0-8.486 3.372-16.627 9.373-22.63 6.001-5.997 14.14-9.37 22.627-9.37h381.023v-64h-381.023c-25.46 0-49.879 10.112-67.882 28.115zM731.187 584.469l48.314-42.282 203.155 203.158c2.982 2.973 5.344 6.504 6.957 10.392s2.445 8.055 2.445 12.264c0 4.209-0.832 8.377-2.445 12.265s-3.974 7.419-6.957 10.391c-2.976 2.98-6.502 5.345-10.394 6.957-3.885 1.613-8.051 2.444-12.262 2.444s-8.378-0.831-12.262-2.444c-3.891-1.613-7.424-3.977-10.394-6.957l-206.157-206.188zM573.023 335.713v90.57l-61.024-61.034-169.344 169.408c-2.975 2.975-6.508 5.336-10.395 6.946s-8.054 2.438-12.261 2.438c-4.207 0-8.374-0.829-12.261-2.438s-7.42-3.971-10.395-6.946c-2.975-2.975-5.335-6.507-6.945-10.394s-2.439-8.054-2.439-12.262c0-4.207 0.829-8.374 2.439-12.261s3.97-7.42 6.945-10.395l192-192.001c2.973-2.976 6.504-5.344 10.392-6.957s8.055-2.445 12.264-2.445c4.209 0 8.377 0.832 12.264 2.445s7.42 3.981 10.392 6.957l38.368 38.369z" />
<glyph unicode="&#xe953;" d="M1005.178 214.477l-302.579-264.717c-35.654-31.238-91.512-5.85-91.512 41.568v529.429c-0.009 10.611 3.041 21 8.783 29.923s13.937 16 23.599 20.385c9.664 4.386 20.384 5.893 30.88 4.342s20.326-6.095 28.307-13.088l302.47-264.719c5.926-5.178 10.675-11.565 13.933-18.733s4.941-14.95 4.941-22.829c0-7.872-1.683-15.654-4.941-22.822s-8.006-13.555-13.933-18.739h0.051z" />
<glyph unicode="&#xe954;" glyph-name="computer_people" d="M472 223.987c66.304 0 120 53.76 120 120 0 66.304-53.696 120-120 120s-120-53.696-120-120c0-66.24 53.696-120 120-120v0zM506.368-64.013c-7.104 14.976-10.624 31.424-10.368 48 0 65.088 32.64 132.032 92.928 178.56-30.080 9.28-61.44 13.824-92.928 13.44-192 0-240-144-240-192s48-48 48-48h202.368zM784 223.987c79.488 0 144 64.448 144 144s-64.512 144-144 144c-79.488 0-144-64.448-144-144s64.512-144 144-144v0zM592-64.013c0 0-48 0-48 48s48 192 240 192c192 0 240-144 240-192s-48-48-48-48h-384zM110 959.988h484c36.432 0 66-29.509 66-66v-374h-616v374c0 36.491 29.568 66 66 66zM594 915.988h-484c-12.144 0-22-9.797-22-22v-330h528v330c0 12.203-9.856 22-22 22v0zM0 519.988h704v-22c0-36.432-29.568-66-66-66h-572c-36.432 0-66 29.568-66 66v22z" />
<glyph unicode="&#xe955;" glyph-name="course-completed" d="M362.223 847.964c5.534 2.218 11.71 2.218 17.244 0l276.654-110.652-285.276-114.081-285.273 114.081 276.651 110.652zM394.024 582.531l301.311 120.479v-367.183l-102.727-41.094 34.931-35.968 84.993 33.997c8.602 3.437 15.981 9.37 21.178 17.037s7.974 16.719 7.981 25.981v401.533c0 4.629-1.389 9.151-3.981 12.985s-6.278 6.803-10.573 8.524l-330.47 132.207c-16.575 6.629-35.065 6.629-51.64 0l-330.47-132.207c-4.297-1.722-7.979-4.691-10.573-8.524s-3.981-8.356-3.982-12.985v-401.533c0.010-9.268 2.797-18.321 8.003-25.988s12.591-13.6 21.201-17.030l333.019-133.229c5.534-2.214 11.71-2.214 17.244 0l95.67 38.272-34.931 35.968-46.183-18.47v367.229zM347.668 582.578v-367.32l-301.312 120.522v367.276l301.312-120.478zM997.254 442.5c27.808-21.814 32.672-62.044 10.861-89.855l-254.362-324.292c-21.811-27.808-62.042-32.672-89.856-10.854-27.811 21.811-32.673 62.042-10.861 89.856l254.362 324.287c21.811 27.811 62.042 32.673 89.856 10.859zM469.914 310.080c25.357 24.625 65.875 24.031 90.5-1.325l190.012-195.674c24.621-25.357 24.032-65.875-1.325-90.496-25.363-24.627-65.882-24.032-90.502 1.325l-190.013 195.674c-24.624 25.357-24.029 65.875 1.328 90.496zM26.744 721.275l336.079-133.718v-402.046l-336.079 134.609v401.155z" />
<glyph unicode="&#xe958;" glyph-name="email_slash_filled" d="M652.587 432.401l371.456-227.669v454.656l-371.456-226.987zM432.683 394.854l-420.437-257.707c21.163-44.715 66.219-73.131 115.797-73.131h768c49.493 0 94.464 28.501 115.712 73.216l-420.523 257.707-79.189-48.469-79.36 48.469v-0.085zM0.043 659.388v-454.656l371.371 227.669-371.371 226.987zM3.2 732.518c13.312 58.197 65.109 99.499 124.843 99.499h768c59.733 0 111.445-41.301 124.757-99.499l-508.757-311.040-508.843 311.040z" />
<glyph unicode="&#xe959;" glyph-name="email_slash" d="M64 248.738l304.469 184.064-304.469 182.699v-366.763zM957.867 175.351l-364.544 220.16-81.323-48.896-81.408 48.896-364.459-220.075c7.595-27.989 32.939-47.445 61.867-47.445h768c28.928 0 54.272 19.456 61.867 47.36v0zM960 615.501l-304.469-182.699 304.469-184.064v366.763zM128 767.991c-35.328 0-64-28.587-64-64v-13.909l448-268.8 448 268.8v13.909c0 35.413-28.672 64-64 64h-768zM0 703.991c0 70.741 57.259 128 128 128h768c70.656 0 128-57.259 128-128v-512c0-70.656-57.344-128-128-128h-768c-70.741 0-128 57.344-128 128v512z" />
<glyph unicode="&#xe95a;" glyph-name="event-course" d="M55.289 728.765l316.31-125.853v-378.397l-316.31 126.693v377.557zM371.034 848.003c5.209 2.088 11.021 2.088 16.23 0l260.38-104.142-268.495-107.371-268.492 107.371 260.377 104.142zM400.963 598.184l283.587 113.391v-168.688c12.517 1.682 25.293 2.55 38.274 2.55 1.789 0 3.572-0.016 5.355-0.049v198.472c0 4.356-1.307 8.613-3.747 12.221s-5.909 6.402-9.951 8.023l-311.031 124.429c-15.6 6.239-33.002 6.239-48.603 0l-311.030-124.429c-4.044-1.621-7.51-4.415-9.951-8.023s-3.747-7.864-3.748-12.221v-377.913c0.009-8.722 2.633-17.245 7.532-24.462s11.85-12.8 19.954-16.029l313.43-125.386c5.209-2.090 11.021-2.090 16.23 0l53.549 21.42c-1.77 12.83-2.684 25.931-2.684 39.249 0 2.247 0.026 4.482 0.078 6.71l-37.243-14.896v345.63zM357.334 598.227v-345.715l-283.588 113.435v345.672l283.588-113.392z" />
<glyph unicode="&#xe95b;" glyph-name="exclamation_envelope" d="M531.727 394.496c-2.624 24.465 15.151 46.372 39.616 48.93 24.465 2.624 46.372-15.151 48.93-39.55 0.328-3.148 0.328-6.297 0-9.379l-17.25-172.5c-1.246-14.954-14.43-26.039-29.319-24.793-13.183 1.181-23.678 11.609-24.793 24.793l-17.184 172.5zM526.873 99.081c0 27.154 22.038 49.192 49.192 49.192s49.192-22.038 49.192-49.192c0-27.154-22.038-49.192-49.192-49.192s-49.192 22.038-49.192 49.192v0zM443.424 632.205l23.168-14.208-142.016-233.984h-228.544c-34.085 0-65.32 17.908-82.515 46.724l-4.333 8.124 315.328 193.344 59.52-36.352 59.392 36.352zM0.032 830.541l278.528-170.24-278.528-170.752v340.992zM768.032 830.541v-338.304l-96.032 147.763c-19.556 39.111-48.074 60.296-85.556 63.556l-10.444 0.444c-5.972 0-11.734-0.418-17.288-1.254l209.32 127.794zM672.032 960.013c44.8 0 83.584-30.976 93.568-74.624l-381.568-233.28-381.632 233.28c9.984 43.648 48.832 74.624 93.632 74.624h576z" />
<glyph unicode="&#xe95c;" glyph-name="exclamation_gear" d="M531.727 394.496c-2.624 24.465 15.151 46.372 39.616 48.93 24.465 2.624 46.372-15.151 48.93-39.55 0.328-3.148 0.328-6.297 0-9.379l-17.25-172.5c-1.246-14.954-14.43-26.039-29.319-24.793-13.183 1.181-23.678 11.609-24.793 24.793l-17.184 172.5zM526.873 99.081c0 27.154 22.038 49.192 49.192 49.192s49.192-22.038 49.192-49.192c0-27.154-22.038-49.192-49.192-49.192s-49.192 22.038-49.192 49.192v0zM263.768 918.009c16.532 55.997 95.887 55.997 112.42 0v0l4-13.599c1.12-4 2.773-7.84 4.746-11.519 15.466-28.372 51.037-38.824 79.408-23.359v0l12.426 6.773c51.303 27.945 107.407-28.158 79.515-79.515v0l-6.773-12.373c-1.973-3.68-3.626-7.52-4.8-11.519-8.165-27.743 5.218-56.726 30.35-69.072-42.184-0.133-73.879-21.465-95.060-63.827v0l-189.544-312.276c-12.079 6.853-21.957 18.293-26.688 34.319v0l-4 13.599c-1.173 3.946-2.773 7.84-4.746 11.466-15.466 28.372-51.037 38.931-79.462 23.412v0l-12.426-6.72c-51.25-27.998-107.407 28.105-79.462 79.462v0l6.773 12.373c2.027 3.68 3.626 7.52 4.8 11.466 9.119 31.038-8.639 63.569-39.678 72.689v0l-13.546 4.053c-56.050 16.532-56.050 95.834 0 112.366v0l13.546 4c35.838 10.559 52.743 51.41 34.878 84.208v0l-6.72 12.426c-27.998 51.303 28.158 107.407 79.462 79.462v0l12.373-6.773c3.68-1.973 7.52-3.573 11.519-4.746 30.985-9.119 63.569 8.586 72.689 39.624v0zM319.977 757.219c-64.689 0-117.113-52.477-117.113-117.219 0.053-64.689 52.477-117.059 117.113-117.113v-0.053c64.743 0 117.166 52.423 117.166 117.166s-52.423 117.219-117.166 117.219zM707.876 939.008c8.266 27.998 47.944 27.998 56.21 0v0l2-6.8c0.56-2 1.387-3.92 2.373-5.76 7.733-14.186 25.518-19.412 39.704-11.679v0l6.213 3.386c25.652 13.972 53.703-14.079 39.758-39.758v0l-3.386-6.186c-0.987-1.84-1.813-3.76-2.4-5.76-4.56-15.492 4.32-31.758 19.812-36.344v0l6.826-2c27.998-8.266 27.998-47.917 0-56.183v0l-6.826-2.027c-1.973-0.56-3.893-1.36-5.733-2.373-14.186-7.733-19.412-25.518-11.679-39.704v0l3.386-6.213c13.946-25.652-14.106-53.703-39.758-39.731v0l-6.213 3.386c-1.813 1.013-3.733 1.787-5.733 2.373-15.519 4.56-31.785-4.32-36.344-19.812v0l-2-6.8c-8.266-27.998-47.944-27.998-56.21 0v0l-2 6.8c-0.587 1.973-1.387 3.92-2.373 5.733-7.733 14.186-25.518 19.465-39.731 11.706v0l-6.213-3.36c-1.26-0.688-2.526-1.275-3.792-1.765-12.58 7.884-25.189 13.684-37.799 17.621-2.777 7.129-2.629 15.624 1.86 23.875v0l3.386 6.186c1.013 1.84 1.813 3.76 2.4 5.733 4.56 15.519-4.32 31.785-19.839 36.344v0l-6.773 2.027c-28.025 8.266-28.025 47.917 0 56.183v0l6.773 2c17.919 5.28 26.372 25.705 17.439 42.104v0l-3.36 6.213c-13.999 25.652 14.079 53.703 39.731 39.731v0l6.186-3.386c1.84-0.987 3.76-1.787 5.76-2.373 15.492-4.56 31.785 4.293 36.344 19.812v0zM735.981 858.613c-32.345 0-58.556-26.238-58.556-58.61 0.027-32.345 26.238-58.53 58.556-58.556v-0.027c32.371 0 58.583 26.212 58.583 58.583s-26.212 58.61-58.583 58.61z" />
<glyph unicode="&#xe95d;" glyph-name="explore" d="M64 736c0 25.46 10.115 49.879 28.118 67.882s42.422 28.118 67.882 28.118h176.896c61.312 0 112.64-35.84 147.904-75.776 26.24-29.696 57.92-52.224 91.2-52.224h288c25.459 0 49.882-10.115 67.885-28.118s28.115-42.422 28.115-67.882v-448c0-25.459-10.112-49.882-28.115-67.885-10.886-10.88-24.109-18.88-38.496-23.507l-59.366 59.373c0 0.006 0.006 0.013 0.013 0.019h29.965c8.486 0 16.627 3.373 22.63 9.37 5.997 6.003 9.37 14.144 9.37 22.63v352h-768v-352c0-8.486 3.372-16.627 9.373-22.63 6.001-5.997 14.14-9.37 22.627-9.37h293.967c17.151-25.427 39.27-47.226 64.966-64h-358.933c-25.46 0-49.879 10.112-67.882 28.115s-28.118 42.426-28.118 67.885v576zM160 768c-8.487 0-16.627-3.372-22.627-9.373s-9.373-14.14-9.373-22.627v-160h768v32c0 8.487-3.373 16.627-9.37 22.627-6.003 6.001-14.144 9.373-22.63 9.373h-288c-61.696 0-109.44 40.256-139.136 73.856-28.928 32.768-64.384 54.144-99.968 54.144h-176.896z" />
<glyph unicode="&#xe95e;" glyph-name="file_earmark_gear" d="M256 896h320v-64h-320c-35.328 0-64-28.587-64-64v-640c0-35.328 28.672-64 64-64h512c35.328 0 64 28.672 64 64v448h64v-448c0-70.656-57.344-128-128-128h-512c-70.741 0-128 57.344-128 128v640c0 70.741 57.259 128 128 128zM576 672v224l320-320h-224c-52.992 0-96 43.008-96 96zM478.28 550.8c9.912 33.6 57.528 33.6 67.44 0v0l2.4-8.16c3-10.188 10.447-18.473 20.259-22.538s20.936-3.473 30.261 1.61v0l7.464 4.056c30.768 16.776 64.44-16.896 47.688-47.688v0l-4.080-7.44c-5.083-9.325-5.674-20.449-1.61-30.261s12.349-17.259 22.538-20.259v0l8.16-2.4c33.6-9.912 33.6-57.528 0-67.44v0l-8.16-2.4c-10.188-3-18.473-10.447-22.538-20.259s-3.473-20.936 1.61-30.261v0l4.056-7.464c16.776-30.768-16.896-64.44-47.688-47.688v0l-7.44 4.080c-9.325 5.083-20.449 5.674-30.261 1.61s-17.259-12.349-20.259-22.538v0l-2.4-8.16c-9.912-33.6-57.528-33.6-67.44 0v0l-2.4 8.16c-3 10.188-10.447 18.473-20.259 22.538s-20.936 3.473-30.261-1.61v0l-7.464-4.056c-30.768-16.776-64.44 16.896-47.688 47.688v0l4.080 7.44c5.083 9.325 5.674 20.449 1.61 30.261s-12.349 17.259-22.538 20.259v0l-8.16 2.4c-33.6 9.912-33.6 57.528 0 67.44v0l8.16 2.4c21.48 6.336 31.632 30.84 20.928 50.52v0l-4.056 7.464c-16.776 30.768 16.896 64.44 47.688 47.688v0l7.44-4.080c9.325-5.083 20.449-5.674 30.261-1.61s17.259 12.349 20.259 22.538v0zM512 454.32c-38.823 0-70.296-31.473-70.296-70.296s31.473-70.296 70.296-70.296c38.837-0.048 70.32 31.435 70.32 70.272s-31.483 70.32-70.32 70.32z" />
<glyph unicode="&#xe95f;" glyph-name="arrow-down-up" d="M704 736c17.673 0 32-14.327 32-32v0-576c0-17.673-14.327-32-32-32s-32 14.327-32 32v0 576c0 17.673 14.327 32 32 32v0zM681.344 790.656c5.794 5.808 13.805 9.401 22.656 9.401s16.862-3.593 22.655-9.401l192.001-192.001c5.798-5.798 9.384-13.808 9.384-22.656 0-17.695-14.345-32.040-32.040-32.040-8.848 0-16.858 3.586-22.656 9.384v0l-169.344 169.408-169.344-169.408c-5.798-5.798-13.808-9.384-22.656-9.384-17.695 0-32.040 14.345-32.040 32.040 0 8.848 3.586 16.858 9.384 22.656v0l192 192zM105.344 342.656c5.794 5.808 13.805 9.401 22.656 9.401s16.862-3.593 22.655-9.401l169.345-169.409 169.344 169.408c5.798 5.798 13.808 9.384 22.656 9.384 17.695 0 32.040-14.345 32.040-32.040 0-8.848-3.586-16.858-9.384-22.656l-192-192c-5.794-5.808-13.805-9.401-22.656-9.401s-16.862 3.593-22.655 9.401l-192.001 192.001c-5.808 5.794-9.401 13.805-9.401 22.656s3.593 16.862 9.401 22.655l0.001 0.001zM320 800c17.673 0 32-14.327 32-32v0-576c0-17.673-14.327-32-32-32s-32 14.327-32 32v0 576c0 17.673 14.327 32 32 32v0z" />
<glyph unicode="&#xe960;" glyph-name="arrow-down" d="M297.344 342.656c5.794 5.808 13.805 9.401 22.656 9.401s16.862-3.593 22.655-9.401l169.345-169.409 169.344 169.408c5.798 5.798 13.808 9.384 22.656 9.384 17.695 0 32.040-14.345 32.040-32.040 0-8.848-3.586-16.858-9.384-22.656v0l-192-192c-5.794-5.808-13.805-9.401-22.656-9.401s-16.862 3.593-22.655 9.401l-192.001 192.001c-5.808 5.794-9.401 13.805-9.401 22.656s3.593 16.862 9.401 22.655l0.001 0.001zM512 800c17.673 0 32-14.327 32-32v0-576c0-17.673-14.327-32-32-32s-32 14.327-32 32v0 576c0 17.673 14.327 32 32 32v0z" />
<glyph unicode="&#xe961;" glyph-name="files_copy" d="M704 640l256-256h-179.2c-42.394 0-76.8 34.406-76.8 76.8v179.2zM384 960l256-256h-179.2c-42.394 0-76.8 34.406-76.8 76.8v179.2z" />
<glyph unicode="&#xe962;" glyph-name="floppy_disk" d="M512 832h64v-128h-64v128z" />
<glyph unicode="&#xe963;" glyph-name="arrow-left-right" d="M649.344 470.656c5.794 5.808 13.805 9.401 22.656 9.401s16.862-3.593 22.655-9.401l192.001-192.001c5.808-5.794 9.401-13.805 9.401-22.656s-3.593-16.862-9.401-22.655l-192.001-192.001c-5.798-5.798-13.808-9.384-22.656-9.384-17.695 0-32.040 14.345-32.040 32.040 0 8.848 3.586 16.858 9.384 22.656v0l169.408 169.344-169.408 169.344c-5.808 5.794-9.401 13.805-9.401 22.656s3.593 16.862 9.401 22.655l0.001 0.001zM128 256c0 17.673 14.327 32 32 32v0h672c17.673 0 32-14.327 32-32s-14.327-32-32-32v0h-672c-17.673 0-32 14.327-32 32v0zM374.656 854.656c5.808-5.794 9.401-13.805 9.401-22.656s-3.593-16.862-9.401-22.655l-169.409-169.345 169.408-169.344c5.798-5.798 9.384-13.808 9.384-22.656 0-17.695-14.345-32.040-32.040-32.040-8.848 0-16.858 3.586-22.656 9.384l-192 192c-5.808 5.794-9.401 13.805-9.401 22.656s3.593 16.862 9.401 22.655l192.001 192.001c5.794 5.808 13.805 9.401 22.656 9.401s16.862-3.593 22.655-9.401l0.001-0.001zM160 640c0 17.673 14.327 32 32 32v0h672c17.673 0 32-14.327 32-32s-14.327-32-32-32v0h-672c-17.673 0-32 14.327-32 32v0z" />
<glyph unicode="&#xe964;" glyph-name="folder_open_filled" d="M121.6 576h780.8v32c0 19.2-12.8 32-32 32h-294.4c-64 0-108.8 38.4-140.8 76.8-32 32-64 51.2-102.4 51.2h-179.2c-19.2 0-32-12.8-32-32v-160zM57.6 736c0 51.2 44.8 96 96 96h179.2c64 0 115.2-38.4 147.2-76.8 32-25.6 64-51.2 96-51.2h294.4c51.2 0 96-44.8 96-96v-38.4c38.4-19.2 64-57.6 57.6-96l-38.4-326.4c-12.8-83.2-76.8-140.8-160-140.8h-620.8c-83.2 0-153.6 57.6-160 140.8l-44.8 320c-6.4 44.8 19.2 83.2 57.6 102.4v166.4z" />
<glyph unicode="&#xe965;" glyph-name="gear_lock" d="M938.39 307.613c52.331 0 94.753-36.973 94.753-82.581v0-206.452c0-45.608-42.422-82.581-94.753-82.581v0h-331.636c-52.331 0-94.753 36.973-94.753 82.581v0 206.452c0 45.608 42.422 82.581 94.753 82.581v0zM938.39 266.323h-331.636c-26.165 0-47.377-18.486-47.377-41.29v-206.452c0-22.804 21.211-41.29 47.377-41.29h331.636c26.165 0 47.377 18.486 47.377 41.29v206.452c0 22.804-21.211 41.29-47.377 41.29zM606.753 431.484c0 79.814 74.239 144.516 165.818 144.516s165.818-64.702 165.818-144.516v-123.871h-47.377v123.871c0 57.010-53.028 103.226-118.442 103.226s-118.442-46.216-118.442-103.226v-123.871h-47.377v123.871zM347.053 489.206v0.057c-69.608 0.057-126.064 56.456-126.121 126.121 0 69.723 56.456 126.236 126.121 126.236 69.723 0 126.179-56.513 126.179-126.236s-56.456-126.179-126.179-126.179zM407.586 914.779c-17.804 60.304-103.263 60.304-121.067 0l-4.307-14.645c-9.821-33.426-44.912-52.493-78.28-42.672-4.307 1.264-8.443 2.986-12.405 5.111l-13.324 7.294c-55.25 30.095-115.726-30.324-85.574-85.574l7.236-13.382c19.24-35.321 1.034-79.314-37.561-90.686l-14.588-4.307c-60.361-17.804-60.361-103.206 0-121.010l14.588-4.365c33.426-9.821 52.551-44.855 42.73-78.28-1.264-4.25-2.986-8.385-5.169-12.348l-7.294-13.324c-30.095-55.307 30.382-115.726 85.574-85.574l13.382 7.236c30.611 16.713 68.919 5.341 85.574-25.213 2.125-3.905 3.848-8.098 5.111-12.348l4.307-14.645c17.804-60.304 103.263-60.304 121.067 0l4.307 14.645c9.821 33.368 44.855 52.493 78.28 42.672 4.307-1.264 8.443-2.929 12.348-5.111l13.382-7.294c55.25-30.095 115.669 30.324 85.632 85.574l-7.294 13.382c-16.655 30.554-5.399 68.861 25.155 85.517 3.963 2.182 8.098 3.905 12.348 5.111l14.703 4.365c60.304 17.804 60.304 103.206 0 121.010l-14.703 4.307c-33.368 9.878-52.493 44.912-42.672 78.28 1.264 4.307 3.044 8.443 5.169 12.405l7.294 13.324c30.037 55.307-30.382 115.726-85.632 85.632l-13.382-7.294c-30.554-16.655-68.861-5.399-85.517 25.155-2.125 3.963-3.905 8.098-5.111 12.405l-4.307 14.645z" />
<glyph unicode="&#xe967;" glyph-name="arrow-left" d="M374.656 662.656c5.808-5.794 9.401-13.805 9.401-22.656s-3.593-16.862-9.401-22.655l-169.409-169.345 169.408-169.344c5.798-5.798 9.384-13.808 9.384-22.656 0-17.695-14.345-32.040-32.040-32.040-8.848 0-16.858 3.586-22.656 9.384v0l-192 192c-5.808 5.794-9.401 13.805-9.401 22.656s3.593 16.862 9.401 22.655l192.001 192.001c5.794 5.808 13.805 9.401 22.656 9.401s16.862-3.593 22.655-9.401l0.001-0.001zM160 448c0 17.673 14.327 32 32 32v0h672c17.673 0 32-14.327 32-32s-14.327-32-32-32v0h-672c-17.673 0-32 14.327-32 32v0z" />
<glyph unicode="&#xe968;" glyph-name="arrow-repeat" d="M182.656 502.656c-5.794 5.808-13.805 9.401-22.656 9.401s-16.862-3.593-22.655-9.401l-128.001-128.001c-5.798-5.798-9.384-13.808-9.384-22.656 0-17.695 14.345-32.040 32.040-32.040 8.848 0 16.858 3.586 22.656 9.384l105.344 105.408 105.344-105.408c5.798-5.798 13.808-9.384 22.656-9.384 17.695 0 32.040 14.345 32.040 32.040 0 8.848-3.586 16.858-9.384 22.656v0l-128 128zM1014.656 566.656c-5.794 5.808-13.805 9.401-22.656 9.401s-16.862-3.593-22.655-9.401l-105.345-105.409-105.344 105.408c-5.798 5.798-13.808 9.384-22.656 9.384-17.695 0-32.040-14.345-32.040-32.040 0-8.848 3.586-16.858 9.384-22.656v0l128-128c5.794-5.808 13.805-9.401 22.656-9.401s16.862 3.593 22.655 9.401l128.001 128.001c5.808 5.794 9.401 13.805 9.401 22.656s-3.593 16.862-9.401 22.655l-0.001 0.001zM512 768c-0.073 0-0.159 0-0.245 0-111.777 0-210.155-57.367-267.297-144.265l-0.745-1.207c-5.867-8.244-15.388-13.556-26.15-13.556-17.673 0-32 14.327-32 32 0 6.095 1.704 11.792 4.662 16.641l-0.080-0.141c69.551 105.729 187.665 174.561 321.856 174.561 212.077 0 384-171.923 384-384 0-0.012 0-0.023 0-0.035v0.002c0-17.691-14.341-32.032-32.032-32.032s-32.032 14.341-32.032 32.032v0c0 176.731-143.269 320-320 320v0zM160 480c17.673 0 32-14.327 32-32v0c0-0.033 0-0.072 0-0.11 0-176.731 143.269-320 320-320 111.874 0 210.339 57.409 267.542 144.375l0.746 1.207c5.698 9.351 15.84 15.5 27.418 15.5 17.673 0 32-14.327 32-32 0-6.911-2.191-13.311-5.916-18.542l0.066 0.098c-69.551-105.729-187.665-174.561-321.856-174.561-212.077 0-384 171.923-384 384 0 0.012 0 0.023 0 0.035v-0.002c0 0 0 0 0 0 0 17.673 14.327 32 32 32 0.023 0 0.045 0 0.067 0h-0.003z" />
<glyph unicode="&#xe969;" glyph-name="journal_person_plus" d="M896 384v-256c0-70.692-57.308-128-128-128h-512c-70.692 0-128 57.308-128 128v64h64v-64c0-32.821 24.707-59.872 56.536-63.569l7.464-0.431h512c32.821 0 59.872 24.707 63.569 56.536l0.431 7.464v256h64zM704 896v-64h-448c-32.821 0-59.872-24.707-63.569-56.536l-0.431-7.464v-128h-64v128c0 70.692 57.308 128 128 128h448zM736 704h256c17.673 0 32-14.327 32-32s-14.327-32-32-32h-256c-17.673 0-32 14.327-32 32s14.327 32 32 32zM864 832c17.673 0 32-14.327 32-32v-256c0-17.673-14.327-32-32-32s-32 14.327-32 32v256c0 17.673 14.327 32 32 32zM96 576h64c17.673 0 32-14.327 32-32s-14.327-32-32-32h-64c-17.673 0-32 14.327-32 32s14.327 32 32 32zM96 448h64c17.673 0 32-14.327 32-32s-14.327-32-32-32h-64c-17.673 0-32 14.327-32 32s14.327 32 32 32zM96 320h64c17.673 0 32-14.327 32-32s-14.327-32-32-32h-64c-17.673 0-32 14.327-32 32s14.327 32 32 32zM298.667 192c0 0-42.667 0-42.667 42.667s42.667 170.667 256 170.667c213.333 0 256-128 256-170.667s-42.667-42.667-42.667-42.667h-426.667zM512 448c70.692 0 128 57.308 128 128s-57.308 128-128 128c-70.692 0-128-57.308-128-128s57.308-128 128-128z" />
<glyph unicode="&#xe96b;" glyph-name="list_x" d="M0 704c0-70.692 57.308-128 128-128h768c70.692 0 128 57.308 128 128s-57.308 128-128 128h-768c-70.692 0-128-57.308-128-128zM520.078 320.049l-200.078-0.049c-35.346 0-64 28.654-64 64s28.654 64 64 64v0l278.802 0.119c-37.842-33.353-65.752-77.712-78.724-128.070zM64 384c0-35.346 28.654-64 64-64s64 28.654 64 64c0 35.346-28.654 64-64 64s-64-28.654-64-64zM64 128c0-35.346 28.654-64 64-64s64 28.654 64 64c0 35.346-28.654 64-64 64s-64-28.654-64-64zM598.737 63.939l-278.737 0.061c-35.346 0-64 28.654-64 64s28.654 64 64 64v0l200.064 0.005c12.958-50.351 40.85-94.708 78.673-128.067zM646.266 377.734c4.001 4.011 9.434 6.266 15.1 6.266s11.099-2.254 15.1-6.266l91.539-91.582 91.539 91.582c8.34 8.34 21.861 8.34 30.2 0s8.34-21.861 0-30.2l-91.582-91.539 91.582-91.539c8.34-8.34 8.34-21.861 0-30.2s-21.861-8.34-30.2 0l-91.539 91.582-91.539-91.582c-8.34-8.34-21.861-8.34-30.2 0s-8.34 21.861 0 30.2l91.582 91.539-91.582 91.539c-4.011 4.001-6.266 9.434-6.266 15.1s2.254 11.099 6.266 15.1v0z" />
<glyph unicode="&#xe96d;" glyph-name="mouse_pointer_filled" d="M266.182 927.878c4.032 2.048 25.216-19.776 32.832-28.672l526.528-580.8c7.424-8.32 26.304-29.632 25.664-30.336-0.704-0.704-32.96-4.48-44.8-6.208l-291.328-55.104-207.424-133.568c-8.384-3.2-50.688-32.128-51.328-30.080-0.64 2.112-0.128 31.232-0.064 42.112l5.696 779.776c0 11.52 0.064 40.512 4.096 42.624l0.128 0.256z" />
<glyph unicode="&#xe96e;" glyph-name="outdent" d="M128 736c0 8.487 3.372 16.627 9.373 22.627s14.14 9.373 22.627 9.373h704c8.486 0 16.627-3.372 22.63-9.373 5.997-6.001 9.37-14.14 9.37-22.627s-3.373-16.627-9.37-22.627c-6.003-6.001-14.144-9.373-22.63-9.373h-704c-8.487 0-16.627 3.372-22.627 9.373s-9.373 14.14-9.373 22.627zM448 544c0 8.487 3.372 16.627 9.373 22.627s14.14 9.373 22.627 9.373h384c8.486 0 16.627-3.372 22.63-9.373 5.997-6.001 9.37-14.14 9.37-22.627s-3.373-16.627-9.37-22.627c-6.003-6.001-14.144-9.373-22.63-9.373h-384c-8.487 0-16.627 3.372-22.627 9.373s-9.373 14.14-9.373 22.627zM448 352c0 8.487 3.372 16.627 9.373 22.627s14.14 9.373 22.627 9.373h384c8.486 0 16.627-3.372 22.63-9.373 5.997-6.001 9.37-14.14 9.37-22.627s-3.373-16.627-9.37-22.627c-6.003-6.001-14.144-9.373-22.63-9.373h-384c-8.487 0-16.627 3.372-22.627 9.373s-9.373 14.14-9.373 22.627zM128 160c0 8.486 3.372 16.627 9.373 22.63 6.001 5.997 14.14 9.37 22.627 9.37h704c8.486 0 16.627-3.373 22.63-9.37 5.997-6.003 9.37-14.144 9.37-22.63s-3.373-16.627-9.37-22.63c-6.003-5.997-14.144-9.37-22.63-9.37h-704c-8.487 0-16.627 3.373-22.627 9.37-6.001 6.003-9.373 14.144-9.373 22.63zM310.713 598.655c-2.972 2.98-6.504 5.345-10.391 6.957s-8.056 2.444-12.265 2.444c-4.209 0-8.377-0.831-12.264-2.444s-7.419-3.978-10.392-6.957l-128-128c-2.98-2.972-5.344-6.504-6.957-10.391s-2.444-8.056-2.444-12.265c0-4.209 0.83-8.377 2.444-12.264s3.978-7.419 6.957-10.392l128-127.999c2.975-2.976 6.508-5.338 10.395-6.944 3.887-1.613 8.054-2.438 12.261-2.438s8.374 0.826 12.261 2.438c3.887 1.606 7.42 3.968 10.395 6.944s5.336 6.509 6.945 10.394c1.61 3.885 2.439 8.051 2.439 12.262 0 4.207-0.829 8.374-2.439 12.261s-3.97 7.419-6.945 10.394l-105.408 105.344 105.408 105.344c2.98 2.973 5.345 6.504 6.957 10.392s2.444 8.055 2.444 12.264c0 4.209-0.831 8.377-2.444 12.265s-3.978 7.419-6.957 10.391z" />
<glyph unicode="&#xe96f;" glyph-name="people_slash" d="M224 576c0 0-32 0-32 32s32 128 160 128c128 0 160-96 160-128s-32-32-32-32h-256zM352 768c53.019 0 96 42.981 96 96s-42.981 96-96 96c-53.019 0-96-42.981-96-96s42.981-96 96-96zM166.912 576c-4.744 9.99-7.11 20.943-6.912 32 0 43.36 21.76 88 61.952 119.040-20.061 6.181-40.962 9.204-61.952 8.96-128 0-160-96-160-128s32-32 32-32h134.912zM144 768c44.183 0 80 35.817 80 80s-35.817 80-80 80c-44.183 0-80-35.817-80-80s35.817-80 80-80zM800-64c0 0 32 0 32 32s-32 128-160 128c-128 0-160-96-160-128s32-32 32-32h256zM672 128c-53.019 0-96 42.981-96 96s42.981 96 96 96c53.019 0 96-42.981 96-96s-42.981-96-96-96zM857.088-64c4.744 9.99 7.11 20.943 6.912 32 0 43.36-21.76 88-61.952 119.040 20.061 6.181 40.962 9.204 61.952 8.96 128 0 160-96 160-128s-32-32-32-32h-134.912zM880 128c-44.183 0-80 35.817-80 80s35.817 80 80 80c44.183 0 80-35.817 80-80s-35.817-80-80-80z" />
<glyph unicode="&#xe970;" glyph-name="arrow-right" d="M649.344 662.656c5.794 5.808 13.805 9.401 22.656 9.401s16.862-3.593 22.655-9.401l192.001-192.001c5.808-5.794 9.401-13.805 9.401-22.656s-3.593-16.862-9.401-22.655l-192.001-192.001c-5.798-5.798-13.808-9.384-22.656-9.384-17.695 0-32.040 14.345-32.040 32.040 0 8.848 3.586 16.858 9.384 22.656v0l169.408 169.344-169.408 169.344c-5.808 5.794-9.401 13.805-9.401 22.656s3.593 16.862 9.401 22.655l0.001 0.001zM128 448c0 17.673 14.327 32 32 32v0h672c17.673 0 32-14.327 32-32s-14.327-32-32-32v0h-672c-17.673 0-32 14.327-32 32v0z" />
<glyph unicode="&#xe971;" glyph-name="person_arrow_clockwise" d="M57.6 320c0 0-57.6 0-57.6 64s57.6 256 288 256c230.4 0 288-192 288-256s-57.6-64-57.6-64h-460.8zM272 671.987c-79.488 0-144 64.448-144 144s64.512 144 144 144c79.488 0 144-64.448 144-144s-64.512-144-144-144v0z" />
<glyph unicode="&#xe972;" glyph-name="person_calendar" d="M364 470.289c0 20.827 19.712 37.723 44 37.723h528c24.288 0 44-16.896 44-37.723v-452.613c0-20.768-19.712-37.664-44-37.664h-528c-24.288 0-44 16.896-44 37.664v452.613zM936 640.012h-528c-48.635 0-88-39.424-88-88v-528c0-48.635 39.365-88 88-88h528c48.576 0 88 39.365 88 88v528c0 48.576-39.424 88-88 88v0zM773.818 64c25.693 0 46.545 21.504 46.545 48s-20.852 48-46.545 48c-25.693 0-46.545-21.504-46.545-48s20.852-48 46.545-48zM634.182 64c25.693 0 46.545 21.504 46.545 48s-20.852 48-46.545 48c-25.693 0-46.545-21.504-46.545-48s20.852-48 46.545-48zM494.545 64c25.693 0 46.545 21.504 46.545 48s-20.852 48-46.545 48c-25.693 0-46.545-21.504-46.545-48s20.852-48 46.545-48zM913.455 208c25.693 0 46.545 21.504 46.545 48 0 26.56-20.852 48-46.545 48s-46.545-21.44-46.545-48c0-26.496 20.852-48 46.545-48zM773.818 208c25.693 0 46.545 21.504 46.545 48 0 26.56-20.852 48-46.545 48s-46.545-21.44-46.545-48c0-26.496 20.852-48 46.545-48zM634.182 208c25.693 0 46.545 21.504 46.545 48 0 26.56-20.852 48-46.545 48s-46.545-21.44-46.545-48c0-26.496 20.852-48 46.545-48zM494.545 208c25.693 0 46.545 21.504 46.545 48 0 26.56-20.852 48-46.545 48s-46.545-21.44-46.545-48c0-26.496 20.852-48 46.545-48zM913.455 352c25.693 0 46.545 21.504 46.545 48 0 26.56-20.852 48-46.545 48s-46.545-21.44-46.545-48c0-26.496 20.852-48 46.545-48zM773.818 352c25.693 0 46.545 21.504 46.545 48 0 26.56-20.852 48-46.545 48s-46.545-21.44-46.545-48c0-26.496 20.852-48 46.545-48zM634.182 352c25.693 0 46.545 21.504 46.545 48 0 26.56-20.852 48-46.545 48s-46.545-21.44-46.545-48c0-26.496 20.852-48 46.545-48zM288 640c16.086 0 31.329-0.936 45.77-2.699-26.498-7.827-45.77-32.314-45.77-61.301v0-256h-230.4c0 0-57.6 0-57.6 64s57.6 256 288 256zM272 671.987c-79.488 0-144 64.448-144 144s64.512 144 144 144c79.488 0 144-64.448 144-144s-64.512-144-144-144v0z" />
<glyph unicode="&#xe973;" glyph-name="person_check" d="M57.6 320c0 0-57.6 0-57.6 64s57.6 256 288 256c230.4 0 288-192 288-256s-57.6-64-57.6-64h-460.8zM272 671.987c-79.488 0-144 64.448-144 144s64.512 144 144 144c79.488 0 144-64.448 144-144s-64.512-144-144-144v0z" />
<glyph unicode="&#xe974;" glyph-name="person_lock" d="M352 485.333c44.176 0 83.030-3.992 117.163-10.973-69.144-45.802-114.702-124.299-114.702-213.437 0-23.9 3.275-47.035 9.401-68.981l-305.196 0.058c0 0-58.667 0-58.667 58.667s58.667 234.667 352 234.667zM352 896c97.202 0 176-78.798 176-176s-78.798-176-176-176c-97.202 0-176 78.798-176 176s78.798 176 176 176zM874.39 307.613c52.331 0 94.753-36.973 94.753-82.581v0-206.452c0-45.608-42.422-82.581-94.753-82.581v0h-331.636c-52.331 0-94.753 36.973-94.753 82.581v0 206.452c0 45.608 42.422 82.581 94.753 82.581v0zM874.39 266.323h-331.636c-26.165 0-47.377-18.486-47.377-41.29v-206.452c0-22.804 21.211-41.29 47.377-41.29h331.636c26.165 0 47.377 18.486 47.377 41.29v206.452c0 22.804-21.211 41.29-47.377 41.29zM542.753 431.484c0 79.814 74.239 144.516 165.818 144.516s165.818-64.702 165.818-144.516v-123.871h-47.377v123.871c0 57.010-53.028 103.226-118.442 103.226s-118.442-46.216-118.442-103.226v-123.871h-47.377v123.871z" />
<glyph unicode="&#xe975;" glyph-name="person_noentry" d="M288 640c56.486 0 102.586-11.54 139.997-29.906-95.888-55.24-160.361-158.738-160.361-277.294v0l-0.052-12.8h-209.984c0 0-57.6 0-57.6 64s57.6 256 288 256zM272 671.987c-79.488 0-144 64.448-144 144s64.512 144 144 144c79.488 0 144-64.448 144-144s-64.512-144-144-144v0z" />
</font>
</defs>
</svg>
