<?xml version="1.0" encoding="UTF-8"?>
<svg width="16px" height="16px" viewBox="0 0 16 16" version="1.1" xmlns="http://www.w3.org/2000/svg" xmlns:xlink="http://www.w3.org/1999/xlink">
    <title>reply-filled</title>
    <g id="reply-filled" stroke="none" stroke-width="1" fill-rule="evenodd">
        <g id="globe" transform="translate(0.000000, -0.500000)">
            <g id="16x16" transform="translate(0.000000, 0.500000)"></g>
        </g>
        <g id="Group-5">
            <path d="M8.30013333,10.3856 C7.64946667,10.3976 7.00413333,10.4896 6.37746667,10.6629333 C5.0508,11.0309333 3.48146667,11.8629333 2.43746667,13.7429333 C2.3028,13.9842667 1.99746667,14.0709333 1.75746667,13.9362667 C1.5788,13.8376 1.4788,13.6389333 1.50413333,13.4376 C1.96813333,9.72826667 3.38946667,7.77626667 4.96413333,6.7776 C6.20946667,5.98826667 7.4908,5.83626667 8.30013333,5.80693333 L8.30013333,5.14693333 C8.30013333,4.51493333 8.81213333,4.00293333 9.44413333,4.0016 C9.66546667,4.0016 9.88146667,4.06693333 10.0668,4.18693333 L14.0614667,7.12693333 C14.5988,7.46293333 14.7614667,8.1696 14.4268,8.70693333 C14.3348,8.85626667 14.2094667,8.98026667 14.0614667,9.0736 L10.0668,12.0136 C9.53613333,12.3576 8.82813333,12.2056 8.48413333,11.6762667 C8.36413333,11.4909333 8.30013333,11.2736 8.30013333,11.0536 L8.30013333,10.3856 Z" id="Fill-1" transform="translate(8.050468, 9.000669) scale(-1, 1) translate(-8.050468, -9.000669) "></path>
        </g>
    </g>
</svg>