<?xml version="1.0" encoding="UTF-8"?>
<svg width="16px" height="16px" viewBox="0 0 16 16" version="1.1" xmlns="http://www.w3.org/2000/svg" xmlns:xlink="http://www.w3.org/1999/xlink">
    <title>16x16 </title>
    <g id="Page-1" stroke="none" stroke-width="1" fill-rule="evenodd">
        <g id="custom-icons" transform="translate(-58.000000, -779.000000)">
            <g id="file-image" transform="translate(29.000000, 733.000000)">
                <g id="16x16-" transform="translate(29.000000, 46.000000)">
                    <g id="Group-3" transform="translate(2.000000, 1.000000)">
                        <path d="M2,0 L7,0 L7,1 L2,1 C1.448,1 1,1.44666667 1,2 L1,12 C1,12.552 1.448,13 2,13 L10,13 C10.552,13 11,12.552 11,12 L11,5 L12,5 L12,12 C12,13.104 11.104,14 10,14 L2,14 C0.894666667,14 0,13.104 0,12 L0,2 C0,0.894666667 0.894666667,0 2,0" id="Fill-1"></path>
                        <path d="M7,3.5 L7,0 L12,5 L8.5,5 C7.672,5 7,4.328 7,3.5" id="Fill-4"></path>
                    </g>
                    <g id="Group-6" transform="translate(4.000000, 6.000000)">
                        <g id="Group-3" transform="translate(0.000000, 1.500000)">
                            <mask id="mask-4" fill="white">
                                <use xlink:href="#path-3"></use>
                            </mask>
                            <g id="Clip-2"></g>
                            <path d="M5.51169238,0.21114 C5.59854125,0.10854 5.73110005,0.08334 5.84156572,0.14814 L7.99983636,1.46304 L7.99983636,4.50054 L-0.000163636363,4.50054 L-0.000163636363,3.15054 L1.51207329,1.56114 C1.60806415,1.44774 1.75890693,1.42974 1.87165809,1.51884 L3.39151335,2.71584 L5.51169238,0.21114 Z" id="Fill-1"></path>
                        </g>
                        <path d="M2.25,2.25 C2.872,2.25 3.375,1.746 3.375,1.125 C3.375,0.503 2.872,0 2.25,0 C1.629,0 1.125,0.503 1.125,1.125 C1.125,1.746 1.629,2.25 2.25,2.25" id="Fill-4"></path>
                    </g>
                </g>
            </g>
        </g>
    </g>
</svg>