<?xml version="1.0" encoding="UTF-8"?>
<svg width="16px" height="16px" viewBox="0 0 16 16" version="1.1" xmlns="http://www.w3.org/2000/svg" xmlns:xlink="http://www.w3.org/1999/xlink">
    <title>16x16</title>
    <g id="Page-1" stroke="none" stroke-width="1" fill-rule="evenodd">
        <g id="custom-icons" transform="translate(-58.000000, -1043.000000)">
            <g id="file-ppt" transform="translate(29.000000, 997.000000)">
                <g id="16x16" transform="translate(29.000000, 46.000000)">
                    <g id="Group-3" transform="translate(2.000000, 1.000000)">
                        <g id="Clip-2"></g>
                        <path d="M2,0 L7,0 L7,1 L2,1 C1.448,1 1,1.44666667 1,2 L1,12 C1,12.552 1.448,13 2,13 L10,13 C10.552,13 11,12.552 11,12 L11,5 L12,5 L12,12 C12,13.104 11.104,14 10,14 L2,14 C0.894666667,14 0,13.104 0,12 L0,2 C0,0.894666667 0.894666667,0 2,0" id="Fill-1"></path>
                        <path d="M7,3.5 L7,0 L12,5 L8.5,5 C7.672,5 7,4.328 7,3.5" id="Fill-4"></path>
                    </g>
                    <g id="Group-9" transform="translate(5.500000, 5.000000)" stroke="currentColor">
                        <g id="Group-8" transform="translate(0.350000, 0.000000)">
                            <path d="M1.4,4.55 C2.55979797,4.55 3.5,3.60979797 3.5,2.45 C3.5,1.29020203 2.55979797,0.35 1.4,0.35" id="Path" fill="none"></path>
                            <line x1="1.75" y1="0.35" x2="0.35" y2="0.35" id="Path-3"></line>
                            <line x1="1.75" y1="4.55" x2="0.35" y2="4.55" id="Path-3-Copy"></line>
                        </g>
                        <line x1="0.35" y1="0.35" x2="0.35" y2="7" id="Line-2" stroke-linecap="square"></line>
                    </g>
                </g>
            </g>
        </g>
    </g>
</svg>