<?xml version="1.0" encoding="UTF-8"?>
<svg width="16px" height="16px" viewBox="0 0 16 16" version="1.1" xmlns="http://www.w3.org/2000/svg" xmlns:xlink="http://www.w3.org/1999/xlink">
    <title>16x16 </title>
    <g id="Page-1" stroke="none" stroke-width="1" fill-rule="evenodd">
        <g id="custom-icons" transform="translate(-58.000000, -867.000000)">
            <g id="file-video" transform="translate(29.000000, 821.000000)">
                <g id="16x16-" transform="translate(29.000000, 46.000000)">
                    <g id="Group-3" transform="translate(2.000000, 1.000000)">
                        <path d="M2,0 L7,0 L7,1 L2,1 C1.448,1 1,1.44666667 1,2 L1,12 C1,12.552 1.448,13 2,13 L10,13 C10.552,13 11,12.552 11,12 L11,5 L12,5 L12,12 C12,13.104 11.104,14 10,14 L2,14 C0.894666667,14 0,13.104 0,12 L0,2 C0,0.894666667 0.894666667,0 2,0" id="Fill-1"></path>
                        <path d="M7,3.5 L7,0 L12,5 L8.5,5 C7.672,5 7,4.328 7,3.5" id="Fill-4"></path>
                    </g>
                    <g id="Group-7" transform="translate(4.000000, 6.000000)">
                        <g id="Group-3" transform="translate(0.000000, 0.363636)">
                            <path d="M0.909454545,0.363781818 L4.54509091,0.363781818 C5.04690909,0.363781818 5.45490909,0.770327273 5.45490909,1.27287273 L5.45490909,4.90923636 C5.45490909,5.41032727 5.04763636,5.81832727 4.54509091,5.81832727 L0.909454545,5.81832727 C0.407636364,5.81832727 0.000363636364,5.41105455 0.000363636364,4.90923636 L0.000363636364,1.27287273 C0.000363636364,0.771054545 0.406909091,0.363781818 0.909454545,0.363781818" id="Fill-1"></path>
                        </g>
                        <g id="Group-6" transform="translate(2.909091, 0.363636)">
                            <path d="M0.584145455,3.47098182 L4.05469091,5.48552727 C4.34923636,5.65570909 4.72741818,5.44916364 4.72741818,5.10443636 L4.72741818,1.0768 C4.72741818,0.733527273 4.34923636,0.526254545 4.05469091,0.697890909 L0.584145455,2.71170909 C0.373963636,2.83098182 0.301236364,3.09789091 0.420509091,3.30807273 C0.459781818,3.37570909 0.515781818,3.43243636 0.584145455,3.47098182" id="Fill-4"></path>
                        </g>
                    </g>
                </g>
            </g>
        </g>
    </g>
</svg>