<?xml version="1.0" encoding="UTF-8"?>
<svg width="16px" height="16px" viewBox="0 0 16 16" version="1.1" xmlns="http://www.w3.org/2000/svg" xmlns:xlink="http://www.w3.org/1999/xlink">
    <title>thumbs_up_filled</title>
    <g id="thumbs_up_filled" stroke="none" stroke-width="1" fill-rule="evenodd">
        <g id="Group-5" transform="translate(2.000000, 0.000000)">
            <path d="M7.5,6 C7.83333333,2.66666667 7.5,1 6.5,1 C5,1 5.5,4 5,4.5 C4.5,5 4,7.5 2,7.5 C0.666666667,7.5 0.166666667,9.5 0.5,13.5 L4.5,15 C7.5,15 9.33333333,15 10,15 C11,15 11.5,13 11.5,12.5 C11.5,12 11.5,7.5 11.5,7 C11.5,6.66666667 10.1666667,6.33333333 7.5,6 Z" id="Path-4"></path>
            <path d="M4.95573333,1.74506667 C5.02106667,0.8104 5.90773333,0.0864 6.86373333,0.325066667 L7.12506667,0.3904 C7.58906667,0.5064 7.9984,0.847733333 8.13706667,1.35573333 C8.35706667,2.17173333 8.6704,3.8664 8.19973333,5.8664 C8.3464,5.8464 8.49306667,5.82906667 8.6424,5.8144 C9.35573333,5.7504 10.3117333,5.74373333 11.1570667,6.02506667 C11.6757333,6.1984 12.1517333,6.7064 12.3584,7.2984 C12.5410667,7.8304 12.5184,8.45973333 12.1237333,9.0304 C12.1824,9.1504 12.2264,9.27306667 12.2610667,9.39306667 C12.3384,9.66373333 12.3744,9.96106667 12.3744,10.2504 C12.3744,10.5397333 12.3384,10.8357333 12.2610667,11.1064 C12.2224,11.2410667 12.1717333,11.3797333 12.1010667,11.5090667 C12.2704,11.8970667 12.2090667,12.3277333 12.0984,12.6584 C11.9864,12.9837333 11.8210667,13.2864 11.6104,13.5584 C11.6650667,13.7117333 11.6877333,13.8717333 11.6877333,14.0237333 C11.6877333,14.3290667 11.5970667,14.6490667 11.4330667,14.9370667 C11.0997333,15.5224 10.4370667,15.9997333 9.49973333,15.9997333 L9.49973333,14.9997333 C10.0624,14.9997333 10.4010667,14.7277333 10.5664,14.4397333 C10.6410667,14.3144 10.6824,14.1704 10.6877333,14.0237333 C10.6877333,13.9037333 10.6517333,13.8597333 10.6477333,13.8544 L10.2930667,13.4997333 L10.6464,13.1464 C10.8477333,12.9450667 11.0530667,12.6344 11.1504,12.3410667 C11.2557333,12.0304 11.1944,11.9010667 11.1464,11.8544 L10.7930667,11.4997333 L11.1464,11.1464 C11.1890667,11.1050667 11.2517333,11.0050667 11.2997333,10.8304 C11.3477333,10.6637333 11.3744,10.4610667 11.3744,10.2504 C11.3744,10.0397333 11.3477333,9.83573333 11.2997333,9.66906667 C11.2504,9.4944 11.1890667,9.39573333 11.1464,9.3544 L10.7930667,8.99973333 L11.1464,8.6464 C11.4984,8.2944 11.5197333,7.93306667 11.4130667,7.6264 C11.2904,7.27573333 11.0170667,7.03306667 10.8424,6.9744 C10.1890667,6.75706667 9.3944,6.7504 8.73173333,6.8104 C8.36506667,6.84373333 7.9984,6.90106667 7.6384,6.98106667 L7.62373333,6.98373333 L7.62106667,6.98506667 C7.35306667,7.05173333 7.0824,6.88773333 7.0144,6.61973333 C6.99173333,6.52773333 6.99573333,6.43173333 7.0264,6.3424 C7.52906667,4.81306667 7.57973333,3.17173333 7.17173333,1.61573333 C7.14106667,1.50506667 7.0424,1.40106667 6.8824,1.36106667 L6.62106667,1.29573333 C6.31573333,1.2184 5.97973333,1.45173333 5.9544,1.8144 C5.8784,2.89573333 5.7144,3.96373333 5.47173333,4.66373333 C5.2984,5.1664 4.86906667,5.93173333 4.23306667,6.64106667 C3.59706667,7.35306667 2.7144,8.0504 1.61973333,8.34906667 C1.2264,8.45706667 0.999733333,8.74506667 0.999733333,8.9984 L0.999733333,13.0010667 C0.999733333,13.2610667 1.21973333,13.5157333 1.55306667,13.5504 C2.84506667,13.6877333 3.48906667,14.0810667 4.04373333,14.4197333 L4.08373333,14.4437333 C4.3544,14.6077333 4.5784,14.7397333 4.85973333,14.8370667 C5.13706667,14.9330667 5.4904,14.9997333 5.99973333,14.9997333 L9.49973333,14.9997333 L9.49973333,15.9997333 L5.99973333,15.9997333 C5.39573333,15.9997333 4.92906667,15.9197333 4.5344,15.7810667 C4.19306667,15.6584 3.86773333,15.4957333 3.56373333,15.2984 L3.51573333,15.2690667 C3.01173333,14.9610667 2.51706667,14.6597333 1.44773333,14.5464 C0.6824,14.4637333 -0.000266666667,13.8464 -0.000266666667,12.9997333 L-0.000266666667,8.99973333 C-0.000266666667,8.1504 0.685066667,7.56773333 1.35706667,7.38506667 C2.20506667,7.15306667 2.9304,6.5984 3.48906667,5.9744 C4.04906667,5.34773333 4.4024,4.6944 4.52773333,4.33573333 C4.72773333,3.76106667 4.88373333,2.79706667 4.95573333,1.74506667 Z" id="Fill-1"></path>
        </g>
    </g>
</svg>