<?xml version="1.0" encoding="UTF-8"?>
<svg width="16px" height="16px" viewBox="0 0 16 16" version="1.1" xmlns="http://www.w3.org/2000/svg" xmlns:xlink="http://www.w3.org/1999/xlink">
    <title>list_ol</title>
    <g id="list_ol" stroke="none" stroke-width="1" fill="none" fill-rule="evenodd">
        <g id="Group-2" transform="translate(1.228516, 0.216797)">
            <g id="Group" transform="translate(3.771484, 1.783203)" stroke="currentColor" stroke-linecap="square">
                <line x1="0.409090909" y1="0.5" x2="9.5" y2="0.5" id="Line-5"></line>
            </g>
            <g id="Group-Copy" transform="translate(3.771484, 6.783203)" stroke="currentColor" stroke-linecap="square">
                <line x1="0.409090909" y1="0.5" x2="9.5" y2="0.5" id="Line-5"></line>
            </g>
            <g id="Group-Copy-2" transform="translate(3.771484, 12.783203)" stroke="currentColor" stroke-linecap="square">
                <line x1="0.409090909" y1="0.5" x2="9.5" y2="0.5" id="Line-5"></line>
            </g>
            <path d="M2.25,4.28320312 L2.25,0 L1.50585938,0 L0.125976562,1.09863281 L0.5625,1.64355469 L1.0546875,1.24804688 C1.11328125,1.20117188 1.21777344,1.10253906 1.36816406,0.952148438 L1.36816406,0.952148438 L1.35351562,1.39746094 L1.34472656,1.8046875 L1.34472656,4.28320312 L2.25,4.28320312 Z" id="1" fill="currentColor" fill-rule="nonzero"></path>
            <path d="M3.00585938,9.78320312 L3.00585938,9.02148438 L1.13964844,9.02148438 L1.13964844,8.98046875 L1.69042969,8.46191406 C2.05761719,8.12597656 2.31396484,7.8671875 2.45947266,7.68554688 C2.60498047,7.50390625 2.71240234,7.32666016 2.78173828,7.15380859 C2.85107422,6.98095703 2.88574219,6.79589844 2.88574219,6.59863281 C2.88574219,6.37207031 2.82910156,6.17089844 2.71582031,5.99511719 C2.60253906,5.81933594 2.44335938,5.68261719 2.23828125,5.58496094 C2.03320312,5.48730469 1.796875,5.43847656 1.52929688,5.43847656 C1.32617188,5.43847656 1.14257812,5.45849609 0.978515625,5.49853516 C0.814453125,5.53857422 0.663085938,5.59570312 0.524414062,5.66992188 C0.385742188,5.74414062 0.2109375,5.87109375 0,6.05078125 L0,6.05078125 L0.4921875,6.63378906 C0.662109375,6.49316406 0.825195312,6.38476562 0.981445312,6.30859375 C1.13769531,6.23242188 1.29882812,6.19433594 1.46484375,6.19433594 C1.62304688,6.19433594 1.74951172,6.23632812 1.84423828,6.3203125 C1.93896484,6.40429688 1.98632812,6.53222656 1.98632812,6.70410156 C1.98632812,6.81933594 1.96484375,6.93066406 1.921875,7.03808594 C1.87890625,7.14550781 1.80859375,7.26220703 1.7109375,7.38818359 C1.61328125,7.51416016 1.40527344,7.74023438 1.08691406,8.06640625 L1.08691406,8.06640625 L0.01171875,9.15332031 L0.01171875,9.78320312 L3.00585938,9.78320312 Z" id="2" fill="currentColor" fill-rule="nonzero"></path>
            <path d="M1.23632812,15.8417969 C1.79101562,15.8417969 2.21777344,15.7270508 2.51660156,15.4975586 C2.81542969,15.2680664 2.96484375,14.9472656 2.96484375,14.5351562 C2.96484375,14.2519531 2.87597656,14.0268555 2.69824219,13.8598633 C2.52050781,13.6928711 2.25878906,13.5878906 1.91308594,13.5449219 L1.91308594,13.5449219 L1.91308594,13.5273438 C2.20605469,13.4570312 2.43359375,13.328125 2.59570312,13.140625 C2.7578125,12.953125 2.83886719,12.7255859 2.83886719,12.4580078 C2.83886719,12.1376953 2.71044922,11.8876953 2.45361328,11.7080078 C2.19677734,11.5283203 1.84667969,11.4384766 1.40332031,11.4384766 C0.862304688,11.4384766 0.396484375,11.5791016 0.005859375,11.8603516 L0.005859375,11.8603516 L0.424804688,12.484375 C0.602539062,12.3691406 0.764160156,12.2880859 0.909667969,12.2412109 C1.05517578,12.1943359 1.19824219,12.1708984 1.33886719,12.1708984 C1.74511719,12.1708984 1.94824219,12.3330078 1.94824219,12.6572266 C1.94824219,12.8681641 1.87158203,13.0170898 1.71826172,13.1040039 C1.56494141,13.190918 1.32226562,13.234375 0.990234375,13.234375 L0.990234375,13.234375 L0.659179688,13.234375 L0.659179688,13.9287109 L0.984375,13.9287109 C1.34375,13.9287109 1.60546875,13.9707031 1.76953125,14.0546875 C1.93359375,14.1386719 2.015625,14.28125 2.015625,14.4824219 C2.015625,14.7070312 1.94433594,14.8701172 1.80175781,14.9716797 C1.65917969,15.0732422 1.43847656,15.1240234 1.13964844,15.1240234 C0.944335938,15.1240234 0.747070312,15.0976562 0.547851562,15.0449219 C0.348632812,14.9921875 0.166015625,14.9238281 0,14.8398438 L0,14.8398438 L0,15.6103516 C0.359375,15.7646484 0.771484375,15.8417969 1.23632812,15.8417969 Z" id="3" fill="currentColor" fill-rule="nonzero"></path>
        </g>
    </g>
</svg>